<svg xmlns="http://www.w3.org/2000/svg" xmlns:xlink="http://www.w3.org/1999/xlink" width="228" height="228" viewBox="0 0 228 228"><defs><linearGradient id="b" x1=".778%" x2="98.266%" y1=".777%" y2="98.266%"><stop offset="0%" stop-color="#CD1AFF"/><stop offset="100%" stop-color="#1D80FF"/></linearGradient><path id="a" d="M0,0 L0,172.387 C0,202.924 24.755,227.679 55.292,227.679 L55.292,227.679 L227.679,227.679 L227.679,55.291 C227.679,24.754 202.925,0 172.388,0 L172.388,0 L0,0 Z"/></defs><g fill="none" fill-rule="evenodd"><mask id="c" fill="#fff"><use xlink:href="#a"/></mask><path fill="url(#b)" d="M0,0 L0,172.387 C0,202.924 24.755,227.679 55.292,227.679 L55.292,227.679 L227.679,227.679 L227.679,55.291 C227.679,24.754 202.925,0 172.388,0 L172.388,0 L0,0 Z" mask="url(#c)"/><path fill="#FFF" d="M136.1781,109.8712 L113.4961,132.2092 C112.3351,133.3522 110.8181,133.9292 109.2991,133.9292 C107.8781,133.9292 106.4541,133.4252 105.3171,132.4102 L93.0671,121.4792 C90.6021,119.2792 90.3871,115.4992 92.5861,113.0342 C94.7851,110.5692 98.5661,110.3542 101.0311,112.5532 L109.0981,119.7512 L127.7841,101.3482 C130.1371,99.0302 133.9251,99.0592 136.2431,101.4132 C138.5601,103.7662 138.5311,107.5532 136.1781,109.8712 M189.3311,95.4322 L189.3471,95.4212 L189.3281,95.4212 C188.0131,90.5742 184.0911,86.4392 178.3951,85.6342 C178.3951,85.6342 174.2561,85.0232 167.5201,84.0292 C158.9121,82.4502 147.8591,79.9562 144.0951,77.0462 C139.1581,73.2302 132.4451,61.2552 128.6341,53.9392 C126.7661,50.2252 125.6691,48.0422 125.6691,48.0422 C123.3231,43.2812 118.7191,40.8402 114.0561,40.7232 L114.0541,40.7182 L114.0521,40.7232 C109.1711,40.6022 104.2261,43.0302 101.7431,48.0422 C101.7431,48.0422 100.6471,50.2202 98.7691,53.9552 C94.7041,61.7972 87.3831,75.0202 82.6981,78.2152 C77.4871,81.7692 63.6601,84.5692 55.4721,85.9792 C51.4821,86.6112 49.1411,86.9822 49.1411,86.9822 C44.0521,87.7462 40.3921,91.1952 38.7811,95.4212 L38.7621,95.4212 L38.7771,95.4322 C36.9921,100.1262 37.7341,105.7762 41.8691,109.7762 C41.8691,109.7762 43.6111,111.4822 46.5991,114.4072 C52.8341,120.6632 63.2051,131.6572 64.8251,137.0912 C66.6541,143.2262 64.8221,157.8452 63.5381,166.1792 C63.4131,166.9652 63.3011,167.6732 63.2031,168.2962 C62.8051,170.7402 62.5181,172.2722 62.5181,172.2722 L62.5951,172.2582 C62.0901,177.0082 64.1911,181.2292 67.5261,183.9172 L67.5211,183.9332 L67.5341,183.9232 C71.4471,187.0712 77.0511,188.1102 82.1331,185.4142 C82.1331,185.4142 83.8201,184.5322 86.7661,182.9912 C94.3731,179.1102 109.2631,171.9472 115.2411,172.1092 C121.1781,172.2702 132.7721,177.4492 140.2511,181.1022 C144.6191,183.3282 147.2301,184.6592 147.2301,184.6592 C151.7971,187.0322 156.7861,186.3952 160.5741,183.9232 L160.5881,183.9332 L160.5821,183.9172 C164.7861,181.1692 167.5051,176.1592 166.5121,170.4932 C166.5121,170.4932 166.1941,168.6162 165.6391,165.3382 C164.2991,156.9052 162.0871,140.5302 164.0891,134.8942 C166.0771,129.2982 174.5851,119.8712 180.3711,113.8882 C183.8371,110.4212 185.9101,108.3492 185.9101,108.3492 C189.5781,104.7402 190.5121,99.7982 189.3311,95.4322" mask="url(#c)"/></g></svg>