<svg xmlns="http://www.w3.org/2000/svg" xmlns:xlink="http://www.w3.org/1999/xlink" width="1009" height="228" viewBox="0 0 1009 228"><defs><path id="a" d="M172.388,0 L173.302356,0.007407229 C203.417605,0.4956583 227.679,25.05937 227.679,55.291 L227.679,227.679 L55.292,227.679 L54.3776436,227.671592 C24.2623755,227.183322 0,202.61863 0,172.387 L0,0 L172.388,0 Z M114.0541,40.7182 C109.1711,40.6022 104.2261,43.0302 101.7431,48.0422 C101.7431,48.0422 101.729569,48.0690889 101.702938,48.1220148 L101.584175,48.3580519 C101.217372,49.0870889 100.229767,51.0502 98.7691,53.9552 C94.7041,61.7972 87.3831,75.0202 82.6981,78.2152 C77.4871,81.7692 63.6601,84.5692 55.4721,85.9792 C51.4821,86.6112 49.1411,86.9822 49.1411,86.9822 C44.0521,87.7462 40.3921,91.1952 38.7811,95.4212 L38.7621,95.4212 L38.7771,95.4322 C36.9921,100.1262 37.7341,105.7762 41.8691,109.7762 C41.8691,109.7762 41.8744765,109.781465 41.8851446,109.791913 L41.9329381,109.838717 C42.2715938,110.17036 43.9431,111.8072 46.5991,114.4072 C52.8341,120.6632 63.2051,131.6572 64.8251,137.0912 C66.6541,143.2262 64.8221,157.8452 63.5381,166.1792 C63.4131,166.9652 63.3011,167.6732 63.2031,168.2962 C62.8335286,170.565629 62.5596663,172.04869 62.5224287,172.248977 L62.5181,172.2722 L62.5951,172.2582 C62.0901,177.0082 64.1911,181.2292 67.5261,183.9172 L67.5211,183.9332 L67.5341,183.9232 C71.4471,187.0712 77.0511,188.1102 82.1331,185.4142 C82.1331,185.4142 83.8201,184.5322 86.7661,182.9912 C94.3731,179.1102 109.2631,171.9472 115.2411,172.1092 C121.1781,172.2702 132.7721,177.4492 140.2511,181.1022 C144.6191,183.3282 147.2301,184.6592 147.2301,184.6592 C151.7971,187.0322 156.7861,186.3952 160.5741,183.9232 L160.5881,183.9332 L160.5821,183.9172 C164.7861,181.1692 167.5051,176.1592 166.5121,170.4932 L166.508151,170.46989 C166.470081,170.245175 166.158294,168.404716 165.6391,165.3382 C164.2991,156.9052 162.0871,140.5302 164.0891,134.8942 C166.0771,129.2982 174.5851,119.8712 180.3711,113.8882 L180.616293,113.642939 L182.795515,111.463357 C182.987635,111.271225 183.17174,111.087115 183.347581,110.911274 L185.631225,108.627967 C185.814911,108.444343 185.9101,108.3492 185.9101,108.3492 C189.5781,104.7402 190.5121,99.7982 189.3311,95.4322 L189.3471,95.4212 L189.3281,95.4212 C188.0131,90.5742 184.0911,86.4392 178.3951,85.6342 C178.3951,85.6342 174.2561,85.0232 167.5201,84.0292 C158.9121,82.4502 147.8591,79.9562 144.0951,77.0462 C139.1581,73.2302 132.4451,61.2552 128.6341,53.9392 C127.440656,51.5663667 126.561917,49.8184554 126.082899,48.8654954 L125.916048,48.5335495 C125.753745,48.2106414 125.6691,48.0422 125.6691,48.0422 C123.3231,43.2812 118.7191,40.8402 114.0561,40.7232 Z"/></defs><g fill="none" fill-rule="evenodd"><use xlink:href="#a" fill="#FFF"/><path fill="#FFF" d="M136.1781 109.8712 113.4961 132.2092C112.3351 133.3522 110.8181 133.9292 109.2991 133.9292 107.8781 133.9292 106.4541 133.4252 105.3171 132.4102L93.0671 121.4792C90.6021 119.2792 90.3871 115.4992 92.5861 113.0342 94.7851 110.5692 98.5661 110.3542 101.0311 112.5532L109.0981 119.7512 127.7841 101.3482C130.1371 99.0302 133.9251 99.0592 136.2431 101.4132 138.5601 103.7662 138.5311 107.5532 136.1781 109.8712M375.3855 80.8242C370.4395 76.7262 363.2185 74.6762 353.7215 74.6762L327.9595 74.6762 327.9595 122.2972 353.7215 122.2972C363.2185 122.2972 370.4395 120.2172 375.3855 116.0522 380.3285 111.8892 382.8015 106.0352 382.8015 98.4872 382.8015 90.8122 380.3285 84.9222 375.3855 80.8242L375.3855 80.8242ZM383.3875 185.5312 357.0395 147.4732 355.4775 147.4732 327.9595 147.4732 327.9595 185.5312 296.3435 185.5312 296.3435 48.9152 355.4775 48.9152C367.5785 48.9152 378.0845 50.9342 386.9975 54.9652 395.9085 58.9992 402.7725 64.7232 407.5875 72.1392 412.3995 79.5552 414.8085 88.3382 414.8085 98.4872 414.8085 108.6362 412.3685 117.3882 407.4895 124.7372 402.6105 132.0892 395.6825 137.7152 386.7045 141.6182L417.3455 185.5312 383.3875 185.5312ZM472.1841 109.4165C467.3691 114.3625 464.8321 121.1935 464.5731 129.9085L515.7061 119.9555C514.2731 114.4905 511.3461 110.1335 506.9241 106.8795 502.4991 103.6285 497.1661 102.0005 490.9211 102.0005 483.2421 102.0005 476.9971 104.4735 472.1841 109.4165M509.9491 160.2575C514.1751 158.6325 518.1121 156.0615 521.7561 152.5475L537.9551 170.1135C528.0661 181.4325 513.6241 187.0925 494.6291 187.0925 482.7881 187.0925 472.3121 184.7835 463.2061 180.1635 454.0981 175.5475 447.0721 169.1375 442.1291 160.9405 437.1831 152.7425 434.7131 143.4415 434.7131 133.0315 434.7131 122.7545 437.1521 113.4845 442.0311 105.2205 446.9101 96.9595 453.6101 90.5195 462.1331 85.8985 470.6531 81.2815 480.2511 78.9705 490.9211 78.9705 500.9381 78.9705 510.0471 81.0865 518.2431 85.3125 526.4401 89.5435 532.9781 95.6575 537.8571 103.6595 542.7371 111.6605 545.1771 121.1265 545.1771 132.0555L467.5001 147.0825C469.7111 152.2885 473.1901 156.1925 477.9421 158.7935 482.6901 161.3975 488.5121 162.6965 495.4091 162.6965 500.8741 162.6965 505.7191 161.8855 509.9491 160.2575M884.3729 154.2074C889.4469 148.9374 891.9839 141.8804 891.9839 133.0314 891.9839 124.1844 889.4469 117.1254 884.3729 111.8564 879.2989 106.5864 872.9219 103.9524 865.2469 103.9524 857.4409 103.9524 850.9999 106.5864 845.9249 111.8564 840.8509 117.1254 838.3139 124.1844 838.3139 133.0314 838.3139 141.8804 840.8509 148.9374 845.9249 154.2074 850.9999 159.4764 857.4409 162.1114 865.2469 162.1114 872.9219 162.1114 879.2989 159.4764 884.3729 154.2074L884.3729 154.2074ZM921.8449 80.5314 921.8449 185.5314 892.7649 185.5314 892.7649 173.4314C885.2179 182.5394 874.2889 187.0924 859.9779 187.0924 850.0879 187.0924 841.1429 184.8814 833.1419 180.4564 825.1399 176.0354 818.8609 169.7224 814.3089 161.5264 809.7529 153.3294 807.4779 143.8324 807.4779 133.0314 807.4779 122.2334 809.7529 112.7344 814.3089 104.5374 818.8609 96.3404 825.1399 90.0314 833.1419 85.6054 841.1429 81.1844 850.0879 78.9704 859.9779 78.9704 873.3769 78.9704 883.8519 83.1994 891.3989 91.6564L891.3989 80.5314 921.8449 80.5314ZM964.7789 177.6269C958.1429 171.3179 954.8259 162.3739 954.8259 150.7909L954.8259 40.7179 985.2709 40.7179 985.2709 149.0349C985.2709 153.4599 986.4089 156.8759 988.6859 159.2819 990.9619 161.6909 994.1829 162.8919 998.3479 162.8919 999.9089 162.8919 1001.5009 162.6969 1003.1289 162.3069 1004.7549 161.9159 1006.0229 161.4619 1006.9349 160.9409L1008.3009 184.5549C1003.2269 186.2449 997.9579 187.0919 992.4929 187.0919 980.6509 187.0919 971.4139 183.9389 964.7789 177.6269M672.8155 80.5314 628.5125 185.5314 597.0915 185.5314 552.9835 80.5314 584.4055 80.5314 613.4845 151.9624 643.5415 80.5314 672.8155 80.5314ZM716.9213 109.4165C712.1063 114.3625 709.5693 121.1935 709.3103 129.9085L760.4433 119.9555C759.0103 114.4905 756.0833 110.1335 751.6613 106.8795 747.2363 103.6285 741.9033 102.0005 735.6583 102.0005 727.9793 102.0005 721.7343 104.4735 716.9213 109.4165M754.6863 160.2575C758.9123 158.6325 762.8493 156.0615 766.4933 152.5475L782.6923 170.1135C772.8033 181.4325 758.3613 187.0925 739.3663 187.0925 727.5253 187.0925 717.0493 184.7835 707.9433 180.1635 698.8353 175.5475 691.8093 169.1375 686.8663 160.9405 681.9203 152.7425 679.4503 143.4415 679.4503 133.0315 679.4503 122.7545 681.8893 113.4845 686.7683 105.2205 691.6473 96.9595 698.3473 90.5195 706.8703 85.8985 715.3903 81.2815 724.9883 78.9705 735.6583 78.9705 745.6753 78.9705 754.7843 81.0865 762.9803 85.3125 771.1773 89.5435 777.7153 95.6575 782.5943 103.6595 787.4743 111.6605 789.9143 121.1265 789.9143 132.0555L712.2373 147.0825C714.4483 152.2885 717.9273 156.1925 722.6793 158.7935 727.4273 161.3975 733.2493 162.6965 740.1463 162.6965 745.6113 162.6965 750.4563 161.8855 754.6863 160.2575"/></g></svg>