<svg xmlns="http://www.w3.org/2000/svg" xmlns:xlink="http://www.w3.org/1999/xlink" width="1009" height="228" viewBox="0 0 1009 228"><defs><linearGradient id="b" x1=".778%" x2="98.266%" y1=".777%" y2="98.266%"><stop offset="0%" stop-color="#CD1AFF"/><stop offset="100%" stop-color="#1D80FF"/></linearGradient><path id="a" d="M0,0 L0,172.387 C0,202.924 24.755,227.679 55.292,227.679 L55.292,227.679 L227.679,227.679 L227.679,55.291 C227.679,24.754 202.925,0 172.388,0 L172.388,0 L0,0 Z"/></defs><g fill="none" fill-rule="evenodd"><mask id="c" fill="#fff"><use xlink:href="#a"/></mask><path fill="url(#b)" d="M0,0 L0,172.387 C0,202.924 24.755,227.679 55.292,227.679 L55.292,227.679 L227.679,227.679 L227.679,55.291 C227.679,24.754 202.925,0 172.388,0 L172.388,0 L0,0 Z" mask="url(#c)"/><g transform="translate(37.867 40.718)"><path fill="#FFF" d="M98.3115971,69.1533 L75.6295971,91.4913 C74.4685971,92.6343 72.9515971,93.2113 71.4325971,93.2113 C70.0115971,93.2113 68.5875971,92.7073 67.4505971,91.6923 L55.2005971,80.7613 C52.7355971,78.5613 52.5205971,74.7813 54.7195971,72.3163 C56.9185971,69.8513 60.6995971,69.6363 63.1645971,71.8353 L71.2315971,79.0333 L89.9175971,60.6303 C92.2705971,58.3123 96.0585971,58.3413 98.3765971,60.6953 C100.693597,63.0483 100.664597,66.8353 98.3115971,69.1533 M151.464597,54.7143 L151.480597,54.7033 L151.461597,54.7033 C150.146597,49.8563 146.224597,45.7213 140.528597,44.9163 C140.528597,44.9163 136.389597,44.3053 129.653597,43.3113 C121.045597,41.7323 109.992597,39.2383 106.228597,36.3283 C101.291597,32.5123 94.5785971,20.5373 90.7675971,13.2213 C88.8995971,9.5073 87.8025971,7.3243 87.8025971,7.3243 C85.4565971,2.5633 80.8525971,0.1223 76.1895971,0.0053 L76.1875971,0.0003 L76.1855971,0.0053 C71.3045971,-0.1157 66.3595971,2.3123 63.8765971,7.3243 C63.8765971,7.3243 62.7805971,9.5023 60.9025971,13.2373 C56.8375971,21.0793 49.5165971,34.3023 44.8315971,37.4973 C39.6205971,41.0513 25.7935971,43.8513 17.6055971,45.2613 C13.6155971,45.8933 11.2745971,46.2643 11.2745971,46.2643 C6.18559709,47.0283 2.52559709,50.4773 0.914597094,54.7033 L0.895597094,54.7033 L0.910597094,54.7143 C-0.874402906,59.4083 -0.132402906,65.0583 4.00259709,69.0583 C4.00259709,69.0583 5.74459709,70.7643 8.73259709,73.6893 C14.9675971,79.9453 25.3385971,90.9393 26.9585971,96.3733 C28.7875971,102.5083 26.9555971,117.1273 25.6715971,125.4613 C25.5465971,126.2473 25.4345971,126.9553 25.3365971,127.5783 C24.9385971,130.0223 24.6515971,131.5543 24.6515971,131.5543 L24.7285971,131.5403 C24.2235971,136.2903 26.3245971,140.5113 29.6595971,143.1993 L29.6545971,143.2153 L29.6675971,143.2053 C33.5805971,146.3533 39.1845971,147.3923 44.2665971,144.6963 C44.2665971,144.6963 45.9535971,143.8143 48.8995971,142.2733 C56.5065971,138.3923 71.3965971,131.2293 77.3745971,131.3913 C83.3115971,131.5523 94.9055971,136.7313 102.384597,140.3843 C106.752597,142.6103 109.363597,143.9413 109.363597,143.9413 C113.930597,146.3143 118.919597,145.6773 122.707597,143.2053 L122.721597,143.2153 L122.715597,143.1993 C126.919597,140.4513 129.638597,135.4413 128.645597,129.7753 C128.645597,129.7753 128.327597,127.8983 127.772597,124.6203 C126.432597,116.1873 124.220597,99.8123 126.222597,94.1763 C128.210597,88.5803 136.718597,79.1533 142.504597,73.1703 C145.970597,69.7033 148.043597,67.6313 148.043597,67.6313 C151.711597,64.0223 152.645597,59.0803 151.464597,54.7143"/><path fill="#5B43B1" d="M337.518997 40.1063C332.572997 36.0083 325.351997 33.9583 315.854997 33.9583L290.092997 33.9583 290.092997 81.5793 315.854997 81.5793C325.351997 81.5793 332.572997 79.4993 337.518997 75.3343 342.461997 71.1713 344.934997 65.3173 344.934997 57.7693 344.934997 50.0943 342.461997 44.2043 337.518997 40.1063L337.518997 40.1063ZM345.520997 144.8133 319.172997 106.7553 317.610997 106.7553 290.092997 106.7553 290.092997 144.8133 258.476997 144.8133 258.476997 8.1973 317.610997 8.1973C329.711997 8.1973 340.217997 10.2163 349.130997 14.2473 358.041997 18.2813 364.905997 24.0053 369.720997 31.4213 374.532997 38.8373 376.941997 47.6203 376.941997 57.7693 376.941997 67.9183 374.501997 76.6703 369.622997 84.0193 364.743997 91.3713 357.815997 96.9973 348.837997 100.9003L379.478997 144.8133 345.520997 144.8133ZM434.317597 68.6986C429.502597 73.6446 426.965597 80.4756 426.706597 89.1906L477.839597 79.2376C476.406597 73.7726 473.479597 69.4156 469.057597 66.1616 464.632597 62.9106 459.299597 61.2826 453.054597 61.2826 445.375597 61.2826 439.130597 63.7556 434.317597 68.6986M472.082597 119.5396C476.308597 117.9146 480.245597 115.3436 483.889597 111.8296L500.088597 129.3956C490.199597 140.7146 475.757597 146.3746 456.762597 146.3746 444.921597 146.3746 434.445597 144.0656 425.339597 139.4456 416.231597 134.8296 409.205597 128.4196 404.262597 120.2226 399.316597 112.0246 396.846597 102.7236 396.846597 92.3136 396.846597 82.0366 399.285597 72.7666 404.164597 64.5026 409.043597 56.2416 415.743597 49.8016 424.266597 45.1806 432.786597 40.5636 442.384597 38.2526 453.054597 38.2526 463.071597 38.2526 472.180597 40.3686 480.376597 44.5946 488.573597 48.8256 495.111597 54.9396 499.990597 62.9416 504.870597 70.9426 507.310597 80.4086 507.310597 91.3376L429.633597 106.3646C431.844597 111.5706 435.323597 115.4746 440.075597 118.0756 444.823597 120.6796 450.645597 121.9786 457.542597 121.9786 463.007597 121.9786 467.852597 121.1676 472.082597 119.5396"/><polygon fill="#5B43B1" points="634.949 39.813 590.646 144.814 559.225 144.814 515.117 39.813 546.539 39.813 575.618 111.245 605.675 39.813"/><path fill="#5B43B1" d="M679.054797 68.6986C674.239797 73.6446 671.702797 80.4756 671.443797 89.1906L722.576797 79.2376C721.143797 73.7726 718.216797 69.4156 713.794797 66.1616 709.369797 62.9106 704.036797 61.2826 697.791797 61.2826 690.112797 61.2826 683.867797 63.7556 679.054797 68.6986M716.819797 119.5396C721.045797 117.9146 724.982797 115.3436 728.626797 111.8296L744.825797 129.3956C734.936797 140.7146 720.494797 146.3746 701.499797 146.3746 689.658797 146.3746 679.182797 144.0656 670.076797 139.4456 660.968797 134.8296 653.942797 128.4196 648.999797 120.2226 644.053797 112.0246 641.583797 102.7236 641.583797 92.3136 641.583797 82.0366 644.022797 72.7666 648.901797 64.5026 653.780797 56.2416 660.480797 49.8016 669.003797 45.1806 677.523797 40.5636 687.121797 38.2526 697.791797 38.2526 707.808797 38.2526 716.917797 40.3686 725.113797 44.5946 733.310797 48.8256 739.848797 54.9396 744.727797 62.9416 749.607797 70.9426 752.047797 80.4086 752.047797 91.3376L674.370797 106.3646C676.581797 111.5706 680.060797 115.4746 684.812797 118.0756 689.560797 120.6796 695.382797 121.9786 702.279797 121.9786 707.744797 121.9786 712.589797 121.1676 716.819797 119.5396M846.506397 113.4895C851.580397 108.2195 854.117397 101.1625 854.117397 92.3135 854.117397 83.4665 851.580397 76.4075 846.506397 71.1385 841.432397 65.8685 835.055397 63.2345 827.380397 63.2345 819.574397 63.2345 813.133397 65.8685 808.058397 71.1385 802.984397 76.4075 800.447397 83.4665 800.447397 92.3135 800.447397 101.1625 802.984397 108.2195 808.058397 113.4895 813.133397 118.7585 819.574397 121.3935 827.380397 121.3935 835.055397 121.3935 841.432397 118.7585 846.506397 113.4895L846.506397 113.4895ZM883.978397 39.8135 883.978397 144.8135 854.898397 144.8135 854.898397 132.7135C847.351397 141.8215 836.422397 146.3745 822.111397 146.3745 812.221397 146.3745 803.276397 144.1635 795.275397 139.7385 787.273397 135.3175 780.994397 129.0045 776.442397 120.8085 771.886397 112.6115 769.611397 103.1145 769.611397 92.3135 769.611397 81.5155 771.886397 72.0165 776.442397 63.8195 780.994397 55.6225 787.273397 49.3135 795.275397 44.8875 803.276397 40.4665 812.221397 38.2525 822.111397 38.2525 835.510397 38.2525 845.985397 42.4815 853.532397 50.9385L853.532397 39.8135 883.978397 39.8135ZM926.912397 136.909C920.276397 130.6 916.959397 121.656 916.959397 110.073L916.959397 0 947.404397 0 947.404397 108.317C947.404397 112.742 948.542397 116.158 950.819397 118.564 953.095397 120.973 956.316397 122.174 960.481397 122.174 962.042397 122.174 963.634397 121.979 965.262397 121.589 966.888397 121.198 968.156397 120.744 969.068397 120.223L970.434397 143.837C965.360397 145.527 960.091397 146.374 954.626397 146.374 942.784397 146.374 933.547397 143.221 926.912397 136.909"/></g></g></svg>