<svg xmlns="http://www.w3.org/2000/svg" width="975" height="232" viewBox="0 0 975 232"><g fill="none" fill-rule="evenodd" transform="translate(16 32)"><polygon fill="#FFFFFE" points="0 167.376 246.483 167.376 246.483 0 0 0"/><polygon fill="#039" points="4.74 162.595 241.744 162.595 241.744 4.59 4.74 4.59"/><polyline fill="#F9C823" points="118.192 39.017 123.193 35.367 128.194 39.017 126.29 33.114 131.371 29.465 125.109 29.465 123.193 23.491 121.276 29.471 115.019 29.465 120.095 33.114 118.192 39.017"/><polyline fill="#F9C823" points="92.311 45.97 97.312 42.32 102.31 45.97 100.41 40.067 105.487 36.418 99.225 36.418 97.31 30.438 95.393 36.424 89.135 36.418 94.211 40.067 92.311 45.97"/><polyline fill="#F9C823" points="78.375 49.417 76.459 55.404 70.201 55.397 75.277 59.047 73.375 64.949 78.375 61.3 83.376 64.949 81.473 59.047 86.549 55.397 80.292 55.397 78.375 49.417"/><polyline fill="#F9C823" points="71.429 87.148 76.427 90.797 74.527 84.895 79.603 81.245 73.345 81.245 71.429 75.265 69.513 81.258 63.252 81.245 68.331 84.895 66.428 90.797 71.429 87.148"/><polyline fill="#F9C823" points="80.292 107.171 78.375 101.19 76.459 107.177 70.201 107.171 75.277 110.82 73.375 116.723 78.375 113.066 83.376 116.723 81.473 110.82 86.549 107.171 80.292 107.171"/><polyline fill="#F9C823" points="99.264 126.143 97.348 120.17 95.435 126.15 89.174 126.143 94.25 129.793 92.351 135.695 97.351 132.046 102.349 135.695 100.449 129.793 105.525 126.143 99.264 126.143"/><polyline fill="#F9C823" points="125.112 133.019 123.196 127.038 121.283 133.025 115.022 133.019 120.098 136.668 118.198 142.571 123.199 138.921 128.197 142.571 126.294 136.668 131.373 133.019 125.112 133.019"/><polyline fill="#F9C823" points="150.96 126.143 149.047 120.17 147.128 126.15 140.873 126.143 145.946 129.793 144.046 135.695 149.047 132.046 154.048 135.695 152.142 129.793 157.221 126.143 150.96 126.143"/><polyline fill="#F9C823" points="169.939 107.171 168.02 101.19 166.1 107.177 159.846 107.171 164.925 110.82 163.019 116.723 168.02 113.066 173.021 116.723 171.114 110.82 176.194 107.171 169.939 107.171"/><polyline fill="#F9C823" points="183.069 81.173 176.808 81.173 174.888 75.193 172.976 81.18 166.715 81.173 171.794 84.823 169.893 90.725 174.888 87.069 179.889 90.725 177.99 84.823 183.069 81.173"/><polyline fill="#F9C823" points="163.018 64.871 168.019 61.221 173.021 64.871 171.114 58.968 176.194 55.325 169.939 55.325 168.019 49.345 166.1 55.332 159.845 55.325 164.924 58.968 163.018 64.871"/><polyline fill="#F9C823" points="149.119 30.444 147.206 36.431 140.945 36.418 146.018 40.074 144.118 45.976 149.126 42.32 154.12 45.976 152.22 40.074 157.3 36.418 151.032 36.418 149.119 30.444"/><path fill="#039" d="M275.996158,63.847631 L275.996158,24.9637627 L287.745974,24.9637627 L294.801713,51.4877606 L301.777226,24.9637627 L313.552949,24.9637627 L313.552949,63.847631 L306.259873,63.847631 L306.259873,33.239611 L298.541431,63.847631 L290.982605,63.847631 L283.290069,33.239611 L283.290069,63.847631 L275.996158,63.847631 M334.904855,46.4477079 L334.904855,52.2298542 C331.881325,52.2298542 329.825525,52.4780544 328.738291,52.9727835 C327.650221,53.4683483 327.107022,54.3249316 327.107022,55.5458762 C327.107022,56.4467512 327.487261,57.1813236 328.246904,57.7470864 C329.008219,58.313685 329.90993,58.5953128 330.953708,58.5953128 C332.827327,58.5953128 335.055279,57.7195086 337.637565,55.9704073 L342.543907,60.8232651 C338.459049,63.263483 334.462774,64.4835919 330.555083,64.4835919 C327.389485,64.4835919 324.751209,63.7063992 322.637746,62.1495068 C320.524284,60.5942858 319.46797,58.5953128 319.46797,56.1559307 C319.46797,52.9727835 321.13016,50.6746332 324.454538,49.2598082 C321.837154,47.8274338 320.529298,45.776648 320.529298,43.1057794 C320.529298,40.8962123 321.373346,38.9991937 323.062277,37.4172305 C324.751209,35.8344317 327.434613,35.0430323 331.111653,35.0430323 C335.232446,35.0430323 338.652929,35.9890346 341.376446,37.8802034 L336.974026,42.6285999 C335.152219,41.6207565 333.37554,41.1168348 331.642317,41.1168348 C330.404659,41.1168348 329.472027,41.3550067 328.844424,41.833022 C328.215984,42.3102016 327.9026,42.885157 327.9026,43.5570526 C327.9026,45.4841561 330.236685,46.4477079 334.904855,46.4477079 M359.545205,35.6798289 L381.214674,35.6798289 L381.214674,41.8597641 L374.318551,41.8597641 L374.318551,63.847631 L366.865859,63.847631 L366.865859,41.8597641 L359.545205,41.8597641 L359.545205,35.6798289 M411.954733,74.5628615 L404.501205,74.5628615 L404.501205,49.4712381 C404.501205,46.9616579 404.400086,45.1966784 404.197013,44.1796424 C403.993104,43.1642778 403.515925,42.336108 402.764639,41.7001471 C402.013352,41.0633505 401.053979,40.7449523 399.887354,40.7449523 C398.490079,40.7449523 397.26997,41.1435769 396.226192,41.9391548 C395.18325,42.7347326 394.50634,43.7559471 394.197134,45.0027981 C393.887928,46.2488134 393.734161,48.2778713 393.734161,51.0899716 L393.734161,63.847631 L386.280633,63.847631 L386.280633,35.6798289 L393.203497,35.6798289 L393.203497,39.8173352 C395.660429,36.634188 398.76335,35.0430323 402.513096,35.0430323 C404.687564,35.0430323 406.526084,35.5110193 408.029492,36.4486646 C409.532065,37.3854743 410.562472,38.5796768 411.119042,40.0296007 C411.676448,41.4795247 411.954733,43.582959 411.954733,46.3415751 L411.954733,74.5628615 M440.494418,49.7628942 C440.494418,52.4513123 441.139571,54.5639393 442.430714,56.1024465 C443.721021,57.6409537 445.374018,58.4106251 447.39054,58.4106251 C449.335193,58.4106251 450.966462,57.6676958 452.283511,56.1826728 C453.60056,54.6968141 454.259085,52.5131535 454.259085,49.6308551 C454.259085,47.0845045 453.631481,45.0287045 452.376273,43.4642909 C451.120229,41.8990416 449.458875,41.1168348 447.39054,41.1168348 C445.356468,41.1168348 443.699293,41.8856705 442.416507,43.4241777 C441.134557,44.9626849 440.494418,47.0753119 440.494418,49.7628942 Z M466.672439,35.6798289 L466.672439,41.8597641 L459.856543,41.8597641 C461.235433,44.210563 461.924879,46.8103978 461.924879,49.6567615 C461.924879,53.7591688 460.586102,57.2565358 457.906876,60.1471911 C455.228486,63.0386821 451.686828,64.4835919 447.284407,64.4835919 C442.987284,64.4835919 439.508302,63.1406364 436.846626,60.4522183 C434.185786,57.7646359 432.855366,54.245541 432.855366,49.8957691 C432.855366,45.581932 434.15988,42.027738 436.768071,39.2331872 C439.375427,36.4403077 442.951349,35.0430323 447.496673,35.0430323 C448.822079,35.0430323 450.352229,35.2552978 452.085452,35.6798289 L466.672439,35.6798289 L466.672439,35.6798289 Z M471.075695,35.6798289 L478.529224,35.6798289 L478.529224,50.1080346 C478.529224,53.5560959 479.01476,55.8024334 479.987505,56.8453758 C480.960249,57.8891539 482.215457,58.4106251 483.753964,58.4106251 C485.539836,58.4106251 486.856885,57.8047491 487.705947,56.5929971 C488.555009,55.3820808 488.978705,53.2209838 488.978705,50.1080346 L488.978705,35.6798289 L496.432233,35.6798289 L496.432233,48.9138322 C496.432233,52.6986769 496.016894,55.6378022 495.186218,57.7337154 C494.354705,59.8287928 492.93988,61.4784469 490.942579,62.6801706 C488.943606,63.88273 486.582778,64.4835919 483.860097,64.4835919 C480.92515,64.4835919 478.454012,63.8559879 476.446682,62.5999443 C474.440188,61.3447363 473.042912,59.67419 472.256527,57.5874694 C471.469306,55.5015846 471.075695,52.6100936 471.075695,48.9138322 L471.075695,35.6798289 M510.940665,63.847631 L499.96052,35.6798289 L507.78426,35.6798289 L513.089227,50.0553861 L514.627734,54.8555954 L515.39657,52.4421197 C515.643934,51.6465418 515.909684,50.850964 516.192983,50.0553861 L521.549763,35.6798289 L529.215557,35.6798289 L518.393358,63.847631 L518.393358,74.5628615 L510.940665,74.5628615 L510.940665,63.847631 M530.859361,35.6798289 L539.081725,35.6798289 L545.341887,48.7015666 L552.131876,35.6798289 L559.928874,35.6798289 L549.849604,54.9349861 L560.670967,74.5628615 L552.131876,74.5628615 L545.341887,61.1684055 L538.312054,74.5628615 L530.222564,74.5628615 L540.992115,54.9349861 L530.859361,35.6798289 M571.626877,50.6119563 C571.626877,52.9460414 572.218546,54.829689 573.403556,56.2612278 C574.58773,57.6936022 576.196435,58.4106251 578.230507,58.4106251 C580.228645,58.4106251 581.846543,57.6100331 583.085037,56.0096848 C584.321859,54.4101721 584.940271,52.3092448 584.940271,49.7110814 C584.940271,47.0585981 584.371165,44.9626849 583.229611,43.4241777 C582.089729,41.8856705 580.449267,41.1168348 578.310734,41.1168348 C576.452993,41.1168348 574.875208,41.8104583 573.575708,43.1993768 C572.276209,44.5874597 571.626877,47.0585981 571.626877,50.6119563 Z M571.626877,62.1236004 L571.626877,74.5628615 L564.173348,74.5628615 L564.173348,52.3894712 C564.173348,48.3931966 564.584508,45.2234205 565.405993,42.8809786 C566.229148,40.5377009 567.71835,38.6456964 569.875268,37.204965 C572.033023,35.763398 574.640379,35.0430323 577.699844,35.0430323 C582.244331,35.0430323 585.860367,36.5113415 588.547949,39.4454527 C591.236367,42.3812353 592.579323,45.9086872 592.579323,50.028644 C592.579323,54.0608533 591.284001,57.4779939 588.694195,60.280066 C586.103553,63.0829737 582.924584,64.4835919 579.15896,64.4835919 C576.665258,64.4835919 574.154842,63.6972066 571.626877,62.1236004 L571.626877,62.1236004 Z M624.089889,74.5628615 L616.63636,74.5628615 L616.63636,49.4712381 C616.63636,46.9616579 616.535242,45.1966784 616.332169,44.1796424 C616.12826,43.1642778 615.650245,42.336108 614.899795,41.7001471 C614.148508,41.0633505 613.189135,40.7449523 612.02251,40.7449523 C610.625235,40.7449523 609.405126,41.1435769 608.361348,41.9391548 C607.318405,42.7347326 606.641496,43.7559471 606.33229,45.0027981 C606.023084,46.2488134 605.868481,48.2778713 605.868481,51.0899716 L605.868481,63.847631 L598.414953,63.847631 L598.414953,35.6798289 L605.338653,35.6798289 L605.338653,39.8173352 C607.795585,36.634188 610.898506,35.0430323 614.647416,35.0430323 C616.82272,35.0430323 618.66124,35.5110193 620.164648,36.4486646 C621.667221,37.3854743 622.697628,38.5796768 623.254198,40.0296007 C623.811604,41.4795247 624.089889,43.582959 624.089889,46.3415751 L624.089889,74.5628615 M631.648714,35.6798289 L639.101407,35.6798289 L639.101407,48.4901368 C639.101407,50.8777061 639.225089,52.7429685 639.473289,54.0867597 C639.720654,55.4305509 640.282238,56.5177849 641.157207,57.3492975 C642.033011,58.1799744 643.080968,58.5953128 644.300241,58.5953128 C645.572998,58.5953128 646.674439,58.1624249 647.602892,57.2958133 C648.530509,56.4300374 649.128028,55.3779023 649.392106,54.1394082 C649.658692,52.9025855 649.790731,51.04568 649.790731,48.5695274 L649.790731,35.6798289 L657.243424,35.6798289 L657.243424,63.847631 L650.374043,63.847631 L650.374043,60.4522183 C648.976768,63.1406364 647.085599,64.4835919 644.69803,64.4835919 C642.151679,64.4835919 640.286417,63.1406364 639.101407,60.4522183 L639.101407,74.5628615 L631.648714,74.5628615 L631.648714,35.6798289 M670.770755,49.8431206 C670.770755,52.4421197 671.323982,54.5514039 672.428766,56.1684661 C673.533549,57.7871996 674.970938,58.5953128 676.73926,58.5953128 C678.436548,58.5953128 679.823796,57.8799613 680.902673,56.4467512 C681.980714,55.0152124 682.520571,52.8131665 682.520571,49.8431206 C682.520571,46.9257232 681.945615,44.7153204 680.79654,43.2119122 C679.647465,41.7093397 678.259382,40.9572178 676.633127,40.9572178 C674.935839,40.9572178 673.533549,41.7360818 672.428766,43.2913029 C671.323982,44.8473596 670.770755,47.0318559 670.770755,49.8431206 Z M686.287866,35.6798289 L692.679231,35.6798289 C691.671387,37.7314504 690.826504,40.3521775 690.146251,43.5436815 C689.465999,46.7351856 689.125037,48.9681521 689.125037,50.2409095 C689.125037,51.8847138 689.434243,54.0332755 690.05349,56.6857588 C690.672737,59.3382422 691.450765,61.7249758 692.387575,63.847631 L686.127413,63.847631 C686.039666,63.4941337 685.880049,62.9985689 685.651069,62.3617723 C685.279187,61.3012804 684.960788,60.2399528 684.695874,59.1794609 C682.520571,62.7161053 679.41765,64.4835919 675.386276,64.4835919 C671.583882,64.4835919 668.591272,62.9417419 666.408447,59.8555349 C664.223951,56.7701636 663.132538,53.1674995 663.132538,49.0475427 C663.132538,45.1574009 664.220608,41.8505715 666.394241,39.1270544 C668.57038,36.4052087 671.593075,35.0430323 675.466502,35.0430323 C679.285611,35.0430323 682.370146,36.8731957 684.722616,40.5326867 C685.041015,39.2423798 685.562486,37.6253176 686.287866,35.6798289 L686.287866,35.6798289 Z M695.729503,35.6798289 L717.398136,35.6798289 L717.398136,41.8597641 L710.502014,41.8597641 L710.502014,63.847631 L703.049321,63.847631 L703.049321,41.8597641 L695.729503,41.8597641 L695.729503,35.6798289 M727.001062,49.7628942 C727.001062,52.5574451 727.663765,54.6968141 728.990006,56.1826728 C730.316248,57.6676958 731.95086,58.4106251 733.897184,58.4106251 C735.841837,58.4106251 737.473106,57.6676958 738.790155,56.1826728 C740.107204,54.6968141 740.765729,52.5390599 740.765729,49.7110814 C740.765729,46.9524653 740.107204,44.8306457 738.790155,43.3447871 C737.473106,41.8597641 735.841837,41.1168348 733.897184,41.1168348 C731.95086,41.1168348 730.316248,41.8597641 728.990006,43.3447871 C727.663765,44.8306457 727.001062,46.9691791 727.001062,49.7628942 Z M719.36201,49.365941 C719.36201,46.8906242 719.971229,44.4938623 721.192173,42.1781624 C722.411447,39.8607911 724.140491,38.0924689 726.376801,36.8731957 C728.613945,35.6522511 731.11099,35.0430323 733.869606,35.0430323 C738.131631,35.0430323 741.623984,36.4269367 744.346665,39.1939097 C747.069346,41.9608827 748.431523,45.4582497 748.431523,49.6835036 C748.431523,53.9455279 747.056811,57.4779939 744.307387,60.280066 C741.557128,63.0829737 738.096532,64.4835919 733.923926,64.4835919 C731.341641,64.4835919 728.879695,63.9002795 726.536418,62.7336549 C724.19314,61.5661945 722.411447,59.8555349 721.192173,57.6008405 C719.971229,55.3469818 719.36201,52.600901 719.36201,49.365941 L719.36201,49.365941 Z M759.623933,50.5325657 C759.623933,53.1850491 760.318392,55.2224638 761.706475,56.6456456 C763.093722,58.0704989 764.786832,58.7808362 766.785805,58.7808362 C768.783942,58.7808362 770.49878,58.0345641 771.930319,56.5395129 C773.363529,55.046133 774.079716,52.955234 774.079716,50.2676516 C774.079716,47.5616841 773.381079,45.4666066 771.984639,43.9815836 C770.587364,42.4965607 768.915981,41.7536313 766.971328,41.7536313 C764.707441,41.7536313 762.917391,42.5717729 761.600342,44.2072202 C760.282457,45.8426676 759.623933,47.9511161 759.623933,50.5325657 Z M755.061895,24.9637627 L778.853184,24.9637627 L778.853184,31.1445336 L765.56486,31.1445336 C767.068269,32.5409733 769.605427,34.4329778 773.17717,36.8197115 C775.458607,38.3590543 777.084861,39.6710893 778.057606,40.759159 C779.029514,41.8455574 779.808378,43.2077337 780.391691,44.8431811 C780.975003,46.4786285 781.266659,48.189288 781.266659,49.9751598 C781.266659,53.9547205 780.047386,57.366847 777.607168,60.2140464 C775.16695,63.06041 771.603564,64.4835919 766.917844,64.4835919 C763.717148,64.4835919 761.16244,63.8910869 759.252886,62.706077 C757.343332,61.5219028 755.729613,59.7845012 754.411728,57.4947077 C753.094679,55.20575 752.436154,52.600901 752.436154,49.6835036 C752.436154,46.2889266 753.408063,43.3055096 755.353552,40.7315812 C757.298205,38.1593242 759.809456,36.6174742 762.886471,36.1035242 C760.905883,34.7070845 759.571284,33.7343401 758.881003,33.1861268 L755.061895,30.2152452 L755.061895,24.9637627 L755.061895,24.9637627 Z M795.828576,32.230932 L799.488902,24.300224 L807.843306,24.300224 L800.549394,32.230932 L795.828576,32.230932 Z M793.123444,49.7628942 C793.123444,52.5574451 793.786982,54.6968141 795.111553,56.1826728 C796.43863,57.6676958 798.074077,58.4106251 800.019566,58.4106251 C801.964219,58.4106251 803.595488,57.6676958 804.912537,56.1826728 C806.229586,54.6968141 806.888111,52.5390599 806.888111,49.7110814 C806.888111,46.9524653 806.229586,44.8306457 804.912537,43.3447871 C803.595488,41.8597641 801.964219,41.1168348 800.019566,41.1168348 C798.074077,41.1168348 796.43863,41.8597641 795.111553,43.3447871 C793.786982,44.8306457 793.123444,46.9691791 793.123444,49.7628942 Z M785.484392,49.365941 C785.484392,46.8906242 786.093611,44.4938623 787.314555,42.1781624 C788.533829,39.8607911 790.262873,38.0924689 792.500018,36.8731957 C794.736327,35.6522511 797.234208,35.0430323 799.991988,35.0430323 C804.254013,35.0430323 807.746366,36.4269367 810.469047,39.1939097 C813.191728,41.9608827 814.553905,45.4582497 814.553905,49.6835036 C814.553905,53.9455279 813.179193,57.4779939 810.429769,60.280066 C807.680346,63.0829737 804.218914,64.4835919 800.046308,64.4835919 C797.464023,64.4835919 795.002077,63.9002795 792.6588,62.7336549 C790.315522,61.5661945 788.533829,59.8555349 787.314555,57.6008405 C786.093611,55.3469818 785.484392,52.600901 785.484392,49.365941 L785.484392,49.365941 Z M816.251193,35.6798289 L837.923169,35.6798289 L837.923169,41.8597641 L831.028718,41.8597641 L831.028718,63.847631 L823.571847,63.847631 L823.571847,41.8597641 L816.251193,41.8597641 L816.251193,35.6798289 M868.659885,74.5628615 L861.205521,74.5628615 L861.205521,49.4712381 C861.205521,46.9616579 861.105238,45.1966784 860.904672,44.1796424 C860.69575,43.1642778 860.219406,42.336108 859.475641,41.7001471 C858.723519,41.0633505 857.762474,40.7449523 856.592507,40.7449523 C855.196903,40.7449523 853.976794,41.1435769 852.93218,41.9391548 C851.887566,42.7347326 851.210656,43.7559471 850.901451,45.0027981 C850.592245,46.2488134 850.441821,48.2778713 850.441821,51.0899716 L850.441821,63.847631 L842.987457,63.847631 L842.987457,35.6798289 L849.906978,35.6798289 L849.906978,39.8173352 C852.36391,36.634188 855.472681,35.0430323 859.216577,35.0430323 C861.39773,35.0430323 863.23625,35.5110193 864.732137,36.4486646 C866.236381,37.3854743 867.272638,38.5796768 867.824194,40.0296007 C868.384107,41.4795247 868.659885,43.582959 868.659885,46.3415751 L868.659885,74.5628615 M882.106154,49.7628942 C882.106154,52.4513123 882.757993,54.5639393 884.044957,56.1024465 C885.340278,57.6409537 886.98659,58.4106251 889.008962,58.4106251 C890.947765,58.4106251 892.58572,57.6676958 893.897755,56.1826728 C895.218147,54.6968141 895.878342,52.5131535 895.878342,49.6308551 C895.878342,47.0845045 895.243217,45.0287045 893.989681,43.4642909 C892.736144,41.8990416 891.073119,41.1168348 889.008962,41.1168348 C886.969876,41.1168348 885.315208,41.8856705 884.028244,43.4241777 C882.749636,44.9626849 882.106154,47.0753119 882.106154,49.7628942 Z M908.288354,35.6798289 L908.288354,41.8597641 L901.469115,41.8597641 C902.848006,44.210563 903.541629,46.8103978 903.541629,49.6567615 C903.541629,53.7591688 902.204524,57.2565358 899.521955,60.1471911 C896.839387,63.0386821 893.304414,64.4835919 888.900322,64.4835919 C884.60487,64.4835919 881.120039,63.1406364 878.462541,60.4522183 C875.805044,57.7646359 874.467938,54.245541 874.467938,49.8957691 C874.467938,45.581932 875.771616,42.027738 878.378972,39.2331872 C880.994685,36.4403077 884.563086,35.0430323 889.109245,35.0430323 C890.437994,35.0430323 891.967308,35.2552978 893.697189,35.6798289 L908.288354,35.6798289 L908.288354,35.6798289 Z M939,74.5628615 L931.545636,74.5628615 L931.545636,49.4712381 C931.545636,46.9616579 931.445353,45.1966784 931.244787,44.1796424 C931.035864,43.1642778 930.559521,42.336108 929.815755,41.7001471 C929.063634,41.0633505 928.102589,40.7449523 926.932621,40.7449523 C925.537017,40.7449523 924.316908,41.1435769 923.272295,41.9391548 C922.227681,42.7347326 921.550771,43.7559471 921.241565,45.0027981 C920.93236,46.2488134 920.781935,48.2778713 920.781935,51.0899716 L920.781935,63.847631 L913.327571,63.847631 L913.327571,35.6798289 L920.247093,35.6798289 L920.247093,39.8173352 C922.704025,36.634188 925.812795,35.0430323 929.556691,35.0430323 C931.737845,35.0430323 933.576365,35.5110193 935.072252,36.4486646 C936.576496,37.3854743 937.612753,38.5796768 938.164309,40.0296007 C938.724222,41.4795247 939,43.582959 939,46.3415751 L939,74.5628615 M273.423901,100.862894 L295.092534,100.862894 L295.092534,107.043665 L288.197247,107.043665 L288.197247,129.031532 L280.744554,129.031532 L280.744554,107.043665 L273.423901,107.043665 L273.423901,100.862894 M325.834264,139.746762 L318.380736,139.746762 L318.380736,114.655139 C318.380736,112.144723 318.279617,110.380579 318.075709,109.363543 C317.8718,108.348179 317.394621,107.520009 316.64417,106.884048 C315.892048,106.247252 314.93351,105.928853 313.76605,105.928853 C312.368775,105.928853 311.148666,106.327478 310.104888,107.123056 C309.061945,107.918634 308.385871,108.939848 308.076666,110.186699 C307.76746,111.432714 307.612857,113.461772 307.612857,116.273873 L307.612857,129.031532 L300.159329,129.031532 L300.159329,100.862894 L307.082193,100.862894 L307.082193,105.001236 C309.539961,101.818089 312.642046,100.226933 316.391791,100.226933 C318.566259,100.226933 320.405615,100.69492 321.908188,101.632566 C323.41076,102.569375 324.442003,103.763578 324.998573,105.213502 C325.555979,106.663426 325.834264,108.76686 325.834264,111.525476 L325.834264,139.746762 M356.892722,101.499691 L355.354215,107.759017 C353.355242,107.123056 351.499172,106.804657 349.784334,106.804657 C346.530153,106.804657 343.834214,107.711382 341.694009,109.52316 C339.555476,111.335774 338.484955,113.470965 338.484955,115.928732 C338.484955,117.538273 339.050718,118.806016 340.18308,119.735305 C341.31377,120.662922 343.339485,121.498613 346.256046,122.241542 C349.775141,123.143253 352.321492,124.300685 353.895098,125.716346 C355.46954,127.130335 356.255925,129.084181 356.255925,131.577047 C356.255925,134.318113 355.182062,136.483389 353.033501,138.07538 C350.884939,139.666536 348.06866,140.46295 344.5855,140.46295 C343.541722,140.46295 341.880368,140.339267 339.598931,140.091067 L341.137439,133.67296 C342.622462,134.044007 343.86012,134.22953 344.85125,134.22953 C345.965226,134.22953 346.897857,133.995537 347.649143,133.526714 C348.40043,133.057891 348.77649,132.390174 348.77649,131.524398 C348.77649,130.710435 348.444721,130.070296 347.781182,129.601473 C347.118479,129.132651 345.86745,128.713134 344.028094,128.341251 C339.661608,127.422827 336.504368,125.888498 334.559715,123.739101 C332.614226,121.591375 331.642317,119.09433 331.642317,116.24713 C331.642317,113.541163 332.388589,110.915422 333.882805,108.369071 C335.377856,105.82272 337.464577,103.829597 340.142966,102.388866 C342.822192,100.947299 345.86745,100.226933 349.280412,100.226933 C352.162711,100.226933 354.699869,100.651464 356.892722,101.499691 M376.864902,129.031532 L376.864902,90.1476637 L405.696243,90.1476637 L405.696243,96.7253878 L384.716219,96.7253878 L384.716219,105.346377 L404.237126,105.346377 L404.237126,111.897359 L384.716219,111.897359 L384.716219,122.479714 L406.439172,122.479714 L406.439172,129.031532 L376.864902,129.031532 M412.273131,100.862894 L419.72666,100.862894 L419.72666,115.291936 C419.72666,118.739997 420.212196,120.986334 421.18494,122.029277 C422.156849,123.073055 423.412893,123.594526 424.9514,123.594526 C426.737272,123.594526 428.054321,122.98865 428.903383,121.776898 C429.751609,120.565982 430.17614,118.404885 430.17614,115.291936 L430.17614,100.862894 L437.629669,100.862894 L437.629669,114.097733 C437.629669,117.882578 437.21433,120.821703 436.383653,122.917616 C435.552141,125.012694 434.137316,126.662348 432.140014,127.864072 C430.141041,129.066631 427.780214,129.667493 425.057533,129.667493 C422.12175,129.667493 419.650612,129.039889 417.644118,127.783845 C415.637623,126.528637 414.240348,124.858091 413.453127,122.77137 C412.666742,120.685486 412.273131,117.793995 412.273131,114.097733 L412.273131,100.862894 M451.342523,115.795857 C451.342523,118.129942 451.934192,120.01359 453.119202,121.445129 C454.303376,122.877503 455.912917,123.594526 457.946154,123.594526 C459.944291,123.594526 461.563024,122.793934 462.800683,121.193586 C464.038341,119.594073 464.656753,117.493146 464.656753,114.894982 C464.656753,112.242499 464.086811,110.146586 462.946093,108.608079 C461.80621,107.069572 460.165749,106.300736 458.02638,106.300736 C456.169474,106.300736 454.59169,106.994359 453.291354,108.383278 C451.991855,109.771361 451.342523,112.242499 451.342523,115.795857 Z M451.342523,127.307501 L451.342523,139.746762 L443.888995,139.746762 L443.888995,117.573372 C443.888995,113.577098 444.300155,110.407322 445.122475,108.06488 C445.944795,105.721602 447.433996,103.829597 449.590915,102.388866 C451.749505,100.947299 454.356861,100.226933 457.416325,100.226933 C461.959978,100.226933 465.576013,101.695242 468.263595,104.629354 C470.952013,107.565136 472.294969,111.092588 472.294969,115.212545 C472.294969,119.244754 471.000483,122.661059 468.409841,125.463967 C465.819199,128.266039 462.641066,129.667493 458.875442,129.667493 C456.380904,129.667493 453.871324,128.881108 451.342523,127.307501 L451.342523,127.307501 Z M480.438778,100.862894 L487.54633,100.862894 C485.23063,105.690681 484.072362,110.642151 484.072362,115.716467 C484.072362,118.61715 484.589655,120.685486 485.624241,121.923144 C486.658826,123.160802 487.883114,123.779214 489.297939,123.779214 C490.269847,123.779214 491.123088,123.479201 491.85766,122.877503 C492.590561,122.276641 493.063562,121.534548 493.275828,120.649551 C493.488093,119.766225 493.594226,118.412406 493.594226,116.592271 L493.594226,108.050673 L501.047755,108.050673 L501.047755,116.592271 C501.047755,118.342208 501.148873,119.677642 501.352782,120.596902 C501.555855,121.516162 502.033034,122.276641 502.785156,122.877503 C503.535607,123.479201 504.389683,123.779214 505.344042,123.779214 C506.829901,123.779214 508.071738,123.13406 509.070389,121.842918 C510.069875,120.552611 510.568783,118.412406 510.568783,115.424811 C510.568783,113.409124 510.268769,111.048297 509.667908,108.343165 C509.06621,105.637197 508.208791,103.144331 507.094815,100.862894 L514.203203,100.862894 C515.192661,102.507534 516.107743,104.75805 516.948448,107.613606 C517.788317,110.469998 518.207834,113.090725 518.207834,115.477459 C518.207834,119.614965 517.111408,123.014557 514.918554,125.676232 C512.726537,128.337073 509.844238,129.667493 506.273331,129.667493 C501.992921,129.667493 499.013683,127.696098 497.333944,123.752472 C495.636655,127.696098 492.648224,129.667493 488.369486,129.667493 C484.779357,129.667493 481.89288,128.332894 479.70922,125.662026 C477.525559,122.992829 476.434146,119.597416 476.434146,115.477459 C476.434146,113.090725 476.852828,110.469998 477.693533,107.613606 C478.533402,104.75805 479.448484,102.507534 480.438778,100.862894 M520.011256,100.862894 L559.027999,100.862894 L559.027999,107.043665 L551.546893,107.043665 L551.546893,129.031532 L544.0942,129.031532 L544.0942,107.043665 L534.944219,107.043665 L534.944219,129.031532 L527.49069,129.031532 L527.49069,107.043665 L520.011256,107.043665 L520.011256,100.862894 M568.52312,115.027022 C568.52312,117.626021 569.075512,119.735305 570.180296,121.352367 C571.285915,122.971101 572.722468,123.779214 574.491626,123.779214 C576.188914,123.779214 577.576161,123.063862 578.655038,121.630652 C579.73308,120.199113 580.272101,117.997068 580.272101,115.027022 C580.272101,112.109624 579.697981,109.899221 578.548906,108.395813 C577.398995,106.893241 576.011748,106.141119 574.384657,106.141119 C572.687369,106.141119 571.285915,106.919983 570.180296,108.475204 C569.075512,110.031261 568.52312,112.214921 568.52312,115.027022 Z M584.039396,100.862894 L590.431597,100.862894 C589.423753,102.915351 588.57887,105.536078 587.897781,108.727583 C587.217529,111.919087 586.877403,114.152053 586.877403,115.424811 C586.877403,117.068615 587.186608,119.217176 587.80502,121.86966 C588.424267,124.522143 589.202295,126.908877 590.139105,129.031532 L583.879779,129.031532 C583.791196,128.678035 583.632414,128.18247 583.403435,127.545673 C583.030717,126.485181 582.712318,125.423854 582.44824,124.363362 C580.272101,127.900006 577.170016,129.667493 573.137806,129.667493 C569.336248,129.667493 566.343638,128.125643 564.159977,125.039436 C561.976317,121.954065 560.884069,118.351401 560.884069,114.231444 C560.884069,110.341302 561.972138,107.034472 564.146606,104.310955 C566.32191,101.58911 569.344605,100.226933 573.218033,100.226933 C577.037141,100.226933 580.122512,102.057097 582.474147,105.716588 C582.792545,104.426281 583.314016,102.809219 584.039396,100.862894 L584.039396,100.862894 Z M602.261639,95.8771614 L608.679746,95.8771614 L608.679746,89.484125 L602.261639,89.484125 L602.261639,95.8771614 Z M596.108446,129.031532 L603.561138,129.031532 L603.561138,100.862894 L596.108446,100.862894 L596.108446,129.031532 Z M590.855292,95.8771614 L597.248328,95.8771614 L597.248328,89.484125 L590.855292,89.484125 L590.855292,95.8771614 Z M611.06648,100.862894 L618.520008,100.862894 L618.520008,110.623765 L627.219552,100.862894 L636.316884,100.862894 L624.991599,112.799069 L637.192689,129.031532 L628.465567,129.031532 L620.217297,117.784802 L618.520008,119.589059 L618.520008,129.031532 L611.06648,129.031532 L611.06648,100.862894 M650.109129,97.4148329 L653.769456,89.484125 L662.123859,89.484125 L654.829948,97.4148329 L650.109129,97.4148329 Z M667.031037,139.746762 L659.577509,139.746762 L659.577509,114.655139 C659.577509,112.144723 659.47639,110.380579 659.273317,109.363543 C659.068573,108.348179 658.591393,107.520009 657.840943,106.884048 C657.088821,106.247252 656.130283,105.928853 654.962823,105.928853 C653.566383,105.928853 652.346274,106.327478 651.302496,107.123056 C650.258718,107.918634 649.582644,108.939848 649.273438,110.186699 C648.964233,111.432714 648.80963,113.461772 648.80963,116.273873 L648.80963,129.031532 L641.356101,129.031532 L641.356101,100.862894 L648.278966,100.862894 L648.278966,105.001236 C650.736733,101.818089 653.839654,100.226933 657.588564,100.226933 C659.763868,100.226933 661.602388,100.69492 663.105796,101.632566 C664.607533,102.569375 665.638776,103.763578 666.195346,105.213502 C666.752752,106.663426 667.031037,108.76686 667.031037,111.525476 L667.031037,139.746762 L667.031037,139.746762 Z M698.089495,101.499691 L696.550987,107.759017 C694.55285,107.123056 692.695945,106.804657 690.981107,106.804657 C687.727761,106.804657 685.030986,107.711382 682.890782,109.52316 C680.752248,111.335774 679.681728,113.470965 679.681728,115.928732 C679.681728,117.538273 680.247491,118.806016 681.379852,119.735305 C682.510542,120.662922 684.536257,121.498613 687.452819,122.241542 C690.971914,123.143253 693.518265,124.300685 695.091871,125.716346 C696.666313,127.130335 697.452698,129.084181 697.452698,131.577047 C697.452698,134.318113 696.378835,136.483389 694.230273,138.07538 C692.081712,139.666536 689.265433,140.46295 685.782273,140.46295 C684.738495,140.46295 683.077141,140.339267 680.79654,140.091067 L682.334211,133.67296 C683.82007,134.044007 685.056893,134.22953 686.048022,134.22953 C687.161999,134.22953 688.09463,133.995537 688.845916,133.526714 C689.597202,133.057891 689.973263,132.390174 689.973263,131.524398 C689.973263,130.710435 689.641494,130.070296 688.978791,129.601473 C688.316088,129.132651 687.064223,128.713134 685.224867,128.341251 C680.858381,127.422827 677.70114,125.888498 675.756487,123.739101 C673.810999,121.591375 672.83909,119.09433 672.83909,116.24713 C672.83909,113.541163 673.586198,110.915422 675.080413,108.369071 C676.574629,105.82272 678.661349,103.829597 681.339739,102.388866 C684.018965,100.947299 687.064223,100.226933 690.477185,100.226933 C693.359483,100.226933 695.896641,100.651464 698.089495,101.499691 M728.167686,129.031532 L728.167686,90.1476637 L756.998192,90.1476637 L756.998192,96.7253878 L735.991426,96.7253878 L735.991426,105.346377 L755.539911,105.346377 L755.539911,111.897359 L735.991426,111.897359 L735.991426,122.479714 L757.741121,122.479714 L757.741121,129.031532 L728.167686,129.031532 Z M712.280364,97.0437861 L716.524003,90.1476637 L726.416914,90.1476637 L717.691464,97.0437861 L712.280364,97.0437861 L712.280364,97.0437861 Z M772.090772,129.031532 L760.738745,100.862894 L768.562484,100.862894 L773.867451,115.239287 L775.405958,120.039496 C775.812104,118.820223 776.067825,118.015453 776.173958,117.626021 C776.422158,116.830443 776.687908,116.034865 776.970372,115.239287 L782.327987,100.862894 L789.992945,100.862894 L778.800535,129.031532 L772.090772,129.031532 M796.729451,100.862894 L803.837839,100.862894 C801.521303,105.690681 800.363871,110.642151 800.363871,115.716467 C800.363871,118.61715 800.881164,120.685486 801.914913,121.923144 C802.949499,123.160802 804.173786,123.779214 805.589447,123.779214 C806.561356,123.779214 807.413761,123.479201 808.148333,122.877503 C808.88207,122.276641 809.354235,121.534548 809.566501,120.649551 C809.778766,119.766225 809.884899,118.412406 809.884899,116.592271 L809.884899,108.050673 L817.338427,108.050673 L817.338427,116.592271 C817.338427,118.342208 817.439546,119.677642 817.643455,120.596902 C817.847363,121.516162 818.324543,122.276641 819.075829,122.877503 C819.827115,123.479201 820.680356,123.779214 821.635551,123.779214 C823.120574,123.779214 824.36241,123.13406 825.361897,121.842918 C826.360548,120.552611 826.860291,118.412406 826.860291,115.424811 C826.860291,113.409124 826.559442,111.048297 825.959416,108.343165 C825.357718,105.637197 824.499464,103.144331 823.386323,100.862894 L830.493876,100.862894 C831.479991,102.507534 832.399251,104.75805 833.243299,107.613606 C834.07899,110.469998 834.496836,113.090725 834.496836,115.477459 C834.496836,119.614965 833.40208,123.014557 831.21257,125.676232 C829.014702,128.337073 826.135747,129.667493 822.564003,129.667493 C818.28443,129.667493 815.305191,127.696098 813.625452,123.752472 C811.928163,127.696098 808.938897,129.667493 804.660159,129.667493 C801.07003,129.667493 798.183553,128.332894 796.000728,125.662026 C793.817067,122.992829 792.724819,119.597416 792.724819,115.477459 C792.724819,113.090725 793.144336,110.469998 793.985041,107.613606 C794.824911,104.75805 795.739157,102.507534 796.729451,100.862894 M846.246652,114.946795 C846.246652,117.635213 846.898491,119.74784 848.185455,121.286347 C849.480776,122.824855 851.127087,123.594526 853.14946,123.594526 C855.088263,123.594526 856.726217,122.851597 858.038252,121.366574 C859.358644,119.880715 860.01884,117.697054 860.01884,114.814756 C860.01884,112.268405 859.383715,110.212605 858.130178,108.648192 C856.876642,107.082943 855.213617,106.300736 853.14946,106.300736 C851.110374,106.300736 849.455705,107.069572 848.168741,108.608079 C846.890134,110.146586 846.246652,112.259213 846.246652,114.946795 Z M872.428852,100.862894 L872.428852,107.043665 L865.609613,107.043665 C866.988503,109.394464 867.682127,111.994299 867.682127,114.840662 C867.682127,118.94307 866.345021,122.440437 863.662453,125.331092 C860.979885,128.222583 857.444912,129.667493 853.04082,129.667493 C848.745368,129.667493 845.260536,128.324537 842.603039,125.636119 C839.945541,122.948537 838.608436,119.429442 838.608436,115.07967 C838.608436,110.765833 839.912114,107.211639 842.51947,104.417088 C845.126826,101.624209 848.703583,100.226933 853.249743,100.226933 C854.578491,100.226933 856.107806,100.439199 857.837686,100.862894 L872.428852,100.862894 L872.428852,100.862894 Z M903.140498,139.746762 L895.686133,139.746762 L895.686133,114.655139 C895.686133,112.144723 895.585851,110.380579 895.385285,109.363543 C895.176362,108.348179 894.700018,107.520009 893.947896,106.884048 C893.204131,106.247252 892.243086,105.928853 891.073119,105.928853 C889.677515,105.928853 888.457406,106.327478 887.412792,107.123056 C886.368178,107.918634 885.691269,108.939848 885.382063,110.186699 C885.072857,111.432714 884.922433,113.461772 884.922433,116.273873 L884.922433,129.031532 L877.468069,129.031532 L877.468069,100.862894 L884.387591,100.862894 L884.387591,105.001236 C886.844522,101.818089 889.953293,100.226933 893.697189,100.226933 C895.878342,100.226933 897.716863,100.69492 899.21275,101.632566 C900.716994,102.569375 901.75325,103.763578 902.304807,105.213502 C902.86472,106.663426 903.140498,108.76686 903.140498,111.525476 L903.140498,139.746762 M934.203133,101.499691 L932.665462,107.759017 C930.66816,107.123056 928.804569,106.804657 927.091403,106.804657 C923.840565,106.804657 921.141283,107.711382 919.001913,109.52316 C916.862544,111.335774 915.79286,113.470965 915.79286,115.928732 C915.79286,117.538273 916.36113,118.806016 917.489313,119.735305 C918.625852,120.662922 920.648225,121.498613 923.564787,122.241542 C927.083046,123.143253 929.631903,124.300685 931.203003,125.716346 C932.774102,127.130335 933.568008,129.084181 933.568008,131.577047 C933.568008,134.318113 932.489967,136.483389 930.342241,138.07538 C928.194515,139.666536 925.378236,140.46295 921.893404,140.46295 C920.848791,140.46295 919.185765,140.339267 916.904329,140.091067 L918.450357,133.67296 C919.929531,134.044007 921.166353,134.22953 922.160826,134.22953 C923.272295,134.22953 924.208269,133.995537 924.960391,133.526714 C925.712512,133.057891 926.088573,132.390174 926.088573,131.524398 C926.088573,130.710435 925.754297,130.070296 925.094101,129.601473 C924.425548,129.132651 923.180369,128.713134 921.333491,128.341251 C916.971184,127.422827 913.812272,125.888498 911.865112,123.739101 C909.926309,121.591375 908.94855,119.09433 908.94855,116.24713 C908.94855,113.541163 909.700672,110.915422 911.188202,108.369071 C912.684089,105.82272 914.773317,103.829597 917.447528,102.388866 C920.130096,100.947299 923.180369,100.226933 926.589988,100.226933 C929.473122,100.226933 932.005266,100.651464 934.203133,101.499691"/></g></svg>