<svg xmlns="http://www.w3.org/2000/svg" width="975" height="232" viewBox="0 0 975 232"><g fill="none" fill-rule="evenodd" transform="translate(16 16)"><polygon fill="#FFFFFE" points="0 200 294.786 200 294.786 0 0 0"/><polygon fill="#039" points="5.669 194.287 289.118 194.287 289.118 5.485 5.669 5.485"/><polyline fill="#F9C823" points="141.354 46.622 147.335 42.261 153.316 46.622 151.04 39.569 157.115 35.208 149.626 35.208 147.335 28.07 145.043 35.216 137.559 35.208 143.63 39.569 141.354 46.622"/><polyline fill="#F9C823" points="110.402 54.93 116.382 50.569 122.36 54.93 120.087 47.877 126.159 43.516 118.67 43.516 116.379 36.37 114.088 43.524 106.603 43.516 112.673 47.877 110.402 54.93"/><polyline fill="#F9C823" points="93.735 59.049 91.443 66.203 83.959 66.195 90.03 70.556 87.754 77.609 93.735 73.248 99.715 77.609 97.44 70.556 103.51 66.195 96.026 66.195 93.735 59.049"/><polyline fill="#F9C823" points="85.427 104.134 91.405 108.495 89.132 101.443 95.203 97.081 87.719 97.081 85.427 89.935 83.135 97.097 75.647 97.081 81.722 101.443 79.446 108.495 85.427 104.134"/><polyline fill="#F9C823" points="96.026 128.06 93.735 120.914 91.443 128.068 83.959 128.06 90.03 132.421 87.754 139.474 93.735 135.105 99.715 139.474 97.44 132.421 103.51 128.06 96.026 128.06"/><polyline fill="#F9C823" points="118.717 150.731 116.425 143.593 114.138 150.739 106.65 150.731 112.72 155.092 110.449 162.145 116.429 157.784 122.406 162.145 120.134 155.092 126.205 150.731 118.717 150.731"/><polyline fill="#F9C823" points="149.63 158.946 147.339 151.8 145.051 158.954 137.563 158.946 143.634 163.307 141.362 170.36 147.343 165.999 153.319 170.36 151.044 163.307 157.118 158.946 149.63 158.946"/><polyline fill="#F9C823" points="180.544 150.731 178.256 143.593 175.96 150.739 168.48 150.731 174.547 155.092 172.275 162.145 178.256 157.784 184.237 162.145 181.957 155.092 188.032 150.731 180.544 150.731"/><polyline fill="#F9C823" points="203.243 128.06 200.947 120.914 198.651 128.068 191.171 128.06 197.246 132.421 194.966 139.474 200.947 135.105 206.928 139.474 204.648 132.421 210.722 128.06 203.243 128.06"/><polyline fill="#F9C823" points="218.945 96.995 211.457 96.995 209.161 89.849 206.874 97.003 199.386 96.995 205.46 101.356 203.188 108.409 209.161 104.04 215.142 108.409 212.87 101.356 218.945 96.995"/><polyline fill="#F9C823" points="194.965 77.515 200.946 73.154 206.928 77.515 204.648 70.462 210.722 66.109 203.242 66.109 200.946 58.963 198.651 66.117 191.17 66.109 197.245 70.462 194.965 77.515"/><polyline fill="#F9C823" points="178.342 36.378 176.054 43.532 168.566 43.516 174.633 47.885 172.361 54.938 178.35 50.569 184.323 54.938 182.051 47.885 188.126 43.516 180.63 43.516 178.342 36.378"/><path fill="#039" fill-rule="nonzero" d="M359.719455,45.8792585 L368.828341,48.7674421 C367.431857,53.8455671 365.109673,57.6171329 361.861789,60.0821394 C358.613905,62.5471459 354.493218,63.7796491 349.499728,63.7796491 C343.321343,63.7796491 338.243218,61.6690534 334.265353,57.447862 C330.287489,53.2266706 328.298556,47.4555931 328.298556,40.1346296 C328.298556,32.390489 330.298068,26.3760847 334.297091,22.0914167 C338.296115,17.8067487 343.55409,15.6644148 350.071017,15.6644148 C355.762749,15.6644148 360.385959,17.3465437 363.940646,20.7108015 C366.056532,22.6997338 367.643446,25.5561791 368.701388,29.2801374 L359.402072,31.5018171 C358.851942,29.0897077 357.704074,27.1854109 355.958468,25.7889265 C354.212863,24.3924421 352.091688,23.6941999 349.594943,23.6941999 C346.14605,23.6941999 343.347791,24.9319929 341.200168,27.4075788 C339.052544,29.8831648 337.978732,33.8927676 337.978732,39.4363874 C337.978732,45.3185489 339.036675,49.508002 341.15256,52.0047468 C343.268446,54.5014916 346.019097,55.749864 349.404513,55.749864 C351.901258,55.749864 354.048882,54.956407 355.847384,53.3694929 C357.645887,51.7825788 358.936577,49.285834 359.719455,45.8792585 Z M374.7633,45.6570905 C374.7633,42.694851 375.493281,39.8278262 376.953241,37.0560163 C378.413202,34.2842064 380.48148,32.168321 383.158075,30.7083601 C385.83467,29.2483991 388.823359,28.5184187 392.12414,28.5184187 C397.223424,28.5184187 401.402297,30.174099 404.660761,33.4854597 C407.919225,36.7968204 409.548456,40.9809838 409.548456,46.0379499 C409.548456,51.1372338 407.903355,55.3637149 404.613154,58.7173933 C401.322952,62.0710717 397.181106,63.7479109 392.187616,63.7479109 C389.098424,63.7479109 386.152053,63.0496687 383.348505,61.6531843 C380.544957,60.2566999 378.413202,58.2095808 376.953241,55.5118269 C375.493281,52.814073 374.7633,49.5291609 374.7633,45.6570905 Z M383.903925,46.1331648 C383.903925,49.4762637 384.697382,52.0364851 386.284296,53.8138288 C387.87121,55.5911726 389.828404,56.4798445 392.155878,56.4798445 C394.483352,56.4798445 396.435256,55.5911726 398.011591,53.8138288 C399.587926,52.0364851 400.376093,49.4551049 400.376093,46.0696882 C400.376093,42.768907 399.587926,40.2298445 398.011591,38.4525007 C396.435256,36.675157 394.483352,35.7864851 392.155878,35.7864851 C389.828404,35.7864851 387.87121,36.675157 386.284296,38.4525007 C384.697382,40.2298445 383.903925,42.7900658 383.903925,46.1331648 Z M415.515153,50.5765241 L415.515153,41.6580671 L433.034684,41.6580671 L433.034684,50.5765241 L415.515153,50.5765241 Z M434.272377,29.2801374 L439.223549,29.2801374 L439.223549,26.7410749 C439.223549,23.9057885 439.525063,21.789903 440.12809,20.3934187 C440.731118,18.9969343 441.841957,17.8596459 443.46061,16.9815534 C445.079262,16.103461 447.126381,15.6644148 449.601967,15.6644148 C452.14103,15.6644148 454.627195,16.0452741 457.060463,16.8069929 L455.854409,23.027696 C454.436765,22.6891543 453.072019,22.5198835 451.76017,22.5198835 C450.46948,22.5198835 449.54378,22.8213972 448.983071,23.4244245 C448.422361,24.0274519 448.142006,25.1858991 448.142006,26.8997663 L448.142006,29.2801374 L454.807045,29.2801374 L454.807045,36.2942976 L448.142006,36.2942976 L448.142006,62.9861921 L439.223549,62.9861921 L439.223549,36.2942976 L434.272377,36.2942976 L434.272377,29.2801374 Z M482.006652,62.9861921 L482.006652,57.9398054 C480.779439,59.738308 479.166076,61.1559512 477.166565,62.1927351 C475.167053,63.2295189 473.056457,63.7479109 470.834777,63.7479109 C468.57078,63.7479109 466.53953,63.2506778 464.741027,62.2562116 C462.942525,61.2617455 461.641255,59.8652611 460.837219,58.0667585 C460.033182,56.2682559 459.631164,53.7820905 459.631164,50.6082624 L459.631164,29.2801374 L468.549621,29.2801374 L468.549621,44.7684187 C468.549621,49.508002 468.713602,52.4120547 469.041565,53.4805769 C469.369527,54.549099 469.967264,55.3954532 470.834777,56.0196394 C471.70229,56.6438256 472.802551,56.9559187 474.135559,56.9559187 C475.658996,56.9559187 477.023742,56.5380313 478.229797,55.7022566 C479.435852,54.8664818 480.261047,53.829698 480.705383,52.591905 C481.149719,51.354112 481.371887,48.3231062 481.371887,43.4988874 L481.371887,29.2801374 L490.290344,29.2801374 L490.290344,62.9861921 L482.006652,62.9861921 Z M530.185263,62.9861921 L521.266806,62.9861921 L521.266806,45.7840437 C521.266806,42.1447208 521.076377,39.7907982 520.695517,38.7222761 C520.314658,37.653754 519.695761,36.8232689 518.838828,36.230821 C517.981894,35.6383731 516.9504,35.3421491 515.744345,35.3421491 C514.199749,35.3421491 512.813844,35.7653262 511.586631,36.6116804 C510.359417,37.4580346 509.518353,38.5794538 509.063437,39.9759382 C508.608522,41.3724226 508.381064,43.9538028 508.381064,47.7200788 L508.381064,62.9861921 L499.462607,62.9861921 L499.462607,29.2801374 L507.746298,29.2801374 L507.746298,34.2313093 C510.687379,30.4227155 514.390179,28.5184187 518.854697,28.5184187 C520.82247,28.5184187 522.620973,28.8728295 524.250205,29.5816511 C525.879437,30.2904727 527.11194,31.1950137 527.947715,32.2952741 C528.783489,33.3955346 529.365358,34.643907 529.69332,36.0403913 C530.021282,37.4368757 530.185263,39.4363874 530.185263,42.0389265 L530.185263,62.9861921 Z M570.143659,62.9861921 L561.859968,62.9861921 L561.859968,58.0350202 C560.484643,59.960476 558.8607,61.3939883 556.988142,62.3355573 C555.115583,63.2771264 553.227156,63.7479109 551.322859,63.7479109 C547.450788,63.7479109 544.134138,62.1874454 541.372907,59.0665144 C538.611677,55.9455834 537.231062,51.5921491 537.231062,46.0062116 C537.231062,40.293321 538.574649,35.9504662 541.261823,32.9776472 C543.948998,30.0048282 547.344994,28.5184187 551.449812,28.5184187 C555.216088,28.5184187 558.474551,30.0841739 561.225202,33.2156843 L561.225202,16.4578718 L570.143659,16.4578718 L570.143659,62.9861921 Z M546.339948,45.4031843 C546.339948,49.0001895 546.837182,51.6027286 547.831648,53.2108015 C549.27045,55.5382754 551.280541,56.7020124 553.861921,56.7020124 C555.91433,56.7020124 557.659935,55.8292097 559.098738,54.0836042 C560.53754,52.3379987 561.256941,49.73017 561.256941,46.2601179 C561.256941,42.3880476 560.558698,39.6003685 559.162214,37.8970808 C557.76573,36.193793 555.977807,35.3421491 553.798445,35.3421491 C551.682559,35.3421491 549.910505,36.1832136 548.482282,37.8653425 C547.05406,39.5474714 546.339948,42.0600853 546.339948,45.4031843 Z M598.454106,52.258653 L607.340825,53.7503523 C606.198247,57.0088158 604.394455,59.4896915 601.929448,61.1929792 C599.464442,62.896267 596.380539,63.7479109 592.677739,63.7479109 C586.816737,63.7479109 582.479171,61.8330346 579.665044,58.003282 C577.443364,54.9352481 576.332524,51.0631778 576.332524,46.387071 C576.332524,40.8011335 577.792485,36.4265404 580.712407,33.2632917 C583.632329,30.100043 587.324549,28.5184187 591.789067,28.5184187 C596.803716,28.5184187 600.760421,30.174099 603.659184,33.4854597 C606.557947,36.7968204 607.943852,41.8696556 607.816899,48.7039655 L585.473149,48.7039655 C585.536626,51.3488223 586.256027,53.4065209 587.631352,54.8770612 C589.006678,56.3476016 590.720545,57.0828718 592.772954,57.0828718 C594.169438,57.0828718 595.343755,56.7020124 596.295903,55.9402937 C597.248052,55.1785749 597.967453,53.9513614 598.454106,52.258653 Z M598.961919,43.2449812 C598.898442,40.663601 598.231938,38.7011172 596.962407,37.35753 C595.692876,36.0139428 594.148279,35.3421491 592.328618,35.3421491 C590.382003,35.3421491 588.773931,36.0509708 587.504399,37.468614 C586.234868,38.8862572 585.610682,40.8117129 585.631841,43.2449812 L598.961919,43.2449812 Z M645.997952,62.9861921 L637.71426,62.9861921 L637.71426,58.0350202 C636.338935,59.960476 634.714993,61.3939883 632.842434,62.3355573 C630.969875,63.2771264 629.081448,63.7479109 627.177151,63.7479109 C623.305081,63.7479109 619.98843,62.1874454 617.2272,59.0665144 C614.465969,55.9455834 613.085354,51.5921491 613.085354,46.0062116 C613.085354,40.293321 614.428941,35.9504662 617.116116,32.9776472 C619.80329,30.0048282 623.199286,28.5184187 627.304104,28.5184187 C631.07038,28.5184187 634.328844,30.0841739 637.079495,33.2156843 L637.079495,16.4578718 L645.997952,16.4578718 L645.997952,62.9861921 Z M622.194241,45.4031843 C622.194241,49.0001895 622.691474,51.6027286 623.68594,53.2108015 C625.124742,55.5382754 627.134833,56.7020124 629.716213,56.7020124 C631.768622,56.7020124 633.514228,55.8292097 634.95303,54.0836042 C636.391832,52.3379987 637.111233,49.73017 637.111233,46.2601179 C637.111233,42.3880476 636.412991,39.6003685 635.016506,37.8970808 C633.620022,36.193793 631.832099,35.3421491 629.652737,35.3421491 C627.536851,35.3421491 625.764797,36.1832136 624.336575,37.8653425 C622.908352,39.5474714 622.194241,42.0600853 622.194241,45.4031843 Z M672.467478,62.9861921 L672.467478,16.4578718 L681.385935,16.4578718 L681.385935,33.2156843 C684.136586,30.0841739 687.39505,28.5184187 691.161326,28.5184187 C695.266144,28.5184187 698.66214,30.0048282 701.349314,32.9776472 C704.036489,35.9504662 705.380076,40.219265 705.380076,45.7840437 C705.380076,51.539252 704.01004,55.972032 701.269968,59.0823835 C698.529897,62.1927351 695.202667,63.7479109 691.288279,63.7479109 C689.362823,63.7479109 687.463816,63.2665469 685.591257,62.3038191 C683.718699,61.3410912 682.105336,59.9181583 680.75117,58.0350202 L680.75117,62.9861921 L672.467478,62.9861921 Z M681.322459,45.4031843 C681.322459,48.8943952 681.872589,51.4757754 682.972849,53.1473249 C684.517446,55.5171166 686.569854,56.7020124 689.130076,56.7020124 C691.097849,56.7020124 692.774688,55.860948 694.160593,54.1788191 C695.546498,52.4966902 696.239451,49.8465437 696.239451,46.2283796 C696.239451,42.3774681 695.541209,39.6003685 694.144724,37.8970808 C692.74824,36.193793 690.960317,35.3421491 688.780955,35.3421491 C686.64391,35.3421491 684.866567,36.1726342 683.448923,37.8336042 C682.03128,39.4945743 681.322459,42.0177676 681.322459,45.4031843 Z M708.331636,29.2801374 L717.821382,29.2801374 L725.882906,53.2108015 L733.753999,29.2801374 L742.989839,29.2801374 L731.087984,61.7166609 L728.961519,67.5882429 C728.178641,69.5560163 727.432792,71.058295 726.72397,72.0950788 C726.015148,73.1318627 725.200532,73.9729271 724.280122,74.6182722 C723.359712,75.2636172 722.227713,75.76614 720.884126,76.1258405 C719.540539,76.4855411 718.022391,76.6653913 716.329683,76.6653913 C714.615816,76.6653913 712.933687,76.4855411 711.283296,76.1258405 L710.489839,69.1434187 C711.886323,69.4184838 713.145275,69.5560163 714.266695,69.5560163 C716.340262,69.5560163 717.874279,68.9476993 718.868745,67.7310652 C719.863212,66.514431 720.62493,64.964545 721.153902,63.081407 L708.331636,29.2801374 Z M345.288441,107.171661 L345.288441,114.281036 L339.194691,114.281036 L339.194691,127.865021 C339.194691,130.615672 339.252878,132.218455 339.369251,132.67337 C339.485625,133.128286 339.750111,133.503855 340.162708,133.800079 C340.575306,134.096303 341.077829,134.244415 341.670277,134.244415 C342.495472,134.244415 343.690947,133.958771 345.256703,133.387482 L346.018421,140.306427 C343.944854,141.195099 341.596221,141.639435 338.972523,141.639435 C337.36445,141.639435 335.915069,141.36966 334.624378,140.830109 C333.333688,140.290558 332.38683,139.592316 331.783802,138.735382 C331.180775,137.878449 330.762888,136.720001 330.53014,135.26004 C330.33971,134.223257 330.244496,132.12853 330.244496,128.975861 L330.244496,114.281036 L326.150257,114.281036 L326.150257,107.171661 L330.244496,107.171661 L330.244496,100.474884 L339.194691,95.269806 L339.194691,107.171661 L345.288441,107.171661 Z M360.364125,94.3493958 L360.364125,111.456329 C363.241729,108.092072 366.680042,106.409943 370.679066,106.409943 C372.731475,106.409943 374.582875,106.790802 376.233265,107.552521 C377.883656,108.31424 379.126738,109.287547 379.962513,110.472443 C380.798288,111.657339 381.369577,112.969187 381.67638,114.40799 C381.983184,115.846792 382.136585,118.079051 382.136585,121.104767 L382.136585,140.877716 L373.218128,140.877716 L373.218128,123.07254 C373.218128,119.539012 373.048858,117.296173 372.710316,116.344025 C372.371774,115.391876 371.774037,114.635447 370.917103,114.074738 C370.060169,113.514028 368.986358,113.233673 367.695667,113.233673 C366.214548,113.233673 364.892119,113.593374 363.728382,114.312775 C362.564645,115.032176 361.713001,116.116567 361.173451,117.565949 C360.6339,119.01533 360.364125,121.157664 360.364125,123.992951 L360.364125,140.877716 L351.445667,140.877716 L351.445667,94.3493958 L360.364125,94.3493958 Z M410.701039,130.150177 L419.587757,131.641876 C418.445179,134.90034 416.641387,137.381215 414.17638,139.084503 C411.711374,140.787791 408.627471,141.639435 404.924671,141.639435 C399.063669,141.639435 394.726104,139.724559 391.911976,135.894806 C389.690296,132.826772 388.579457,128.954702 388.579457,124.278595 C388.579457,118.692658 390.039417,114.318064 392.959339,111.154816 C395.879261,107.991567 399.571481,106.409943 404.036,106.409943 C409.050648,106.409943 413.007354,108.065623 415.906117,111.376984 C418.80488,114.688344 420.190785,119.76118 420.063832,126.59549 L397.720082,126.59549 C397.783558,129.240346 398.502959,131.298045 399.878285,132.768585 C401.25361,134.239126 402.967477,134.974396 405.019886,134.974396 C406.416371,134.974396 407.590687,134.593536 408.542835,133.831818 C409.494984,133.070099 410.214385,131.842885 410.701039,130.150177 Z M411.208851,121.136505 C411.145375,118.555125 410.478871,116.592641 409.209339,115.249054 C407.939808,113.905467 406.395212,113.233673 404.57555,113.233673 C402.628936,113.233673 401.020863,113.942495 399.751332,115.360138 C398.4818,116.777781 397.857614,118.703237 397.878773,121.136505 L411.208851,121.136505 Z M445.454457,140.877716 L445.454457,94.3493958 L479.953968,94.3493958 L479.953968,102.22049 L454.848988,102.22049 L454.848988,112.535431 L478.208363,112.535431 L478.208363,120.374786 L454.848988,120.374786 L454.848988,133.038361 L480.84264,133.038361 L480.84264,140.877716 L445.454457,140.877716 Z M510.930531,140.877716 L510.930531,135.831329 C509.703317,137.629832 508.089955,139.047475 506.090443,140.084259 C504.090931,141.121043 501.980335,141.639435 499.758656,141.639435 C497.494658,141.639435 495.463408,141.142202 493.664906,140.147736 C491.866403,139.15327 490.565134,137.756785 489.761097,135.958283 C488.957061,134.15978 488.555042,131.673615 488.555042,128.499786 L488.555042,107.171661 L497.4735,107.171661 L497.4735,122.659943 C497.4735,127.399526 497.637481,130.303579 497.965443,131.372101 C498.293405,132.440623 498.891143,133.286977 499.758656,133.911163 C500.626169,134.53535 501.726429,134.847443 503.059437,134.847443 C504.582875,134.847443 505.947621,134.429555 507.153675,133.593781 C508.35973,132.758006 509.184925,131.721222 509.629261,130.483429 C510.073597,129.245636 510.295765,126.21463 510.295765,121.390411 L510.295765,107.171661 L519.214222,107.171661 L519.214222,140.877716 L510.930531,140.877716 Z M536.98766,140.877716 L528.069203,140.877716 L528.069203,107.171661 L536.352894,107.171661 L536.352894,111.964142 C537.770537,109.700145 539.045358,108.208445 540.177357,107.489044 C541.309356,106.769643 542.594756,106.409943 544.033558,106.409943 C546.064808,106.409943 548.022002,106.970652 549.90514,108.092072 L547.14391,115.867951 C545.641631,114.894643 544.245147,114.40799 542.954457,114.40799 C541.706084,114.40799 540.648141,114.751821 539.780628,115.439484 C538.913115,116.127146 538.230742,117.370229 537.733509,119.168732 C537.236276,120.967234 536.98766,124.73351 536.98766,130.46756 L536.98766,140.877716 Z M551.682484,123.548615 C551.682484,120.586375 552.412464,117.71935 553.872425,114.94754 C555.332386,112.17573 557.400664,110.059845 560.077259,108.599884 C562.753854,107.139923 565.742542,106.409943 569.043324,106.409943 C574.142608,106.409943 578.321481,108.065623 581.579945,111.376984 C584.838408,114.688344 586.46764,118.872508 586.46764,123.929474 C586.46764,129.028758 584.822539,133.255239 581.532337,136.608917 C578.242136,139.962596 574.10029,141.639435 569.1068,141.639435 C566.017608,141.639435 563.071237,140.941193 560.267689,139.544708 C557.464141,138.148224 555.332386,136.101105 553.872425,133.403351 C552.412464,130.705597 551.682484,127.420685 551.682484,123.548615 Z M560.823109,124.024689 C560.823109,127.367788 561.616566,129.928009 563.20348,131.705353 C564.790394,133.482697 566.747588,134.371368 569.075062,134.371368 C571.402536,134.371368 573.35444,133.482697 574.930775,131.705353 C576.50711,129.928009 577.295277,127.346629 577.295277,123.961212 C577.295277,120.660431 576.50711,118.121368 574.930775,116.344025 C573.35444,114.566681 571.402536,113.678009 569.075062,113.678009 C566.747588,113.678009 564.790394,114.566681 563.20348,116.344025 C561.616566,118.121368 560.823109,120.68159 560.823109,124.024689 Z M593.196156,107.171661 L601.511585,107.171661 L601.511585,112.122833 C602.590687,110.430125 604.050648,109.054799 605.891468,107.996857 C607.732289,106.938914 609.774118,106.409943 612.016957,106.409943 C615.931345,106.409943 619.253285,107.94396 621.982777,111.011993 C624.712269,114.080027 626.077015,118.354116 626.077015,123.834259 C626.077015,129.462514 624.70169,133.837107 621.951039,136.958038 C619.200388,140.078969 615.867868,141.639435 611.95348,141.639435 C610.091501,141.639435 608.404082,141.269155 606.891224,140.528595 C605.378366,139.788035 603.786162,138.518504 602.114613,136.720001 L602.114613,153.699982 L593.196156,153.699982 L593.196156,107.171661 Z M602.019398,123.4534 C602.019398,127.240835 602.770537,130.039093 604.272816,131.848175 C605.775095,133.657257 607.605335,134.561798 609.763539,134.561798 C611.837106,134.561798 613.561553,133.731313 614.936878,132.070343 C616.312204,130.409373 616.999867,127.685171 616.999867,123.897736 C616.999867,120.364207 616.291045,117.740509 614.873402,116.026642 C613.455759,114.312775 611.699574,113.455841 609.604847,113.455841 C607.425485,113.455841 605.616403,114.296906 604.177601,115.979035 C602.738799,117.661163 602.019398,120.152618 602.019398,123.4534 Z M652.673695,130.150177 L661.560414,131.641876 C660.417835,134.90034 658.614043,137.381215 656.149037,139.084503 C653.68403,140.787791 650.600127,141.639435 646.897328,141.639435 C641.036325,141.639435 636.69876,139.724559 633.884632,135.894806 C631.662953,132.826772 630.552113,128.954702 630.552113,124.278595 C630.552113,118.692658 632.012074,114.318064 634.931996,111.154816 C637.851917,107.991567 641.544138,106.409943 646.008656,106.409943 C651.023304,106.409943 654.98001,108.065623 657.878773,111.376984 C660.777536,114.688344 662.163441,119.76118 662.036488,126.59549 L639.692738,126.59549 C639.756214,129.240346 640.475615,131.298045 641.850941,132.768585 C643.226266,134.239126 644.940134,134.974396 646.992542,134.974396 C648.389027,134.974396 649.563343,134.593536 650.515492,133.831818 C651.46764,133.070099 652.187041,131.842885 652.673695,130.150177 Z M653.181507,121.136505 C653.118031,118.555125 652.451527,116.592641 651.181996,115.249054 C649.912464,113.905467 648.367868,113.233673 646.548207,113.233673 C644.601592,113.233673 642.993519,113.942495 641.723988,115.360138 C640.454457,116.777781 639.83027,118.703237 639.851429,121.136505 L653.181507,121.136505 Z M675.969593,117.454865 L667.876332,115.994904 C668.786162,112.73644 670.351917,110.324331 672.573597,108.758576 C674.795277,107.19282 678.096058,106.409943 682.475941,106.409943 C686.453806,106.409943 689.416045,106.880727 691.36266,107.822296 C693.309274,108.763865 694.67931,109.95934 695.472767,111.408722 C696.266224,112.858104 696.662953,115.518829 696.662953,119.3909 L696.567738,129.801056 C696.567738,132.763296 696.71056,134.947947 696.996205,136.355011 C697.281849,137.762075 697.81611,139.269643 698.598988,140.877716 L689.775746,140.877716 C689.542998,140.285268 689.257354,139.407176 688.918812,138.243439 C688.7707,137.714467 688.664906,137.365346 688.601429,137.196076 C687.077992,138.677195 685.44876,139.788035 683.713734,140.528595 C681.978708,141.269155 680.127308,141.639435 678.159535,141.639435 C674.689483,141.639435 671.954701,140.697866 669.955189,138.814728 C667.955677,136.93159 666.955921,134.551219 666.955921,131.673615 C666.955921,129.769318 667.410837,128.07132 668.320667,126.57962 C669.230498,125.087921 670.505319,123.945343 672.14513,123.151886 C673.784942,122.358429 676.149444,121.665477 679.238636,121.073029 C683.406931,120.290151 686.295114,119.560171 687.903187,118.883087 L687.903187,117.994415 C687.903187,116.280548 687.48001,115.058624 686.633656,114.328644 C685.787302,113.598663 684.189808,113.233673 681.841175,113.233673 C680.254261,113.233673 679.016468,113.545766 678.127796,114.169952 C677.239125,114.794139 676.519723,115.889109 675.969593,117.454865 Z M687.903187,124.691193 C686.760609,125.072052 684.951527,125.526967 682.475941,126.055939 C680.000355,126.58491 678.381703,127.103302 677.619984,127.611115 C676.456247,128.43631 675.874378,129.483673 675.874378,130.753204 C675.874378,132.001577 676.339873,133.080678 677.270863,133.990509 C678.201852,134.90034 679.386748,135.355255 680.82555,135.355255 C682.433623,135.355255 683.96764,134.826284 685.427601,133.768341 C686.506703,132.964305 687.215524,131.980418 687.554066,130.816681 C687.786813,130.054962 687.903187,128.605581 687.903187,126.468536 L687.903187,124.691193 Z M736.113636,140.877716 L727.195179,140.877716 L727.195179,123.675568 C727.195179,120.036245 727.00475,117.682322 726.62389,116.6138 C726.243031,115.545278 725.624134,114.714793 724.767201,114.122345 C723.910267,113.529897 722.878773,113.233673 721.672718,113.233673 C720.128122,113.233673 718.742217,113.65685 717.515003,114.503204 C716.28779,115.349559 715.446725,116.470978 714.99181,117.867462 C714.536895,119.263947 714.309437,121.845327 714.309437,125.611603 L714.309437,140.877716 L705.39098,140.877716 L705.39098,107.171661 L713.674671,107.171661 L713.674671,112.122833 C716.615752,108.31424 720.318552,106.409943 724.78307,106.409943 C726.750843,106.409943 728.549346,106.764354 730.178578,107.473175 C731.807809,108.181997 733.040313,109.086538 733.876087,110.186798 C734.711862,111.287059 735.293731,112.535431 735.621693,113.931915 C735.949655,115.3284 736.113636,117.327911 736.113636,119.930451 L736.113636,140.877716 Z M763.218128,94.3493958 L772.61266,94.3493958 L772.61266,119.549591 C772.61266,123.548615 772.729033,126.140574 772.961781,127.32547 C773.363799,129.229767 774.321237,130.758494 775.834095,131.911652 C777.346953,133.064809 779.415231,133.641388 782.038929,133.641388 C784.704945,133.641388 786.715036,133.096548 788.069203,132.006867 C789.423369,130.917186 790.237985,129.578888 790.51305,127.991974 C790.788115,126.40506 790.925648,123.770783 790.925648,120.089142 L790.925648,94.3493958 L800.320179,94.3493958 L800.320179,118.787872 C800.320179,124.37381 800.066273,128.319936 799.55846,130.626251 C799.050648,132.932566 798.114369,134.879181 796.749623,136.466095 C795.384876,138.053009 793.559925,139.317251 791.274769,140.25882 C788.989613,141.200389 786.006214,141.671173 782.324574,141.671173 C777.881214,141.671173 774.511667,141.158071 772.215931,140.131867 C769.920195,139.105662 768.105824,137.772654 766.772816,136.132843 C765.439808,134.493032 764.561716,132.773875 764.138539,130.975372 C763.524932,128.309357 763.218128,124.37381 763.218128,119.168732 L763.218128,94.3493958 Z M840.818226,140.877716 L831.899769,140.877716 L831.899769,123.675568 C831.899769,120.036245 831.709339,117.682322 831.32848,116.6138 C830.947621,115.545278 830.328724,114.714793 829.471791,114.122345 C828.614857,113.529897 827.583363,113.233673 826.377308,113.233673 C824.832712,113.233673 823.446807,113.65685 822.219593,114.503204 C820.99238,115.349559 820.151315,116.470978 819.6964,117.867462 C819.241485,119.263947 819.014027,121.845327 819.014027,125.611603 L819.014027,140.877716 L810.09557,140.877716 L810.09557,107.171661 L818.379261,107.171661 L818.379261,112.122833 C821.320342,108.31424 825.023141,106.409943 829.48766,106.409943 C831.455433,106.409943 833.253936,106.764354 834.883167,107.473175 C836.512399,108.181997 837.744903,109.086538 838.580677,110.186798 C839.416452,111.287059 839.99832,112.535431 840.326283,113.931915 C840.654245,115.3284 840.818226,117.327911 840.818226,119.930451 L840.818226,140.877716 Z M849.863636,102.601349 L849.863636,94.3493958 L858.782093,94.3493958 L858.782093,102.601349 L849.863636,102.601349 Z M849.863636,140.877716 L849.863636,107.171661 L858.782093,107.171661 L858.782093,140.877716 L849.863636,140.877716 Z M865.85973,123.548615 C865.85973,120.586375 866.58971,117.71935 868.049671,114.94754 C869.509632,112.17573 871.57791,110.059845 874.254505,108.599884 C876.9311,107.139923 879.919789,106.409943 883.22057,106.409943 C888.319854,106.409943 892.498727,108.065623 895.757191,111.376984 C899.015654,114.688344 900.644886,118.872508 900.644886,123.929474 C900.644886,129.028758 898.999785,133.255239 895.709583,136.608917 C892.419382,139.962596 888.277536,141.639435 883.284046,141.639435 C880.194854,141.639435 877.248483,140.941193 874.444935,139.544708 C871.641387,138.148224 869.509632,136.101105 868.049671,133.403351 C866.58971,130.705597 865.85973,127.420685 865.85973,123.548615 Z M875.000355,124.024689 C875.000355,127.367788 875.793812,129.928009 877.380726,131.705353 C878.96764,133.482697 880.924834,134.371368 883.252308,134.371368 C885.579782,134.371368 887.531686,133.482697 889.108021,131.705353 C890.684356,129.928009 891.472523,127.346629 891.472523,123.961212 C891.472523,120.660431 890.684356,118.121368 889.108021,116.344025 C887.531686,114.566681 885.579782,113.678009 883.252308,113.678009 C880.924834,113.678009 878.96764,114.566681 877.380726,116.344025 C875.793812,118.121368 875.000355,120.68159 875.000355,124.024689 Z M938.286488,140.877716 L929.368031,140.877716 L929.368031,123.675568 C929.368031,120.036245 929.177601,117.682322 928.796742,116.6138 C928.415882,115.545278 927.796986,114.714793 926.940052,114.122345 C926.083119,113.529897 925.051625,113.233673 923.84557,113.233673 C922.300973,113.233673 920.915069,113.65685 919.687855,114.503204 C918.460641,115.349559 917.619577,116.470978 917.164662,117.867462 C916.709746,119.263947 916.482289,121.845327 916.482289,125.611603 L916.482289,140.877716 L907.563832,140.877716 L907.563832,107.171661 L915.847523,107.171661 L915.847523,112.122833 C918.788604,108.31424 922.491403,106.409943 926.955921,106.409943 C928.923695,106.409943 930.722197,106.764354 932.351429,107.473175 C933.980661,108.181997 935.213164,109.086538 936.048939,110.186798 C936.884714,111.287059 937.466582,112.535431 937.794544,113.931915 C938.122507,115.3284 938.286488,117.327911 938.286488,119.930451 L938.286488,140.877716 Z"/></g></svg>