<svg xmlns="http://www.w3.org/2000/svg" width="975" height="232" viewBox="0 0 975 232"><g fill="none" fill-rule="evenodd" transform="translate(23.53 16)"><polygon fill="#FFFFFE" points="0 200 294.527 200 294.527 0 0 0"/><polygon fill="#039" points="5.664 194.287 288.864 194.287 288.864 5.485 5.664 5.485"/><polyline fill="#F9C823" points="141.229 46.622 147.205 42.261 153.181 46.622 150.907 39.569 156.977 35.208 149.495 35.208 147.205 28.07 144.915 35.216 137.438 35.208 143.503 39.569 141.229 46.622"/><polyline fill="#F9C823" points="110.304 54.93 116.28 50.569 122.252 54.93 119.982 47.877 126.048 43.516 118.566 43.516 116.277 36.37 113.987 43.524 106.509 43.516 112.574 47.877 110.304 54.93"/><polyline fill="#F9C823" points="93.652 59.049 91.362 66.203 83.885 66.195 89.95 70.556 87.676 77.609 93.652 73.248 99.628 77.609 97.354 70.556 103.419 66.195 95.942 66.195 93.652 59.049"/><polyline fill="#F9C823" points="85.352 104.134 91.324 108.495 89.054 101.443 95.119 97.081 87.642 97.081 85.352 89.935 83.062 97.097 75.581 97.081 81.65 101.443 79.376 108.495 85.352 104.134"/><polyline fill="#F9C823" points="95.942 128.06 93.652 120.914 91.362 128.068 83.885 128.06 89.95 132.421 87.676 139.474 93.652 135.105 99.628 139.474 97.354 132.421 103.419 128.06 95.942 128.06"/><polyline fill="#F9C823" points="118.613 150.731 116.323 143.593 114.037 150.739 106.556 150.731 112.621 155.092 110.351 162.145 116.327 157.784 122.298 162.145 120.029 155.092 126.094 150.731 118.613 150.731"/><polyline fill="#F9C823" points="149.499 158.946 147.209 151.8 144.923 158.954 137.442 158.946 143.507 163.307 141.237 170.36 147.213 165.999 153.184 170.36 150.911 163.307 156.98 158.946 149.499 158.946"/><polyline fill="#F9C823" points="180.385 150.731 178.099 143.593 175.805 150.739 168.332 150.731 174.393 155.092 172.124 162.145 178.099 157.784 184.075 162.145 181.797 155.092 187.866 150.731 180.385 150.731"/><polyline fill="#F9C823" points="203.064 128.06 200.77 120.914 198.476 128.068 191.003 128.06 197.072 132.421 194.794 139.474 200.77 135.105 206.745 139.474 204.468 132.421 210.537 128.06 203.064 128.06"/><polyline fill="#F9C823" points="218.752 96.995 211.271 96.995 208.977 89.849 206.691 97.003 199.21 96.995 205.28 101.356 203.009 108.409 208.977 104.04 214.953 108.409 212.683 101.356 218.752 96.995"/><polyline fill="#F9C823" points="194.793 77.515 200.769 73.154 206.745 77.515 204.468 70.462 210.537 66.109 203.063 66.109 200.769 58.963 198.476 66.117 191.002 66.109 197.071 70.462 194.793 77.515"/><polyline fill="#F9C823" points="178.185 36.378 175.899 43.532 168.418 43.516 174.479 47.885 172.209 54.938 178.193 50.569 184.16 54.938 181.891 47.885 187.96 43.516 180.471 43.516 178.185 36.378"/><path fill="#039" d="M359.664277,59.8819676 L368.76036,62.766871 C367.365341,67.8376705 365.046634,71.6033233 361.803239,74.0648279 C358.559845,76.5273312 354.445687,77.7565856 349.458769,77.7565856 C343.289529,77.7565856 338.218729,75.6495776 334.245372,71.4345629 C330.274011,67.2185497 328.286833,61.4567314 328.286833,54.1461125 C328.286833,46.4130934 330.283997,40.4066226 334.277326,36.1286972 C338.270656,31.8497733 343.5212,29.7098121 350.029957,29.7098121 C355.712888,29.7098121 360.329332,31.3904256 363.879291,34.7496555 C365.991292,36.7358351 367.576042,39.5887839 368.63354,43.3065048 L359.346728,45.525354 C358.797508,43.1167742 357.652134,41.2144754 355.90861,39.820455 C354.165086,38.4264345 352.046095,37.7284256 349.553634,37.7284256 C346.109524,37.7284256 343.315492,38.9646702 341.171536,41.4371592 C339.025584,43.9086497 337.954105,47.9139622 337.954105,53.4491023 C337.954105,59.3227617 339.010605,63.5068203 341.123604,65.999281 C343.235605,68.4927403 345.982705,69.7389707 349.363903,69.7389707 C351.856364,69.7389707 354.001318,68.9470951 355.796769,67.3613469 C357.593218,65.7775958 358.882387,63.2841365 359.664277,59.8819676 M383.814983,60.1356074 C383.814983,63.4738671 384.607857,66.0312356 386.191608,67.8057159 C387.777356,69.5811947 389.730583,70.4679355 392.055282,70.4679355 C394.378982,70.4679355 396.328214,69.5811947 397.901979,67.8057159 C399.475744,66.0312356 400.263626,63.4528969 400.263626,60.0726968 C400.263626,56.7763775 399.475744,54.2409778 397.901979,52.4664976 C396.328214,50.6920173 394.378982,49.8042779 392.055282,49.8042779 C389.730583,49.8042779 387.777356,50.6920173 386.191608,52.4664976 C384.607857,54.2409778 383.814983,56.7973478 383.814983,60.1356074 Z M374.686945,59.6602824 C374.686945,56.7024825 375.415909,53.8395478 376.874838,51.0724771 C378.331769,48.3034092 380.396836,46.1904096 383.070041,44.7334785 C385.742246,43.2745501 388.727008,42.5455853 392.023327,42.5455853 C397.115097,42.5455853 401.288171,44.2002357 404.54255,47.5055421 C407.794931,50.8128458 409.42262,54.9909129 409.42262,60.0407421 C409.42262,65.1335104 407.779952,69.353518 404.494618,72.7027621 C401.209283,76.0510076 397.073156,77.7256296 392.087236,77.7256296 C389.001618,77.7256296 386.059795,77.0286194 383.259771,75.6336003 C380.459747,74.2395798 378.331769,72.1954824 376.874838,69.5013081 C375.415909,66.8071339 374.686945,63.526792 374.686945,59.6602824 L374.686945,59.6602824 Z M437.724431,76.9647101 L446.629786,76.9647101 L446.629786,43.3065048 L437.724431,43.3065048 L437.724431,76.9647101 Z M437.724431,38.742985 L446.629786,38.742985 L446.629786,30.5026862 L437.724431,30.5026862 L437.724431,38.742985 Z M412.718939,43.3065048 L417.662919,43.3065048 L417.662919,40.771105 C417.662919,37.940125 417.963492,35.8271255 418.566635,34.4321064 C419.167782,33.0380859 420.277206,31.9026982 421.893911,31.0249446 C423.510615,30.1481896 425.554712,29.7098121 428.026203,29.7098121 C430.561603,29.7098121 433.045076,30.0902718 435.473627,30.8511913 L434.270336,37.0623714 C432.854347,36.7248507 431.491282,36.5550918 430.181143,36.5550918 C428.891973,36.5550918 427.968285,36.8566635 427.408081,37.4598071 C426.848875,38.0609534 426.568273,39.2173114 426.568273,40.9298796 L426.568273,43.3065048 L433.223822,43.3065048 L433.223822,50.3115576 L426.568273,50.3115576 L426.568273,76.9647101 L417.662919,76.9647101 L417.662919,50.3115576 L412.718939,50.3115576 L412.718939,43.3065048 L412.718939,43.3065048 Z M486.657946,76.9647101 L477.752591,76.9647101 L477.752591,59.7871023 C477.752591,56.1532624 477.562861,53.8026003 477.182401,52.7361147 C476.801941,51.6686305 476.183819,50.8388089 475.328034,50.2466498 C474.472249,49.6564878 473.442711,49.3599089 472.238421,49.3599089 C470.695612,49.3599089 469.311578,49.7833077 468.086317,50.6271095 C466.861057,51.4729085 466.020251,52.5933175 465.566895,53.987338 C465.11254,55.3823571 464.884863,57.9596972 464.884863,61.7213557 L464.884863,76.9647101 L455.978511,76.9647101 L455.978511,43.3065048 L464.251762,43.3065048 L464.251762,48.2504843 C467.187594,44.447884 470.885343,42.5455853 475.344012,42.5455853 C477.309221,42.5455853 479.104671,42.9000819 480.73236,43.6080765 C482.358052,44.3160712 483.589303,45.2187893 484.424118,46.3172295 C485.258932,47.4166683 485.840107,48.6628987 486.167642,50.0579178 C486.494178,51.4519382 486.657946,53.4491023 486.657946,56.0474127 L486.657946,76.9647101 M514.263745,60.8016616 C513.122366,61.1821214 511.315931,61.6364762 508.844441,62.1637275 C506.371952,62.6919774 504.755248,63.2102415 503.994328,63.7175211 C502.832977,64.5413513 502.251802,65.5868666 502.251802,66.8540672 C502.251802,68.1012962 502.716143,69.1787662 503.646822,70.0884744 C504.575503,70.9961854 505.758822,71.4505402 507.195782,71.4505402 C508.801502,71.4505402 510.333327,70.9222903 511.792255,69.8657906 C512.868726,69.0629306 513.576721,68.0803259 513.91524,66.9189751 C514.146911,66.1580556 514.263745,64.7111102 514.263745,62.5761419 L514.263745,60.8016616 Z M502.346668,53.5759222 L494.265143,52.1169939 C495.172855,48.8646123 496.737633,46.4560324 498.956482,44.8912544 C501.174332,43.3284736 504.470652,42.5455853 508.844441,42.5455853 C512.815802,42.5455853 515.773601,43.0159174 517.718839,43.9565817 C519.66208,44.8972459 521.030137,46.0905514 521.823011,47.5384953 C522.614887,48.9854407 523.010325,51.6416688 523.010325,55.509177 L522.916459,65.9044157 C522.916459,68.8622157 523.058257,71.0441174 523.343852,72.4491222 C523.628448,73.8541271 524.162689,75.3599888 524.944579,76.9647101 L516.13409,76.9647101 C515.900421,76.3735496 515.615826,75.4967946 515.277306,74.3334465 C515.130515,73.8061952 515.023666,73.4586887 514.961754,73.2889297 C513.439915,74.7678297 511.812227,75.8762557 510.079687,76.616205 C508.348146,77.3561543 506.498772,77.7256296 504.533562,77.7256296 C501.068483,77.7256296 498.337361,76.7859639 496.341196,74.905634 C494.344031,73.0243055 493.345449,70.6476803 493.345449,67.7737613 C493.345449,65.8724611 493.799804,64.1768688 494.709512,62.6879831 C495.617224,61.1971001 496.890416,60.0567195 498.52809,59.2648439 C500.164766,58.4719698 502.526412,57.7799525 505.612031,57.1887919 C509.773122,56.4069022 512.658026,55.6779373 514.263745,55.0018973 L514.263745,54.1141579 C514.263745,52.4025883 513.841345,51.1823211 512.995546,50.4533562 C512.150746,49.7243914 510.55601,49.3599089 508.210341,49.3599089 C506.625592,49.3599089 505.389347,49.6714665 504.501608,50.2945817 C503.614867,50.9186955 502.896886,52.0121428 502.346668,53.5759222 L502.346668,53.5759222 Z M562.406383,76.9647101 L553.501029,76.9647101 L553.501029,59.7871023 C553.501029,56.1532624 553.310299,53.8026003 552.92984,52.7361147 C552.54938,51.6686305 551.931258,50.8388089 551.076471,50.2466498 C550.219688,49.6564878 549.19015,49.3599089 547.98586,49.3599089 C546.443051,49.3599089 545.059016,49.7833077 543.834755,50.6271095 C542.608496,51.4729085 541.768688,52.5933175 541.314334,53.987338 C540.859979,55.3823571 540.633301,57.9596972 540.633301,61.7213557 L540.633301,76.9647101 L531.726948,76.9647101 L531.726948,43.3065048 L539.999201,43.3065048 L539.999201,48.2504843 C542.935032,44.447884 546.63378,42.5455853 551.09145,42.5455853 C553.05666,42.5455853 554.85211,42.9000819 556.479799,43.6080765 C558.106489,44.3160712 559.336742,45.2187893 560.171556,46.3172295 C561.006371,47.4166683 561.587546,48.6628987 561.915081,50.0579178 C562.241617,51.4519382 562.406383,53.4491023 562.406383,56.0474127 L562.406383,76.9647101 M600.785884,53.2583731 L592.00735,54.8431228 C591.710771,53.0896127 591.040722,51.7684887 589.994208,50.8807493 C588.949691,49.9930099 587.590621,49.5506381 585.921991,49.5506381 C583.70414,49.5506381 581.933654,50.3165505 580.613529,51.8483753 C579.293403,53.3802001 578.633341,55.9425616 578.633341,59.5334625 C578.633341,63.526792 579.303389,66.3467876 580.645483,67.9954465 C581.986579,69.6431068 583.788021,70.4679355 586.048811,70.4679355 C587.73941,70.4679355 589.122446,69.9876176 590.200915,69.0259831 C591.278385,68.0643486 592.038306,66.4116954 592.483673,64.0650277 L601.230253,65.554912 C600.321543,69.5702103 598.578019,72.6019053 596.000679,74.6519942 C593.42234,76.7010845 589.968245,77.7256296 585.637395,77.7256296 C580.714386,77.7256296 576.78896,76.1728346 573.863114,73.0662459 C570.93627,69.9616545 569.473348,65.6617603 569.473348,60.1675621 C569.473348,54.6114517 570.941263,50.2855945 573.879092,47.1889916 C576.814923,44.0933874 580.788281,42.5455853 585.795171,42.5455853 C589.89435,42.5455853 593.153722,43.4283318 595.572287,45.1928262 C597.991852,46.956322 599.729384,49.6455034 600.785884,53.2583731 M616.158056,39.1863554 L620.530846,29.7098121 L630.514669,29.7098121 L621.798047,39.1863554 L616.158056,39.1863554 Z M627.5349,57.2517026 C627.47199,54.6743624 626.806934,52.7141459 625.538735,51.3720517 C624.271534,50.0319546 622.728725,49.3599089 620.910307,49.3599089 C618.967067,49.3599089 617.361347,50.0689022 616.093148,51.4838929 C614.825947,52.8998822 614.202832,54.8221525 614.223802,57.2517026 L627.5349,57.2517026 Z M627.027621,66.2529209 L635.902019,67.7418066 C634.761638,70.9961854 632.960197,73.4736674 630.498692,75.1742526 C628.036189,76.8748377 624.956562,77.7256296 621.259811,77.7256296 C615.407122,77.7256296 611.075273,75.8133451 608.265263,71.9897745 C606.047413,68.9251263 604.936989,65.0596153 604.936989,60.3892473 C604.936989,54.8111681 606.395918,50.4433704 609.311777,47.2848555 C612.227637,44.1263406 615.914402,42.5455853 620.372072,42.5455853 C625.37996,42.5455853 629.330351,44.2002357 632.22524,47.5055421 C635.120129,50.8128458 636.504164,55.8786523 636.377344,62.7029618 L614.065028,62.7029618 C614.128937,65.3452098 614.846917,67.399293 616.219968,68.8672086 C617.594016,70.3361227 619.305586,71.0700805 621.355675,71.0700805 C622.749695,71.0700805 623.922031,70.6896207 624.872681,69.9287012 C625.823331,69.1687803 626.541311,67.9435202 627.027621,66.2529209 L627.027621,66.2529209 Z M670.22528,59.5654171 C670.22528,63.3480458 670.975215,66.1410797 672.476084,67.9485131 C673.975954,69.754948 675.803359,70.6576661 677.958299,70.6576661 C680.030357,70.6576661 681.750914,69.828843 683.124963,68.1701983 C684.498013,66.5115536 685.185037,63.7914162 685.185037,60.0087875 C685.185037,56.4807973 684.477043,53.8615166 683.062052,52.1489485 C681.646063,50.4383775 679.892553,49.5815941 677.800523,49.5815941 C675.623614,49.5815941 673.818178,50.4214016 672.38022,52.1020151 C670.944259,53.7806315 670.22528,56.2700965 670.22528,59.5654171 Z M661.41579,43.3065048 L669.718,43.3065048 L669.718,48.2504843 C670.796469,46.5608835 672.2534,45.1878333 674.092788,44.1303349 C675.930179,43.0748337 677.969284,42.5455853 680.209103,42.5455853 C684.117553,42.5455853 687.435841,44.0784087 690.160971,47.1420583 C692.8871,50.2057079 694.250165,54.4736474 694.250165,59.9458769 C694.250165,65.5658964 692.876116,69.9346927 690.129017,73.0502686 C687.382916,76.1668431 684.054642,77.7256296 680.146192,77.7256296 C678.285834,77.7256296 676.601226,77.3561543 675.090372,76.616205 C673.580516,75.8762557 671.989775,74.6090551 670.321144,72.8126061 L670.321144,89.7695273 L661.41579,89.7695273 L661.41579,43.3065048 L661.41579,43.3065048 Z M719.889757,60.8016616 C718.748377,61.1821214 716.941942,61.6364762 714.470452,62.1637275 C711.997963,62.6919774 710.381259,63.2102415 709.620339,63.7175211 C708.458988,64.5413513 707.877814,65.5868666 707.877814,66.8540672 C707.877814,68.1012962 708.342154,69.1787662 709.272833,70.0884744 C710.201514,70.9961854 711.384834,71.4505402 712.821793,71.4505402 C714.427513,71.4505402 715.959338,70.9222903 717.418266,69.8657906 C718.494737,69.0629306 719.202732,68.0803259 719.541251,66.9189751 C719.772922,66.1580556 719.889757,64.7111102 719.889757,62.5761419 L719.889757,60.8016616 Z M707.972679,53.5759222 L699.891155,52.1169939 C700.798866,48.8646123 702.363644,46.4560324 704.581494,44.8912544 C706.800344,43.3284736 710.096663,42.5455853 714.470452,42.5455853 C718.441813,42.5455853 721.399613,43.0159174 723.34485,43.9565817 C725.288091,44.8972459 726.656148,46.0905514 727.449022,47.5384953 C728.240898,48.9854407 728.636336,51.6416688 728.636336,55.509177 L728.54247,65.9044157 C728.54247,68.8622157 728.684268,71.0441174 728.969863,72.4491222 C729.254459,73.8541271 729.7887,75.3599888 730.57059,76.9647101 L721.760101,76.9647101 C721.526432,76.3735496 721.241837,75.4967946 720.903317,74.3334465 C720.756526,73.8061952 720.649677,73.4586887 720.587765,73.2889297 C719.065926,74.7678297 717.438238,75.8762557 715.705698,76.616205 C713.974157,77.3561543 712.124783,77.7256296 710.159573,77.7256296 C706.694494,77.7256296 703.963372,76.7859639 701.967207,74.905634 C699.970043,73.0243055 698.971461,70.6476803 698.971461,67.7737613 C698.971461,65.8724611 699.425815,64.1768688 700.335524,62.6879831 C701.243235,61.1971001 702.516427,60.0567195 704.154101,59.2648439 C705.790777,58.4719698 708.152424,57.7799525 711.237043,57.1887919 C715.399133,56.4069022 718.284037,55.6779373 719.889757,55.0018973 L719.889757,54.1141579 C719.889757,52.4025883 719.467356,51.1823211 718.621557,50.4533562 C717.776757,49.7243914 716.182022,49.3599089 713.836352,49.3599089 C712.251603,49.3599089 711.015358,49.6714665 710.127619,50.2945817 C709.239879,50.9186955 708.522897,52.0121428 707.972679,53.5759222 L707.972679,53.5759222 Z M745.941763,76.9647101 L737.036408,76.9647101 L737.036408,43.3065048 L745.308662,43.3065048 L745.308662,48.0917098 C746.723652,45.8319187 747.996844,44.3420343 749.127239,43.6240538 C750.257634,42.9060734 751.540812,42.5455853 752.977772,42.5455853 C755.00689,42.5455853 756.961115,43.1057898 758.841445,44.2261988 L756.08436,51.990174 C754.583491,51.0195522 753.188472,50.5332428 751.900302,50.5332428 C750.653073,50.5332428 749.597571,50.8757564 748.730802,51.5627809 C747.864033,52.2498053 747.183999,53.4920413 746.686705,55.2864932 C746.189411,57.0829422 745.941763,60.8446007 745.941763,66.5694714 L745.941763,76.9647101 M329.872581,154.854107 L338.777935,154.854107 L338.777935,108.392083 L329.872581,108.392083 L329.872581,154.854107 Z M347.68329,108.517905 L356.588644,108.517905 L356.588644,114.888858 C356.588644,117.466198 356.366959,119.50031 355.923589,120.990194 C355.480218,122.47908 354.640411,123.816181 353.404166,124.998502 C352.167922,126.18282 350.599149,127.1125 348.697849,127.787542 L346.954325,124.111761 C348.750774,123.520601 350.028959,122.705758 350.789878,121.670228 C351.549799,120.635697 351.951229,119.219708 351.994168,117.424258 L347.68329,117.424258 L347.68329,108.517905 M365.939366,108.392083 L375.321044,108.392083 L375.321044,133.55635 C375.321044,137.549679 375.435881,140.138004 375.669549,141.320325 C376.069981,143.221625 377.026622,144.749456 378.537477,145.900821 C380.047333,147.052186 382.113399,147.627369 384.733678,147.627369 C387.395898,147.627369 389.403048,147.084141 390.755128,145.995686 C392.107208,144.90823 392.921052,143.571129 393.195662,141.986379 C393.470272,140.40163 393.607078,137.770366 393.607078,134.094586 L393.607078,108.392083 L402.988756,108.392083 L402.988756,132.79543 C402.988756,138.37351 402.735116,142.313914 402.227836,144.616644 C401.720557,146.920373 400.785884,148.864612 399.423818,150.448363 C398.059755,152.034112 396.238342,153.295321 393.956582,154.235985 C391.674822,155.175651 388.695053,155.645983 385.018274,155.645983 C380.581574,155.645983 377.216353,155.13371 374.924607,154.109165 C372.631863,153.08462 370.819436,151.75351 369.489325,150.115836 C368.157217,148.478161 367.280462,146.761599 366.858062,144.965149 C366.244932,142.30293 365.939366,138.37351 365.939366,133.17589 L365.939366,108.392083 M443.428332,154.854107 L434.522977,154.854107 L434.522977,137.676499 C434.522977,134.042659 434.333247,131.691997 433.952787,130.624513 C433.572327,129.558028 432.954205,128.728206 432.09842,128.136047 C431.242635,127.544886 430.213097,127.248307 429.008807,127.248307 C427.465998,127.248307 426.081964,127.671706 424.856703,128.516507 C423.631443,129.361307 422.790637,130.482715 422.337281,131.876735 C421.882926,133.271754 421.65525,135.849094 421.65525,139.609754 L421.65525,154.854107 L412.748897,154.854107 L412.748897,121.195902 L421.022149,121.195902 L421.022149,126.139881 C423.95798,122.336282 427.655729,120.434982 432.114398,120.434982 C434.079607,120.434982 435.875057,120.789479 437.501748,121.497474 C439.128438,122.205468 440.359689,123.108186 441.194504,124.205628 C442.029318,125.305067 442.610493,126.552296 442.938028,127.947315 C443.264564,129.341335 443.428332,131.337501 443.428332,133.93681 L443.428332,154.854107 M452.462503,154.854107 L461.367858,154.854107 L461.367858,121.195902 L452.462503,121.195902 L452.462503,154.854107 Z M452.462503,116.631383 L461.367858,116.631383 L461.367858,108.392083 L452.462503,108.392083 L452.462503,116.631383 Z M477.562861,138.024006 C477.562861,141.363264 478.355735,143.920633 479.939486,145.695113 C481.524236,147.469593 483.478461,148.357333 485.80316,148.357333 C488.12686,148.357333 490.076092,147.469593 491.649857,145.695113 C493.223622,143.920633 494.010505,141.342294 494.010505,137.962094 C494.010505,134.665775 493.223622,132.130375 491.649857,130.355895 C490.076092,128.580416 488.12686,127.693675 485.80316,127.693675 C483.478461,127.693675 481.524236,128.580416 479.939486,130.355895 C478.355735,132.130375 477.562861,134.686745 477.562861,138.024006 Z M468.434823,137.549679 C468.434823,134.59188 469.163787,131.728945 470.621717,128.960876 C472.078648,126.192806 474.144715,124.078808 476.817919,122.621877 C479.490124,121.163947 482.474886,120.434982 485.770206,120.434982 C490.862975,120.434982 495.036049,122.088634 498.290428,125.394939 C501.542809,128.701244 503.170498,132.88031 503.170498,137.930139 C503.170498,143.021909 501.52783,147.242915 498.242496,150.591161 C494.957161,153.940405 490.821034,155.615027 485.835114,155.615027 C482.749496,155.615027 479.807673,154.917018 477.007649,153.522997 C474.207625,152.127978 472.078648,150.083881 470.621717,147.389707 C469.163787,144.696531 468.434823,141.416189 468.434823,137.549679 L468.434823,137.549679 Z M540.759122,154.854107 L531.853768,154.854107 L531.853768,137.676499 C531.853768,134.042659 531.663038,131.691997 531.283577,130.624513 C530.903118,129.558028 530.284995,128.728206 529.429211,128.136047 C528.573426,127.544886 527.542889,127.248307 526.338599,127.248307 C524.79579,127.248307 523.412754,127.671706 522.187494,128.516507 C520.962234,129.361307 520.121428,130.482715 519.668071,131.876735 C519.213717,133.271754 518.98604,135.849094 518.98604,139.609754 L518.98604,154.854107 L510.079687,154.854107 L510.079687,121.195902 L518.35194,121.195902 L518.35194,126.139881 C521.28877,122.336282 524.986519,120.434982 529.445188,120.434982 C531.409399,120.434982 533.204849,120.789479 534.832538,121.497474 C536.459228,122.205468 537.69048,123.108186 538.524296,124.205628 C539.35911,125.305067 539.940285,126.552296 540.268818,127.947315 C540.595355,129.341335 540.759122,131.337501 540.759122,133.93681 L540.759122,154.854107 M587.82429,135.1411 C587.76038,132.563759 587.095325,130.603543 585.828124,129.261449 C584.559925,127.920353 583.017116,127.248307 581.199696,127.248307 C579.256456,127.248307 577.649737,127.957301 576.382537,129.372291 C575.114338,130.788281 574.491222,132.71155 574.513191,135.1411 L587.82429,135.1411 Z M587.31701,144.141319 L596.191408,145.630205 C595.050029,148.884584 593.248587,151.363064 590.787082,153.06365 C588.325578,154.764235 585.245951,155.615027 581.548202,155.615027 C575.695512,155.615027 571.363664,153.701744 568.554652,149.878173 C566.335803,146.814523 565.226379,142.948014 565.226379,138.277646 C565.226379,132.699567 566.685307,128.331769 569.601166,125.173254 C572.517026,122.014739 576.202792,120.434982 580.661461,120.434982 C585.668351,120.434982 589.618741,122.088634 592.514629,125.394939 C595.40852,128.701244 596.792555,133.768049 596.665735,140.592359 L574.353418,140.592359 C574.418326,143.233608 575.136306,145.28869 576.509357,146.755607 C577.883406,148.224521 579.593977,148.958479 581.644065,148.958479 C583.039085,148.958479 584.210421,148.579018 585.16207,147.818098 C586.11272,147.057179 586.8307,145.832917 587.31701,144.141319 L587.31701,144.141319 Z M626.077969,154.854107 L626.077969,149.814264 C624.852709,151.610713 623.240998,153.026702 621.244832,154.062232 C619.247668,155.096763 617.14066,155.615027 614.921811,155.615027 C612.661021,155.615027 610.631903,155.117733 608.837451,154.124144 C607.041002,153.131553 605.741847,151.737533 604.938987,149.941084 C604.136127,148.145633 603.733698,145.663158 603.733698,142.493659 L603.733698,121.195902 L612.640051,121.195902 L612.640051,136.66194 C612.640051,141.395219 612.803819,144.295101 613.131353,145.361587 C613.458888,146.429071 614.055042,147.273871 614.921811,147.896986 C615.78858,148.5211 616.88702,148.832658 618.21813,148.832658 C619.739969,148.832658 621.102035,148.41525 622.307324,147.580436 C623.510615,146.74662 624.335444,145.71109 624.777816,144.473847 C625.223183,143.238601 625.44387,140.211899 625.44387,135.394739 L625.44387,121.195902 L634.350223,121.195902 L634.350223,154.854107 L626.077969,154.854107 M652.098021,154.854107 L643.192666,154.854107 L643.192666,121.195902 L651.463921,121.195902 L651.463921,125.981107 C652.878912,123.720317 654.152104,122.231431 655.282499,121.512452 C656.412894,120.794472 657.696072,120.434982 659.13403,120.434982 C661.16215,120.434982 663.116375,120.995187 664.997703,122.115596 L662.23962,129.879571 C660.738751,128.907951 659.34473,128.421641 658.05656,128.421641 C656.809331,128.421641 655.752831,128.765153 654.88706,129.451179 C654.020291,130.139202 653.339258,131.38044 652.842963,133.17589 C652.345669,134.972339 652.098021,138.732999 652.098021,144.458868 L652.098021,154.854107 M675.900222,138.024006 C675.900222,141.363264 676.693096,143.920633 678.276847,145.695113 C679.862595,147.469593 681.815822,148.357333 684.14052,148.357333 C686.464221,148.357333 688.413453,147.469593 689.987218,145.695113 C691.560983,143.920633 692.347866,141.342294 692.347866,137.962094 C692.347866,134.665775 691.560983,132.130375 689.987218,130.355895 C688.413453,128.580416 686.464221,127.693675 684.14052,127.693675 C681.815822,127.693675 679.862595,128.580416 678.276847,130.355895 C676.693096,132.130375 675.900222,134.686745 675.900222,138.024006 Z M666.772183,137.549679 C666.772183,134.59188 667.501148,131.728945 668.960077,128.960876 C670.417008,126.192806 672.482075,124.078808 675.15528,122.621877 C677.827485,121.163947 680.812247,120.434982 684.108566,120.434982 C689.200336,120.434982 693.37341,122.088634 696.627789,125.394939 C699.88017,128.701244 701.507859,132.88031 701.507859,137.930139 C701.507859,143.021909 699.865191,147.242915 696.579857,150.591161 C693.294522,153.940405 689.158395,155.615027 684.172475,155.615027 C681.086857,155.615027 678.145034,154.917018 675.34501,153.522997 C672.544986,152.127978 670.417008,150.083881 668.960077,147.389707 C667.501148,144.696531 666.772183,141.416189 666.772183,137.549679 L666.772183,137.549679 Z M717.036808,137.454814 C717.036808,141.236444 717.786743,144.030477 719.287612,145.83791 C720.787482,147.643346 722.614887,148.546065 724.769827,148.546065 C726.840886,148.546065 728.562441,147.717242 729.93649,146.058597 C731.30954,144.400951 731.996565,141.679815 731.996565,137.897186 C731.996565,134.369196 731.28857,131.749915 729.87358,130.037347 C728.45759,128.326776 726.70408,127.470991 724.612051,127.470991 C722.435142,127.470991 720.629706,128.310799 719.191748,129.990414 C717.755787,131.670029 717.036808,134.158495 717.036808,137.454814 Z M708.227317,121.195902 L716.529528,121.195902 L716.529528,126.139881 C717.607997,124.450281 719.064928,123.07723 720.904316,122.019732 C722.741707,120.963232 724.780811,120.434982 727.020631,120.434982 C730.929081,120.434982 734.24637,121.966807 736.972499,125.031455 C739.697629,128.094106 741.061692,132.362046 741.061692,137.835274 C741.061692,143.455293 739.687644,147.82409 736.940544,150.939666 C734.194444,154.05624 730.86617,155.615027 726.95772,155.615027 C725.097362,155.615027 723.412754,155.244553 721.901899,154.504603 C720.391045,153.765653 718.801302,152.497454 717.132672,150.702003 L717.132672,167.657926 L708.227317,167.657926 L708.227317,121.195902 L708.227317,121.195902 Z M756.749416,117.075752 L761.122206,107.599209 L771.106029,107.599209 L762.389407,117.075752 L756.749416,117.075752 Z M768.126261,135.1411 C768.06335,132.563759 767.398294,130.603543 766.130095,129.261449 C764.862895,127.920353 763.320085,127.248307 761.501668,127.248307 C759.558427,127.248307 757.952707,127.957301 756.684508,129.372291 C755.417307,130.788281 754.794192,132.71155 754.815162,135.1411 L768.126261,135.1411 Z M767.618981,144.141319 L776.493379,145.630205 C775.352999,148.884584 773.551557,151.363064 771.090052,153.06365 C768.627549,154.764235 765.547922,155.615027 761.851171,155.615027 C755.998482,155.615027 751.666633,153.701744 748.856624,149.878173 C746.638773,146.814523 745.52835,142.948014 745.52835,138.277646 C745.52835,132.699567 746.987278,128.331769 749.903138,125.173254 C752.818997,122.014739 756.505762,120.434982 760.963432,120.434982 C765.971321,120.434982 769.921711,122.088634 772.8166,125.394939 C775.71149,128.701244 777.095524,133.768049 776.968704,140.592359 L754.656388,140.592359 C754.720297,143.233608 755.438278,145.28869 756.811328,146.755607 C758.185377,148.224521 759.896946,148.958479 761.947035,148.958479 C763.341056,148.958479 764.513391,148.579018 765.464041,147.818098 C766.414691,147.057179 767.132672,145.832917 767.618981,144.141319 L767.618981,144.141319 Z M804.225999,135.1411 C804.16209,132.563759 803.497034,130.603543 802.229834,129.261449 C800.961634,127.920353 799.418825,127.248307 797.601406,127.248307 C795.658165,127.248307 794.051447,127.957301 792.784246,129.372291 C791.516047,130.788281 790.892932,132.71155 790.914901,135.1411 L804.225999,135.1411 Z M803.718719,144.141319 L812.593118,145.630205 C811.451739,148.884584 809.650297,151.363064 807.188792,153.06365 C804.727287,154.764235 801.64766,155.615027 797.949911,155.615027 C792.097222,155.615027 787.765373,153.701744 784.956362,149.878173 C782.737513,146.814523 781.628088,142.948014 781.628088,138.277646 C781.628088,132.699567 783.087016,128.331769 786.002876,125.173254 C788.918735,122.014739 792.604502,120.434982 797.06317,120.434982 C802.070061,120.434982 806.020451,122.088634 808.916339,125.394939 C811.810229,128.701244 813.194264,133.768049 813.067444,140.592359 L790.755128,140.592359 C790.820036,143.233608 791.538016,145.28869 792.911066,146.755607 C794.285115,148.224521 795.995686,148.958479 798.045775,148.958479 C799.440794,148.958479 800.612131,148.579018 801.563779,147.818098 C802.51443,147.057179 803.231411,145.832917 803.718719,144.141319 L803.718719,144.141319 Z M850.941663,154.854107 L842.036308,154.854107 L842.036308,137.676499 C842.036308,134.042659 841.845579,131.691997 841.466118,130.624513 C841.085658,129.558028 840.467536,128.728206 839.611751,128.136047 C838.755967,127.544886 837.72543,127.248307 836.52114,127.248307 C834.978331,127.248307 833.595295,127.671706 832.370035,128.516507 C831.144774,129.361307 830.303968,130.482715 829.850612,131.876735 C829.396257,133.271754 829.168581,135.849094 829.168581,139.609754 L829.168581,154.854107 L820.262228,154.854107 L820.262228,121.195902 L828.534481,121.195902 L828.534481,126.139881 C831.471311,122.336282 835.16906,120.434982 839.627729,120.434982 C841.592938,120.434982 843.38739,120.789479 845.015079,121.497474 C846.641769,122.205468 847.87302,123.108186 848.707835,124.205628 C849.541651,125.305067 850.122826,126.552296 850.451359,127.947315 C850.777895,129.341335 850.941663,131.337501 850.941663,133.93681 L850.941663,154.854107 M890.589363,154.854107 L881.684009,154.854107 L881.684009,137.676499 C881.684009,134.042659 881.494278,131.691997 881.113818,130.624513 C880.733359,129.558028 880.115236,128.728206 879.259452,128.136047 C878.403667,127.544886 877.374129,127.248307 876.169839,127.248307 C874.62703,127.248307 873.242995,127.671706 872.017735,128.516507 C870.792475,129.361307 869.951669,130.482715 869.498312,131.876735 C869.043958,133.271754 868.816281,135.849094 868.816281,139.609754 L868.816281,154.854107 L859.909928,154.854107 L859.909928,121.195902 L868.182181,121.195902 L868.182181,126.139881 C871.119011,122.336282 874.81676,120.434982 879.275429,120.434982 C881.240638,120.434982 883.03509,120.789479 884.662779,121.497474 C886.289469,122.205468 887.520721,123.108186 888.355535,124.205628 C889.19035,125.305067 889.771524,126.552296 890.099059,127.947315 C890.425596,129.341335 890.589363,131.337501 890.589363,133.93681 L890.589363,154.854107 M919.620139,135.1411 C919.557229,132.563759 918.892173,130.603543 917.623974,129.261449 C916.356773,127.920353 914.813964,127.248307 912.995546,127.248307 C911.052306,127.248307 909.446586,127.957301 908.178387,129.372291 C906.911186,130.788281 906.288071,132.71155 906.309041,135.1411 L919.620139,135.1411 Z M919.11286,144.141319 L927.987258,145.630205 C926.846877,148.884584 925.045435,151.363064 922.583931,153.06365 C920.121428,154.764235 917.041801,155.615027 913.34505,155.615027 C907.492361,155.615027 903.160512,153.701744 900.350502,149.878173 C898.132652,146.814523 897.022228,142.948014 897.022228,138.277646 C897.022228,132.699567 898.481157,128.331769 901.397016,125.173254 C904.312876,122.014739 907.999641,120.434982 912.457311,120.434982 C917.465199,120.434982 921.41559,122.088634 924.310479,125.394939 C927.205368,128.701244 928.589403,133.768049 928.462583,140.592359 L906.150267,140.592359 C906.214176,143.233608 906.932156,145.28869 908.305207,146.755607 C909.679255,148.224521 911.390825,148.958479 913.440914,148.958479 C914.834934,148.958479 916.00727,148.579018 916.95792,147.818098 C917.90857,147.057179 918.62655,145.832917 919.11286,144.141319 L919.11286,144.141319 Z"/></g></svg>