<svg xmlns="http://www.w3.org/2000/svg" width="975" height="232" viewBox="0 0 975 232"><g fill="none" fill-rule="evenodd" transform="translate(18 16)"><polygon fill="#FFFFFE" points="0 199.294 293.487 199.294 293.487 0 0 0"/><polygon fill="#039" points="5.644 193.601 287.844 193.601 287.844 5.466 5.644 5.466"/><polyline fill="#F9C823" points="140.731 46.457 146.685 42.112 152.641 46.457 150.374 39.429 156.423 35.084 148.967 35.084 146.685 27.971 144.404 35.092 136.953 35.084 142.997 39.429 140.731 46.457"/><polyline fill="#F9C823" points="109.915 54.736 115.869 50.391 121.821 54.736 119.558 47.708 125.603 43.363 118.147 43.363 115.866 36.242 113.585 43.371 106.133 43.363 112.177 47.708 109.915 54.736"/><polyline fill="#F9C823" points="93.321 58.841 91.04 65.969 83.589 65.961 89.633 70.307 87.367 77.335 93.321 72.989 99.276 77.335 97.01 70.307 103.054 65.961 95.603 65.961 93.321 58.841"/><polyline fill="#F9C823" points="85.051 103.767 91.002 108.112 88.739 101.085 94.783 96.739 87.332 96.739 85.051 89.618 82.769 96.754 75.314 96.739 81.362 101.085 79.096 108.112 85.051 103.767"/><polyline fill="#F9C823" points="95.603 127.608 93.321 120.488 91.04 127.616 83.589 127.608 89.633 131.954 87.367 138.982 93.321 134.628 99.276 138.982 97.01 131.954 103.054 127.608 95.603 127.608"/><polyline fill="#F9C823" points="118.194 150.199 115.912 143.086 113.635 150.207 106.18 150.199 112.224 154.544 109.962 161.572 115.916 157.227 121.867 161.572 119.605 154.544 125.649 150.199 118.194 150.199"/><polyline fill="#F9C823" points="148.971 158.385 146.689 151.265 144.412 158.393 136.957 158.385 143.001 162.731 140.739 169.759 146.693 165.413 152.644 169.759 150.378 162.731 156.426 158.385 148.971 158.385"/><polyline fill="#F9C823" points="179.748 150.199 177.471 143.086 175.185 150.207 167.738 150.199 173.778 154.544 171.516 161.572 177.471 157.227 183.425 161.572 181.155 154.544 187.203 150.199 179.748 150.199"/><polyline fill="#F9C823" points="202.347 127.608 200.061 120.488 197.776 127.616 190.329 127.608 196.377 131.954 194.107 138.982 200.061 134.628 206.016 138.982 203.746 131.954 209.794 127.608 202.347 127.608"/><polyline fill="#F9C823" points="217.98 96.653 210.525 96.653 208.24 89.532 205.962 96.661 198.507 96.653 204.555 100.998 202.292 108.026 208.24 103.673 214.194 108.026 211.932 100.998 217.98 96.653"/><polyline fill="#F9C823" points="194.106 77.241 200.06 72.896 206.016 77.241 203.746 70.213 209.794 65.876 202.346 65.876 200.06 58.755 197.776 65.884 190.328 65.876 196.376 70.213 194.106 77.241"/><polyline fill="#F9C823" points="177.556 36.25 175.278 43.379 167.823 43.363 173.863 47.716 171.602 54.744 177.564 50.391 183.511 54.744 181.249 47.716 187.297 43.363 179.834 43.363 177.556 36.25"/><path fill="#039" d="M359.955108,59.1820436 L369.018092,62.0567649 C367.628992,67.1096672 365.318468,70.8630243 362.086521,73.3148462 C358.853579,75.7686581 354.753942,76.994569 349.784625,76.994569 C343.638154,76.994569 338.584257,74.8940025 334.625918,70.6948596 C330.667579,66.4937266 328.688409,60.7512494 328.688409,53.466433 C328.688409,45.7607072 330.678524,39.775436 334.65776,35.5126094 C338.636995,31.2487877 343.869007,29.1163793 350.354793,29.1163793 C356.017665,29.1163793 360.617816,30.7910612 364.155246,34.1384349 C366.259793,36.1185994 367.838949,38.9604838 368.89172,42.6660782 L359.63868,44.876101 C359.091398,42.4760222 357.949072,40.5814326 356.211701,39.1913372 C354.475326,37.8022368 352.363814,37.1076866 349.88015,37.1076866 C346.448197,37.1076866 343.664026,38.3385728 341.526642,40.8033304 C339.389258,43.2651028 338.321561,47.2562787 338.321561,52.7718828 C338.321561,58.6258064 339.373337,62.7941026 341.479874,65.2777662 C343.584421,67.762425 346.321824,69.0042568 349.691089,69.0042568 C352.174753,69.0042568 354.312137,68.2151762 356.10125,66.6360198 C357.891359,65.0578585 359.175978,62.5722047 359.955108,59.1820436 M384.020575,59.4347882 C384.020575,62.7622607 384.809656,65.3096081 386.387817,67.0788204 C387.967968,68.8470377 389.914301,69.7316439 392.230795,69.7316439 C394.547289,69.7316439 396.489641,68.8470377 398.057852,67.0788204 C399.626063,65.3096081 400.410168,62.7403695 400.410168,59.3730947 C400.410168,56.0884096 399.626063,53.5619585 398.057852,51.7937412 C396.489641,50.0245289 394.547289,49.1409177 392.230795,49.1409177 C389.914301,49.1409177 387.967968,50.0245289 386.387817,51.7937412 C384.809656,53.5619585 384.020575,56.1083108 384.020575,59.4347882 Z M374.924754,58.9621359 C374.924754,56.0147754 375.650151,53.1609503 377.10393,50.4036458 C378.555719,47.6453462 380.614493,45.5388094 383.277267,44.0870204 C385.941036,42.6332413 388.914268,41.9078443 392.198953,41.9078443 C397.273747,41.9078443 401.432092,43.5556596 404.67399,46.8502952 C407.915887,50.1449308 409.537831,54.3092467 409.537831,59.3402578 C409.537831,64.4150513 407.900962,68.6211597 404.626227,71.9575877 C401.352488,75.2950107 397.231954,76.9627272 392.263632,76.9627272 C389.188904,76.9627272 386.257465,76.268177 383.467323,74.8790767 C380.677182,73.4889812 378.555719,71.4520984 377.10393,68.7674331 C375.650151,66.0837629 374.924754,62.8149988 374.924754,58.9621359 L374.924754,58.9621359 Z M437.739753,76.2054884 L446.613676,76.2054884 L446.613676,42.6660782 L437.739753,42.6660782 L437.739753,76.2054884 Z M437.739753,38.1176701 L446.613676,38.1176701 L446.613676,29.9064551 L437.739753,29.9064551 L437.739753,38.1176701 Z M412.822516,42.6660782 L417.749046,42.6660782 L417.749046,40.139627 C417.749046,37.3186388 418.048559,35.212102 418.648578,33.8230016 C419.248598,32.4329062 420.354107,31.3025208 421.96411,30.4278652 C423.575108,29.5542047 425.611991,29.1163793 428.075754,29.1163793 C430.602205,29.1163793 433.075918,29.4954963 435.496893,30.2537301 L434.297849,36.4439832 C432.886857,36.1076538 431.528603,35.938494 430.223088,35.938494 C428.938469,35.938494 428.017045,36.2390014 427.459813,36.8390211 C426.901586,37.4390408 426.62297,38.5913175 426.62297,40.2978412 L426.62297,42.6660782 L433.255028,42.6660782 L433.255028,49.6454119 L426.62297,49.6454119 L426.62297,76.2054884 L417.749046,76.2054884 L417.749046,49.6454119 L412.822516,49.6454119 L412.822516,42.6660782 L412.822516,42.6660782 Z M486.500558,76.2054884 L477.626635,76.2054884 L477.626635,59.0885082 C477.626635,55.4674937 477.436579,53.1241332 477.058457,52.0614117 C476.67934,50.9986902 476.0634,50.1717974 475.210635,49.5817282 C474.357871,48.9926542 473.330972,48.6971221 472.130932,48.6971221 C470.593568,48.6971221 469.215414,49.1190265 467.994478,49.9608452 C466.773542,50.8026639 465.935704,51.9191185 465.483948,53.3092139 C465.031196,54.6983142 464.804323,57.2665578 464.804323,61.0149396 L464.804323,76.2054884 L455.929405,76.2054884 L455.929405,42.6660782 L464.172462,42.6660782 L464.172462,47.5926082 C467.098926,43.8024339 470.783624,41.9078443 475.226556,41.9078443 C477.183835,41.9078443 478.972948,42.2600947 480.594892,42.9655905 C482.215841,43.6710863 483.442747,44.5716134 484.27362,45.6651817 C485.105488,46.7607401 485.684611,48.0035669 486.011985,49.3926673 C486.337369,50.7827627 486.500558,52.7718828 486.500558,55.3610226 L486.500558,76.2054884 M514.00793,60.0984916 C512.871574,60.4776086 511.071515,60.9303597 508.608747,61.4557501 C506.144985,61.9831306 504.533987,62.4985705 503.775753,63.0040597 C502.618501,63.8249822 502.039377,64.8668075 502.039377,66.1305306 C502.039377,67.3733575 502.502079,68.4470246 503.428478,69.352527 C504.354876,70.2570343 505.53402,70.7097855 506.965907,70.7097855 C508.56596,70.7097855 510.092378,70.1843951 511.546157,69.1306291 C512.618829,68.3315979 513.324325,67.3514662 513.66165,66.1942143 C513.892503,65.4359804 514.00793,63.994142 514.00793,61.867704 L514.00793,60.0984916 Z M502.133908,52.8982551 L494.080907,51.4454711 C494.985414,48.2035735 496.54467,45.8034947 498.754692,44.2452345 C500.96571,42.6869744 504.250395,41.9078443 508.608747,41.9078443 C512.566091,41.9078443 515.513452,42.3765164 517.450829,43.3128656 C519.388206,44.2502098 520.751435,45.4402987 521.541511,46.8821371 C522.330591,48.3239755 522.724634,50.9708286 522.724634,54.8246865 L522.630104,65.1832358 C522.630104,68.1305963 522.772397,70.304797 523.056983,71.704843 C523.340575,73.104889 523.871935,74.6054358 524.65206,76.2054884 L515.871673,76.2054884 C515.639824,75.6164143 515.356233,74.7417587 515.018908,73.5835117 C514.87164,73.0581213 514.766164,72.7108462 514.703475,72.5416864 C513.188002,74.0153667 511.566058,75.1208757 509.839634,75.8572182 C508.113209,76.5945559 506.271357,76.9627272 504.313084,76.9627272 C500.859239,76.9627272 498.138752,76.026378 496.149632,74.1526846 C494.159517,72.2779962 493.164459,69.9097592 493.164459,67.0469786 C493.164459,65.1513939 493.61721,63.4617862 494.522713,61.9781554 C495.42722,60.4935295 496.696913,59.3561787 498.327813,58.567098 C499.959707,57.7770223 502.312023,57.0884425 505.386751,56.4983734 C509.534151,55.7202383 512.408872,54.9928513 514.00793,54.3201924 L514.00793,53.4355862 C514.00793,51.7290625 513.58702,50.5131021 512.745202,49.7877052 C511.903383,49.0603181 510.313281,48.6971221 507.976886,48.6971221 C506.397729,48.6971221 505.165848,49.0085751 504.281242,49.629491 C503.396636,50.251402 502.681189,51.339995 502.133908,52.8982551 L502.133908,52.8982551 Z M561.98065,76.2054884 L553.106727,76.2054884 L553.106727,59.0885082 C553.106727,55.4674937 552.917666,53.1241332 552.538549,52.0614117 C552.159432,50.9986902 551.543491,50.1717974 550.691722,49.5817282 C549.837962,48.9926542 548.812058,48.6971221 547.612019,48.6971221 C546.074655,48.6971221 544.695505,49.1190265 543.475564,49.9608452 C542.253634,50.8026639 541.415795,51.9191185 540.964039,53.3092139 C540.511288,54.6983142 540.284415,57.2665578 540.284415,61.0149396 L540.284415,76.2054884 L531.410491,76.2054884 L531.410491,42.6660782 L539.653548,42.6660782 L539.653548,47.5926082 C542.579018,43.8024339 546.263716,41.9078443 550.706648,41.9078443 C552.664921,41.9078443 554.454034,42.2600947 556.075978,42.9655905 C557.696927,43.6710863 558.922838,44.5716134 559.754706,45.6651817 C560.586574,46.7607401 561.165698,48.0035669 561.492077,49.3926673 C561.81746,50.7827627 561.98065,52.7718828 561.98065,55.3610226 L561.98065,76.2054884 M567.412669,76.2054884 L567.412669,69.2888433 L579.982236,54.8565284 C582.044991,52.499237 583.571409,50.8245551 584.561491,49.8344729 C583.529616,49.8981565 582.171363,49.939949 580.487726,49.9608452 L568.643555,50.0245289 L568.643555,42.6660782 L596.373819,42.6660782 L596.373819,48.9498667 L583.550513,63.7304517 L579.034941,68.6251399 C581.497709,68.4788664 583.025122,68.4042371 583.614196,68.4042371 L597.351961,68.4042371 L597.351961,76.2054884 L567.412669,76.2054884 M603.321311,76.2054884 L612.195235,76.2054884 L612.195235,42.6660782 L603.321311,42.6660782 L603.321311,76.2054884 Z M603.321311,38.1176701 L612.195235,38.1176701 L612.195235,29.9064551 L603.321311,29.9064551 L603.321311,38.1176701 Z M639.797136,60.0984916 C638.660781,60.4776086 636.860722,60.9303597 634.397954,61.4557501 C631.934192,61.9831306 630.323193,62.4985705 629.56496,63.0040597 C628.407708,63.8249822 627.828584,64.8668075 627.828584,66.1305306 C627.828584,67.3733575 628.291286,68.4470246 629.217684,69.352527 C630.144083,70.2570343 631.323226,70.7097855 632.755114,70.7097855 C634.355167,70.7097855 635.881585,70.1843951 637.335364,69.1306291 C638.408036,68.3315979 639.113532,67.3514662 639.450856,66.1942143 C639.68171,65.4359804 639.797136,63.994142 639.797136,61.867704 L639.797136,60.0984916 Z M627.923115,52.8982551 L619.870114,51.4454711 C620.774621,48.2035735 622.333876,45.8034947 624.543899,44.2452345 C626.754917,42.6869744 630.039602,41.9078443 634.397954,41.9078443 C638.355298,41.9078443 641.302659,42.3765164 643.240036,43.3128656 C645.177413,44.2502098 646.540642,45.4402987 647.330717,46.8821371 C648.119798,48.3239755 648.513841,50.9708286 648.513841,54.8246865 L648.41931,65.1832358 C648.41931,68.1305963 648.561603,70.304797 648.84619,71.704843 C649.129781,73.104889 649.661142,74.6054358 650.441267,76.2054884 L641.660879,76.2054884 C641.429031,75.6164143 641.145439,74.7417587 640.808115,73.5835117 C640.660846,73.0581213 640.55537,72.7108462 640.493677,72.5416864 C638.977209,74.0153667 637.355265,75.1208757 635.62884,75.8572182 C633.903411,76.5945559 632.060564,76.9627272 630.102291,76.9627272 C626.648446,76.9627272 623.927958,76.026378 621.938838,74.1526846 C619.948723,72.2779962 618.953666,69.9097592 618.953666,67.0469786 C618.953666,65.1513939 619.406417,63.4617862 620.311919,61.9781554 C621.216427,60.4935295 622.48612,59.3561787 624.118014,58.567098 C625.748914,57.7770223 628.10123,57.0884425 631.175958,56.4983734 C635.323358,55.7202383 638.198079,54.9928513 639.797136,54.3201924 L639.797136,53.4355862 C639.797136,51.7290625 639.376227,50.5131021 638.534408,49.7877052 C637.69259,49.0603181 636.102488,48.6971221 633.766093,48.6971221 C632.186936,48.6971221 630.955055,49.0085751 630.070449,49.629491 C629.185843,50.251402 628.471391,51.339995 627.923115,52.8982551 L627.923115,52.8982551 Z M672.641997,42.6660782 L672.641997,49.7399424 L666.578116,49.7399424 L666.578116,63.2568043 C666.578116,65.9942077 666.635829,67.589285 666.752251,68.0420361 C666.867677,68.4947873 667.131368,68.8679339 667.541331,69.162471 C667.95229,69.457008 668.451809,69.6052716 669.041878,69.6052716 C669.862801,69.6052716 671.051895,69.3206851 672.610155,68.7515122 L673.368389,75.6363155 C671.304639,76.5209216 668.968244,76.9627272 666.358208,76.9627272 C664.75716,76.9627272 663.314327,76.6950567 662.030703,76.1577256 C660.746083,75.6213896 659.804759,74.9258444 659.203744,74.07308 C658.604719,73.2213108 658.188785,72.067044 657.955942,70.615255 C657.767876,69.5833803 657.672351,67.4997298 657.672351,64.3613182 L657.672351,49.7399424 L653.598585,49.7399424 L653.598585,42.6660782 L657.672351,42.6660782 L657.672351,36.0021777 L666.578116,30.8229031 L666.578116,42.6660782 L672.641997,42.6660782 M685.843425,59.4347882 C685.843425,62.7622607 686.633501,65.3096081 688.211662,67.0788204 C689.791814,68.8470377 691.738146,69.7316439 694.05464,69.7316439 C696.370139,69.7316439 698.312492,68.8470377 699.880702,67.0788204 C701.448913,65.3096081 702.233018,62.7403695 702.233018,59.3730947 C702.233018,56.0884096 701.448913,53.5619585 699.880702,51.7937412 C698.312492,50.0245289 696.370139,49.1409177 694.05464,49.1409177 C691.738146,49.1409177 689.791814,50.0245289 688.211662,51.7937412 C686.633501,53.5619585 685.843425,56.1083108 685.843425,59.4347882 Z M676.747604,58.9621359 C676.747604,56.0147754 677.473996,53.1609503 678.927775,50.4036458 C680.379564,47.6453462 682.437343,45.5388094 685.101112,44.0870204 C687.763886,42.6332413 690.738113,41.9078443 694.021803,41.9078443 C699.096597,41.9078443 703.254942,43.5556596 706.497835,46.8502952 C709.738738,50.1449308 711.360681,54.3092467 711.360681,59.3402578 C711.360681,64.4150513 709.723812,68.6211597 706.450072,71.9575877 C703.176333,75.2950107 699.054804,76.9627272 694.086482,76.9627272 C691.011754,76.9627272 688.080315,76.268177 685.290173,74.8790767 C682.500032,73.4889812 680.379564,71.4520984 678.927775,68.7674331 C677.473996,66.0837629 676.747604,62.8149988 676.747604,58.9621359 L676.747604,58.9621359 Z M337.342425,136.322886 C337.342425,139.903103 337.835973,142.492243 338.827051,144.092296 C340.257944,146.40879 342.258009,147.566042 344.827248,147.566042 C346.869106,147.566042 348.606476,146.697356 350.037369,144.960981 C351.470252,143.22361 352.184703,140.6285 352.184703,137.17565 C352.184703,133.323783 351.491148,130.548567 350.102048,128.853984 C348.711953,127.159401 346.931795,126.311612 344.763564,126.311612 C342.658022,126.311612 340.895775,127.148455 339.473838,128.822142 C338.052896,130.496824 337.342425,132.996409 337.342425,136.322886 Z M361.02778,153.818983 L352.785718,153.818983 L352.785718,148.892453 C351.416519,150.808934 349.801541,152.234852 347.937798,153.172196 C346.07505,154.108545 344.195386,154.577217 342.300797,154.577217 C338.447934,154.577217 335.147328,153.023932 332.399974,149.918358 C329.65262,146.813778 328.278446,142.481297 328.278446,136.922906 C328.278446,131.238142 329.615803,126.917602 332.289523,123.958301 C334.963242,121.00099 338.341463,119.521339 342.427169,119.521339 C346.173561,119.521339 349.416453,121.080594 352.153857,124.19612 L352.153857,107.520945 L361.02778,107.520945 L361.02778,153.818983 L361.02778,153.818983 Z M388.283402,137.712982 C387.146051,138.092098 385.346987,138.54485 382.883224,139.07024 C380.419462,139.596625 378.808464,140.11306 378.05023,140.61855 C376.892978,141.439472 376.313854,142.481297 376.313854,143.744025 C376.313854,144.986852 376.776556,146.060519 377.70395,146.966022 C378.630348,147.871524 379.808496,148.324275 381.241379,148.324275 C382.840437,148.324275 384.366855,147.79789 385.820634,146.745119 C386.893306,145.945093 387.598802,144.965956 387.936127,143.808704 C388.16698,143.05047 388.283402,141.608632 388.283402,139.481199 L388.283402,137.712982 Z M376.408385,130.51175 L368.355384,129.058966 C369.260886,125.818063 370.819146,123.41699 373.030164,121.858729 C375.240187,120.301464 378.524872,119.521339 382.883224,119.521339 C386.840568,119.521339 389.787929,119.990011 391.726301,120.927355 C393.662683,121.8647 395.025912,123.053794 395.815987,124.495632 C396.605068,125.938465 396.999111,128.585319 396.999111,132.439176 L396.905576,142.797726 C396.905576,145.745086 397.046874,147.919287 397.33146,149.319333 C397.616047,150.719379 398.147407,152.219926 398.926537,153.818983 L390.147145,153.818983 C389.914301,153.229909 389.63071,152.355254 389.293385,151.197007 C389.147112,150.671616 389.040641,150.324341 388.978947,150.156176 C387.462479,151.629857 385.84153,152.73437 384.114111,153.471708 C382.388681,154.209046 380.545834,154.577217 378.588556,154.577217 C375.134711,154.577217 372.413229,153.640868 370.424109,151.767175 C368.433993,149.892486 367.438936,147.524249 367.438936,144.660473 C367.438936,142.765884 367.892682,141.076276 368.798185,139.59165 C369.702692,138.107024 370.97139,136.970669 372.603285,136.181588 C374.235179,135.391512 376.587495,134.701937 379.662223,134.112863 C383.809623,133.333733 386.683349,132.607341 388.283402,131.933687 L388.283402,131.049081 C388.283402,129.343552 387.862492,128.127592 387.019679,127.4012 C386.17786,126.674808 384.588753,126.311612 382.251363,126.311612 C380.672206,126.311612 379.440325,126.62207 378.555719,127.242986 C377.672108,127.864897 376.956661,128.954485 376.408385,130.51175 L376.408385,130.51175 Z M405.747657,153.818983 L414.62158,153.818983 L414.62158,107.520945 L405.747657,107.520945 L405.747657,153.818983 Z M423.718397,153.818983 L432.59232,153.818983 L432.59232,107.520945 L423.718397,107.520945 L423.718397,153.818983 Z M441.623462,123.975217 L439.950771,115.353043 L439.950771,107.520945 L449.613775,107.520945 L449.613775,115.353043 L448.160991,123.975217 L441.623462,123.975217 M457.068746,107.520945 L466.416317,107.520945 L466.416317,132.596396 C466.416317,136.575631 466.530748,139.15482 466.763592,140.332968 C467.16261,142.228553 468.115875,143.749996 469.621397,144.897297 C471.126919,146.045594 473.184698,146.618747 475.795729,146.618747 C478.448553,146.618747 480.448618,146.07644 481.795926,144.991828 C483.143234,143.90821 483.954206,142.575828 484.228842,140.996671 C484.501488,139.41851 484.638806,136.796534 484.638806,133.132732 L484.638806,107.520945 L493.986377,107.520945 L493.986377,131.838162 C493.986377,137.396553 493.733632,141.324045 493.228143,143.617653 C492.723648,145.913251 491.79128,147.850628 490.434021,149.428789 C489.075767,151.008941 487.259787,152.266693 484.986081,153.203043 C482.712374,154.139392 479.743123,154.608064 476.079321,154.608064 C471.65828,154.608064 468.305931,154.097599 466.021279,153.07667 C463.736627,152.056736 461.930597,150.730325 460.60518,149.097435 C459.277774,147.465541 458.404113,145.756032 457.984199,143.965923 C457.372238,141.3131 457.068746,137.396553 457.068746,132.217279 L457.068746,107.520945 M534.283223,153.818983 L525.409299,153.818983 L525.409299,136.702003 C525.409299,133.080989 525.220238,130.738623 524.841121,129.675902 C524.462004,128.612185 523.846064,127.785292 522.994295,127.195223 C522.140535,126.607144 521.114631,126.311612 519.914591,126.311612 C518.377227,126.311612 516.998078,126.732521 515.778137,127.57434 C514.556206,128.417154 513.718368,129.533608 513.266612,130.922709 C512.813861,132.312804 512.587983,134.881048 512.587983,138.62943 L512.587983,153.818983 L503.713064,153.818983 L503.713064,120.279573 L511.956121,120.279573 L511.956121,125.206103 C514.88159,121.416924 518.566288,119.521339 523.00922,119.521339 C524.967494,119.521339 526.756607,119.874585 528.378551,120.58008 C529.9995,121.285576 531.225411,122.185108 532.057279,123.279672 C532.889147,124.374235 533.46827,125.617062 533.794649,127.007157 C534.120033,128.396258 534.283223,130.385378 534.283223,132.975512 L534.283223,153.818983 M543.284513,153.818983 L552.158437,153.818983 L552.158437,120.279573 L543.284513,120.279573 L543.284513,153.818983 Z M543.284513,115.73216 L552.158437,115.73216 L552.158437,107.520945 L543.284513,107.520945 L543.284513,115.73216 Z M568.297275,137.049278 C568.297275,140.375756 569.087351,142.924098 570.665512,144.692315 C572.245664,146.461528 574.191996,147.345139 576.50849,147.345139 C578.823989,147.345139 580.766342,146.461528 582.334552,144.692315 C583.902763,142.924098 584.687863,140.354859 584.687863,136.98659 C584.687863,133.701904 583.902763,131.175453 582.334552,129.407236 C580.766342,127.639019 578.823989,126.754413 576.50849,126.754413 C574.191996,126.754413 572.245664,127.639019 570.665512,129.407236 C569.087351,131.175453 568.297275,133.722801 568.297275,137.049278 Z M559.201454,136.575631 C559.201454,133.62827 559.927846,130.77544 561.381625,128.018136 C562.833414,125.258841 564.891193,123.153299 567.554962,121.70151 C570.218731,120.247731 573.191963,119.521339 576.476648,119.521339 C581.550447,119.521339 585.708793,121.17015 588.951685,124.46379 C592.193583,127.759421 593.814531,131.922742 593.814531,136.954748 C593.814531,142.029541 592.177662,146.234654 588.903922,149.572078 C585.630183,152.908506 581.508655,154.577217 576.540332,154.577217 C573.465604,154.577217 570.534165,153.882667 567.744023,152.492572 C564.953882,151.103471 562.833414,149.066588 561.381625,146.381923 C559.927846,143.697258 559.201454,140.428494 559.201454,136.575631 L559.201454,136.575631 Z M631.269493,153.818983 L622.39557,153.818983 L622.39557,136.702003 C622.39557,133.080989 622.206509,130.738623 621.827392,129.675902 C621.448275,128.612185 620.832334,127.785292 619.97957,127.195223 C619.126806,126.607144 618.100901,126.311612 616.900862,126.311612 C615.363498,126.311612 613.984348,126.732521 612.763413,127.57434 C611.542477,128.417154 610.704639,129.533608 610.252882,130.922709 C609.800131,132.312804 609.573258,134.881048 609.573258,138.62943 L609.573258,153.818983 L600.69834,153.818983 L600.69834,120.279573 L608.942392,120.279573 L608.942392,125.206103 C611.867861,121.416924 615.552559,119.521339 619.995491,119.521339 C621.953764,119.521339 623.742878,119.874585 625.363827,120.58008 C626.984775,121.285576 628.211681,122.185108 629.043549,123.279672 C629.875418,124.374235 630.454541,125.617062 630.78092,127.007157 C631.106304,128.396258 631.269493,130.385378 631.269493,132.975512 L631.269493,153.818983 M660.198802,134.175552 C660.136113,131.607308 659.473405,129.65401 658.209682,128.316653 C656.946954,126.981286 655.40959,126.311612 653.59759,126.311612 C651.661208,126.311612 650.061155,127.018103 648.797432,128.428099 C647.534704,129.839091 646.913788,131.754577 646.934684,134.175552 L660.198802,134.175552 Z M659.693312,143.145001 L668.536389,144.628632 C667.400033,147.871524 665.604949,150.340262 663.152133,152.034845 C660.698321,153.729428 657.629563,154.577217 653.94586,154.577217 C648.113828,154.577217 643.797268,152.671682 640.997176,148.861606 C638.787153,145.807775 637.680649,141.954912 637.680649,137.302023 C637.680649,131.743631 639.134428,127.391249 642.039996,124.243882 C644.945564,121.09552 648.619317,119.521339 653.061254,119.521339 C658.051467,119.521339 661.987915,121.17015 664.873582,124.46379 C667.757259,127.759421 669.136409,132.807348 669.010036,139.607571 L646.77647,139.607571 C646.840154,142.239498 647.5556,144.287327 648.923804,145.750061 C650.293004,147.213791 651.998532,147.945158 654.041385,147.945158 C655.430486,147.945158 656.598683,147.566042 657.545978,146.807808 C658.493273,146.050569 659.208719,144.829633 659.693312,143.145001 L659.693312,143.145001 Z M714.139877,134.175552 C714.077188,131.607308 713.41448,129.65401 712.150757,128.316653 C710.888029,126.981286 709.350665,126.311612 707.538665,126.311612 C705.602283,126.311612 704.002231,127.018103 702.738508,128.428099 C701.47578,129.839091 700.854864,131.754577 700.87576,134.175552 L714.139877,134.175552 Z M713.634388,143.145001 L722.477464,144.628632 C721.341109,147.871524 719.546025,150.340262 717.093208,152.034845 C714.639396,153.729428 711.570638,154.577217 707.886935,154.577217 C702.054903,154.577217 697.738343,152.671682 694.938251,148.861606 C692.728228,145.807775 691.621724,141.954912 691.621724,137.302023 C691.621724,131.743631 693.075504,127.391249 695.981072,124.243882 C698.88664,121.09552 702.560392,119.521339 707.002329,119.521339 C711.992543,119.521339 715.928991,121.17015 718.814658,124.46379 C721.698334,127.759421 723.077484,132.807348 722.951112,139.607571 L700.717546,139.607571 C700.781229,142.239498 701.496676,144.287327 702.86488,145.750061 C704.234079,147.213791 705.939608,147.945158 707.982461,147.945158 C709.371561,147.945158 710.539759,147.566042 711.487054,146.807808 C712.434348,146.050569 713.149795,144.829633 713.634388,143.145001 L713.634388,143.145001 Z M752.259537,153.818983 L752.259537,148.796928 C751.037607,150.587036 749.432579,151.998028 747.443459,153.029903 C745.453344,154.060782 743.353772,154.577217 741.142754,154.577217 C738.888949,154.577217 736.867987,154.082673 735.078873,153.092591 C733.288765,152.103504 731.99519,150.713409 731.195164,148.9233 C730.394142,147.134187 729.994129,144.660473 729.994129,141.502161 L729.994129,120.279573 L738.869048,120.279573 L738.869048,135.691025 C738.869048,140.408592 739.032237,143.297245 739.358616,144.359966 C739.684,145.424678 740.279044,146.265501 741.142754,146.886417 C742.005469,147.508328 743.101027,147.818786 744.427439,147.818786 C745.942912,147.818786 747.30017,147.402852 748.501205,146.570984 C749.701244,145.740111 750.523162,144.708236 750.963972,143.476355 C751.406773,142.244474 751.627676,139.228454 751.627676,134.428297 L751.627676,120.279573 L760.502594,120.279573 L760.502594,153.818983 L752.259537,153.818983 M778.186757,153.818983 L769.313829,153.818983 L769.313829,120.279573 L777.555891,120.279573 L777.555891,125.047889 C778.965887,122.795079 780.234586,121.311448 781.360991,120.596001 C782.487396,119.880555 783.766045,119.521339 785.197933,119.521339 C787.21989,119.521339 789.167217,120.079566 791.040911,121.196021 L788.293557,128.932594 C786.797985,127.965398 785.40789,127.47981 784.124266,127.47981 C782.881439,127.47981 781.829663,127.822109 780.965953,128.506709 C780.102243,129.191309 779.424609,130.428165 778.930065,132.217279 C778.434526,134.007387 778.186757,137.755769 778.186757,143.460434 L778.186757,153.818983 M801.904949,137.049278 C801.904949,140.375756 802.695025,142.924098 804.273186,144.692315 C805.853338,146.461528 807.79967,147.345139 810.116164,147.345139 C812.432658,147.345139 814.375011,146.461528 815.943221,144.692315 C817.511432,142.924098 818.295537,140.354859 818.295537,136.98659 C818.295537,133.701904 817.511432,131.175453 815.943221,129.407236 C814.375011,127.639019 812.432658,126.754413 810.116164,126.754413 C807.79967,126.754413 805.853338,127.639019 804.273186,129.407236 C802.695025,131.175453 801.904949,133.722801 801.904949,137.049278 Z M792.810123,136.575631 C792.810123,133.62827 793.53552,130.77544 794.989299,128.018136 C796.441088,125.258841 798.499862,123.153299 801.162636,121.70151 C803.826405,120.247731 806.799637,119.521339 810.084322,119.521339 C815.159116,119.521339 819.316466,121.17015 822.559359,124.46379 C825.801257,127.759421 827.4232,131.922742 827.4232,136.954748 C827.4232,142.029541 825.785336,146.234654 822.511596,149.572078 C819.237857,152.908506 815.117324,154.577217 810.149001,154.577217 C807.074273,154.577217 804.141839,153.882667 801.352692,152.492572 C798.562551,151.103471 796.441088,149.066588 794.989299,146.381923 C793.53552,143.697258 792.810123,140.428494 792.810123,136.575631 L792.810123,136.575631 Z M842.897341,136.4811 C842.897341,140.249383 843.644629,143.033554 845.1402,144.834609 C846.634777,146.633673 848.455732,147.5342 850.603066,147.5342 C852.666816,147.5342 854.382295,146.708302 855.751494,145.055511 C857.119698,143.402721 857.803303,140.692184 857.803303,136.922906 C857.803303,133.407367 857.097807,130.796336 855.68781,129.090808 C854.276819,127.386274 852.529498,126.532515 850.445847,126.532515 C848.276622,126.532515 846.476563,127.369358 845.044675,129.04404 C843.612787,130.716732 842.897341,133.19741 842.897341,136.4811 Z M834.117948,120.279573 L842.391851,120.279573 L842.391851,125.206103 C843.466514,123.522466 844.918302,122.154261 846.751199,121.100496 C848.582104,120.04872 850.614012,119.521339 852.845926,119.521339 C856.740581,119.521339 860.046163,121.048753 862.76267,124.101589 C865.478182,127.153431 866.836435,131.407302 866.836435,136.860217 C866.836435,142.460401 865.467236,146.813778 862.729833,149.918358 C859.993425,153.023932 856.676898,154.577217 852.782242,154.577217 C850.929445,154.577217 849.249788,154.209046 847.745261,153.471708 C846.239739,152.73437 844.654612,151.471642 842.991871,149.681534 L842.991871,166.577611 L834.117948,166.577611 L834.117948,120.279573 L834.117948,120.279573 Z M893.806476,134.175552 C893.742792,131.607308 893.080084,129.65401 891.817356,128.316653 C890.553632,126.981286 889.016269,126.311612 887.205264,126.311612 C885.268882,126.311612 883.667834,127.018103 882.405106,128.428099 C881.141383,129.839091 880.520467,131.754577 880.542358,134.175552 L893.806476,134.175552 Z M893.300986,143.145001 L902.144063,144.628632 C901.006712,147.871524 899.211628,150.340262 896.759806,152.034845 C894.305995,153.729428 891.237237,154.577217 887.553534,154.577217 C881.720506,154.577217 877.403947,152.671682 874.60485,148.861606 C872.393832,145.807775 871.288323,141.954912 871.288323,137.302023 C871.288323,131.743631 872.742102,127.391249 875.64767,124.243882 C878.553238,121.09552 882.225996,119.521339 886.668928,119.521339 C891.659141,119.521339 895.595589,121.17015 898.480261,124.46379 C901.364933,127.759421 902.743088,132.807348 902.616715,139.607571 L880.384144,139.607571 C880.447828,142.239498 881.163274,144.287327 882.531478,145.750061 C883.900678,147.213791 885.606206,147.945158 887.648064,147.945158 C889.03816,147.945158 890.206357,147.566042 891.153652,146.807808 C892.100947,146.050569 892.816393,144.829633 893.300986,143.145001 L893.300986,143.145001 Z M928.356864,137.712982 C927.219514,138.092098 925.419454,138.54485 922.956687,139.07024 C920.492924,139.596625 918.881926,140.11306 918.123692,140.61855 C916.96644,141.439472 916.387317,142.481297 916.387317,143.744025 C916.387317,144.986852 916.850019,146.060519 917.777412,146.966022 C918.702816,147.871524 919.881959,148.324275 921.313847,148.324275 C922.913899,148.324275 924.440318,147.79789 925.894097,146.745119 C926.966769,145.945093 927.672265,144.965956 928.009589,143.808704 C928.240443,143.05047 928.356864,141.608632 928.356864,139.481199 L928.356864,137.712982 Z M916.481847,130.51175 L908.428846,129.058966 C909.333354,125.818063 910.892609,123.41699 913.102632,121.858729 C915.31365,120.301464 918.598335,119.521339 922.956687,119.521339 C926.914031,119.521339 929.861391,119.990011 931.798768,120.927355 C933.736145,121.8647 935.099374,123.053794 935.88945,124.495632 C936.678531,125.938465 937.072574,128.585319 937.072574,132.439176 L936.979038,142.797726 C936.979038,145.745086 937.120336,147.919287 937.404923,149.319333 C937.688514,150.719379 938.22087,152.219926 939,153.818983 L930.220607,153.818983 C929.987764,153.229909 929.704172,152.355254 929.366848,151.197007 C929.220574,150.671616 929.114103,150.324341 929.05241,150.156176 C927.535942,151.629857 925.913998,152.73437 924.187573,153.471708 C922.462143,154.209046 920.619297,154.577217 918.661023,154.577217 C915.208174,154.577217 912.486691,153.640868 910.497571,151.767175 C908.507456,149.892486 907.512398,147.524249 907.512398,144.660473 C907.512398,142.765884 907.96515,141.076276 908.870652,139.59165 C909.776154,138.107024 911.044853,136.970669 912.676747,136.181588 C914.307647,135.391512 916.660958,134.701937 919.734691,134.112863 C923.88209,133.333733 926.756812,132.607341 928.356864,131.933687 L928.356864,131.049081 C928.356864,129.343552 927.935955,128.127592 927.093141,127.4012 C926.251323,126.674808 924.662216,126.311612 922.324825,126.311612 C920.745669,126.311612 919.513788,126.62207 918.629182,127.242986 C917.744575,127.864897 917.030124,128.954485 916.481847,130.51175 L916.481847,130.51175 Z"/></g></svg>