<svg xmlns="http://www.w3.org/2000/svg" width="975" height="232" viewBox="0 0 975 232"><g fill="none" fill-rule="evenodd" transform="translate(18 26)"><polygon fill="#FFFFFE" points="0 180.538 265.866 180.538 265.866 0 0 0"/><polygon fill="#039" points="5.113 175.381 260.755 175.381 260.755 4.951 5.113 4.951"/><polyline fill="#F9C823" points="127.486 42.085 132.88 38.149 138.275 42.085 136.222 35.718 141.702 31.782 134.947 31.782 132.88 25.339 130.814 31.789 124.064 31.782 129.539 35.718 127.486 42.085"/><polyline fill="#F9C823" points="99.571 49.585 104.965 45.648 110.356 49.585 108.306 43.218 113.782 39.282 107.028 39.282 104.962 32.831 102.895 39.289 96.144 39.282 101.62 43.218 99.571 49.585"/><polyline fill="#F9C823" points="84.539 53.303 82.472 59.761 75.722 59.754 81.197 63.69 79.145 70.057 84.539 66.12 89.933 70.057 87.88 63.69 93.355 59.754 86.606 59.754 84.539 53.303"/><polyline fill="#F9C823" points="77.046 94.001 82.438 97.937 80.388 91.572 85.863 87.634 79.113 87.634 77.046 81.184 74.979 87.649 68.226 87.634 73.705 91.572 71.652 97.937 77.046 94.001"/><polyline fill="#F9C823" points="86.606 115.599 84.539 109.148 82.472 115.606 75.722 115.599 81.197 119.535 79.145 125.902 84.539 121.958 89.933 125.902 87.88 119.535 93.355 115.599 86.606 115.599"/><polyline fill="#F9C823" points="107.07 136.063 105.003 129.62 102.94 136.071 96.187 136.063 101.662 140 99.613 146.366 105.007 142.43 110.398 146.366 108.349 140 113.824 136.063 107.07 136.063"/><polyline fill="#F9C823" points="134.951 143.479 132.884 137.029 130.821 143.486 124.067 143.479 129.543 147.416 127.494 153.782 132.888 149.846 138.278 153.782 136.226 147.416 141.704 143.479 134.951 143.479"/><polyline fill="#F9C823" points="162.832 136.063 160.768 129.62 158.698 136.071 151.952 136.063 157.423 140 155.374 146.366 160.768 142.43 166.162 146.366 164.106 140 169.585 136.063 162.832 136.063"/><polyline fill="#F9C823" points="183.304 115.599 181.233 109.148 179.163 115.606 172.416 115.599 177.895 119.535 175.839 125.902 181.233 121.958 186.627 125.902 184.571 119.535 190.05 115.599 183.304 115.599"/><polyline fill="#F9C823" points="197.466 87.557 190.712 87.557 188.642 81.106 186.578 87.564 179.825 87.557 185.304 91.493 183.254 97.86 188.642 93.916 194.036 97.86 191.987 91.493 197.466 87.557"/><polyline fill="#F9C823" points="175.838 69.972 181.232 66.036 186.627 69.972 184.571 63.605 190.05 59.676 183.303 59.676 181.232 53.226 179.163 59.683 172.415 59.676 177.894 63.605 175.838 69.972"/><polyline fill="#F9C823" points="160.846 32.838 158.783 39.296 152.029 39.282 157.501 43.225 155.452 49.592 160.853 45.648 166.24 49.592 164.191 43.225 169.67 39.282 162.909 39.282 160.846 32.838"/><path fill="#039" d="M297.806129,68.9001969 L297.806129,26.9584775 L310.480859,26.9584775 L318.090564,55.5683387 L325.614636,26.9584775 L338.31731,26.9584775 L338.31731,68.9001969 L330.449801,68.9001969 L330.449801,35.8851436 L322.125277,68.9001969 L313.971119,68.9001969 L305.674539,35.8851436 L305.674539,68.9001969 L297.806129,68.9001969 M364.723223,51.104555 C364.666434,48.778015 364.066095,47.0085466 362.921304,45.7979526 C361.777414,44.5873586 360.384735,43.9807094 358.744168,43.9807094 C356.989123,43.9807094 355.539655,44.6207107 354.394864,45.8980091 C353.250974,47.1762089 352.688494,48.9123251 352.707424,51.104555 L364.723223,51.104555 Z M364.266208,59.2298673 L372.27614,60.57387 C371.246729,63.5115662 369.620585,65.7479651 367.398609,67.2839682 C365.175731,68.81907 362.395782,69.5861701 359.058761,69.5861701 C353.775595,69.5861701 349.865277,67.8599694 347.32961,64.4084694 C345.326676,61.6429426 344.325209,58.152682 344.325209,53.9367861 C344.325209,48.9015082 345.64217,44.9587396 348.273387,42.1075789 C350.905505,39.2564181 354.233511,37.830387 358.258308,37.830387 C362.777979,37.830387 366.343959,39.3231225 368.958048,42.3076919 C371.570335,45.2922614 372.81969,49.8651158 372.705211,56.0253537 L352.564099,56.0253537 C352.622691,58.4104854 353.269904,60.2646863 354.509343,61.5897594 C355.749683,62.915734 357.294701,63.5782705 359.145296,63.5782705 C360.404566,63.5782705 361.46192,63.2357346 362.320063,62.54886 C363.179107,61.8619853 363.82632,60.7568563 364.266208,59.2298673 L364.266208,59.2298673 Z M385.665688,53.0506998 C385.665688,56.2930726 386.112788,58.6394436 387.009691,60.0880099 C388.30682,62.1864931 390.117754,63.2357346 392.445195,63.2357346 C394.294889,63.2357346 395.868751,62.447902 397.165881,60.8749411 C398.46301,59.3010787 399.111124,56.9511021 399.111124,53.822307 C399.111124,50.3329477 398.482841,47.8198159 397.223571,46.2847141 C395.965202,44.7496124 394.352579,43.9807094 392.388406,43.9807094 C390.481022,43.9807094 388.883723,44.7396969 387.596509,46.2549676 C386.309295,47.7720411 385.665688,50.0372852 385.665688,53.0506998 Z M407.121957,68.9001969 L399.654674,68.9001969 L399.654674,64.4364131 C398.414334,66.1725294 396.951345,67.4651517 395.263003,68.3133788 C393.575563,69.1625073 391.873701,69.5861701 390.156514,69.5861701 C386.666254,69.5861701 383.677177,68.1799701 381.187482,65.3666686 C378.698688,62.5542685 377.454742,58.6286266 377.454742,53.5933488 C377.454742,48.4435918 378.665336,44.5296683 381.088327,41.8497755 C383.509515,39.1698827 386.570704,37.830387 390.270993,37.830387 C393.665704,37.830387 396.603401,39.2419955 399.08318,42.0643112 L399.08318,26.9584775 L407.121957,26.9584775 L407.121957,68.9001969 L407.121957,68.9001969 Z M433.0997,51.104555 C433.042912,48.778015 432.441671,47.0085466 431.297781,45.7979526 C430.15299,44.5873586 428.761213,43.9807094 427.119745,43.9807094 C425.3656,43.9807094 423.916132,44.6207107 422.771341,45.8980091 C421.62655,47.1762089 421.06407,48.9123251 421.083901,51.104555 L433.0997,51.104555 Z M432.641784,59.2298673 L440.652617,60.57387 C439.622305,63.5115662 437.997062,65.7479651 435.775086,67.2839682 C433.552208,68.81907 430.772259,69.5861701 427.435238,69.5861701 C422.151171,69.5861701 418.241755,67.8599694 415.705186,64.4084694 C413.702252,61.6429426 412.700786,58.152682 412.700786,53.9367861 C412.700786,48.9015082 414.017746,44.9587396 416.649864,42.1075789 C419.281982,39.2564181 422.609087,37.830387 426.633884,37.830387 C431.154457,37.830387 434.720436,39.3231225 437.333625,42.3076919 C439.946813,45.2922614 441.195266,49.8651158 441.080787,56.0253537 L420.940577,56.0253537 C420.998267,58.4104854 421.646381,60.2646863 422.88582,61.5897594 C424.126161,62.915734 425.671178,63.5782705 427.521774,63.5782705 C428.780142,63.5782705 429.838398,63.2357346 430.696541,62.54886 C431.554683,61.8619853 432.202797,60.7568563 432.641784,59.2298673 L432.641784,59.2298673 Z M454.071011,53.0795449 C454.071011,56.3020867 454.694787,58.6628802 455.945043,60.1592213 C457.193496,61.6564638 458.734006,62.4055358 460.565672,62.4055358 C462.528944,62.4055358 464.18844,61.6384356 465.542358,60.1024325 C466.897178,58.5673307 467.574137,56.2930726 467.574137,53.2787566 C467.574137,50.1319333 466.925122,47.7954778 465.628894,46.2693902 C464.330863,44.744204 462.691197,43.9807094 460.708095,43.9807094 C458.78088,43.9807094 457.193496,44.7297814 455.945043,46.2270239 C454.694787,47.7242664 454.071011,50.00844 454.071011,53.0795449 Z M446.889475,70.9022291 L456.073043,72.0181751 C456.225381,73.0863463 456.578734,73.8209957 457.1322,74.2212218 C457.894793,74.7936174 459.096373,75.0793644 460.736038,75.0793644 C462.834522,75.0793644 464.407483,74.7638708 465.456724,74.1355879 C466.162528,73.7155307 466.696163,73.0385715 467.059432,72.1038091 C467.306418,71.435864 467.431714,70.2063404 467.431714,68.4143367 L467.431714,63.9793981 C465.028554,67.2596302 461.995309,68.9001969 458.332879,68.9001969 C454.252194,68.9001969 451.018836,67.1739962 448.634605,63.7215948 C446.76508,60.9939272 445.831219,57.5983147 445.831219,53.5374613 C445.831219,48.4435918 447.056236,44.553105 449.50717,41.8641981 C451.958105,39.1743898 455.004872,37.830387 458.648372,37.830387 C462.40545,37.830387 465.504499,39.4799679 467.945518,42.7800309 L467.945518,38.5172617 L475.470491,38.5172617 L475.470491,65.7822187 C475.470491,69.3671274 475.174828,72.0470202 474.582602,73.8209957 C473.992178,75.5940697 473.161979,76.9858472 472.09471,77.9972295 C471.025637,79.0077105 469.600507,79.7991487 467.817518,80.3715442 C466.033627,80.9439398 463.778298,81.2305882 461.051532,81.2305882 C455.901775,81.2305882 452.249261,80.3481076 450.093989,78.5840476 C447.938717,76.8199877 446.861531,74.5826874 446.861531,71.8748508 C446.861531,71.607132 446.870545,71.2835257 446.889475,70.9022291 L446.889475,70.9022291 Z M501.475276,51.104555 C501.418488,48.778015 500.818148,47.0085466 499.673357,45.7979526 C498.529468,44.5873586 497.136789,43.9807094 495.496222,43.9807094 C493.741176,43.9807094 492.291708,44.6207107 491.146917,45.8980091 C490.003028,47.1762089 489.440548,48.9123251 489.459477,51.104555 L501.475276,51.104555 Z M501.018261,59.2298673 L509.028193,60.57387 C507.998783,63.5115662 506.372639,65.7479651 504.150662,67.2839682 C501.927784,68.81907 499.147835,69.5861701 495.810814,69.5861701 C490.527649,69.5861701 486.617331,67.8599694 484.081664,64.4084694 C482.07873,61.6429426 481.077263,58.152682 481.077263,53.9367861 C481.077263,48.9015082 482.394223,44.9587396 485.02544,42.1075789 C487.657558,39.2564181 490.985565,37.830387 495.010362,37.830387 C499.530033,37.830387 503.096012,39.3231225 505.710102,42.3076919 C508.322389,45.2922614 509.571744,49.8651158 509.457265,56.0253537 L489.316153,56.0253537 C489.374745,58.4104854 490.021957,60.2646863 491.261397,61.5897594 C492.501737,62.915734 494.046754,63.5782705 495.89735,63.5782705 C497.155718,63.5782705 498.213974,63.2357346 499.072117,62.54886 C499.931161,61.8619853 500.578373,60.7568563 501.018261,59.2298673 L501.018261,59.2298673 Z M535.262838,68.9001969 L543.301615,68.9001969 L543.301615,38.5172617 L535.262838,38.5172617 L535.262838,68.9001969 Z M535.262838,34.3969152 L543.301615,34.3969152 L543.301615,26.9584775 L535.262838,26.9584775 L535.262838,34.3969152 Z M512.690623,38.5172617 L517.153506,38.5172617 L517.153506,36.2285809 C517.153506,33.6730828 517.42483,31.7647972 517.968381,30.5064284 C518.511931,29.2471583 519.513398,28.2231562 520.97188,27.4308165 C522.432164,26.6393783 524.27645,26.2427578 526.508342,26.2427578 C528.797022,26.2427578 531.037928,26.5861951 533.23106,27.2730697 L532.14486,32.8807431 C530.86666,32.5760665 529.636235,32.4228267 528.453585,32.4228267 C527.289864,32.4228267 526.455158,32.6950526 525.950369,33.238603 C525.444678,33.7821534 525.192283,34.8259865 525.192283,36.3719052 L525.192283,38.5172617 L531.200182,38.5172617 L531.200182,44.8397534 L525.192283,44.8397534 L525.192283,68.9001969 L517.153506,68.9001969 L517.153506,44.8397534 L512.690623,44.8397534 L512.690623,38.5172617 L512.690623,38.5172617 Z M579.435548,68.9001969 L571.396771,68.9001969 L571.396771,53.3932357 C571.396771,50.113905 571.224602,47.9910838 570.882066,47.0283776 C570.538629,46.0656714 569.980656,45.3165995 569.208147,44.7820632 C568.435638,44.2484283 567.505383,43.9807094 566.418282,43.9807094 C565.025603,43.9807094 563.77715,44.3629074 562.67112,45.1255005 C561.565089,45.8880936 560.806102,46.899476 560.396861,48.1587461 C559.98672,49.4171149 559.781198,51.7436548 559.781198,55.1392674 L559.781198,68.9001969 L551.74152,68.9001969 L551.74152,38.5172617 L559.208803,38.5172617 L559.208803,42.980144 C561.85985,39.5466722 565.197773,37.830387 569.22257,37.830387 C570.996545,37.830387 572.616379,38.1494863 574.085678,38.7885862 C575.554075,39.4276861 576.665514,40.2434624 577.419093,41.2341123 C578.171771,42.226565 578.696392,43.3524265 578.992956,44.6107952 C579.287717,45.8700654 579.435548,47.6719846 579.435548,50.0174541 L579.435548,68.9001969 M604.354134,54.3090685 C603.324724,54.6525059 601.694072,55.0626475 599.463082,55.5385922 C597.23119,56.0163396 595.771807,56.4832702 595.084932,56.9411866 C594.036592,57.6848501 593.511971,58.6286266 593.511971,59.7734177 C593.511971,60.8992792 593.931127,61.8719009 594.771241,62.6921842 C595.609553,63.5115662 596.677724,63.9217079 597.974854,63.9217079 C599.424321,63.9217079 600.807085,63.4457632 602.124045,62.4911697 C603.095765,61.7673373 603.734865,60.8794481 604.040443,59.831108 C604.249571,59.1442333 604.354134,57.8380898 604.354134,55.911776 L604.354134,54.3090685 Z M593.597605,47.7864637 L586.302492,46.4704047 C587.121874,43.5336099 588.534384,41.3594083 590.536416,39.9468984 C592.53935,38.5361913 595.514905,37.830387 599.463082,37.830387 C603.047991,37.830387 605.717968,38.2549513 607.473014,39.1031784 C609.22806,39.9523069 610.462992,41.0303936 611.178712,42.3365371 C611.89353,43.6426806 612.250488,46.0404319 612.250488,49.531594 L612.164854,58.9152751 C612.164854,61.5852524 612.293756,63.5548339 612.551559,64.8231182 C612.808461,66.0914024 613.289814,67.4507291 613.99652,68.9001969 L606.042476,68.9001969 C605.832447,68.366562 605.575545,67.5742224 605.269967,66.5249808 C605.13746,66.0490361 605.041009,65.734444 604.985121,65.5812042 C603.611372,66.9161928 602.142073,67.9176597 600.578127,68.5847033 C599.015081,69.2526483 597.345669,69.5861701 595.571694,69.5861701 C592.442899,69.5861701 589.978443,68.737943 588.176524,67.0405875 C586.373703,65.3423305 585.472293,63.1978754 585.472293,60.6027152 C585.472293,58.88643 585.882435,57.3558353 586.702718,56.0118326 C587.5221,54.6669284 588.672299,53.6366165 590.150612,52.9217981 C591.628024,52.2060783 593.758958,51.5823024 596.544315,51.0477661 C600.301394,50.3428633 602.905568,49.6839323 604.354134,49.0736776 L604.354134,48.2732252 C604.354134,46.7273066 603.972838,45.6257832 603.210245,44.9686551 C602.447651,44.3097242 601.007198,43.9807094 598.890686,43.9807094 C597.460148,43.9807094 596.344202,44.2628509 595.542849,44.8253309 C594.741495,45.3887123 594.094282,46.3748552 593.597605,47.7864637 L593.597605,47.7864637 Z M647.811124,68.9001969 L639.772347,68.9001969 L639.772347,53.3932357 C639.772347,50.113905 639.601079,47.9910838 639.257642,47.0283776 C638.914205,46.0656714 638.356232,45.3165995 637.584625,44.7820632 C636.811215,44.2484283 635.881861,43.9807094 634.79476,43.9807094 C633.402081,43.9807094 632.152726,44.3629074 631.047597,45.1255005 C629.940665,45.8880936 629.181678,46.899476 628.772438,48.1587461 C628.362296,49.4171149 628.157676,51.7436548 628.157676,55.1392674 L628.157676,68.9001969 L620.117997,68.9001969 L620.117997,38.5172617 L627.58528,38.5172617 L627.58528,42.980144 C630.235426,39.5466722 633.573349,37.830387 637.598146,37.830387 C639.372121,37.830387 640.992857,38.1494863 642.462156,38.7885862 C643.930553,39.4276861 645.04109,40.2434624 645.794669,41.2341123 C646.548248,42.226565 647.072869,43.3524265 647.368532,44.6107952 C647.663293,45.8700654 647.811124,47.6719846 647.811124,50.0174541 L647.811124,68.9001969 M682.456829,47.4998152 L674.532531,48.9303533 C674.264812,47.3483783 673.659966,46.1549111 672.715288,45.3535573 C671.771511,44.553105 670.545593,44.1528788 669.039337,44.1528788 C667.036403,44.1528788 665.439104,44.8442605 664.24744,46.2270239 C663.054874,47.6106887 662.459042,49.9228061 662.459042,53.1651789 C662.459042,56.7699186 663.064789,59.3155013 664.276285,60.8028283 C665.486879,62.2910566 667.112121,63.0356215 669.153816,63.0356215 C670.679002,63.0356215 671.928357,62.6011418 672.90188,61.7330837 C673.8736,60.865927 674.560475,59.3731915 674.961602,57.2557788 L682.857956,58.6006829 C682.037673,62.2243523 680.463811,64.9610339 678.137271,66.8116292 C675.809829,68.6613232 672.691851,69.5861701 668.782435,69.5861701 C664.337581,69.5861701 660.795038,68.1853785 658.153906,65.3801897 C655.511872,62.5777051 654.190405,58.6962324 654.190405,53.736673 C654.190405,48.7212261 655.516379,44.8163168 658.168329,42.0210435 C660.818475,39.227573 664.405186,37.830387 668.924858,37.830387 C672.625147,37.830387 675.566449,38.6272337 677.750566,40.2191243 C679.934683,41.8119163 681.503137,44.2385128 682.456829,47.4998152 M688.552165,68.9001969 L696.590942,68.9001969 L696.590942,38.5172617 L688.552165,38.5172617 L688.552165,68.9001969 Z M688.552165,34.3969152 L696.590942,34.3969152 L696.590942,26.9584775 L688.552165,26.9584775 L688.552165,34.3969152 Z M722.882376,51.104555 C722.824686,48.778015 722.224347,47.0085466 721.080457,45.7979526 C719.935666,44.5873586 718.542987,43.9807094 716.90242,43.9807094 C715.147374,43.9807094 713.697907,44.6207107 712.554017,45.8980091 C711.409226,47.1762089 710.846746,48.9123251 710.865675,51.104555 L722.882376,51.104555 Z M722.42446,59.2298673 L730.434391,60.57387 C729.404981,63.5115662 727.778837,65.7479651 725.55686,67.2839682 C723.334884,68.81907 720.554935,69.5861701 717.217012,69.5861701 C711.933847,69.5861701 708.023529,67.8599694 705.487862,64.4084694 C703.484928,61.6429426 702.483461,58.152682 702.483461,53.9367861 C702.483461,48.9015082 703.800422,44.9587396 706.43254,42.1075789 C709.063756,39.2564181 712.391763,37.830387 716.41656,37.830387 C720.936231,37.830387 724.50221,39.3231225 727.1163,42.3076919 C729.728587,45.2922614 730.977942,49.8651158 730.863463,56.0253537 L710.722351,56.0253537 C710.780943,58.4104854 711.428155,60.2646863 712.667595,61.5897594 C713.907935,62.915734 715.452952,63.5782705 717.303548,63.5782705 C718.562818,63.5782705 719.620172,63.2357346 720.479216,62.54886 C721.337359,61.8619853 721.984571,60.7568563 722.42446,59.2298673 L722.42446,59.2298673 Z M745.112055,68.9001969 L737.073278,68.9001969 L737.073278,38.5172617 L744.53966,38.5172617 L744.53966,42.8368198 C745.816958,40.7960269 746.966256,39.4520241 747.986653,38.8030087 C749.007049,38.1548947 750.165361,37.830387 751.463392,37.830387 C753.294156,37.830387 755.058216,38.3351768 756.756473,39.3465591 L754.266778,46.3559255 C752.911958,45.4788533 751.65359,45.0398665 750.489869,45.0398665 C749.364008,45.0398665 748.411217,45.3499517 747.629694,45.9692205 C746.846369,46.5902922 746.232508,47.7107452 745.784507,49.3314809 C745.335605,50.9522166 745.112055,54.3478292 745.112055,59.5156144 L745.112055,68.9001969 M766.626015,53.0506998 C766.626015,56.2930726 767.073114,58.6394436 767.970017,60.0880099 C769.267147,62.1864931 771.07808,63.2357346 773.405521,63.2357346 C775.255215,63.2357346 776.829078,62.447902 778.126207,60.8749411 C779.423336,59.3010787 780.07145,56.9511021 780.07145,53.822307 C780.07145,50.3329477 779.443167,47.8198159 778.183897,46.2847141 C776.925529,44.7496124 775.312906,43.9807094 773.348733,43.9807094 C771.441348,43.9807094 769.844049,44.7396969 768.555934,46.2549676 C767.269622,47.7720411 766.626015,50.0372852 766.626015,53.0506998 Z M788.082284,68.9001969 L780.615001,68.9001969 L780.615001,64.4364131 C779.37466,66.1725294 777.911671,67.4651517 776.22333,68.3133788 C774.53589,69.1625073 772.834027,69.5861701 771.116841,69.5861701 C767.62658,69.5861701 764.637503,68.1799701 762.147808,65.3666686 C759.659014,62.5542685 758.414167,58.6286266 758.414167,53.5933488 C758.414167,48.4435918 759.625662,44.5296683 762.048653,41.8497755 C764.469841,39.1698827 767.53103,37.830387 771.23132,37.830387 C774.626031,37.830387 777.563727,39.2419955 780.043507,42.0643112 L780.043507,26.9584775 L788.082284,26.9584775 L788.082284,68.9001969 L788.082284,68.9001969 Z M818.695079,53.0506998 C818.695079,56.2930726 819.142178,58.6394436 820.039081,60.0880099 C821.335309,62.1864931 823.147144,63.2357346 825.474585,63.2357346 C827.324279,63.2357346 828.898142,62.447902 830.19437,60.8749411 C831.4924,59.3010787 832.140514,56.9511021 832.140514,53.822307 C832.140514,50.3329477 831.51133,47.8198159 830.252961,46.2847141 C828.993691,44.7496124 827.381068,43.9807094 825.417796,43.9807094 C823.509511,43.9807094 821.913113,44.7396969 820.624998,46.2549676 C819.337784,47.7720411 818.695079,50.0372852 818.695079,53.0506998 Z M840.150446,68.9001969 L832.684065,68.9001969 L832.684065,64.4364131 C831.443724,66.1725294 829.980735,67.4651517 828.292394,68.3133788 C826.604954,69.1625073 824.90219,69.5861701 823.185905,69.5861701 C819.695644,69.5861701 816.705666,68.1799701 814.216872,65.3666686 C811.728078,62.5542685 810.483231,58.6286266 810.483231,53.5933488 C810.483231,48.4435918 811.694726,44.5296683 814.116816,41.8497755 C816.538905,39.1698827 819.599193,37.830387 823.300384,37.830387 C826.695095,37.830387 829.63189,39.2419955 832.111669,42.0643112 L832.111669,26.9584775 L840.150446,26.9584775 L840.150446,68.9001969 L840.150446,68.9001969 Z M854.455828,53.7078279 C854.455828,56.7221439 855.171547,59.0297542 856.601184,60.6324617 C858.032624,62.2342678 859.795782,63.0356215 861.894265,63.0356215 C863.991847,63.0356215 865.752301,62.2342678 867.172924,60.6324617 C868.593547,59.0297542 869.303858,56.7023129 869.303858,53.6519404 C869.303858,50.6763851 868.593547,48.3877043 867.172924,46.7849968 C865.752301,45.1831908 863.991847,44.381837 861.894265,44.381837 C859.795782,44.381837 858.032624,45.1831908 856.601184,46.7849968 C855.171547,48.3877043 854.455828,50.6944133 854.455828,53.7078279 Z M846.216937,53.2787566 C846.216937,50.6096807 846.874066,48.024436 848.191026,45.5266281 C849.506184,43.0279188 851.371202,41.1196332 853.783375,39.8044756 C856.196451,38.4875151 858.889865,37.830387 861.86542,37.830387 C866.462613,37.830387 870.228705,39.3231225 873.166401,42.3076919 C876.103196,45.2922614 877.572494,49.0646635 877.572494,53.6221939 C877.572494,58.2193864 876.088773,62.0296477 873.123133,65.0520764 C870.157493,68.0754065 866.424753,69.5861701 861.924012,69.5861701 C859.138654,69.5861701 856.482198,68.9569857 853.955545,67.698617 C851.42799,66.4393468 849.506184,64.5941599 848.191026,62.162155 C846.874066,59.7310514 846.216937,56.7699186 846.216937,53.2787566 L846.216937,53.2787566 Z M890.246323,53.7078279 C890.246323,56.7221439 890.962043,59.0297542 892.388074,60.6324617 C893.821316,62.2342678 895.58808,63.0356215 897.688366,63.0356215 C899.779638,63.0356215 901.546402,62.2342678 902.961617,60.6324617 C904.385845,59.0297542 905.097959,56.7023129 905.097959,53.6519404 C905.097959,50.6763851 904.385845,48.3877043 902.961617,46.7849968 C901.546402,45.1831908 899.779638,44.381837 897.688366,44.381837 C895.58808,44.381837 893.821316,45.1831908 892.388074,46.7849968 C890.962043,48.3877043 890.246323,50.6944133 890.246323,53.7078279 Z M882.007433,53.2787566 C882.007433,50.6096807 882.664561,48.024436 883.981522,45.5266281 C885.296679,43.0279188 887.161697,41.1196332 889.573871,39.8044756 C891.986946,38.4875151 894.677656,37.830387 897.65231,37.830387 C902.249502,37.830387 906.017398,39.3231225 908.955995,42.3076919 C911.894593,45.2922614 913.363891,49.0646635 913.363891,53.6221939 C913.363891,58.2193864 911.876564,62.0296477 908.910925,65.0520764 C905.945285,68.0754065 902.213446,69.5861701 897.715409,69.5861701 C894.930051,69.5861701 892.273595,68.9569857 889.74604,67.698617 C887.218486,66.4393468 885.296679,64.5941599 883.981522,62.162155 C882.664561,59.7310514 882.007433,56.7699186 882.007433,53.2787566 L882.007433,53.2787566 Z M927.353779,68.9001969 L919.313199,68.9001969 L919.313199,38.5172617 L926.776876,38.5172617 L926.776876,42.8368198 C928.056879,40.7960269 929.210684,39.4520241 930.229278,38.8030087 C931.247872,38.1548947 932.401677,37.830387 933.699707,37.830387 C935.538584,37.830387 937.296335,38.3351768 939,39.3465591 L936.503093,46.3559255 C935.150978,45.4788533 933.898018,45.0398665 932.735198,45.0398665 C931.608436,45.0398665 930.652941,45.3499517 929.868714,45.9692205 C929.084487,46.5902922 928.471528,47.7107452 928.020823,49.3314809 C927.579132,50.9522166 927.353779,54.3478292 927.353779,59.5156144 L927.353779,68.9001969 M304.272846,123.359801 C304.272846,126.603075 304.719946,128.948545 305.616849,130.398012 C306.913978,132.496496 308.724911,133.544836 311.052353,133.544836 C312.902047,133.544836 314.475909,132.757905 315.773039,131.184944 C317.070168,129.611081 317.718282,127.260203 317.718282,124.13231 C317.718282,120.642049 317.089999,118.128917 315.830729,116.593815 C314.57236,115.058714 312.959737,114.290712 310.995564,114.290712 C309.08818,114.290712 307.490881,115.048798 306.203667,116.56497 C304.916453,118.082044 304.272846,120.346386 304.272846,123.359801 Z M325.729115,139.209298 L318.262734,139.209298 L318.262734,134.746416 C317.022393,136.482532 315.559404,137.774253 313.870161,138.623381 C312.182721,139.471608 310.480859,139.896173 308.763672,139.896173 C305.273411,139.896173 302.284335,138.489071 299.79464,135.67577 C297.305846,132.86337 296.0619,128.938629 296.0619,123.903351 C296.0619,118.753594 297.272494,114.839671 299.695485,112.158877 C302.116673,109.479885 305.177862,108.139488 308.878151,108.139488 C312.272862,108.139488 315.210558,109.551998 317.690338,112.374314 L317.690338,97.2684801 L325.729115,97.2684801 L325.729115,139.209298 L325.729115,139.209298 Z M351.706858,121.414558 C351.650069,119.088018 351.04973,117.318549 349.904939,116.107054 C348.761049,114.89646 347.368371,114.290712 345.726902,114.290712 C343.972758,114.290712 342.52329,114.930713 341.378499,116.208012 C340.23461,117.486211 339.67213,119.221426 339.691059,121.414558 L351.706858,121.414558 Z M351.248942,129.53987 L359.259775,130.883873 C358.229463,133.821569 356.60422,136.057968 354.382244,137.593069 C352.159366,139.128171 349.379417,139.896173 346.042396,139.896173 C340.75923,139.896173 336.848912,138.169972 334.312344,134.718472 C332.310312,131.952044 331.307943,128.461783 331.307943,124.246789 C331.307943,119.211511 332.624904,115.268742 335.257022,112.41668 C337.88914,109.565519 341.216245,108.139488 345.241042,108.139488 C349.761615,108.139488 353.327594,109.633125 355.940782,112.616793 C358.553971,115.602264 359.803326,120.175118 359.688846,126.335356 L339.547735,126.335356 C339.605425,128.719587 340.253539,130.574689 341.492978,131.899762 C342.733319,133.224835 344.278336,133.888273 346.128931,133.888273 C347.3873,133.888273 348.445556,133.544836 349.303698,132.857961 C350.161841,132.171988 350.809955,131.065958 351.248942,129.53987 L351.248942,129.53987 Z M382.575654,139.209298 L382.575654,97.2684801 L413.674309,97.2684801 L413.674309,104.36348 L391.044403,104.36348 L391.044403,113.661528 L412.100446,113.661528 L412.100446,120.727683 L391.044403,120.727683 L391.044403,132.142241 L414.475662,132.142241 L414.475662,139.209298 L382.575654,139.209298 M441.596394,139.209298 L441.596394,134.65988 C440.489462,136.281517 439.035487,137.559717 437.233568,138.49448 C435.430747,139.428341 433.528772,139.896173 431.525838,139.896173 C429.484144,139.896173 427.653379,139.448172 426.032644,138.551269 C424.411007,137.655267 423.239173,136.395997 422.514439,134.774359 C421.788804,133.153624 421.426437,130.912718 421.426437,128.051641 L421.426437,108.826363 L429.466116,108.826363 L429.466116,122.787405 C429.466116,127.060992 429.613947,129.677786 429.909609,130.640492 C430.204371,131.605001 430.743414,132.366693 431.525838,132.929173 C432.307361,133.492554 433.299813,133.773794 434.501393,133.773794 C435.874241,133.773794 437.103765,133.397005 438.191767,132.643426 C439.277967,131.890748 440.023433,130.955985 440.422758,129.84004 C440.823885,128.724094 441.023998,125.991919 441.023998,121.643516 L441.023998,108.826363 L449.063677,108.826363 L449.063677,139.209298 L441.596394,139.209298 M465.084442,139.209298 L457.045665,139.209298 L457.045665,108.826363 L464.512948,108.826363 L464.512948,113.145921 C465.790246,111.105128 466.939544,109.761125 467.959941,109.11211 C468.980337,108.464897 470.138649,108.139488 471.435779,108.139488 C473.267444,108.139488 475.031504,108.645179 476.72886,109.656562 L474.240066,116.665027 C472.885246,115.788856 471.625976,115.348968 470.463157,115.348968 C469.337295,115.348968 468.384505,115.659053 467.602081,116.279223 C466.819657,116.899393 466.205796,118.019846 465.756894,119.640582 C465.307991,121.262219 465.084442,124.657832 465.084442,129.825617 L465.084442,139.209298 M486.569556,124.01783 C486.569556,127.031245 487.285276,129.339757 488.714912,130.941563 C490.146352,132.54427 491.909511,133.344723 494.007994,133.344723 C496.105575,133.344723 497.86603,132.54427 499.286652,130.941563 C500.707275,129.339757 501.417586,127.012315 501.417586,123.961042 C501.417586,120.985486 500.707275,118.696806 499.286652,117.094999 C497.86603,115.493193 496.105575,114.69184 494.007994,114.69184 C491.909511,114.69184 490.146352,115.493193 488.714912,117.094999 C487.285276,118.696806 486.569556,121.004416 486.569556,124.01783 Z M478.330666,123.588759 C478.330666,120.918782 478.987794,118.334439 480.304754,115.835729 C481.619912,113.33702 483.484029,111.429636 485.897104,110.114478 C488.310179,108.797518 491.003593,108.139488 493.979149,108.139488 C498.576341,108.139488 502.342433,109.633125 505.280129,112.616793 C508.216924,115.602264 509.686223,119.373765 509.686223,123.932196 C509.686223,128.529389 508.202501,132.338749 505.236862,135.362079 C502.271222,138.384508 498.538482,139.896173 494.03774,139.896173 C491.252382,139.896173 488.595926,139.266988 486.069273,138.007718 C483.541719,136.749349 481.619912,134.904163 480.304754,132.472158 C478.987794,130.040153 478.330666,127.07902 478.330666,123.588759 L478.330666,123.588759 Z M523.704956,123.503125 C523.704956,126.916766 524.381915,129.438912 525.736734,131.070465 C527.089751,132.700214 528.740234,133.515991 530.685477,133.515991 C532.555002,133.515991 534.109033,132.76782 535.349374,131.270578 C536.588813,129.773335 537.208082,127.317894 537.208082,123.903351 C537.208082,120.717767 536.568982,118.353368 535.291684,116.808351 C534.013484,115.264235 532.430607,114.490825 530.543054,114.490825 C528.57798,114.490825 526.947328,115.248911 525.650199,116.765985 C524.35307,118.281255 523.704956,120.528471 523.704956,123.503125 Z M515.751813,108.826363 L523.247039,108.826363 L523.247039,113.289245 C524.220562,111.764059 525.53572,110.52462 527.196118,109.570026 C528.854713,108.617236 530.695392,108.139488 532.717256,108.139488 C536.245376,108.139488 539.239861,109.523153 541.700711,112.28868 C544.160659,115.053305 545.391084,118.906834 545.391084,123.846562 C545.391084,128.9197 544.150744,132.86337 541.670964,135.67577 C539.192086,138.489071 536.187685,139.896173 532.659565,139.896173 C530.98114,139.896173 529.459559,139.562651 528.096627,138.894706 C526.732793,138.226761 525.296846,137.082871 523.79059,135.461234 L523.79059,150.767181 L515.751813,150.767181 L515.751813,108.826363 L515.751813,108.826363 Z M569.82381,121.414558 C569.76612,119.088018 569.165781,117.318549 568.021891,116.107054 C566.8771,114.89646 565.484421,114.290712 563.843854,114.290712 C562.08971,114.290712 560.639341,114.930713 559.495451,116.208012 C558.35066,117.486211 557.78818,119.221426 557.808011,121.414558 L569.82381,121.414558 Z M569.365894,129.53987 L577.376727,130.883873 C576.346415,133.821569 574.720271,136.057968 572.498295,137.593069 C570.276318,139.128171 567.496369,139.896173 564.159348,139.896173 C558.875281,139.896173 554.964963,138.169972 552.429296,134.718472 C550.426362,131.952044 549.424895,128.461783 549.424895,124.246789 C549.424895,119.211511 550.741856,115.268742 553.373974,112.41668 C556.006092,109.565519 559.333197,108.139488 563.357994,108.139488 C567.878567,108.139488 571.444546,109.633125 574.057734,112.616793 C576.670021,115.602264 577.919376,120.175118 577.804897,126.335356 L557.663785,126.335356 C557.722377,128.719587 558.370491,130.574689 559.60993,131.899762 C560.850271,133.224835 562.395288,133.888273 564.244982,133.888273 C565.504252,133.888273 566.562508,133.544836 567.42065,132.857961 C568.278793,132.171988 568.926907,131.065958 569.365894,129.53987 L569.365894,129.53987 Z M581.524116,130.540435 L589.591738,129.310912 C589.935175,130.874859 590.631965,132.062016 591.681207,132.872384 C592.729547,133.682752 594.198846,134.088386 596.085498,134.088386 C598.165051,134.088386 599.728998,133.70709 600.77824,132.943595 C601.484044,132.40996 601.836495,131.695142 601.836495,130.798239 C601.836495,130.187984 601.645396,129.683194 601.265001,129.281165 C600.863874,128.90077 599.96697,128.548319 598.575193,128.223811 C592.090447,126.793273 587.980016,125.487129 586.244802,124.304479 C583.841642,122.663912 582.640062,120.384246 582.640062,117.46638 C582.640062,114.834262 583.679388,112.622202 585.75804,110.829297 C587.836692,109.036391 591.060135,108.139488 595.42837,108.139488 C599.585674,108.139488 602.675708,108.816447 604.697572,110.170366 C606.718533,111.525185 608.111212,113.528119 608.874707,116.179167 L601.293846,117.58086 C600.968437,116.398209 600.353675,115.493193 599.447758,114.862206 C598.541841,114.233923 597.25012,113.919331 595.571694,113.919331 C593.454281,113.919331 591.938109,114.214994 591.022276,114.806319 C590.412021,115.225474 590.107345,115.769025 590.107345,116.436069 C590.107345,117.008464 590.374162,117.494324 590.907797,117.896353 C591.632531,118.429087 594.135747,119.182666 598.417446,120.155287 C602.699145,121.12881 605.689123,122.320475 607.38738,123.732083 C609.064904,125.16172 609.905019,127.15564 609.905019,129.711138 C609.905019,132.496496 608.741298,134.888839 606.413857,136.892674 C604.086415,138.894706 600.644831,139.896173 596.085498,139.896173 C591.948024,139.896173 588.671398,139.05696 586.259224,137.378534 C583.846149,135.701009 582.267779,133.420441 581.524116,130.540435 M634.994873,121.414558 C634.937183,119.088018 634.336843,117.318549 633.192954,116.107054 C632.048163,114.89646 630.655484,114.290712 629.014917,114.290712 C627.259871,114.290712 625.810403,114.930713 624.666514,116.208012 C623.521723,117.486211 622.959243,119.221426 622.978172,121.414558 L634.994873,121.414558 Z M634.536956,129.53987 L642.546888,130.883873 C641.517478,133.821569 639.891334,136.057968 637.669357,137.593069 C635.447381,139.128171 632.667431,139.896173 629.329509,139.896173 C624.046343,139.896173 620.136026,138.169972 617.600358,134.718472 C615.597425,131.952044 614.595958,128.461783 614.595958,124.246789 C614.595958,119.211511 615.912918,115.268742 618.545036,112.41668 C621.176253,109.565519 624.50426,108.139488 628.529057,108.139488 C633.048728,108.139488 636.614707,109.633125 639.228797,112.616793 C641.841084,115.602264 643.090439,120.175118 642.97596,126.335356 L622.834848,126.335356 C622.89344,128.719587 623.540652,130.574689 624.780091,131.899762 C626.020432,133.224835 627.565449,133.888273 629.416045,133.888273 C630.675315,133.888273 631.732669,133.544836 632.591713,132.857961 C633.449856,132.171988 634.097068,131.065958 634.536956,129.53987 L634.536956,129.53987 Z M665.806879,97.2684801 L674.275629,97.2684801 L674.275629,119.984019 C674.275629,123.588759 674.379291,125.925215 674.58932,126.992484 C674.951687,128.709671 675.815238,130.087927 677.17817,131.127253 C678.542004,132.167481 680.40612,132.686693 682.771421,132.686693 C685.174581,132.686693 686.986415,132.195425 688.207826,131.212887 C689.427435,130.231252 690.162985,129.024263 690.410873,127.593725 C690.658761,126.163187 690.782254,123.788872 690.782254,120.46988 L690.782254,97.2684801 L699.251004,97.2684801 L699.251004,119.297145 C699.251004,124.332423 699.022046,127.890289 698.564129,129.96804 C698.106213,132.047593 697.262493,133.802639 696.032068,135.232276 C694.801643,136.663715 693.15747,137.803098 691.097748,138.651325 C689.038025,139.499552 686.347316,139.924116 683.029224,139.924116 C679.023357,139.924116 675.986506,139.461693 673.916868,138.536846 C671.84723,137.6129 670.212071,136.411321 669.011393,134.932106 C667.808912,133.453793 667.017473,131.90517 666.636177,130.283533 C666.082711,127.880374 665.806879,124.332423 665.806879,119.640582 L665.806879,97.2684801 M735.756318,139.209298 L727.717541,139.209298 L727.717541,123.703238 C727.717541,120.423006 727.545371,118.301086 727.202836,117.337479 C726.859398,116.374773 726.301425,115.625701 725.528917,115.091164 C724.756408,114.557529 723.826153,114.290712 722.739052,114.290712 C721.346373,114.290712 720.09792,114.672009 718.991889,115.434602 C717.885859,116.198096 717.126871,117.209479 716.717631,118.467847 C716.307489,119.727117 716.101968,122.053657 716.101968,125.44927 L716.101968,139.209298 L708.062289,139.209298 L708.062289,108.826363 L715.529572,108.826363 L715.529572,113.289245 C718.18062,109.856675 721.518542,108.139488 725.543339,108.139488 C727.316413,108.139488 728.937149,108.459489 730.406448,109.098589 C731.874845,109.737689 732.986284,110.552564 733.738962,111.544115 C734.492541,112.535666 735.017161,113.661528 735.313725,114.920798 C735.608487,116.179167 735.756318,117.981086 735.756318,120.327457 L735.756318,139.209298 M743.911377,139.209298 L751.950154,139.209298 L751.950154,108.826363 L743.911377,108.826363 L743.911377,139.209298 Z M743.911377,104.706918 L751.950154,104.706918 L751.950154,97.2684801 L743.911377,97.2684801 L743.911377,104.706918 Z M778.241588,121.414558 C778.183897,119.088018 777.583558,117.318549 776.439668,116.107054 C775.294877,114.89646 773.902198,114.290712 772.261632,114.290712 C770.507487,114.290712 769.057118,114.930713 767.913228,116.208012 C766.768437,117.486211 766.205957,119.221426 766.225788,121.414558 L778.241588,121.414558 Z M777.783671,129.53987 L785.794504,130.883873 C784.764192,133.821569 783.138048,136.057968 780.916072,137.593069 C778.694096,139.128171 775.914146,139.896173 772.576224,139.896173 C767.293058,139.896173 763.38274,138.169972 760.847073,134.718472 C758.84414,131.952044 757.842673,128.461783 757.842673,124.246789 C757.842673,119.211511 759.159633,115.268742 761.791751,112.41668 C764.423869,109.565519 767.750975,108.139488 771.775772,108.139488 C776.295443,108.139488 779.861422,109.633125 782.475512,112.616793 C785.087799,115.602264 786.337153,120.175118 786.222674,126.335356 L766.081563,126.335356 C766.140154,128.719587 766.788268,130.574689 768.027708,131.899762 C769.268048,133.224835 770.812164,133.888273 772.662759,133.888273 C773.922029,133.888273 774.979384,133.544836 775.838428,132.857961 C776.69657,132.171988 777.343783,131.065958 777.783671,129.53987 L777.783671,129.53987 Z"/></g></svg>