<svg xmlns="http://www.w3.org/2000/svg" width="975" height="232" viewBox="0 0 975 232"><g fill="none" fill-rule="evenodd" transform="translate(95.24 16)"><polygon fill="#FFFFFE" points="0 200 294.527 200 294.527 0 0 0"/><polygon fill="#039" points="5.664 194.287 288.864 194.287 288.864 5.485 5.664 5.485"/><polyline fill="#F9C823" points="141.229 46.622 147.205 42.261 153.181 46.622 150.907 39.569 156.977 35.208 149.495 35.208 147.205 28.07 144.915 35.216 137.438 35.208 143.503 39.569 141.229 46.622"/><polyline fill="#F9C823" points="110.304 54.93 116.28 50.569 122.252 54.93 119.982 47.877 126.048 43.516 118.566 43.516 116.277 36.37 113.987 43.524 106.509 43.516 112.574 47.877 110.304 54.93"/><polyline fill="#F9C823" points="93.652 59.049 91.362 66.203 83.885 66.195 89.95 70.556 87.676 77.609 93.652 73.248 99.628 77.609 97.354 70.556 103.419 66.195 95.942 66.195 93.652 59.049"/><polyline fill="#F9C823" points="85.352 104.134 91.324 108.495 89.054 101.443 95.119 97.081 87.642 97.081 85.352 89.935 83.062 97.097 75.581 97.081 81.65 101.443 79.376 108.495 85.352 104.134"/><polyline fill="#F9C823" points="95.942 128.06 93.652 120.914 91.362 128.068 83.885 128.06 89.95 132.421 87.676 139.474 93.652 135.105 99.628 139.474 97.354 132.421 103.419 128.06 95.942 128.06"/><polyline fill="#F9C823" points="118.613 150.731 116.323 143.593 114.037 150.739 106.556 150.731 112.621 155.092 110.351 162.145 116.327 157.784 122.298 162.145 120.029 155.092 126.094 150.731 118.613 150.731"/><polyline fill="#F9C823" points="149.499 158.946 147.209 151.8 144.923 158.954 137.442 158.946 143.507 163.307 141.237 170.36 147.213 165.999 153.184 170.36 150.911 163.307 156.98 158.946 149.499 158.946"/><polyline fill="#F9C823" points="180.385 150.731 178.099 143.593 175.805 150.739 168.332 150.731 174.393 155.092 172.124 162.145 178.099 157.784 184.075 162.145 181.797 155.092 187.866 150.731 180.385 150.731"/><polyline fill="#F9C823" points="203.064 128.06 200.77 120.914 198.476 128.068 191.003 128.06 197.072 132.421 194.794 139.474 200.77 135.105 206.745 139.474 204.468 132.421 210.537 128.06 203.064 128.06"/><polyline fill="#F9C823" points="218.752 96.995 211.271 96.995 208.977 89.849 206.691 97.003 199.21 96.995 205.28 101.356 203.009 108.409 208.977 104.04 214.953 108.409 212.683 101.356 218.752 96.995"/><polyline fill="#F9C823" points="194.793 77.515 200.769 73.154 206.745 77.515 204.468 70.462 210.537 66.109 203.063 66.109 200.769 58.963 198.476 66.117 191.002 66.109 197.071 70.462 194.793 77.515"/><polyline fill="#F9C823" points="178.185 36.378 175.899 43.532 168.418 43.516 174.479 47.885 172.209 54.938 178.193 50.569 184.16 54.938 181.891 47.885 187.96 43.516 180.471 43.516 178.185 36.378"/><path fill="#039" d="M327.552875,61.2300533 L336.680913,60.3423139 C337.230133,63.4059635 338.344551,65.6567674 340.025164,67.0927283 C341.703781,68.5306864 343.970562,69.2476683 346.822512,69.2476683 C349.844221,69.2476683 352.120988,68.6095744 353.652813,67.3303908 C355.183639,66.0522059 355.95055,64.5573286 355.95055,62.845759 C355.95055,61.7483174 355.628008,60.812646 354.983923,60.0417407 C354.339837,59.2698368 353.214436,58.5987897 351.607717,58.0285994 C350.510275,57.6481396 348.005832,56.9720996 344.097382,56.0004793 C339.068523,54.754249 335.539534,53.2224242 333.511414,51.4040063 C330.659464,48.8486349 329.233488,45.7320605 329.233488,42.0552815 C329.233488,39.6896407 329.903537,37.4757844 331.245631,35.4157097 C332.586727,33.355635 334.519982,31.7868627 337.045396,30.7093927 C339.570809,29.6319227 342.617483,29.0916898 346.188412,29.0916898 C352.020131,29.0916898 356.409898,30.3718719 359.357712,32.9272433 C362.304528,35.4846119 363.85233,38.8967666 364.00012,43.1637075 L354.61944,43.5761219 C354.217012,41.1895109 353.356234,39.4719498 352.036109,38.4264345 C350.715983,37.3799205 348.734797,36.8576621 346.094546,36.8576621 C343.367418,36.8576621 341.234447,37.416868 339.691638,38.5372771 C338.698049,39.2552575 338.201754,40.216892 338.201754,41.4211819 C338.201754,42.5206207 338.666094,43.4602864 339.596773,44.2421761 C340.779094,45.2357652 343.653013,46.2712948 348.217531,47.3477662 C352.781051,48.4262347 356.156258,49.5406523 358.343153,50.6910188 C360.530047,51.8433824 362.241617,53.4171477 363.477861,55.4143117 C364.713107,57.4104771 365.33123,59.8779733 365.33123,62.8138044 C365.33123,65.476024 364.59128,67.9694833 363.113379,70.2931837 C361.63348,72.6178826 359.54245,74.3454295 356.83829,75.4758243 C354.133131,76.6062192 350.762917,77.1714166 346.727647,77.1714166 C340.853987,77.1714166 336.342394,75.8143436 333.194863,73.0991991 C330.045336,70.3840546 328.166004,66.4276727 327.552875,61.2300533 M380.227078,59.5174852 C380.227078,62.8567434 381.019952,65.414112 382.603703,67.1885922 C384.189451,68.9630724 386.142677,69.8508118 388.467376,69.8508118 C390.791077,69.8508118 392.741307,68.9630724 394.315073,67.1885922 C395.888838,65.414112 396.67572,62.8357732 396.67572,59.4555731 C396.67572,56.1592539 395.888838,53.6238541 394.315073,51.8493739 C392.741307,50.0738951 390.791077,49.1871542 388.467376,49.1871542 C386.142677,49.1871542 384.189451,50.0738951 382.603703,51.8493739 C381.019952,53.6238541 380.227078,56.1792255 380.227078,59.5174852 Z M371.100038,59.0431587 C371.100038,56.0853588 371.828004,53.2224242 373.286933,50.4543548 C374.743864,47.6862855 376.80993,45.5722874 379.482135,44.1153562 C382.155339,42.6564279 385.139102,41.9284616 388.435422,41.9284616 C393.52819,41.9284616 397.700266,43.5821134 400.954644,46.8884184 C404.208025,50.1947235 405.835713,54.3737892 405.835713,59.4226199 C405.835713,64.5153881 404.192047,68.7363943 400.906712,72.0846398 C397.621378,75.4338839 393.48625,77.1075073 388.50033,77.1075073 C385.414711,77.1075073 382.47189,76.4104971 379.672865,75.0164766 C376.872841,73.6214575 374.743864,71.5773601 373.286933,68.8831859 C371.828004,66.1900102 371.100038,62.9096683 371.100038,59.0431587 L371.100038,59.0431587 Z M434.137525,76.3475864 L443.042879,76.3475864 L443.042879,42.6893811 L434.137525,42.6893811 L434.137525,76.3475864 Z M434.137525,38.1258613 L443.042879,38.1258613 L443.042879,29.8855625 L434.137525,29.8855625 L434.137525,38.1258613 Z M409.132033,42.6893811 L414.076012,42.6893811 L414.076012,40.1539813 C414.076012,37.3230013 414.376585,35.2100018 414.97873,33.8149827 C415.580875,32.4209622 416.6903,31.2855745 418.306005,30.4078209 C419.92271,29.5310659 421.966807,29.0916898 424.439296,29.0916898 C426.974696,29.0916898 429.457171,29.4721495 431.886721,30.233069 L430.68343,36.4452477 C429.26744,36.107727 427.903377,35.9379681 426.594236,35.9379681 C425.305067,35.9379681 424.38038,36.2395399 423.821174,36.8416848 C423.260969,37.4438298 422.981366,38.6001877 422.981366,40.3127559 L422.981366,42.6893811 L429.636916,42.6893811 L429.636916,49.6934353 L422.981366,49.6934353 L422.981366,76.3475864 L414.076012,76.3475864 L414.076012,49.6934353 L409.132033,49.6934353 L409.132033,42.6893811 L409.132033,42.6893811 Z M483.072038,76.3475864 L474.166683,76.3475864 L474.166683,59.1699786 C474.166683,55.5361387 473.975954,53.184478 473.595494,52.1179925 C473.215035,51.0515069 472.596912,50.2216852 471.742126,49.6295261 C470.885343,49.0383655 469.855805,48.7417867 468.651515,48.7417867 C467.108706,48.7417867 465.724671,49.1651854 464.500409,50.0099858 C463.274151,50.8557848 462.434343,51.9761938 461.979988,53.3702143 C461.525634,54.7642348 461.298955,57.3425735 461.298955,61.1032334 L461.298955,76.3475864 L452.392603,76.3475864 L452.392603,42.6893811 L460.664856,42.6893811 L460.664856,47.6333606 C463.601686,43.8297617 467.299435,41.9284616 471.758103,41.9284616 C473.722314,41.9284616 475.517765,42.2819596 477.145453,42.9899543 C478.772144,43.6979489 480.002397,44.6016656 480.837211,45.6991073 C481.672026,46.7985461 482.2532,48.045775 482.580735,49.4397955 C482.90827,50.8348146 483.072038,52.83098 483.072038,55.4292904 L483.072038,76.3475864 M510.676839,60.1835394 C509.536458,60.5639991 507.730023,61.0183539 505.257534,61.5456052 C502.786044,62.0748537 501.16934,62.5921192 500.40842,63.0993989 C499.247069,63.923229 498.665894,64.9687444 498.665894,66.2369435 C498.665894,67.4841725 499.130235,68.5616425 500.059915,69.4703521 C500.989595,70.3780632 502.171916,70.832418 503.609874,70.832418 C505.214595,70.832418 506.747419,70.3051667 508.205348,69.2476683 C509.282818,68.445807 509.990813,67.4622037 510.328334,66.3008528 C510.561003,65.5399333 510.676839,64.092988 510.676839,61.9590182 L510.676839,60.1835394 Z M498.76076,52.9577999 L490.679235,51.4998702 C491.586947,48.24649 493.150726,45.8379102 495.369575,44.2741307 C497.588424,42.7103513 500.883745,41.9284616 505.257534,41.9284616 C509.229894,41.9284616 512.187693,42.3987937 514.131933,43.3384594 C516.075173,44.2791236 517.443231,45.4734277 518.236105,46.9203731 C519.02798,48.3673184 519.424417,51.0235466 519.424417,54.8910547 L519.329552,65.287292 C519.329552,68.2440934 519.472349,70.4259951 519.757944,71.831 C520.04254,73.2370035 520.575782,74.7418665 521.357672,76.3475864 L512.547183,76.3475864 C512.314513,75.7564259 512.029918,74.8786723 511.691398,73.7163228 C511.543608,73.1890715 511.437758,72.8405664 511.374848,72.6708075 C509.854007,74.150706 508.226319,75.259132 506.493779,75.9980827 C504.761239,76.738032 502.912864,77.1075073 500.947654,77.1075073 C497.481576,77.1075073 494.751453,76.1678417 492.755287,74.2875117 C490.758123,72.4071818 489.759541,70.0305566 489.759541,67.1566376 C489.759541,65.2543388 490.213896,63.5587466 491.122606,62.0698608 C492.030317,60.5799764 493.304508,59.4385972 494.941184,58.6467217 C496.578858,57.8538475 498.939506,57.1628288 502.025124,56.5706696 C506.187214,55.7897785 509.072118,55.0598151 510.676839,54.3847736 L510.676839,53.4970342 C510.676839,51.7844661 510.254439,50.5641988 509.409638,49.8362325 C508.564838,49.1062691 506.969104,48.7417867 504.624433,48.7417867 C503.039684,48.7417867 501.802441,49.0543428 500.9157,49.677458 C500.02796,50.3015718 499.30998,51.3940205 498.76076,52.9577999 L498.76076,52.9577999 Z M558.818478,76.3475864 L549.913123,76.3475864 L549.913123,59.1699786 C549.913123,55.5361387 549.723393,53.184478 549.342933,52.1179925 C548.962473,51.0515069 548.344351,50.2216852 547.488566,49.6295261 C546.632781,49.0383655 545.603243,48.7417867 544.398953,48.7417867 C542.856144,48.7417867 541.47211,49.1651854 540.246849,50.0099858 C539.021589,50.8557848 538.180783,51.9761938 537.727427,53.3702143 C537.273072,54.7642348 537.045396,57.3425735 537.045396,61.1032334 L537.045396,76.3475864 L528.139043,76.3475864 L528.139043,42.6893811 L536.412295,42.6893811 L536.412295,47.6333606 C539.348126,43.8297617 543.045875,41.9284616 547.504544,41.9284616 C549.469753,41.9284616 551.265203,42.2819596 552.891894,42.9899543 C554.518584,43.6979489 555.749835,44.6016656 556.58465,45.6991073 C557.419464,46.7985461 558.000639,48.045775 558.328174,49.4397955 C558.65471,50.8348146 558.818478,52.83098 558.818478,55.4292904 L558.818478,76.3475864 M597.198977,52.6412494 L588.420443,54.2250005 C588.123864,52.4724891 587.453816,51.1503665 586.407302,50.2636257 C585.361786,49.3758862 584.003715,48.9335144 582.335084,48.9335144 C580.116235,48.9335144 578.346748,49.6984282 577.025624,51.230253 C575.705498,52.7630764 575.045435,55.3244393 575.045435,58.9163388 C575.045435,62.9096683 575.716483,65.7296639 577.058577,67.3773242 C578.398674,69.0259831 580.200116,69.8508118 582.461904,69.8508118 C584.151505,69.8508118 585.53554,69.3694953 586.614008,68.4088594 C587.69048,67.4472249 588.451399,65.7935731 588.895768,63.447904 L597.643346,64.9377883 C596.734637,68.952088 594.991113,71.9847816 592.413772,74.0338719 C589.835434,76.0829622 586.381338,77.1075073 582.050488,77.1075073 C577.12648,77.1075073 573.201055,75.5557109 570.276208,72.4481237 C567.349364,69.3435322 565.885443,65.043638 565.885443,59.5494398 C565.885443,53.9933295 567.354357,49.6674722 570.291187,46.5708694 C573.228016,43.4762637 577.200375,41.9284616 582.208264,41.9284616 C586.306445,41.9284616 589.565817,42.8112081 591.985381,44.5747039 C594.404945,46.3391983 596.142478,49.0273811 597.198977,52.6412494 M603.95039,76.3475864 L612.855745,76.3475864 L612.855745,42.6893811 L603.95039,42.6893811 L603.95039,76.3475864 Z M603.95039,38.1258613 L612.855745,38.1258613 L612.855745,29.8855625 L603.95039,29.8855625 L603.95039,38.1258613 Z M630.508678,76.3475864 L621.603323,76.3475864 L621.603323,42.6893811 L629.874578,42.6893811 L629.874578,47.4745861 C631.289569,45.2137964 632.563759,43.7249106 633.693156,43.0059316 C634.823551,42.2879511 636.106728,41.9284616 637.544687,41.9284616 C639.572807,41.9284616 641.527032,42.4886661 643.40836,43.6090751 L640.650277,51.3730503 C639.149408,50.40143 637.755387,49.9151205 636.467217,49.9151205 C635.219988,49.9151205 634.163488,50.2586327 633.297717,50.9446586 C632.430948,51.6326816 631.749915,52.873919 631.25362,54.6693695 C630.756326,56.4658185 630.508678,60.2264784 630.508678,65.9523477 L630.508678,76.3475864 M665.814543,60.1835394 C664.674163,60.5639991 662.867728,61.0183539 660.396237,61.5456052 C657.923748,62.0748537 656.307044,62.5921192 655.546125,63.0993989 C654.384774,63.923229 653.803599,64.9687444 653.803599,66.2369435 C653.803599,67.4841725 654.26794,68.5616425 655.198618,69.4703521 C656.127299,70.3780632 657.310619,70.832418 658.747578,70.832418 C660.353298,70.832418 661.885123,70.3051667 663.344051,69.2476683 C664.420523,68.445807 665.128518,67.4622037 665.467037,66.3008528 C665.698708,65.5399333 665.814543,64.092988 665.814543,61.9590182 L665.814543,60.1835394 Z M653.898464,52.9577999 L645.81694,51.4998702 C646.724651,48.24649 648.289429,45.8379102 650.50728,44.2741307 C652.726129,42.7103513 656.022448,41.9284616 660.396237,41.9284616 C664.367598,41.9284616 667.325398,42.3987937 669.269637,43.3384594 C671.213876,44.2791236 672.581934,45.4734277 673.374808,46.9203731 C674.166683,48.3673184 674.562122,51.0235466 674.562122,54.8910547 L674.468255,65.287292 C674.468255,68.2440934 674.610054,70.4259951 674.895648,71.831 C675.180244,73.2370035 675.714485,74.7418665 676.496375,76.3475864 L667.685886,76.3475864 C667.452218,75.7564259 667.167622,74.8786723 666.829103,73.7163228 C666.682311,73.1890715 666.575463,72.8405664 666.513551,72.6708075 C664.991712,74.150706 663.364023,75.259132 661.631483,75.9980827 C659.899942,76.738032 658.050568,77.1075073 656.085359,77.1075073 C652.620279,77.1075073 649.889157,76.1678417 647.892992,74.2875117 C645.895828,72.4071818 644.897246,70.0305566 644.897246,67.1566376 C644.897246,65.2543388 645.351601,63.5587466 646.26031,62.0698608 C647.16902,60.5799764 648.442212,59.4385972 650.079887,58.6467217 C651.716562,57.8538475 654.078209,57.1628288 657.162829,56.5706696 C661.324919,55.7897785 664.209822,55.0598151 665.814543,54.3847736 L665.814543,53.4970342 C665.814543,51.7844661 665.393142,50.5641988 664.547343,49.8362325 C663.702542,49.1062691 662.107807,48.7417867 659.762138,48.7417867 C658.177388,48.7417867 656.941144,49.0543428 656.053404,49.677458 C655.165665,50.3015718 654.448683,51.3940205 653.898464,52.9577999 L653.898464,52.9577999 Z M329.9295,154.235985 L329.9295,107.773961 L364.38058,107.773961 L364.38058,115.6338 L339.311178,115.6338 L339.311178,125.935172 L362.637055,125.935172 L362.637055,133.762058 L339.311178,133.762058 L339.311178,146.407102 L365.268319,146.407102 L365.268319,154.235985 L329.9295,154.235985 M382.414971,154.235985 L368.850233,120.57778 L378.198957,120.57778 L384.537956,137.755387 L386.376346,143.492241 C386.861656,142.03531 387.168221,141.073675 387.295041,140.608336 C387.590621,139.657686 387.90817,138.707036 388.24669,137.755387 L394.6476,120.57778 L403.807593,120.57778 L390.432586,154.235985 L382.414971,154.235985 M417.783747,154.235985 L408.878393,154.235985 L408.878393,120.57778 L417.149648,120.57778 L417.149648,125.362985 C418.564638,123.103193 419.83783,121.613309 420.968225,120.895329 C422.09862,120.177348 423.381798,119.817859 424.819756,119.817859 C426.847876,119.817859 428.802101,120.377065 430.68343,121.497474 L427.925346,129.262447 C426.424477,128.290827 425.030457,127.804518 423.742286,127.804518 C422.495057,127.804518 421.438557,128.147031 420.572787,128.834056 C419.706017,129.52108 419.024985,130.762318 418.528689,132.557768 C418.031395,134.354217 417.783747,138.115875 417.783747,143.840746 L417.783747,154.235985 M441.585948,137.406882 C441.585948,140.74614 442.378822,143.30251 443.962573,145.076991 C445.547323,146.852469 447.500549,147.73921 449.826247,147.73921 C452.149947,147.73921 454.099179,146.852469 455.672944,145.076991 C457.24671,143.30251 458.033592,140.724172 458.033592,137.343972 C458.033592,134.048651 457.24671,131.512253 455.672944,129.737772 C454.099179,127.963292 452.149947,127.075553 449.826247,127.075553 C447.500549,127.075553 445.547323,127.963292 443.962573,129.737772 C442.378822,131.512253 441.585948,134.068623 441.585948,137.406882 Z M432.45791,136.931557 C432.45791,133.973757 433.186875,131.110823 434.644804,128.343752 C436.101736,125.574684 438.167802,123.461684 440.841006,122.004753 C443.513211,120.545825 446.497973,119.817859 449.793294,119.817859 C454.886062,119.817859 459.059136,121.47151 462.313515,124.776817 C465.565896,128.084121 467.193585,132.262188 467.193585,137.312017 C467.193585,142.404785 465.550918,146.624793 462.265583,149.974037 C458.980248,153.322282 454.844121,154.996904 449.858201,154.996904 C446.772583,154.996904 443.83076,154.299894 441.030736,152.904875 C438.230712,151.510855 436.101736,149.466757 434.644804,146.772583 C433.186875,144.078409 432.45791,140.798067 432.45791,136.931557 L432.45791,136.931557 Z M482.722534,136.836692 C482.722534,140.619321 483.472469,143.412354 484.973338,145.219788 C486.473208,147.026223 488.300613,147.928941 490.455553,147.928941 C492.526612,147.928941 494.248168,147.100118 495.622216,145.441473 C496.995267,143.783827 497.681293,141.062691 497.681293,137.280062 C497.681293,133.752072 496.973298,131.132791 495.558307,129.420223 C494.143316,127.709652 492.389806,126.852869 490.297777,126.852869 C488.120868,126.852869 486.315432,127.692676 484.877474,129.37329 C483.441513,131.052905 482.722534,133.541371 482.722534,136.836692 Z M473.913043,120.57778 L482.215254,120.57778 L482.215254,125.521759 C483.293723,123.832158 484.750654,122.459108 486.590042,121.40161 C488.427433,120.346109 490.466538,119.817859 492.706357,119.817859 C496.614807,119.817859 499.932096,121.349683 502.658225,124.413333 C505.383356,127.475984 506.747419,131.744922 506.747419,137.217152 C506.747419,142.837171 505.37337,147.205968 502.626271,150.321543 C499.88017,153.438118 496.551896,154.996904 492.643446,154.996904 C490.783088,154.996904 489.09848,154.627429 487.587626,153.88748 C486.076771,153.147531 484.487028,151.88033 482.818398,150.083881 L482.818398,167.040802 L473.913043,167.040802 L473.913043,120.57778 L473.913043,120.57778 Z M510.676839,144.632622 L519.614148,143.270556 C519.994608,145.003096 520.766512,146.319227 521.928861,147.215953 C523.090212,148.113679 524.717901,148.56304 526.807933,148.56304 C529.111661,148.56304 530.844201,148.14064 532.005552,147.294841 C532.78844,146.703681 533.178886,145.911805 533.178886,144.918216 C533.178886,144.242176 532.967187,143.68297 532.545785,143.238601 C532.101416,142.816201 531.107827,142.425755 529.566016,142.066266 C522.382217,140.481516 517.828683,139.034571 515.905414,137.724431 C513.243195,135.907012 511.913083,133.382597 511.913083,130.149188 C511.913083,127.233329 513.064448,124.782808 515.367179,122.796629 C517.669909,120.811448 521.240838,119.817859 526.079966,119.817859 C530.685427,119.817859 534.108566,120.566795 536.348385,122.066665 C538.587206,123.567534 540.130015,125.786383 540.975814,128.723213 L532.57774,130.276008 C532.217252,128.966867 531.536219,127.963292 530.532644,127.265283 C529.529069,126.568273 528.097102,126.219768 526.238741,126.219768 C523.892073,126.219768 522.213457,126.547303 521.198898,127.202373 C520.521859,127.666713 520.185337,128.268858 520.185337,129.008807 C520.185337,129.641908 520.479919,130.180144 521.072078,130.625512 C521.874938,131.216672 524.648,132.051487 529.391264,133.128957 C534.134529,134.206427 537.446826,135.526552 539.327155,137.090332 C541.186515,138.674083 542.116195,140.882946 542.116195,143.713926 C542.116195,146.799545 540.827026,149.449781 538.249685,151.669629 C535.671347,153.88748 531.858761,154.996904 526.807933,154.996904 C522.224441,154.996904 518.594596,154.067225 515.92239,152.207865 C513.249186,150.349504 511.500669,147.823091 510.676839,144.632622 M549.596573,154.235985 L549.596573,107.773961 L558.502926,107.773961 L558.502926,132.430948 L568.930119,120.57778 L579.89455,120.57778 L568.390885,132.875317 L580.720377,154.235985 L571.116015,154.235985 L562.654031,139.11945 L558.502926,143.460286 L558.502926,154.235985 L549.596573,154.235985 M604.583491,138.072936 C603.443111,138.453396 601.636676,138.907751 599.164187,139.435002 C596.692696,139.963252 595.075992,140.481516 594.315073,140.988796 C593.153722,141.812626 592.572547,142.858141 592.572547,144.125342 C592.572547,145.372571 593.036888,146.450041 593.966567,147.359749 C594.896247,148.26746 596.079567,148.721815 597.516527,148.721815 C599.121248,148.721815 600.654071,148.194564 602.113,147.137065 C603.189471,146.334205 603.897466,145.351601 604.234986,144.19025 C604.467656,143.42933 604.583491,141.982385 604.583491,139.847417 L604.583491,138.072936 Z M592.667412,130.846198 L584.585888,129.388269 C585.493599,126.135887 587.057379,123.727307 589.276228,122.162529 C591.495077,120.599748 594.790398,119.817859 599.164187,119.817859 C603.136546,119.817859 606.094346,120.287192 608.038585,121.227856 C609.981826,122.168521 611.349883,123.361826 612.142757,124.80977 C612.934633,126.256715 613.33107,128.912944 613.33107,132.780452 L613.236205,143.175691 C613.236205,146.13349 613.379002,148.315392 613.664596,149.720397 C613.949192,151.125402 614.482435,152.631264 615.264325,154.235985 L606.453836,154.235985 C606.221166,153.645823 605.93657,152.768069 605.598051,151.60572 C605.450261,151.07747 605.344411,150.729963 605.2815,150.560205 C603.76066,152.039104 602.132971,153.147531 600.400431,153.88748 C598.667892,154.627429 596.819516,154.996904 594.854307,154.996904 C591.388229,154.996904 588.658105,154.057239 586.66194,152.176909 C584.664776,150.29558 583.666194,147.918955 583.666194,145.045036 C583.666194,143.143736 584.120549,141.448144 585.029258,139.958259 C585.93697,138.468375 587.21116,137.327994 588.847836,136.536119 C590.485511,135.743245 592.846158,135.051227 595.931777,134.460067 C600.093867,133.678177 602.97877,132.949212 604.583491,132.273172 L604.583491,131.385433 C604.583491,129.673863 604.161091,128.453596 603.316291,127.724631 C602.47149,126.995666 600.875756,126.631184 598.531086,126.631184 C596.946336,126.631184 595.709093,126.942741 594.822352,127.565856 C593.934613,128.18997 593.216632,129.283418 592.667412,130.846198 L592.667412,130.846198 Z M662.297537,154.235985 L662.297537,149.196141 C661.071279,150.992591 659.460566,152.40858 657.464401,153.444109 C655.467237,154.47864 653.360228,154.996904 651.141379,154.996904 C648.88059,154.996904 646.851471,154.500609 645.05602,153.50702 C643.26057,152.51443 641.961415,151.11941 641.158555,149.322961 C640.354696,147.52851 639.953266,145.045036 639.953266,141.875537 L639.953266,120.57778 L648.859619,120.57778 L648.859619,136.044816 C648.859619,140.778095 649.023387,143.676979 649.350922,144.743464 C649.677458,145.811947 650.27461,146.655749 651.141379,147.279863 C652.00715,147.903976 653.106589,148.214535 654.437698,148.214535 C655.958539,148.214535 657.321603,147.797128 658.526892,146.962314 C659.730183,146.128498 660.555012,145.092968 660.997384,143.856723 C661.442751,142.620479 661.663438,139.593777 661.663438,134.776617 L661.663438,120.57778 L670.569791,120.57778 L670.569791,154.235985 L662.297537,154.235985 M710.407222,154.235985 L701.501867,154.235985 L701.501867,137.058377 C701.501867,133.424537 701.311138,131.073875 700.931677,130.00739 C700.551217,128.939905 699.933095,128.110084 699.07731,127.517925 C698.221525,126.927763 697.190989,126.631184 695.986699,126.631184 C694.44389,126.631184 693.060854,127.054582 691.835593,127.898384 C690.610333,128.744183 689.769527,129.864592 689.316171,131.259611 C688.861816,132.653632 688.63414,135.230972 688.63414,138.99263 L688.63414,154.235985 L679.727787,154.235985 L679.727787,120.57778 L688.00004,120.57778 L688.00004,125.521759 C690.93687,121.719159 694.634619,119.817859 699.093288,119.817859 C701.057498,119.817859 702.852949,120.171357 704.480637,120.879351 C706.107328,121.587346 707.338579,122.490064 708.172395,123.588504 C709.00721,124.686945 709.588384,125.935172 709.916918,127.329193 C710.243454,128.723213 710.407222,130.719378 710.407222,133.318687 L710.407222,154.235985 M719.441393,154.235985 L728.346748,154.235985 L728.346748,120.57778 L719.441393,120.57778 L719.441393,154.235985 Z M719.441393,116.01426 L728.346748,116.01426 L728.346748,107.773961 L719.441393,107.773961 L719.441393,116.01426 Z M737.283058,116.01426 L746.189411,116.01426 L746.189411,107.773961 L737.283058,107.773961 L737.283058,116.01426 Z M746.189411,120.57778 L746.189411,153.19047 C746.189411,157.479379 745.908809,160.506081 745.349604,162.270576 C744.7884,164.03507 743.71093,165.413113 742.117194,166.406702 C740.52146,167.399293 738.488347,167.896587 736.014859,167.896587 C735.128118,167.896587 734.172475,167.8167 733.146931,167.658924 C732.123385,167.50015 731.018953,167.262487 729.835633,166.944938 L731.388428,159.338739 C731.810829,159.423618 732.207266,159.491522 732.576741,159.545445 C732.946216,159.597372 733.290727,159.624333 733.606279,159.624333 C734.514989,159.624333 735.259931,159.428611 735.841106,159.038166 C736.42228,158.646722 736.807733,158.177388 736.998462,157.628168 C737.188193,157.077949 737.283058,155.430289 737.283058,152.684188 L737.283058,120.57778 L746.189411,120.57778 L746.189411,120.57778 Z M774.078808,138.072936 C772.938427,138.453396 771.131993,138.907751 768.660502,139.435002 C766.188013,139.963252 764.571309,140.481516 763.810389,140.988796 C762.649038,141.812626 762.067864,142.858141 762.067864,144.125342 C762.067864,145.372571 762.532204,146.450041 763.462883,147.359749 C764.391564,148.26746 765.574884,148.721815 767.011843,148.721815 C768.617563,148.721815 770.149388,148.194564 771.608316,147.137065 C772.684788,146.334205 773.392782,145.351601 773.731302,144.19025 C773.962973,143.42933 774.078808,141.982385 774.078808,139.847417 L774.078808,138.072936 Z M762.162729,130.846198 L754.081205,129.388269 C754.988916,126.135887 756.553694,123.727307 758.771544,122.162529 C760.990394,120.599748 764.286713,119.817859 768.660502,119.817859 C772.631863,119.817859 775.589663,120.287192 777.533902,121.227856 C779.478141,122.168521 780.846198,123.361826 781.639073,124.80977 C782.430948,126.256715 782.826387,128.912944 782.826387,132.780452 L782.731521,143.175691 C782.731521,146.13349 782.874318,148.315392 783.159913,149.720397 C783.444509,151.125402 783.97875,152.631264 784.76064,154.235985 L775.950151,154.235985 C775.716483,153.645823 775.431887,152.768069 775.093367,151.60572 C774.946576,151.07747 774.839728,150.729963 774.777816,150.560205 C773.255977,152.039104 771.628288,153.147531 769.895748,153.88748 C768.164207,154.627429 766.314833,154.996904 764.349624,154.996904 C760.884544,154.996904 758.153422,154.057239 756.157257,152.176909 C754.160093,150.29558 753.161511,147.918955 753.161511,145.045036 C753.161511,143.143736 753.615865,141.448144 754.524575,139.958259 C755.433285,138.468375 756.706477,137.327994 758.344151,136.536119 C759.980827,135.743245 762.342474,135.051227 765.427094,134.460067 C769.589183,133.678177 772.474087,132.949212 774.078808,132.273172 L774.078808,131.385433 C774.078808,129.673863 773.657406,128.453596 772.811608,127.724631 C771.966807,126.995666 770.372072,126.631184 768.026403,126.631184 C766.441653,126.631184 765.205408,126.942741 764.317669,127.565856 C763.42993,128.18997 762.712948,129.283418 762.162729,130.846198 L762.162729,130.846198 Z"/></g></svg>