<svg xmlns="http://www.w3.org/2000/svg" xmlns:xlink="http://www.w3.org/1999/xlink" width="100" height="100" viewBox="0 0 100 100"><defs><filter id="b" width="106.8%" height="106.8%" x="-3.4%" y="-2.9%" filterUnits="objectBoundingBox"><feOffset dy=".5" in="SourceAlpha" result="shadowOffsetOuter1"/><feGaussianBlur in="shadowOffsetOuter1" result="shadowBlurOuter1" stdDeviation="1"/><feColorMatrix in="shadowBlurOuter1" result="shadowMatrixOuter1" values="0 0 0 0 0.376470588 0 0 0 0 0.380392157 0 0 0 0 0.439215686 0 0 0 0.16 0"/><feOffset in="SourceAlpha" result="shadowOffsetOuter2"/><feGaussianBlur in="shadowOffsetOuter2" result="shadowBlurOuter2" stdDeviation=".5"/><feColorMatrix in="shadowBlurOuter2" result="shadowMatrixOuter2" values="0 0 0 0 0.156862745 0 0 0 0 0.160784314 0 0 0 0 0.239215686 0 0 0 0.08 0"/><feMerge><feMergeNode in="shadowMatrixOuter1"/><feMergeNode in="shadowMatrixOuter2"/></feMerge></filter><circle id="a" cx="48" cy="48" r="48"/></defs><g fill="none" fill-rule="evenodd" transform="translate(2 2)"><g fill-rule="nonzero"><use xlink:href="#a" fill="#000" filter="url(#b)"/><use xlink:href="#a" fill="#FFF"/></g><circle cx="48" cy="48" r="48" fill="#E8E8E8"/><path fill="#9E9E9E" d="M21.3333333,0 C9.5483871,0 0,9.5483871 0,21.3333333 C0,33.1182796 9.5483871,42.6666667 21.3333333,42.6666667 C33.1182796,42.6666667 42.6666667,33.1182796 42.6666667,21.3333333 C42.6666667,9.5483871 33.1182796,0 21.3333333,0 Z M21.3333333,38.5376344 C11.8451613,38.5376344 4.12903226,30.8215054 4.12903226,21.3333333 C4.12903226,11.8451613 11.8451613,4.12903226 21.3333333,4.12903226 C30.8215054,4.12903226 38.5376344,11.8451613 38.5376344,21.3333333 C38.5376344,30.8215054 30.8215054,38.5376344 21.3333333,38.5376344 Z M14.4516129,19.9569892 C15.9741935,19.9569892 17.2043011,18.7268817 17.2043011,17.2043011 C17.2043011,15.6817204 15.9741935,14.4516129 14.4516129,14.4516129 C12.9290323,14.4516129 11.6989247,15.6817204 11.6989247,17.2043011 C11.6989247,18.7268817 12.9290323,19.9569892 14.4516129,19.9569892 Z M28.2150538,19.9569892 C29.7376344,19.9569892 30.9677419,18.7268817 30.9677419,17.2043011 C30.9677419,15.6817204 29.7376344,14.4516129 28.2150538,14.4516129 C26.6924731,14.4516129 25.4623656,15.6817204 25.4623656,17.2043011 C25.4623656,18.7268817 26.6924731,19.9569892 28.2150538,19.9569892 Z M28.5591398,26.2021505 C26.7698925,28.3526882 24.1290323,29.5913978 21.3333333,29.5913978 C18.5376344,29.5913978 15.8967742,28.3612903 14.1075269,26.2021505 C13.3763441,25.3247312 12.0688172,25.2129032 11.2,25.9354839 C10.3225806,26.6666667 10.2107527,27.9655914 10.9333333,28.8430108 C13.5139785,31.9397849 17.3075269,33.711828 21.3333333,33.711828 C25.3591398,33.711828 29.1526882,31.9397849 31.7333333,28.8430108 C32.4645161,27.9655914 32.344086,26.6666667 31.4666667,25.9354839 C30.5978495,25.2129032 29.2903226,25.3247312 28.5591398,26.2021505 L28.5591398,26.2021505 Z" transform="translate(26.667 26.667)"/></g></svg>