<svg xmlns="http://www.w3.org/2000/svg" xmlns:xlink="http://www.w3.org/1999/xlink" width="56" height="56" viewBox="0 0 56 56"><defs><filter id="b" width="112.5%" height="112.5%" x="-6.2%" y="-5.3%" filterUnits="objectBoundingBox"><feOffset dy=".5" in="SourceAlpha" result="shadowOffsetOuter1"/><feGaussianBlur in="shadowOffsetOuter1" result="shadowBlurOuter1" stdDeviation="1"/><feColorMatrix in="shadowBlurOuter1" result="shadowMatrixOuter1" values="0 0 0 0 0.376470588 0 0 0 0 0.380392157 0 0 0 0 0.439215686 0 0 0 0.16 0"/><feOffset in="SourceAlpha" result="shadowOffsetOuter2"/><feGaussianBlur in="shadowOffsetOuter2" result="shadowBlurOuter2" stdDeviation=".5"/><feColorMatrix in="shadowBlurOuter2" result="shadowMatrixOuter2" values="0 0 0 0 0.156862745 0 0 0 0 0.160784314 0 0 0 0 0.239215686 0 0 0 0.08 0"/><feMerge><feMergeNode in="shadowMatrixOuter1"/><feMergeNode in="shadowMatrixOuter2"/></feMerge></filter><circle id="a" cx="26" cy="26" r="26"/></defs><g fill="none" fill-rule="evenodd" transform="translate(2 2)"><g fill-rule="nonzero"><use xlink:href="#a" fill="#000" filter="url(#b)"/><use xlink:href="#a" fill="#FFF"/></g><circle cx="26" cy="26" r="26" fill="#EAE1FE"/><path fill="#5B43B1" d="M11.5555556,0 C5.17204301,0 0,5.17204301 0,11.5555556 C0,17.9390681 5.17204301,23.1111111 11.5555556,23.1111111 C17.9390681,23.1111111 23.1111111,17.9390681 23.1111111,11.5555556 C23.1111111,5.17204301 17.9390681,0 11.5555556,0 Z M11.5555556,20.874552 C6.41612903,20.874552 2.23655914,16.6949821 2.23655914,11.5555556 C2.23655914,6.41612903 6.41612903,2.23655914 11.5555556,2.23655914 C16.6949821,2.23655914 20.874552,6.41612903 20.874552,11.5555556 C20.874552,16.6949821 16.6949821,20.874552 11.5555556,20.874552 Z M7.82795699,10.8100358 C8.65268817,10.8100358 9.31899642,10.1437276 9.31899642,9.31899642 C9.31899642,8.49426523 8.65268817,7.82795699 7.82795699,7.82795699 C7.00322581,7.82795699 6.33691756,8.49426523 6.33691756,9.31899642 C6.33691756,10.1437276 7.00322581,10.8100358 7.82795699,10.8100358 Z M15.2831541,10.8100358 C16.1078853,10.8100358 16.7741935,10.1437276 16.7741935,9.31899642 C16.7741935,8.49426523 16.1078853,7.82795699 15.2831541,7.82795699 C14.4584229,7.82795699 13.7921147,8.49426523 13.7921147,9.31899642 C13.7921147,10.1437276 14.4584229,10.8100358 15.2831541,10.8100358 Z M15.4695341,14.1928315 C14.5003584,15.3577061 13.0698925,16.0286738 11.5555556,16.0286738 C10.0412186,16.0286738 8.61075269,15.3623656 7.64157706,14.1928315 C7.24551971,13.7175627 6.53727599,13.6569892 6.06666667,14.0483871 C5.59139785,14.4444444 5.53082437,15.1480287 5.92222222,15.6232975 C7.32007168,17.3007168 9.37491039,18.2605735 11.5555556,18.2605735 C13.7362007,18.2605735 15.7910394,17.3007168 17.1888889,15.6232975 C17.5849462,15.1480287 17.5197133,14.4444444 17.0444444,14.0483871 C16.5738351,13.6569892 15.8655914,13.7175627 15.4695341,14.1928315 L15.4695341,14.1928315 Z" transform="translate(14.444 14.444)"/></g></svg>