<svg xmlns="http://www.w3.org/2000/svg" xmlns:xlink="http://www.w3.org/1999/xlink" width="56" height="56" viewBox="0 0 56 56"><defs><filter id="b" width="112.5%" height="112.5%" x="-6.2%" y="-5.3%" filterUnits="objectBoundingBox"><feOffset dy=".5" in="SourceAlpha" result="shadowOffsetOuter1"/><feGaussianBlur in="shadowOffsetOuter1" result="shadowBlurOuter1" stdDeviation="1"/><feColorMatrix in="shadowBlurOuter1" result="shadowMatrixOuter1" values="0 0 0 0 0.376470588 0 0 0 0 0.380392157 0 0 0 0 0.439215686 0 0 0 0.16 0"/><feOffset in="SourceAlpha" result="shadowOffsetOuter2"/><feGaussianBlur in="shadowOffsetOuter2" result="shadowBlurOuter2" stdDeviation=".5"/><feColorMatrix in="shadowBlurOuter2" result="shadowMatrixOuter2" values="0 0 0 0 0.156862745 0 0 0 0 0.160784314 0 0 0 0 0.239215686 0 0 0 0.08 0"/><feMerge><feMergeNode in="shadowMatrixOuter1"/><feMergeNode in="shadowMatrixOuter2"/></feMerge></filter><circle id="a" cx="26" cy="26" r="26"/></defs><g fill="none" fill-rule="evenodd" transform="translate(2 2)"><g fill-rule="nonzero"><use xlink:href="#a" fill="#000" filter="url(#b)"/><use xlink:href="#a" fill="#FFF"/></g><circle cx="26" cy="26" r="26" fill="#EAE1FE"/><path fill="#5B43B1" d="M22.627733,16.2322349 L17.3990901,11.0035045 L22.6269076,5.77559952 C22.936731,5.46611534 23.1111111,5.0462024 23.1111111,4.6082821 C23.1111111,4.17036179 22.9373375,3.75032584 22.627733,3.4406227 L22.6269076,3.43897195 L19.672126,0.484140904 C19.362647,0.174312315 18.9427411,0 18.5048281,0 C18.0669151,0 17.6468862,0.173705815 17.3371883,0.483315533 L17.3363629,0.484140904 L12.1085454,5.71204589 L6.87990256,0.483315533 C6.23454714,-0.159288729 5.19114559,-0.159288729 4.54579017,0.483315533 L0.483378157,4.54497017 C-0.161126052,5.18986846 -0.161126052,6.2350487 0.483378157,6.87994699 L5.71119565,12.107852 L0.000543734884,17.8202502 L0.000543734884,23.1111111 L5.29108843,23.1111111 L11.0025657,17.3993106 L16.2312086,22.6296917 C16.8775015,23.2715842 17.9206787,23.2715842 18.5669717,22.6296917 L22.627733,18.5672117 C23.2722372,17.9223134 23.2722372,16.8771332 22.627733,16.2322349 L22.627733,16.2322349 Z M18.4992923,1.64791514 L21.4623275,4.61099991 L16.2353353,9.8389049 L13.2723002,6.87582013 L18.4992923,1.64791514 Z M4.95269166,21.4601399 L1.65125971,21.4601399 L1.65125971,18.4962297 L6.87577577,13.2724516 L9.90979173,16.3081691 L4.95269166,21.4601399 Z M17.3990901,21.4634413 L1.65125971,5.71204589 L5.71367172,1.65121663 L8.84012778,4.77689964 L6.98142159,6.63646231 L8.14930314,7.80353804 L10.007184,5.94480074 L13.4159125,9.35358628 L11.5555556,11.2106728 L12.7242625,12.3777486 L14.5829687,10.5190113 L17.9916971,13.9277968 L16.132991,15.7857087 L17.3000471,16.9536098 L19.1587533,15.0956979 L21.4615021,17.3993106 L17.3990901,21.4634413 Z" transform="translate(14.444 14.444)"/></g></svg>