<svg xmlns="http://www.w3.org/2000/svg" xmlns:xlink="http://www.w3.org/1999/xlink" width="25" height="24" viewBox="0 0 25 24"><defs><linearGradient id="b" x1="82.175%" x2="5.349%" y1="81.188%" y2="26.755%"><stop offset="0%" stop-color="#CD1AFF"/><stop offset="100%" stop-color="#1D80FF"/></linearGradient><path id="a" d="M12.5031976,0 L12.5029612,0.000945527565 C11.7017448,-0.0190287422 10.890364,0.379511126 10.4827234,1.20200192 L10.4827234,1.20200192 C10.4827234,1.20200192 10.302955,1.55952953 9.99483118,2.17246777 L9.99483118,2.17246777 C9.32764329,3.45933079 8.12611414,5.62943474 7.35728203,6.15372978 L7.35728203,6.15372978 C6.50217054,6.7368839 4.23302258,7.1964103 2.88942791,7.42782817 L2.88942791,7.42782817 C2.23441369,7.53159982 1.85041131,7.59246816 1.85041131,7.59246816 L1.85041131,7.59246816 C1.01515589,7.71775056 0.414509507,8.28388519 0.150116361,8.97742966 L0.150116361,8.97742966 L0.146925206,8.97742966 L0.149407216,8.97920252 C-0.143469948,9.7495711 -0.0217332735,10.6767791 0.656800945,11.3330934 L0.656800945,11.3330934 C0.656800945,11.3330934 0.942823034,11.6132059 1.43319727,12.0931794 L1.43319727,12.0931794 C2.45637628,13.1199041 4.15844409,14.9240889 4.42425553,15.8159578 L4.42425553,15.8159578 C4.72434234,16.8225901 4.42378276,19.2217481 4.21293012,20.5894537 L4.21293012,20.5894537 C4.19260127,20.7185182 4.17416349,20.8346999 4.15797133,20.9369351 L4.15797133,20.9369351 C4.09272993,21.3379569 4.04568993,21.5893491 4.04568993,21.5893491 L4.04568993,21.5893491 L4.05821817,21.5869853 C3.97548451,22.3665727 4.3202475,23.0592899 4.86747157,23.5003785 L4.86747157,23.5003785 L4.86664424,23.5029787 L4.86877167,23.5014422 C5.51090308,24.018173 6.43078321,24.1886044 7.26462033,23.7460975 L7.26462033,23.7460975 C7.26462033,23.7460975 7.54142353,23.6013136 8.02494269,23.3485031 L8.02494269,23.3485031 C9.27327545,22.7115721 11.7168733,21.536045 12.6979763,21.5626379 L12.6979763,21.5626379 C13.6722243,21.5891127 15.5749803,22.4389056 16.8022751,23.0386065 L16.8022751,23.0386065 C17.5191032,23.4038165 17.9476635,23.6221152 17.9476635,23.6221152 L17.9476635,23.6221152 C18.6971123,24.0117907 19.5159392,23.9070735 20.1376236,23.5014422 L20.1376236,23.5014422 L20.1398692,23.5029787 L20.1389237,23.5004967 C20.8288042,23.04948 21.2750932,22.2273438 21.1121079,21.2975356 L21.1121079,21.2975356 C21.1121079,21.2975356 21.0598675,20.98953 20.9687423,20.4515248 L20.9687423,20.4515248 C20.7487889,19.0675089 20.3859427,16.3802013 20.7143954,15.4553572 L20.7143954,15.4553572 C21.0407206,14.5368954 22.4369102,12.9900123 23.3863381,12.0079637 L23.3863381,12.0079637 C23.9553093,11.4389925 24.2954628,11.0989571 24.2954628,11.0989571 L24.2954628,11.0989571 C24.8975275,10.5067023 25.050703,9.69567603 24.8568698,8.97920252 L24.8568698,8.97920252 L24.8595882,8.97742966 L24.8563971,8.97742966 C24.6405804,8.1818864 23.9969125,7.50335218 23.0622585,7.37121471 L23.0622585,7.37121471 C23.0622585,7.37121471 22.382897,7.27098878 21.2775752,7.10788528 L21.2775752,7.10788528 C19.8648389,6.84869254 18.0509624,6.43951548 17.4332965,5.96202406 L17.4332965,5.96202406 C16.6230976,5.33549386 15.5213216,3.3704512 14.8958551,2.16986757 L14.8958551,2.16986757 C14.589386,1.56035686 14.409263,1.20200192 14.409263,1.20200192 L14.409263,1.20200192 C14.0243151,0.420759766 13.2687204,0.0200924608 12.503434,0.000945527565 L12.503434,0.000945527565 L12.5031976,0 Z"/></defs><g fill="none" fill-rule="evenodd"><mask id="c" fill="#fff"><use xlink:href="#a"/></mask><path fill="url(#b)" d="M12.5031976,0 L12.5029612,0.000945527565 C11.7017448,-0.0190287422 10.890364,0.379511126 10.4827234,1.20200192 L10.4827234,1.20200192 C10.4827234,1.20200192 10.302955,1.55952953 9.99483118,2.17246777 L9.99483118,2.17246777 C9.32764329,3.45933079 8.12611414,5.62943474 7.35728203,6.15372978 L7.35728203,6.15372978 C6.50217054,6.7368839 4.23302258,7.1964103 2.88942791,7.42782817 L2.88942791,7.42782817 C2.23441369,7.53159982 1.85041131,7.59246816 1.85041131,7.59246816 L1.85041131,7.59246816 C1.01515589,7.71775056 0.414509507,8.28388519 0.150116361,8.97742966 L0.150116361,8.97742966 L0.146925206,8.97742966 L0.149407216,8.97920252 C-0.143469948,9.7495711 -0.0217332735,10.6767791 0.656800945,11.3330934 L0.656800945,11.3330934 C0.656800945,11.3330934 0.942823034,11.6132059 1.43319727,12.0931794 L1.43319727,12.0931794 C2.45637628,13.1199041 4.15844409,14.9240889 4.42425553,15.8159578 L4.42425553,15.8159578 C4.72434234,16.8225901 4.42378276,19.2217481 4.21293012,20.5894537 L4.21293012,20.5894537 C4.19260127,20.7185182 4.17416349,20.8346999 4.15797133,20.9369351 L4.15797133,20.9369351 C4.09272993,21.3379569 4.04568993,21.5893491 4.04568993,21.5893491 L4.04568993,21.5893491 L4.05821817,21.5869853 C3.97548451,22.3665727 4.3202475,23.0592899 4.86747157,23.5003785 L4.86747157,23.5003785 L4.86664424,23.5029787 L4.86877167,23.5014422 C5.51090308,24.018173 6.43078321,24.1886044 7.26462033,23.7460975 L7.26462033,23.7460975 C7.26462033,23.7460975 7.54142353,23.6013136 8.02494269,23.3485031 L8.02494269,23.3485031 C9.27327545,22.7115721 11.7168733,21.536045 12.6979763,21.5626379 L12.6979763,21.5626379 C13.6722243,21.5891127 15.5749803,22.4389056 16.8022751,23.0386065 L16.8022751,23.0386065 C17.5191032,23.4038165 17.9476635,23.6221152 17.9476635,23.6221152 L17.9476635,23.6221152 C18.6971123,24.0117907 19.5159392,23.9070735 20.1376236,23.5014422 L20.1376236,23.5014422 L20.1398692,23.5029787 L20.1389237,23.5004967 C20.8288042,23.04948 21.2750932,22.2273438 21.1121079,21.2975356 L21.1121079,21.2975356 C21.1121079,21.2975356 21.0598675,20.98953 20.9687423,20.4515248 L20.9687423,20.4515248 C20.7487889,19.0675089 20.3859427,16.3802013 20.7143954,15.4553572 L20.7143954,15.4553572 C21.0407206,14.5368954 22.4369102,12.9900123 23.3863381,12.0079637 L23.3863381,12.0079637 C23.9553093,11.4389925 24.2954628,11.0989571 24.2954628,11.0989571 L24.2954628,11.0989571 C24.8975275,10.5067023 25.050703,9.69567603 24.8568698,8.97920252 L24.8568698,8.97920252 L24.8595882,8.97742966 L24.8563971,8.97742966 C24.6405804,8.1818864 23.9969125,7.50335218 23.0622585,7.37121471 L23.0622585,7.37121471 C23.0622585,7.37121471 22.382897,7.27098878 21.2775752,7.10788528 L21.2775752,7.10788528 C19.8648389,6.84869254 18.0509624,6.43951548 17.4332965,5.96202406 L17.4332965,5.96202406 C16.6230976,5.33549386 15.5213216,3.3704512 14.8958551,2.16986757 L14.8958551,2.16986757 C14.589386,1.56035686 14.409263,1.20200192 14.409263,1.20200192 L14.409263,1.20200192 C14.0243151,0.420759766 13.2687204,0.0200924608 12.503434,0.000945527565 L12.503434,0.000945527565 L12.5031976,0 Z" mask="url(#c)"/><path fill="#FFF" d="M11.722771,15.2968868 C11.4895802,15.2968868 11.2560349,15.2141531 11.0694114,15.0476221 L9.05898345,13.2537199 C8.65441584,12.8927648 8.61919494,12.2723805 8.9800319,11.8678129 C9.34098705,11.4633635 9.96148951,11.4280244 10.3659389,11.7889795 L11.6897957,12.9701798 L14.7564962,9.95004659 C15.142626,9.56958993 15.7641922,9.57443576 16.1445306,9.96068377 C16.5249873,10.3469318 16.5201415,10.9683798 16.1340116,11.3488364 L12.4115878,15.0146468 C12.221064,15.202334 11.9721539,15.2968868 11.722771,15.2968868"/><path stroke="#FFF" d="M12.4904632,0.500789303 C12.7984278,0.508489606 13.1046923,0.594738898 13.3695753,0.76162717 C13.6120947,0.914425363 13.8189912,1.13529485 13.9625414,1.4265901 L14.4537739,2.40345737 C15.2438947,3.89880338 16.3301394,5.74100803 17.1274299,6.35755614 C18.0362219,6.93535236 19.8006626,7.34562162 21.1959747,7.60125857 L22.973996,7.86360502 C23.4211554,7.95903161 23.6955962,8.10419513 23.9080188,8.31043838 C24.1300428,8.52600374 24.2873288,8.79947658 24.369802,9.09384438 C24.4968965,9.73523712 24.3809155,10.3135273 23.9419324,10.7453808 L23.024681,11.6627041 C21.8497023,12.8934866 20.5635821,14.3863656 20.2432493,15.2879612 C19.9249054,16.5727852 20.2575202,19.161932 20.4757705,20.5350642 L20.6165404,21.3657577 C20.6638923,21.8206269 20.6106027,22.1266112 20.4800701,22.3924648 C20.3436625,22.6702837 20.1321995,22.9044188 19.8777081,23.0737612 C19.3070274,23.3926077 18.7211232,23.4607269 18.1746292,23.1765968 L17.0241332,22.5904861 C15.489445,21.8523405 13.6690148,21.0888409 12.7115586,21.0628224 C11.3912509,21.1570856 9.03165428,22.2735313 7.79324551,22.905427 L7.04745355,23.295423 C6.62223194,23.4823707 6.31581651,23.5254737 6.02367312,23.482851 C5.71888882,23.4383841 5.43242035,23.3099262 5.19391679,23.1211361 C4.73567235,22.696002 4.49584578,22.2011684 4.55542611,21.6397514 C4.55636099,21.5230733 4.60216962,21.32034 4.65243223,21.0111537 C4.96467302,18.9309381 5.19760498,16.659959 4.90341725,15.673115 C4.42579741,14.5028223 2.79733673,12.7537131 1.78297785,11.735893 L1.01830803,10.9872872 C0.709200395,10.6407331 0.573608741,10.3627706 0.523921038,10.0718891 C0.472055337,9.76825704 0.505771507,9.45608657 0.611577736,9.17086682 C0.885875353,8.57732079 1.31962022,8.1776761 1.92866374,8.08630675 L2.97708034,7.92008527 C4.65737086,7.62088888 6.79849676,7.1400015 7.63899119,6.56681566 C8.60110646,5.76869873 9.77802923,3.67693552 10.4365764,2.40669235 C11.1163346,1.12467511 11.3358639,0.858146907 11.6196855,0.7051553 C11.887704,0.560682197 12.1901613,0.493302799 12.4904632,0.500789303 Z"/></g></svg>