<svg xmlns="http://www.w3.org/2000/svg" xmlns:xlink="http://www.w3.org/1999/xlink" width="56" height="56" viewBox="0 0 56 56"><defs><filter id="b" width="112.5%" height="112.5%" x="-6.2%" y="-5.3%" filterUnits="objectBoundingBox"><feOffset dy=".5" in="SourceAlpha" result="shadowOffsetOuter1"/><feGaussianBlur in="shadowOffsetOuter1" result="shadowBlurOuter1" stdDeviation="1"/><feColorMatrix in="shadowBlurOuter1" result="shadowMatrixOuter1" values="0 0 0 0 0.376470588 0 0 0 0 0.380392157 0 0 0 0 0.439215686 0 0 0 0.16 0"/><feOffset in="SourceAlpha" result="shadowOffsetOuter2"/><feGaussianBlur in="shadowOffsetOuter2" result="shadowBlurOuter2" stdDeviation=".5"/><feColorMatrix in="shadowBlurOuter2" result="shadowMatrixOuter2" values="0 0 0 0 0.156862745 0 0 0 0 0.160784314 0 0 0 0 0.239215686 0 0 0 0.08 0"/><feMerge><feMergeNode in="shadowMatrixOuter1"/><feMergeNode in="shadowMatrixOuter2"/></feMerge></filter><circle id="a" cx="26" cy="26" r="26"/></defs><g fill="none" fill-rule="evenodd" transform="translate(2 2)"><g fill-rule="nonzero"><use xlink:href="#a" fill="#000" filter="url(#b)"/><use xlink:href="#a" fill="#FFF"/></g><circle cx="26" cy="26" r="26" fill="#EAE1FE"/><g transform="translate(14.444 14.444)"><polygon points="0 0 23.111 0 23.111 23.111 0 23.111"/><path fill="#5B43B1" d="M8.66666667,13.2407407 C6.41333333,13.2407407 1.92592593,14.3674074 1.92592593,16.6111111 L1.92592593,18.2962963 L15.4074074,18.2962963 L15.4074074,16.6111111 C15.4074074,14.3674074 10.92,13.2407407 8.66666667,13.2407407 Z M4.17925926,16.3703704 C4.98814815,15.8118519 6.94296296,15.1666667 8.66666667,15.1666667 C10.3903704,15.1666667 12.3451852,15.8118519 13.1540741,16.3703704 L4.17925926,16.3703704 Z M8.66666667,11.5555556 C10.5251852,11.5555556 12.037037,10.0437037 12.037037,8.18518519 C12.037037,6.32666667 10.5251852,4.81481481 8.66666667,4.81481481 C6.80814815,4.81481481 5.2962963,6.32666667 5.2962963,8.18518519 C5.2962963,10.0437037 6.80814815,11.5555556 8.66666667,11.5555556 Z M8.66666667,6.74074074 C9.46592593,6.74074074 10.1111111,7.38592593 10.1111111,8.18518519 C10.1111111,8.98444444 9.46592593,9.62962963 8.66666667,9.62962963 C7.86740741,9.62962963 7.22222222,8.98444444 7.22222222,8.18518519 C7.22222222,7.38592593 7.86740741,6.74074074 8.66666667,6.74074074 Z M15.4459259,13.2985185 C16.562963,14.1074074 17.3333333,15.1859259 17.3333333,16.6111111 L17.3333333,18.2962963 L21.1851852,18.2962963 L21.1851852,16.6111111 C21.1851852,14.6659259 17.8148148,13.5585185 15.4459259,13.2985185 L15.4459259,13.2985185 Z M14.4444444,11.5555556 C16.302963,11.5555556 17.8148148,10.0437037 17.8148148,8.18518519 C17.8148148,6.32666667 16.302963,4.81481481 14.4444444,4.81481481 C13.9244444,4.81481481 13.442963,4.94 13,5.15185185 C13.6066667,6.00888889 13.962963,7.05851852 13.962963,8.18518519 C13.962963,9.31185185 13.6066667,10.3614815 13,11.2185185 C13.442963,11.4303704 13.9244444,11.5555556 14.4444444,11.5555556 Z"/></g></g></svg>