<svg xmlns="http://www.w3.org/2000/svg" width="64" height="64" viewBox="0 0 64 64"><path fill="#EAE1FE" fill-rule="evenodd" d="M31.9999819,0 C49.6735369,0 63.9999638,14.3264244 63.9999638,31.9999819 C63.9999638,49.6735169 49.6735257,64 32.0036921,64 C26.7717286,64.0078496 21.6244495,62.7275285 17.0137401,60.2799216 L16.803,60.165 L4.38910466,62.4814063 C2.95528243,62.7484157 1.6721393,61.7310269 1.49625081,60.385816 L1.48131284,60.2350477 L1.51852495,59.610825 L3.83015168,47.1532041 L3.29810274,46.1642557 C1.45062043,42.4290128 0.34715476,38.3515123 0.0695825757,34.1248495 L0,31.9999819 C0,14.3264244 14.3264269,0 31.9999819,0 Z M31.9999819,4.92307414 C17.0453655,4.92307414 4.92307414,17.0453634 4.92307414,31.9999819 C4.92307414,36.8230245 6.18438475,41.459809 8.54409575,45.5359469 L8.83371535,47.219851 L7.01045757,56.9796601 L16.7801141,55.1662168 L18.4633648,55.4554593 C22.5761095,57.834682 27.244887,59.084054 31.9999819,59.0769203 C46.9545862,59.0769203 59.0768897,46.9545788 59.0768897,31.9999819 C59.0768897,17.0453634 46.9545983,4.92307414 31.9999819,4.92307414 Z M43.1507422,20.0664544 C44.111432,20.6668855 44.5149198,21.8215728 44.2057638,22.8569356 L43.9335094,23.4584457 L31.6258241,43.1507422 C30.7822329,44.5004881 28.9567691,44.6692063 27.8677097,43.6568969 L27.4510656,43.1507422 L20.0664544,31.3353643 C19.345937,30.1825366 19.6963939,28.6638903 20.8492216,27.943373 C21.8099114,27.3429419 23.0246418,27.4862428 23.8198321,28.2178341 L24.2412129,28.7261402 L29.5384448,37.2085943 L39.7587509,20.8492216 C40.4792683,19.6963939 41.9979145,19.345937 43.1507422,20.0664544 Z"/></svg>