<svg xmlns="http://www.w3.org/2000/svg" xmlns:xlink="http://www.w3.org/1999/xlink" width="508" height="348" viewBox="0 0 508 348"><defs><linearGradient id="c" x1=".778%" x2="98.266%" y1=".779%" y2="98.264%"><stop offset="0%" stop-color="#CD1AFF"/><stop offset="100%" stop-color="#1D80FF"/></linearGradient><polygon id="a" points="0 0 130.986 0 130.986 110.507 0 110.507"/></defs><g fill="none" fill-rule="evenodd"><polygon fill="#F4F4FC" points=".002 294.041 153.975 347.504 190.01 243.721 36.038 190.258"/><path fill="#E0E0E0" d="M190.010121,243.7215 C190.027762,243.7685 189.368762,244.0715 188.096762,244.6055 C186.686762,245.1775 184.827762,245.9305 182.505762,246.8725 C177.474762,248.8415 170.449762,251.5895 161.826762,254.9645 C144.171762,261.7195 120.006762,270.9655 93.2407615,281.2075 L92.6757615,281.4235 L92.3527615,280.9105 C92.1057615,280.5185 91.8377615,280.0945 91.5697615,279.6705 C76.1687615,255.0995 62.2317615,232.8645 52.0417615,216.6075 C47.1077615,208.6035 43.0857615,202.0785 40.2067615,197.4075 C38.8957615,195.2215 37.8467615,193.4725 37.0517615,192.1475 C36.3447615,190.9355 35.9947615,190.2865 36.0377615,190.258622 C36.0807615,190.2325 36.5157615,190.8285 37.3047615,191.9885 C38.1577615,193.2755 39.2847615,194.9755 40.6937615,197.0995 C43.6697615,201.7105 47.8267615,208.1495 52.9267615,216.0495 C63.2107615,232.2465 77.2777615,254.4005 92.8217615,278.8805 C93.0897615,279.3055 93.3567615,279.7295 93.6037615,280.1205 L92.7157615,279.8235 C119.542762,269.7425 143.762762,260.6415 161.457762,253.9925 C170.150762,250.8005 177.231762,248.2005 182.302762,246.3385 C184.665762,245.5035 186.557762,244.8355 187.991762,244.3285 C189.297762,243.8845 189.991762,243.6745 190.010121,243.7215"/><path fill="#E0E0E0" d="M.00196153705 294.042C-.207038463 293.69 16.3119615 283.485 36.8919615 271.249 57.4789615 259.009 74.3329615 249.375 74.5409615 249.727 74.7499615 250.077 58.2349615 260.281 37.6479615 272.521 17.0679615 284.757.210961537 294.393.00196153705 294.042M126.172862 266.199182C126.559862 266.0679 133.096862 284.1629 140.772862 306.6109 148.451862 329.0669 154.360862 347.3719 153.973862 347.504618 153.587862 347.6359 147.051862 329.5459 139.372862 307.0899 131.696862 284.6409 125.785862 266.3319 126.172862 266.199182"/><polygon fill="#F4F4FC" points="507.8 266.001 355.445 291.816 338.045 189.124 490.4 163.309"/><path fill="#EBEBEB" d="M490.399462,163.3089 C490.436462,163.3399 490.026462,163.8929 489.212462,164.9159 C488.301462,166.0349 487.101462,167.5089 485.600462,169.3519 C482.317462,173.2829 477.733462,178.7719 472.106462,185.5109 C460.515462,199.1789 444.650462,217.8889 427.078462,238.6119 L426.707462,239.0489 L426.204462,238.7699 C425.820462,238.5569 425.405462,238.3269 424.988462,238.0959 C400.979462,224.7029 379.252462,212.5819 363.366462,203.7199 C355.614462,199.3189 349.295462,195.7309 344.770462,193.1619 C342.684462,191.9439 341.014462,190.9689 339.749462,190.2299 C338.609462,189.5459 338.021462,189.1659 338.043812,189.1239 C338.068462,189.0819 338.701462,189.3789 339.886462,189.9829 C341.183462,190.6629 342.895462,191.5619 345.035462,192.6849 C349.612462,195.1589 356.004462,198.6139 363.847462,202.8529 C379.784462,211.6219 401.581462,223.6159 425.668462,236.8689 C426.084462,237.0999 426.500462,237.3299 426.884462,237.5429 L426.011462,237.7009 C443.707462,217.0839 459.684462,198.4699 471.356462,184.8719 C477.124462,178.2519 481.823462,172.8609 485.188462,168.9999 C486.771462,167.2279 488.038462,165.8099 488.999462,164.7339 C489.882462,163.7689 490.362462,163.2779 490.399462,163.3089"/><path fill="#EBEBEB" d="M355.445162 291.8163C355.111162 291.6193 364.183162 275.6013 375.704162 256.0433 387.230162 236.4783 396.841162 220.7823 397.175162 220.9793 397.509162 221.1763 388.439162 237.1903 376.913162 256.7553 365.392162 276.3133 355.778162 292.0123 355.445162 291.8163M447.601062 211.1145C447.862062 210.8285 461.551062 222.8845 478.171062 238.0385 494.798062 253.1975 508.061062 265.7155 507.800062 266.0015 507.539062 266.2875 493.853062 254.2345 477.226062 239.0745 460.606062 223.9205 447.340062 211.4005 447.601062 211.1145"/><g transform="translate(310.64)"><mask id="b" fill="#fff"><use xlink:href="#a"/></mask><polygon fill="#F4F4FC" points="103.543 110.507 0 69.792 27.443 0 130.986 40.715" mask="url(#b)"/></g><path fill="#E0E0E0" d="M441.627255,41.6841 C441.638062,41.7171 441.180062,41.9051 440.298062,42.2341 C439.320062,42.5851 438.032062,43.0481 436.421062,43.6261 C432.936062,44.8301 428.069062,46.5111 422.094062,48.5751 C409.866062,52.6951 393.128062,58.3341 374.590062,64.5811 L374.199062,64.7131 L373.992062,64.3541 C373.834062,64.0801 373.663062,63.7831 373.492062,63.4861 C363.666062,46.3031 354.774062,30.7521 348.272062,19.3831 C345.128062,13.7871 342.565062,9.2261 340.730062,5.9601 C339.896062,4.4331 339.229062,3.2111 338.723062,2.2851 C338.275062,1.4391 338.053062,0.9871 338.083062,0.968602555 C338.114062,0.9521 338.394062,1.3711 338.900062,2.1841 C339.447062,3.0861 340.168062,4.2761 341.070062,5.7641 C342.973062,8.9901 345.631062,13.4971 348.891062,19.0261 C355.459062,30.3581 364.441062,45.8561 374.368062,62.9821 C374.539062,63.2791 374.710062,63.5761 374.867062,63.8501 L374.270062,63.6231 C392.846062,57.4871 409.617062,51.9481 421.869062,47.9021 C427.887062,45.9641 432.788062,44.3861 436.298062,43.2561 C437.933062,42.7521 439.241062,42.3491 440.234062,42.0421 C441.137062,41.7761 441.616062,41.6511 441.627255,41.6841"/><path fill="#E0E0E0" d="M310.640662 70.7616C310.507662 70.5156 322.055662 64.0106 336.430662 56.2336 350.810662 48.4536 362.571662 42.3476 362.704662 42.5926 362.836662 42.8376 351.291662 49.3416 336.911662 57.1216 322.536662 64.8996 310.773662 71.0066 310.640662 70.7616M397.465862 55.2534282C397.732862 55.1748 401.692862 67.6968 406.308862 83.2198 410.925862 98.7478 414.451862 111.3968 414.183862 111.476181 413.916862 111.5558 409.957862 99.0358 405.340862 83.5078 400.724862 67.9848 397.198862 55.3338 397.465862 55.2534282"/><polygon fill="#EAE1FE" points="136.54 167.992 372.41 166.279 378.985 326.641 134.75 324.377"/><g transform="translate(134.746 74.81)"><path fill="#E8505B" d="M1.79348701,93.1815633 L113.424487,2.85456328 C118.151487,-0.970436719 124.914487,-0.949436719 129.617487,2.90556328 L237.663487,91.4685633"/><path fill="#000" d="M1.79348701,93.1815633 L113.424487,2.85456328 C118.151487,-0.970436719 124.914487,-0.949436719 129.617487,2.90556328 L237.663487,91.4685633"/><path fill="#263238" d="M.00338700529 249.566363C-.290612995 249.290363 18.592387 228.673363 42.174387 203.522363 65.765387 178.363363 85.121387 158.197363 85.415387 158.473363 85.709387 158.749363 66.830387 179.362363 43.240387 204.521363 19.658387 229.672363.297387005 249.842363.00338700529 249.566363M244.238387 251.830663C243.936387 252.098663 225.547387 231.898663 203.169387 206.716663 180.784387 181.527663 162.887387 160.896663 163.189387 160.628663 163.490387 160.361663 181.875387 180.557663 204.261387 205.746663 226.639387 230.927663 244.539387 251.562663 244.238387 251.830663"/><polyline fill="#000" points="237.664 91.468 119.222 186.086 1.794 93.181"/><polygon fill="#FAFAFA" points="13.672 101.944 13.304 28.276 219.839 25.834 222.167 103.345 119.211 184.849"/><path fill="#263238" d="M13.671787,101.943663 C13.671787,101.943663 14.339787,102.442663 15.608787,103.427663 C16.880787,104.418663 18.758787,105.881663 21.211787,107.791663 C26.118787,111.629663 33.319787,117.262663 42.524787,124.461663 C60.916787,138.878663 87.308787,159.568663 119.342787,184.680663 L119.077787,184.680663 C148.736787,161.185663 183.927787,133.308663 222.006787,103.142663 L221.909787,103.352663 C221.464787,88.5646633 220.997787,73.0526633 220.522787,57.2656633 C220.203787,46.6396633 219.888787,36.1376633 219.579787,25.8416633 L219.841787,26.0926633 C136.611787,27.0396633 63.188787,27.8756633 13.305787,28.4426633 L13.470787,28.2746633 C13.551787,51.4536633 13.615787,69.8576633 13.659787,82.4766633 C13.672787,88.7846633 13.682787,93.6456633 13.689787,96.9376633 C13.687787,98.5766633 13.687787,99.8246633 13.686787,100.670663 C13.683787,101.510663 13.671787,101.943663 13.671787,101.943663 C13.671787,101.943663 13.655787,101.524663 13.643787,100.690663 C13.634787,99.8486633 13.621787,98.6076633 13.604787,96.9756633 C13.578787,93.6886633 13.539787,88.8356633 13.489787,82.5366633 C13.407787,69.9046633 13.287787,51.4796633 13.135787,28.2766633 L13.135787,28.1106633 L13.301787,28.1086633 C63.183787,27.4966633 136.605787,26.5956633 219.835787,25.5746633 L220.090787,25.5716633 L220.097787,25.8266633 C220.407787,36.1216633 220.723787,46.6236633 221.042787,57.2506633 C221.515787,73.0366633 221.980787,88.5496633 222.423787,103.336663 L222.427787,103.466663 L222.326787,103.546663 C184.227787,133.686663 149.017787,161.540663 119.343787,185.015663 L119.210787,185.120663 L119.078787,185.015663 C87.069787,159.819663 60.696787,139.060663 42.319787,124.594663 C33.154787,117.363663 25.984787,111.706663 21.098787,107.851663 C18.669787,105.927663 16.809787,104.454663 15.550787,103.456663 C14.300787,102.462663 13.671787,101.943663 13.671787,101.943663"/><path fill="#263238" d="M187.198587 62.9247633C187.198587 63.0687633 155.613587 63.3767633 116.658587 63.6137633 77.689587 63.8497633 46.108587 63.9247633 46.108587 63.7807633 46.108587 63.6377633 77.686587 63.3287633 116.655587 63.0927633 155.610587 62.8557633 187.198587 62.7807633 187.198587 62.9247633M187.198587 83.7336633C187.198587 83.8776633 155.613587 84.1856633 116.658587 84.4226633 77.689587 84.6586633 46.108587 84.7336633 46.108587 84.5896633 46.108587 84.4466633 77.686587 84.1376633 116.655587 83.9016633 155.610587 83.6646633 187.198587 83.5896633 187.198587 83.7336633M187.198587 107.717263C187.198587 107.861263 155.613587 108.169263 116.658587 108.406263 77.689587 108.642263 46.108587 108.717263 46.108587 108.573263 46.108587 108.430263 77.686587 108.121263 116.655587 107.885263 155.610587 107.648263 187.198587 107.573263 187.198587 107.717263M187.198587 131.700863C187.198587 131.844863 157.065587 132.143863 119.900587 132.369863 82.723587 132.595863 52.593587 132.661863 52.593587 132.517863 52.593587 132.373863 82.720587 132.074863 119.897587 131.848863 157.062587 131.623863 187.198587 131.556863 187.198587 131.700863M160.781787 152.752663C160.781787 152.770663 160.496787 152.789663 159.954787 152.810663 159.364787 152.826663 158.574787 152.847663 157.582787 152.874663 155.469787 152.909663 152.501787 152.958663 148.856787 153.018663 141.443787 153.125663 131.288787 153.270663 120.069787 153.431663 108.823787 153.619663 98.641787 153.683663 91.272787 153.691663 87.626787 153.682663 84.658787 153.675663 82.545787 153.670663 81.552787 153.656663 80.762787 153.645663 80.172787 153.637663 79.630787 153.623663 79.345787 153.608663 79.345787 153.590663 79.345787 153.572663 79.629787 153.552663 80.172787 153.532663 80.761787 153.516663 81.551787 153.494663 82.544787 153.467663 84.656787 153.432663 87.624787 153.383663 91.269787 153.323663 98.682787 153.217663 108.838787 153.071663 120.061787 152.910663 131.303787 152.723663 141.484787 152.659663 148.853787 152.650663 152.499787 152.659663 155.467787 152.666663 157.580787 152.672663 158.573787 152.686663 159.363787 152.697663 159.953787 152.705663 160.496787 152.718663 160.781787 152.734663 160.781787 152.752663M134.193587 172.987263C134.193587 173.131263 127.458587 173.247263 119.153587 173.247263 110.844587 173.247263 104.111587 173.131263 104.111587 172.987263 104.111587 172.843263 110.844587 172.727263 119.153587 172.727263 127.458587 172.727263 134.193587 172.843263 134.193587 172.987263"/><path fill="#263238" d="M228.661887,131.700963 C228.661887,145.479963 217.491887,156.648963 203.713887,156.648963 C189.934887,156.648963 178.764887,145.479963 178.764887,131.700963 C178.764887,117.921963 189.934887,106.752963 203.713887,106.752963 C217.491887,106.752963 228.661887,117.921963 228.661887,131.700963"/><path fill="url(#c)" d="M222.166887,131.700963 C222.166887,145.479963 210.996887,156.648963 197.218887,156.648963 C183.439887,156.648963 172.269887,145.479963 172.269887,131.700963 C172.269887,117.921963 183.439887,106.752963 197.218887,106.752963 C210.996887,106.752963 222.166887,117.921963 222.166887,131.700963"/><polygon fill="#FFF" points="200.39 120.085 200.39 140.828 196.538 140.828 196.538 123.315 192.153 123.315 192.153 120.085"/></g></g></svg>