<svg xmlns="http://www.w3.org/2000/svg" xmlns:xlink="http://www.w3.org/1999/xlink" width="280" height="210" viewBox="0 0 280 210"><defs><path id="a" d="M0,0 L0,27.0839316 C0,31.8816369 3.88928821,35.7709251 8.68699349,35.7709251 L8.68699349,35.7709251 L35.7709251,35.7709251 L35.7709251,8.68683638 C35.7709251,3.8891311 31.881794,0 27.0840887,0 L27.0840887,0 L0,0 Z"/><path id="d" d="M0,0 L0,27.0839316 C0,31.8816369 3.88928821,35.7709251 8.68699349,35.7709251 L8.68699349,35.7709251 L35.7709251,35.7709251 L35.7709251,8.68683638 C35.7709251,3.8891311 31.881794,0 27.0840887,0 L27.0840887,0 L0,0 Z"/><linearGradient id="b" x1=".778%" x2="98.266%" y1=".777%" y2="98.266%"><stop offset="0%" stop-color="#CD1AFF"/><stop offset="100%" stop-color="#1D80FF"/></linearGradient></defs><g fill="none" fill-rule="evenodd" transform="translate(0 -10.585)"><path fill="#30242A" fill-rule="nonzero" d="M97.3709251 219.468803 97.3709251 219.468803C95.9506819 219.469584 94.7527416 218.411333 94.578326 217.00184L92.4962115 199.508624 102.245639 199.508624 100.163524 217.00184C99.9901524 218.411883 98.7915854 219.470687 97.3709251 219.468803L97.3709251 219.468803ZM206.748546 219.468803 206.748546 219.468803C205.328408 219.470545 204.130627 218.411498 203.958414 217.00184L201.8763 199.508624 211.62326 199.508624 209.541145 217.00184C209.367774 218.411883 208.169207 219.470687 206.748546 219.468803Z"/><path fill="#FFB7D5" fill-rule="nonzero" d="M40.1670485,127.211884 L83.9333921,127.211884 L83.9333921,199.740518 L20.2118062,199.740518 L20.2118062,147.164659 C20.2131685,136.144646 29.1470358,127.211884 40.1670485,127.211884 L40.1670485,127.211884 Z"/><path fill="#FFB7D5" fill-rule="nonzero" d="M89.1485463,90.8316194 L239.939031,90.8316194 C250.960007,90.8316194 259.894273,99.7658857 259.894273,110.786862 L259.894273,199.733117 L69.1982379,199.733117 L69.1982379,110.784395 C69.1982379,99.7634187 78.1325042,90.8291524 89.1534802,90.8291524 L89.1485463,90.8316194 Z"/><path fill="#A15842" fill-rule="nonzero" d="M69.1999119,137.405364 C69.4635023,137.405364 69.6794532,137.606638 69.6985405,137.861934 L69.6999119,137.898756 L69.6999119,199.733117 C69.6999119,200.00561 69.4760543,200.226509 69.1999119,200.226509 C68.9363214,200.226509 68.7203706,200.025235 68.7012833,199.76994 L68.6999119,199.733117 L68.6999119,137.898756 C68.6999119,137.626263 68.9237695,137.405364 69.1999119,137.405364 Z"/><path fill="#FFB7D5" fill-rule="nonzero" d="M89.1485463,156.22087 L239.939031,156.22087 C250.960007,156.22087 259.894273,165.155137 259.894273,176.176113 L259.894273,199.735584 L69.1982379,199.735584 L69.1982379,176.176113 C69.1982379,165.157063 78.1294971,156.223595 89.1485463,156.22087 L89.1485463,156.22087 Z"/><path fill="#A15842" fill-rule="nonzero" d="M181.338855,155.727478 C181.611348,155.727478 181.832247,155.948378 181.832247,156.22087 C181.832247,156.480977 181.630973,156.694074 181.375677,156.712909 L181.338855,156.714263 L88.4281938,156.714263 C78.1770103,156.714263 69.8473746,164.941386 69.681807,175.153114 L69.6792952,175.463161 L69.6792952,199.742985 C69.6792952,200.015478 69.458396,200.236377 69.1859031,200.236377 C68.9257962,200.236377 68.7126994,200.035103 68.6938643,199.779807 L68.692511,199.742985 L68.692511,175.463161 C68.692511,164.672442 77.3526415,155.904404 88.1018282,155.730122 L88.4281938,155.727478 L181.338855,155.727478 Z"/><polygon fill="#A15842" fill-rule="nonzero" points="196.201 156.524 196.201 199.733 195.201 199.733 195.201 156.524"/><polygon fill="#A15842" fill-rule="nonzero" points="259.894 126.242 259.894 127.242 215.403 127.242 215.403 126.242"/><path fill="#EAA58B" fill-rule="nonzero" d="M55.8791189 119.117787C61.5851982 119.830738 63.3638767 117.408183 64.2001762 115.313734 65.1499559 112.938051 64.5381498 110.895408 63.7980617 108.240959 63.7980617 108.240959 65.6828194 107.214703 65.3892511 106.037963 65.1425551 105.088183 62.9987665 104.982104 62.9987665 104.982104 62.9148899 104.557787 62.8400587 104.117846 62.7742731 103.66228 62.2981498 100.331884 61.5851982 98.4298573 61.5851982 98.4298573 59.92 98.9059806 57.7811454 98.6765533 57.0681938 98.4298573 56.1051342 101.098286 54.3663079 103.417866 52.0750661 105.09065 52.0750661 105.09065 46.8426432 99.3845709 43.5147137 103.664747 40.8010573 107.155496 44.7037885 111.509681 47.3187665 111.985804 45.7645815 115.264395 41.5830837 117.166421 39.4072247 117.960782 39.5404405 118.991972 39.6662555 119.949152 39.7772687 120.782985L56.059207 120.782985 55.8791189 119.117787ZM112.508194 139.820518C113.367369 136.765008 114.068912 133.667352 114.610044 130.539813L108.903965 115.084307C108.903965 115.084307 111.282115 108.67021 109.150661 107.713029 107.019207 106.755848 102.245639 112.950386 100.343612 117.93858 99.5221145 120.094703 97.2771806 125.050826 94.9952423 129.98228L112.508194 139.820518Z"/><path fill="#3EC1F3" fill-rule="nonzero" d="M88.9289868,142.904218 C88.9289868,142.904218 75.1386784,131.252765 69.1686344,126.970122 C63.1985903,122.687478 56.3552423,123.407831 56.3552423,123.407831 L56.0567401,120.790386 L39.7748018,120.790386 C40.0214978,122.648007 40.1818502,123.881487 40.1818502,123.881487 L28.059207,167.159373 L64.1977093,164.3051 L63.2479295,150.983514 C63.2479295,150.983514 82.7369163,167.265452 93.9221145,165.726069 C104.009515,164.329769 109.740264,149.764835 112.505727,139.822985 L94.9903084,129.984747 C91.9978855,136.462985 88.9289868,142.904218 88.9289868,142.904218 Z"/><path fill="#30242A" fill-rule="nonzero" d="M47.3187665,111.993205 C44.7037885,111.517082 40.7985903,107.162897 43.5147137,103.672148 C46.8426432,99.3919718 52.0750661,105.098051 52.0750661,105.098051 C54.3663079,103.425267 56.1051342,101.105687 57.0681938,98.4372581 C57.7811454,98.6839542 59.92,98.9133815 61.5851982,98.4372581 C61.5851982,98.4372581 65.1524229,97.2481832 64.9131278,94.3963771 C64.5948899,90.5676546 58.7309251,92.2550555 58.7309251,92.2550555 C58.7309251,92.2550555 52.3168282,87.4987559 45.4093392,90.5898573 C38.0479295,93.902985 37.332511,100.581047 37.8012335,105.098051 C38.0725991,107.690826 38.8151542,113.485716 39.3998238,117.968183 C41.5830837,117.171355 45.7645815,115.271796 47.3187665,111.993205 Z"/><path fill="#A15842" fill-rule="nonzero" d="M108.261856,116.433106 C108.758141,116.207913 109.343013,116.427676 109.568205,116.92396 C109.793398,117.420244 109.573635,118.005117 109.077351,118.230309 L108.896053,118.314278 C108.866009,118.328478 108.836056,118.342778 108.806201,118.357174 L108.628291,118.444687 C108.598853,118.459457 108.569525,118.474316 108.540316,118.489262 L108.366524,118.579942 C108.337813,118.595218 108.309232,118.610574 108.28079,118.626005 L108.111847,118.719475 C108.05612,118.750916 108.001,118.782632 107.94654,118.814595 L107.785196,118.911197 C107.705568,118.95984 107.627547,119.008977 107.551316,119.058512 L107.401295,119.158086 C106.491544,119.775057 105.872522,120.443093 105.886496,120.985174 C105.893346,121.233234 105.992133,121.419459 106.175033,121.583376 C106.255698,121.655669 106.336882,121.710322 106.397662,121.745129 L106.444275,121.770052 C106.451048,121.773379 106.457283,121.776288 106.462918,121.778772 L106.477965,121.784947 L108.465111,122.525015 L106.614402,123.571602 L106.578944,123.595213 L106.51606,123.64051 C106.409256,123.720241 106.300973,123.816767 106.201332,123.927244 C105.839654,124.328256 105.697067,124.772081 105.851614,125.334603 C105.955403,125.712374 106.130807,125.875796 106.424778,125.955038 C106.650985,126.016014 106.924903,126.015374 107.180666,125.972988 L107.261575,125.958045 L107.28726,125.952242 L110.864389,124.965733 L108.249822,127.59881 L108.219823,127.631318 L108.181201,127.677678 C108.167086,127.695338 108.15183,127.715152 108.135727,127.736967 L108.085174,127.80826 L108.031314,127.890634 C108.02216,127.905235 108.012942,127.92026 108.003698,127.935688 C107.711343,128.423591 107.65662,128.875539 107.926363,129.318893 C108.049809,129.521791 108.360051,129.637516 108.897535,129.627357 C109.25955,129.620515 109.667755,129.553471 110.081608,129.445064 C110.20735,129.412126 110.326062,129.377332 110.435211,129.342377 L110.572991,129.296486 L110.649398,129.269125 L113.72543,128.070589 L111.823302,130.755073 C110.953414,131.982751 110.937901,132.635678 111.420466,132.957138 L111.446414,132.973716 L111.467703,132.977012 L111.486694,132.979007 C111.572487,132.986788 111.692235,132.982252 111.837472,132.962461 C112.181588,132.91557 112.613429,132.79149 113.076594,132.600343 C113.580364,132.392438 114.157292,132.632284 114.365197,133.136054 C114.573103,133.639825 114.333256,134.216753 113.829486,134.424658 C112.478168,134.982345 111.265759,135.147554 110.49778,134.705508 C109.353879,134.054119 108.942432,132.963603 109.228561,131.687511 L109.252793,131.585064 L109.229887,131.587149 C109.180457,131.590672 109.131144,131.593566 109.081963,131.59581 L108.93483,131.600573 C107.767385,131.622638 106.797806,131.26097 106.240333,130.344698 C105.753409,129.544381 105.669996,128.726031 105.871106,127.949362 L105.896493,127.856254 L105.832733,127.838356 C104.950396,127.575486 104.275876,126.942593 103.974208,125.946298 L103.948562,125.857446 C103.623309,124.673587 103.908104,123.630246 104.575164,122.794579 L104.587771,122.779003 L104.576965,122.766766 C104.195656,122.322759 103.954217,121.773411 103.917381,121.126642 L103.913632,121.037843 C103.882493,119.829976 104.621714,118.7906 105.847194,117.852068 C106.600706,117.274993 107.454029,116.799663 108.261856,116.433106 Z"/><path fill="#4756DF" fill-rule="nonzero" d="M62.8505911,140.155357 C63.1097495,140.133165 63.339242,140.315523 63.3797901,140.568281 L63.3842802,140.604854 L64.264985,150.889611 C64.2882341,151.161111 64.0869875,151.400051 63.8154882,151.4233 C63.5563298,151.445493 63.3268373,151.263134 63.2862892,151.010376 L63.2817991,150.973804 L62.4010943,140.689046 C62.3778452,140.417547 62.5790918,140.178606 62.8505911,140.155357 Z"/><path fill="#A15842" fill-rule="nonzero" d="M51.2754246,117.818758 C51.4069983,117.580136 51.7071017,117.493356 51.9457243,117.624929 C53.143792,118.28553 54.4290152,118.773915 55.7634466,119.075664 C56.0292291,119.135764 56.1959676,119.399944 56.1358674,119.665727 C56.0757672,119.931509 55.8115871,120.098248 55.5458045,120.038148 C54.1209032,119.715941 52.7485463,119.194445 51.4692536,118.489058 C51.2306311,118.357484 51.1438508,118.057381 51.2754246,117.818758 Z"/><path fill="#4756DF" fill-rule="nonzero" d="M35.2696403,147.479439 C35.3655602,147.224386 35.6500794,147.095384 35.9051319,147.191304 C36.1480391,147.282656 36.2766152,147.545073 36.2054506,147.790182 L36.1932671,147.826795 L30.0653376,164.121068 C29.9694178,164.376121 29.6848985,164.505124 29.429846,164.409204 C29.1869389,164.317851 29.0583628,164.055434 29.1295274,163.810325 L29.1417108,163.773712 L35.2696403,147.479439 Z"/><path fill="#A15842" fill-rule="nonzero" d="M59.1612184,109.544112 C59.3905764,109.422687 59.6723227,109.500235 59.8087716,109.715931 L59.8281244,109.749314 C60.0171478,110.106358 60.3419958,110.302066 60.7666428,110.357073 C61.0845371,110.398252 61.4302217,110.344934 61.5721807,110.274123 L61.596354,110.260659 C61.8270191,110.115587 62.1316146,110.184973 62.276687,110.415639 C62.4217593,110.646304 62.3523727,110.950899 62.1217076,111.095972 C61.2585265,111.638853 59.5980569,111.423761 58.9560165,110.211018 C58.8285204,109.970192 58.9203924,109.671608 59.1612184,109.544112 Z"/><circle cx="59.683" cy="104.622" r="1" fill="#A15842" fill-rule="nonzero"/><path fill="#A15842" fill-rule="nonzero" d="M46.172637,106.527045 C46.2968772,106.299199 46.5746236,106.208361 46.8074563,106.312915 L46.8420196,106.330071 L49.4569975,107.755974 C49.6962351,107.886427 49.7844231,108.186119 49.6539709,108.425357 C49.5297307,108.653202 49.2519843,108.744041 49.0191516,108.639486 L48.9845884,108.62233 L46.3696104,107.196427 C46.1303728,107.065975 46.0421848,106.766282 46.172637,106.527045 Z"/><path fill="#EAA58B" fill-rule="nonzero" d="M113.31489,209.788448 L131.528458,204.398139 C130.139559,199.597434 127.482643,190.496818 125.77304,185.19532 L103.044934,194.683249 C106.019076,200.009488 109.455618,205.064004 113.31489,209.788448 L113.31489,209.788448 Z"/><path d="M53.9770925,175.004307 L60.5712775,178.102809 L54.5124229,174.44184 C54.1621145,174.80695 53.9770925,175.004307 53.9770925,175.004307 Z"/><polygon points="79.621 187.05 85.364 189.747 86.561 188.652"/><path fill="#FFBE21" fill-rule="nonzero" d="M113.660264,210.195496 C113.127203,212.219259 112.796649,214.291003 112.67348,216.380166 L144.894449,216.380166 C144.276364,214.89265 143.1788,213.654416 141.776211,212.86228 L132.4437,207.578051 C132.4437,207.578051 132.088458,206.344571 131.528458,204.395672 L113.31489,209.788448 C113.536916,210.054879 113.660264,210.195496 113.660264,210.195496 Z"/><path fill="#FF7235" fill-rule="nonzero" d="M112.708018,219.4688 L145.51859,219.4688 L145.417445,218.452412 C145.346554,217.739334 145.169441,217.040864 144.891982,216.380166 L112.671013,216.380166 C112.600251,217.40903 112.612626,218.441926 112.708018,219.4688 L112.708018,219.4688 Z"/><path fill="#A15842" fill-rule="nonzero" d="M96.5395595,179.523778 C98.1134802,184.951091 100.5237,190.158844 103.044934,194.683249 L125.77304,185.19532 C125.526344,184.398492 125.279648,183.688007 125.072423,183.088536 C117.960176,162.536289 113.660264,146.007655 103.197885,144.332589 C86.7309251,141.712677 58.7185903,170.072853 54.5124229,174.429505 L60.5712775,178.102809 L79.6211454,187.050474 L86.5607048,188.651531 L96.5395595,179.523778 Z"/><path fill="#30242A" fill-rule="nonzero" d="M95.2347483 170.825276C95.5072372 170.826762 95.7269342 171.048857 95.7254553 171.321346 95.7110713 173.971624 95.9722657 176.616217 96.5048262 179.212476 96.5595815 179.479411 96.387576 179.740192 96.1206411 179.794948 95.8537062 179.849703 95.5929247 179.677698 95.5381694 179.410763 94.9918654 176.747503 94.7239305 174.034663 94.7386857 171.31599 94.7401646 171.043501 94.9622593 170.823804 95.2347483 170.825276ZM184.279471 123.168536C184.279471 123.168536 161.492159 129.180518 151.468899 134.819989 140.054273 141.234086 139.341322 149.799373 132.209339 171.437082 129.912599 178.401311 128.289339 183.996377 126.782026 188.3925L146.428899 197.668271 146.465903 197.594263C146.465903 197.594263 156.087048 196.180694 156.928282 184.272677 157.562291 175.391619 157.865727 168.802368 160.969163 162.158844L213.994009 123.163602 184.279471 123.168536Z"/><path fill="#4856DF" fill-rule="nonzero" d="M116.188899,201.455055 C109.318414,202.496113 106.451806,203.833205 105.334273,206.948976 L118.312952,212.990562 C118.312952,212.990562 125.272247,211.016994 129.019559,211.981575 L129.019559,211.99391 C131.529779,212.582753 133.980067,213.402819 136.339031,214.443602 C140.205741,209.165762 143.590839,203.551453 146.453568,197.668271 L126.806696,188.3925 C123.989427,196.619813 121.640881,200.628624 116.188899,201.455055 Z"/><path fill="#30242A" fill-rule="nonzero" d="M125.893921,216.523249 L132.224141,219.4688 C133.686233,217.873885 135.055198,216.196037 136.324229,214.443602 C133.965266,213.402819 131.514977,212.582753 129.004758,211.99391 L125.893921,216.523249 Z"/><path fill="#F5EBDD" fill-rule="nonzero" d="M122.192874 196.131031C122.296852 195.893254 122.565657 195.77863 122.806692 195.862564L122.842615 195.876652 127.248606 197.803348C127.498272 197.912525 127.612161 198.203423 127.502985 198.453089 127.399007 198.690866 127.130202 198.805489 126.889167 198.721556L126.853244 198.707468 122.447253 196.780771C122.197587 196.671595 122.083698 196.380696 122.192874 196.131031ZM119.689002 199.187382C119.793092 198.949654 120.061951 198.835157 120.302946 198.919204L120.338863 198.933309 124.744854 200.862472C124.994468 200.971766 125.108221 201.262718 124.998927 201.512332 124.894838 201.75006 124.625979 201.864557 124.384983 201.780511L124.349067 201.766405 119.943076 199.837242C119.693461 199.727949 119.579709 199.436996 119.689002 199.187382Z"/><circle cx="207.343" cy="67.766" r="2.497" fill="#FFBE21" fill-rule="nonzero"/><circle cx="216.143" cy="42.087" r="9.986" fill="#30242A" fill-rule="nonzero"/><path fill="#3EC1F3" fill-rule="nonzero" d="M209.254978,48.7452758 C209.866784,49.0265092 204.737974,36.8545269 202.122996,38.7565533 C199.651101,40.5475665 206.154009,47.3292405 209.254978,48.7452758 Z"/><path fill="#3EC1F3" fill-rule="nonzero" d="M209.528811,49.4878308 C210.088811,50.1563771 223.168634,45.5801656 221.37022,42.9380511 C219.616211,40.3995489 208.971278,48.8094167 209.528811,49.4878308 Z"/><path fill="#30242A" fill-rule="nonzero" d="M233.976388,97.2506502 L235.121057,97.0730291 L235.121057,96.7375225 C234.750805,96.9327407 234.368471,97.1041316 233.976388,97.2506502 Z"/><path fill="#A15842" fill-rule="nonzero" d="M202.826079,94.6356722 C213.957004,94.837963 219.574273,83.5047471 221.000176,80.1225445 C220.506784,80.0312669 220.013392,79.9523242 219.470661,79.8931172 C213.056564,79.1801656 211.862555,78.9433374 209.721233,76.0890643 C207.579912,73.2347912 207.343084,67.5287119 207.343084,67.5287119 C207.343084,67.5287119 212.888811,66.2952317 212.099383,61.8226326 C211.386432,57.7792846 206.630132,57.7792846 204.015154,60.6335577 C204.015154,60.6335577 199.971806,59.681311 196.167753,55.4011348 C196.167753,55.4011348 193.385022,56.0548793 191.480529,55.7366414 C190.987137,58.8499454 191.01674,62.3332934 190.454273,65.1505621 C189.502026,69.9068617 190.207577,72.997963 193.069251,74.6631612 C195.930925,76.3283595 199.251454,75.1368176 199.251454,75.1368176 L198.538502,79.4169938 C198.538502,79.4169938 194.386608,79.8980511 190.925463,80.9859806 C191.613744,86.3590202 194.088106,94.4777868 202.826079,94.6356722 Z"/><polygon fill="#A15842" fill-rule="nonzero" points="218.282 123.169 219.577 122.29 217.332 123.169"/><path fill="#A15842" fill-rule="nonzero" d="M166.921938,95.5879189 C166.921938,95.5879189 154.456388,78.5658925 151.466432,75.1368176 C148.136035,71.3327647 143.619031,67.2918837 142.193128,68.7227207 C140.767225,70.1535577 144.808106,74.9049233 144.808106,74.9049233 L144.095154,90.3604299 C144.095154,90.3604299 152.285463,112.447126 161.215859,115.328536 C165.681057,116.769241 174.162467,112.970122 180.154714,109.753205 L170.886344,92.9778749 C168.530396,94.5221921 166.921938,95.5879189 166.921938,95.5879189 Z"/><path fill="#FF7235" fill-rule="nonzero" d="M233.976388,97.2506502 C233.976388,97.2506502 233.024141,92.0206943 231.835066,89.1664211 C230.056388,84.8936458 227.120705,81.272148 221.000176,80.1225445 C219.574273,83.5047471 213.957004,94.837963 202.826079,94.6356722 C194.088106,94.4777868 191.613744,86.3590202 190.932863,80.9859806 C190.203839,81.2087909 189.490184,81.4790899 188.796476,81.7951436 C186.287577,82.9669498 176.48141,89.3169057 170.886344,92.9778749 L180.144846,109.743337 C184.040176,107.653822 186.884581,105.796201 186.884581,105.796201 L184.269604,123.153734 L217.326872,123.153734 L219.571806,122.275496 L235.113656,111.731707 C235.093541,106.883192 234.713406,102.042864 233.976388,97.2506502 L233.976388,97.2506502 Z"/><path fill="#30242A" fill-rule="nonzero" d="M240.871542,85.1255401 C239.166872,77.0314432 230.409163,77.2781392 230.409163,77.2781392 C231.272453,73.344488 230.112474,69.2396614 227.318062,66.339637 C222.561762,61.3465092 215.903436,63.4853639 215.903436,63.4853639 C216.150132,60.6335577 216.616388,53.2622802 210.434185,48.7452758 C204.251982,44.2282713 196.407048,46.6039542 193.552775,50.1711788 C192.390837,51.6242185 191.825903,53.5928528 191.48793,55.7366414 C193.385022,56.0548793 196.175154,55.4011348 196.175154,55.4011348 C199.979207,59.681311 204.022555,60.6335577 204.022555,60.6335577 C206.637533,57.7792846 211.393833,57.7792846 212.106784,61.8226326 C212.896211,66.2952317 207.350485,67.5287119 207.350485,67.5287119 C207.350485,67.5287119 207.597181,73.2347912 209.728634,76.0890643 C211.860088,78.9433374 213.059031,79.1801656 219.478062,79.8931172 C220.010925,79.9523242 220.519119,80.0312669 221.007577,80.1225445 C227.128106,81.269681 230.063789,84.8936458 231.842467,89.1664211 C233.031542,92.0206943 233.983789,97.2506502 233.983789,97.2506502 C234.371673,97.1036497 234.749873,96.9322651 235.116123,96.7375225 C237.420264,95.5385797 242.34185,92.1070379 240.871542,85.1255401 Z"/><path fill="#30242A" fill-rule="nonzero" d="M208.510298 61.8801469C208.74149 61.7359147 209.045831 61.806409 209.190063 62.0376004 209.327083 62.2572322 209.270313 62.5428815 209.066076 62.6945585L209.032609 62.7173649 207.130583 63.9039729C206.899391 64.0482051 206.595051 63.9777108 206.450818 63.7465194 206.313798 63.5268876 206.370568 63.2412383 206.574805 63.0895613L206.608272 63.0667548 208.510298 61.8801469ZM196.730818 68.1390933C196.858314 67.8982673 197.156898 67.8063953 197.397724 67.9338914 197.63855 68.0613875 197.730422 68.3599715 197.602926 68.6007974 196.960929 69.8134586 195.304987 70.0280986 194.438415 69.4864908 194.207341 69.3420698 194.137095 69.0376714 194.281516 68.8065979 194.418716 68.587078 194.700296 68.5127052 194.926227 68.6296396L194.961409 68.6496995C195.086226 68.7277099 195.455516 68.790626 195.793186 68.7468579 196.194988 68.6947772 196.507298 68.516474 196.699842 68.1941504L196.730818 68.1390933Z"/><circle cx="198.578" cy="63.004" r="1" fill="#30242A" fill-rule="nonzero"/><circle cx="193.077" cy="62.059" r="1" fill="#30242A" fill-rule="nonzero"/><path fill="#30242A" fill-rule="nonzero" d="M195.16156 63.5032404C195.414643 63.6042431 195.537928 63.891286 195.436925 64.1443687L195.359872 64.3450968C195.301206 64.5017198 195.242536 64.6660513 195.187998 64.8295478 195.155901 64.9257697 195.126198 65.0188822 195.099382 65.1078083 195.038156 65.3108464 194.994039 65.4853553 194.971141 65.6188077L194.965286 65.6551477 194.957455 65.7175242 194.955736 65.7379454 194.976192 65.7675425C195.028496 65.8377468 195.093217 65.8979927 195.167282 65.9452069L195.212817 65.971947C195.452673 66.1012583 195.542288 66.4005277 195.412976 66.6403838 195.283665 66.88024 194.984396 66.9698542 194.74454 66.8405429 194.450578 66.682062 194.209469 66.4409537 194.040009 66.1253714 193.922825 65.8798413 193.947923 65.578819 194.070057 65.1188187L194.109562 64.9759458 194.154619 64.8229133C194.184338 64.7243589 194.216923 64.6222115 194.25192 64.5172955 194.310572 64.3414692 194.373177 64.1661132 194.435786 63.9989639L194.520432 63.7786057C194.621434 63.525523 194.908477 63.4022378 195.16156 63.5032404ZM144.099059 75.8337759C144.506663 75.500013 145.101214 75.5467525 145.45228 75.9311228L145.487711 75.9720879 145.803524 76.357963 145.958111 76.3852801 146.107979 76.4134006 146.187016 76.4288875C146.766659 76.5440789 147.347505 76.6971027 147.897765 76.8954886 149.407028 77.4396257 150.456458 78.2199927 150.756088 79.4169587 150.911586 80.0389505 150.846578 80.6181836 150.624214 81.1340091L150.587454 81.2146678 150.629062 81.2448259C151.433956 81.848757 151.944829 82.7199528 151.973364 83.8372427L151.974626 83.9364652C151.974626 85.0164653 151.488651 85.811985 150.709545 86.2963498L150.677004 86.3158484 150.69584 86.347051C151.084838 87.0151022 151.226045 87.7884101 151.008516 88.6355485L150.984729 88.7234456C150.674647 89.8135759 149.765603 90.4091239 148.545876 90.6645018L148.506326 90.6722537 148.510097 90.6786778C149.1278 91.8021683 149.047879 92.9376839 148.169916 93.8548607L148.118378 93.9075309C148.084323 93.941586 148.047821 93.9731023 148.009163 94.001827 147.530808 94.357274 146.951903 94.5515731 146.355967 94.5568384 145.811001 94.5613752 145.365423 94.1233888 145.360741 93.578423 145.356059 93.0334573 145.794046 92.5878797 146.339011 92.5831976 146.47725 92.58201 146.612416 92.5466906 146.732789 92.481173L146.772793 92.4573462 146.787889 92.4394346C147.050397 92.1096702 146.971816 91.6640066 146.346099 91.0291851L146.245491 90.930018C146.175503 90.8628985 146.099649 90.7937497 146.017706 90.7224925L145.890198 90.6140155 145.82439 90.5597358C145.078103 89.9501559 145.559696 88.7529081 146.502974 88.8100735L146.617116 88.8194042 146.674182 88.8230935C147.12125 88.8497389 147.627528 88.8330472 148.084052 88.7443931 148.695152 88.6257212 149.018953 88.4208236 149.08646 88.1834936 149.209988 87.749218 149.085714 87.3866199 148.76 87.0340793 148.665303 86.9315834 148.561853 86.840729 148.459587 86.7648307L148.398717 86.7211697 148.358994 86.6950251C147.495264 86.2009153 147.825972 84.8954484 148.799764 84.852779L148.878337 84.8499773C148.92488 84.8470209 148.979079 84.8414596 149.03851 84.8326512 149.206612 84.8077364 149.372832 84.763392 149.517498 84.6990679 149.850543 84.5509839 150.001057 84.3502118 150.001057 83.9364652 150.001057 83.4372264 149.804794 83.0937014 149.444594 82.8234348 149.306882 82.7201059 149.154772 82.6363964 149.003223 82.5732016L148.944702 82.5496942 148.879589 82.5259766 148.846193 82.5155636C148.048426 82.3158632 147.836132 81.2914581 148.468665 80.7882184L148.508062 80.7576986 148.536153 80.7323341C148.584839 80.6873761 148.635212 80.6327875 148.681667 80.5712737 148.842878 80.3578047 148.903606 80.1442605 148.841518 79.8959114 148.747055 79.5185459 148.175513 79.0935417 147.228405 78.7520794 146.780586 78.5906264 146.292062 78.461925 145.802335 78.3646023 145.69907 78.3440806 145.600409 78.3259017 145.507362 78.3099693L145.295481 78.2760116 145.166291 78.258144C144.932012 78.2305397 144.716053 78.1200304 144.55687 77.9476747L144.51828 77.9033094 143.960747 77.2224284C143.615475 76.8007688 143.677399 76.1790479 144.099059 75.8337759ZM202.083133 73.7974766C202.322806 73.6678263 202.622202 73.7570175 202.751852 73.9966906 202.881502 74.2363637 202.792311 74.5357595 202.552638 74.6654097 201.586398 75.1880934 200.59024 75.6534702 199.569329 76.0591273 199.316095 76.1597494 199.029238 76.0360329 198.928615 75.7827986 198.827993 75.5295644 198.95171 75.2427071 199.204944 75.142085 200.189883 74.7507217 201.15094 74.301743 202.083133 73.7974766ZM167.220806 95.1368236C167.429007 94.9829887 167.718231 95.0171658 167.885468 95.2088694L167.910831 95.2404431 170.409862 98.6226457C170.571793 98.8418046 170.525401 99.1507393 170.306242 99.3126707 170.098041 99.4665055 169.808818 99.4323284 169.64158 99.2406248L169.616217 99.2090512 167.117187 95.8268485C166.955255 95.6076896 167.001647 95.2987549 167.220806 95.1368236Z"/><path fill="#A15842" fill-rule="nonzero" d="M187.211432 97.8835035C187.254306 97.6144047 187.507211 97.4310138 187.77631 97.4738883 188.033177 97.514814 188.21195 97.7471099 188.190382 98.0021893L188.185925 98.038766 186.97218 105.65674C186.929306 105.925838 186.676401 106.109229 186.407303 106.066355 186.150436 106.025429 185.971662 105.793133 185.99323 105.538054L185.997687 105.501477 187.211432 97.8835035ZM216.969325 100.682192C217.22942 100.6797 217.444453 100.878903 217.465757 101.134005L217.467466 101.170812 217.58588 113.414337C217.588515 113.686817 217.369763 113.909842 217.097283 113.912501 216.837188 113.914993 216.622155 113.715789 216.600851 113.460688L216.599142 113.42388 216.480728 101.180356C216.478093 100.907876 216.696845 100.68485 216.969325 100.682192Z"/><path fill="#000" fill-rule="nonzero" d="M230.292704 77.4836861C230.363116 77.2204476 230.633593 77.0641311 230.896832 77.1345434 231.16007 77.2049557 231.316387 77.4754331 231.245975 77.7386716 230.89472 79.0518478 230.424399 80.3302419 229.84086 81.5579606 229.723884 81.8040683 229.429546 81.9087502 229.183439 81.7917743 228.937331 81.6747983 228.832649 81.3804608 228.949625 81.1343531 229.507401 79.9608383 229.956957 78.7388855 230.292704 77.4836861ZM215.855425 63.6667991C215.906455 63.399127 216.164813 63.2235035 216.432485 63.2745332 216.687991 63.3232434 216.859625 63.5608629 216.830318 63.8151694L216.824751 63.8515939 216.151271 67.3842811C216.100242 67.6519532 215.841883 67.8275766 215.574211 67.7765469 215.318705 67.7278368 215.147071 67.4902172 215.176378 67.2359107L215.181945 67.1994863 215.855425 63.6667991Z"/><path fill="#30242A" fill-rule="nonzero" d="M201.8763,123.407831 C201.8763,123.407831 181.425198,129.821928 170.01304,135.296113 C158.665022,140.723426 160.026784,153.366597 162.165639,175.48043 C162.922996,183.298227 163.808634,189.418756 164.257621,194.266333 L185.966872,194.266333 C187.081938,193.644659 193.663789,189.418756 189.738855,177.85858 C186.872247,169.419108 184.397885,163.828976 184.397885,156.49717 L202.554714,156.49717 C213.293692,156.497556 222.084485,147.954929 222.391542,137.220342 L222.788722,123.405364 L201.8763,123.407831 Z"/><path fill="#4856DF" fill-rule="nonzero" d="M160.118062,209.901928 C154.335507,213.75532 152.305198,216.177875 152.606167,219.476201 L166.914537,219.456465 C166.914537,219.456465 172.383789,214.722368 176.187841,214.009417 C178.708748,213.530431 181.269415,213.291711 183.835419,213.296465 C184.706256,209.031091 185.6437,202.629329 185.808987,194.355144 L185.966872,194.273734 L164.257621,194.273734 C165.014978,202.409769 164.533921,206.95391 160.118062,209.901928 Z"/><path fill="#30242A" fill-rule="nonzero" d="M175.292335,219.434263 L182.2763,219.434263 C182.2763,219.434263 183.036123,217.31021 183.855154,213.298932 C181.289151,213.294178 178.728484,213.532898 176.207577,214.011884 L175.292335,219.434263 Z"/><path fill="#000" fill-rule="nonzero" d="M184.178326,156.44043 C184.450819,156.44043 184.671718,156.664288 184.671718,156.94043 C184.671718,157.20402 184.470444,157.419971 184.215148,157.439059 L184.178326,157.44043 L178.573392,157.44043 C178.300899,157.44043 178.08,157.216572 178.08,156.94043 C178.08,156.676839 178.281274,156.460889 178.53657,156.441801 L178.573392,156.44043 L184.178326,156.44043 Z"/><path fill="#F5EBDD" fill-rule="nonzero" d="M169.181674 203.164659C169.454167 203.164659 169.675066 203.388517 169.675066 203.664659 169.675066 203.928249 169.473792 204.1442 169.218496 204.163288L169.181674 204.164659 163.820969 204.164659C163.548476 204.164659 163.327577 203.940801 163.327577 203.664659 163.327577 203.401069 163.528851 203.185118 163.784147 203.16603L163.820969 203.164659 169.181674 203.164659ZM167.990132 206.968712C168.262625 206.968712 168.483524 207.19257 168.483524 207.468712 168.483524 207.732302 168.28225 207.948253 168.026955 207.96734L167.990132 207.968712 162.629427 207.968712C162.356934 207.968712 162.136035 207.744854 162.136035 207.468712 162.136035 207.205121 162.337309 206.989171 162.592605 206.970083L162.629427 206.968712 167.990132 206.968712Z"/><path fill="#FFB7D5" fill-rule="nonzero" d="M216.122996,127.211884 L259.894273,127.211884 L259.894273,199.740518 L196.180088,199.740518 L196.180088,147.164659 C196.181448,136.149462 205.1078,127.218692 216.122996,127.211884 L216.122996,127.211884 Z"/><path fill="#4756DF" fill-rule="nonzero" d="M248.955771 199.772589C250.153674 196.332543 253.397352 194.027351 257.04 194.027351 260.682648 194.027351 263.926326 196.332543 265.124229 199.772589 266.267061 196.496774 269.273149 194.233928 272.737269 194.04184 271.980795 192.692591 271.080006 191.429501 270.050749 190.274791L266.942379 186.79391C264.95958 184.569684 264.580933 181.342315 265.995066 178.719549L268.634714 173.815232 268.634714 173.815232C267.894626 174.55532 263.611982 178.571531 257.111542 178.571531 250.611101 178.571531 246.330925 174.562721 245.590837 173.815232L245.590837 173.815232 248.232952 178.719549C249.644259 181.343609 249.263736 184.57016 247.280705 186.79391L244.172335 190.274791C243.140641 191.431359 242.238154 192.696991 241.480881 194.049241 244.892062 194.292646 247.831063 196.54297 248.955771 199.772589ZM273.208458 204.721311C269.565561 204.723214 266.32244 207.029126 265.124229 210.469329 263.928667 207.026822 260.684203 204.719048 257.04 204.719048 253.395797 204.719048 250.151333 207.026822 248.955771 210.469329 247.491157 206.261486 243.044473 203.879909 238.73022 204.992677 238.852071 210.420528 241.042288 215.596923 244.853216 219.463866L269.345198 219.463866C273.148557 215.605109 275.337417 210.441303 275.465727 205.024747 274.730061 204.824087 273.970998 204.72205 273.208458 204.721311Z"/><path fill="#30242A" fill-rule="nonzero" d="M257.099207,178.571531 C263.599648,178.571531 267.879824,174.562721 268.622379,173.815232 L245.578502,173.815232 C246.31859,174.562721 250.601233,178.571531 257.099207,178.571531 Z"/><path fill="#3EC1F3" fill-rule="nonzero" d="M248.955771,210.474263 C250.151333,207.031756 253.395797,204.723982 257.04,204.723982 C260.684203,204.723982 263.928667,207.031756 265.124229,210.474263 C266.602553,206.221662 271.123057,203.841711 275.465727,205.029681 C275.563997,201.188008 274.621212,197.391297 272.737269,194.04184 C269.273149,194.233928 266.267061,196.496774 265.124229,199.772589 C263.926326,196.332543 260.682648,194.027351 257.04,194.027351 C253.397352,194.027351 250.153674,196.332543 248.955771,199.772589 C247.82755,196.535162 244.876608,194.283127 241.456211,194.049241 C239.585816,197.389154 238.648502,201.17079 238.742555,204.997611 C243.056808,203.884843 247.503492,206.26642 248.968106,210.474263 L248.955771,210.474263 Z"/><path fill="#30242A" fill-rule="nonzero" d="M266.416973 157.098685C266.59569 156.892984 266.907322 156.87111 267.113023 157.049826 267.318723 157.228543 267.340598 157.540175 267.161881 157.745875 264.818427 160.44316 262.918099 164.356909 261.428111 169.050937 260.414634 172.243773 259.72051 175.355761 259.293313 177.977403 259.249488 178.246349 258.995938 178.428845 258.726992 178.38502 258.458046 178.341196 258.27555 178.087645 258.319374 177.818699 258.7537 175.153312 259.457826 171.996481 260.487572 168.75239 262.014694 163.94138 263.969211 159.916027 266.416973 157.098685ZM252.6038 148.618348C252.862309 148.532178 253.141727 148.671887 253.227897 148.930397 253.857313 150.818645 254.396937 153.004446 254.854117 155.4378L254.947532 155.944769 255.038609 156.458703C255.053595 156.544934 255.068483 156.631451 255.083275 156.718252L255.170872 157.242451C255.242907 157.682097 255.312545 158.128744 255.379822 158.582134L255.459424 159.129423 255.536775 159.683088 255.611889 160.24303 255.684779 160.80915 255.755462 161.381352 255.823951 161.959535C255.835184 162.056392 255.846326 162.153494 255.857378 162.250839L255.922603 162.837811 255.985671 163.430519 256.046596 164.028864 256.105392 164.632749 256.162075 165.242074 256.216657 165.856742 256.26849 166.468205 256.317682 167.076252 256.364277 167.680528 256.40832 168.28068 256.449856 168.876353 256.488929 169.467192 256.525583 170.052844 256.559863 170.632955 256.591814 171.207169 256.62148 171.775133 256.648906 172.336493 256.674137 172.890894 256.697216 173.437982 256.718189 173.977403 256.737099 174.508803 256.753992 175.031827 256.768912 175.546121 256.787691 176.300419 256.797874 176.791338 256.80624 177.272288 256.812833 177.742913C256.813787 177.820471 256.814668 177.897584 256.815507 177.974244 256.81836 178.246722 256.599809 178.469944 256.327331 178.473107 256.054854 178.475706 255.831631 178.257155 255.82875 177.984678L255.823064 177.522499 255.811257 176.809675 255.801137 176.32194 255.789165 175.824606 255.775298 175.318029 255.759492 174.802564 255.741702 174.278568 255.711202 173.477358 255.68826 172.933592 255.66318 172.382541 255.635918 171.824561 255.606429 171.260009 255.57467 170.689239 255.540597 170.112609 255.504165 169.530474 255.465329 168.94319 255.424047 168.351114 255.380273 167.754601 255.333964 167.154008 255.285075 166.54969 255.233563 165.942003 255.206816 165.63722 255.151771 165.031621C255.142425 164.931133 255.132991 164.830869 255.123471 164.730832L255.065308 164.133337 255.00505 163.541373 254.942686 162.955043 254.878202 162.37445C254.867278 162.278168 254.856264 162.182129 254.845162 162.086336L254.777477 161.514541C254.754558 161.324935 254.731281 161.136329 254.707643 160.948738L254.635648 160.389032C254.599108 160.110721 254.561753 159.834734 254.523576 159.561129L254.446123 159.017114C254.380663 158.566444 254.312907 158.122498 254.242824 157.685546L254.157604 157.164577 254.070138 156.650423C253.952013 155.969475 253.827864 155.306976 253.697563 154.664024L253.598681 154.185492C253.215195 152.365298 252.78058 150.708931 252.291751 149.242445 252.205581 148.983936 252.34529 148.704518 252.6038 148.618348Z"/><ellipse cx="269.619" cy="164.817" fill="#30242A" fill-rule="nonzero" rx="9.325" ry="2.097" transform="rotate(-23.75 269.619 164.817)"/><ellipse cx="269.012" cy="136.504" fill="#30242A" fill-rule="nonzero" rx="5.158" ry="1.801" transform="rotate(-53.51 269.012 136.504)"/><ellipse cx="244.651" cy="166.426" fill="#30242A" fill-rule="nonzero" rx="11.252" ry="1.988" transform="rotate(-8.6 244.651 166.426)"/><path fill="#FF7235" fill-rule="nonzero" d="M240.654449 152.35021 240.654449 152.367478C242.534172 153.420493 243.298576 155.734652 242.415908 157.700128 241.53324 159.665604 239.295741 160.631651 237.259912 159.926245L237.259912 159.943514C242.410925 162.257522 247.34978 162.432677 248.292159 160.33576 249.234537 158.238844 245.805463 154.664218 240.654449 152.35021ZM255.880529 135.577346C254.782731 135.293646 253.356828 136.951443 252.315771 139.524483 251.062555 136.408712 249.244405 134.32413 248.020793 134.728712 246.797181 135.133293 246.575154 137.888888 247.423789 141.142809 245.060441 139.702104 242.92652 139.21858 242.216035 140.099285 241.308194 141.224218 243.057269 144.140166 246.1237 146.614527 246.996239 147.326059 247.935597 147.951471 248.928634 148.482016 249.2722 147.117857 250.282407 146.020022 251.613346 145.564426 252.944284 145.10883 254.415347 145.357296 255.522819 146.224747 255.982525 145.236086 256.350016 144.207113 256.620617 143.150915 257.607401 139.327126 257.279295 135.939989 255.880529 135.577346ZM279.785374 152.888007C279.447401 151.807478 277.286344 151.474439 274.557885 151.945628 276.531454 149.231972 277.350485 146.589857 276.358767 145.763426 275.367048 144.936994 272.905022 146.209945 270.600881 148.647302 270.573744 145.879373 269.860793 143.814527 268.733392 143.676377 267.300088 143.501223 265.74837 146.528183 265.279648 150.438315 265.137705 151.554917 265.103833 152.682609 265.178502 153.805716 266.518047 153.376001 267.984042 153.652959 269.074492 154.541751 270.164943 155.430543 270.731871 156.810557 270.581145 158.209241 271.66353 158.077163 272.731352 157.845099 273.770925 157.516025 277.518238 156.339285 280.217093 154.267038 279.785374 152.888007Z"/><path fill="#30242A" fill-rule="nonzero" d="M269.096035 154.570474C268.003413 153.65953 266.52066 153.370984 265.166167 153.805716 265.299383 155.665804 265.770573 157.089241 266.47859 157.619637 267.137269 158.231443 268.666784 158.433734 270.568811 158.209241 270.718491 156.826179 270.165563 155.460066 269.096035 154.570474L269.096035 154.570474ZM251.657093 145.541399C250.305558 145.986992 249.276655 147.094111 248.931101 148.474615 250.579031 149.345452 252.037004 149.708095 252.860969 149.377522 253.729339 149.130826 254.708722 147.951619 255.525286 146.217346 254.430658 145.357988 252.978289 145.104193 251.657093 145.541399Z"/><path fill="#F5EBDD" fill-rule="nonzero" d="M241.113304,159.329241 C240.199658,158.816359 239.829672,157.69015 240.261156,156.735363 C240.692641,155.780576 241.782408,155.314053 242.771101,155.66087 C242.659049,154.275459 241.861975,153.037728 240.647048,152.362544 L237.252511,159.921311 C238.557677,160.379868 240.005529,160.157833 241.113304,159.329241 L241.113304,159.329241 Z"/><path fill="#4856DF" fill-rule="nonzero" d="M240.247401,156.738932 C239.817329,157.697567 240.193776,158.825834 241.113304,159.334174 C242.261764,158.479274 242.888375,157.092711 242.771101,155.665804 C241.778732,155.310429 240.67991,155.77767 240.247401,156.738932 L240.247401,156.738932 Z"/><g transform="rotate(31 73.673 265.656)"><path fill="#30242A" fill-rule="nonzero" d="M55.4759486,107.274497 L55.4759486,107.274497 C54.4644948,107.669211 53.3050234,107.151149 52.9349794,106.139695 L27.4019397,38.9396954 C27.0072261,37.9282416 27.5252878,36.7687703 28.5367415,36.3987262 L28.5367415,36.3987262 C29.5481953,36.0040126 30.7076666,36.5220742 31.0777107,37.533528 L56.5860807,104.708858 C57.005464,105.744982 56.4874023,106.879783 55.4759486,107.274497 Z"/><g transform="rotate(-20 34.692 6.117)"><mask id="c" fill="#fff"><use xlink:href="#a"/></mask><path fill="url(#b)" d="M0,0 L0,27.0839316 C0,31.8816369 3.88928821,35.7709251 8.68699349,35.7709251 L8.68699349,35.7709251 L35.7709251,35.7709251 L35.7709251,8.68683638 C35.7709251,3.8891311 31.881794,0 27.0840887,0 L27.0840887,0 L0,0 Z" mask="url(#c)"/><path fill="#FFF" d="M21.3951072,17.2619981 L17.8315106,20.7715485 C17.6491044,20.9511266 17.4107667,21.0417798 17.1721148,21.0417798 C16.9488597,21.0417798 16.7251334,20.9625957 16.5464979,20.8031279 L14.6218855,19.0857451 C14.2346063,18.7401005 14.2008274,18.14622 14.546315,17.7589409 C14.8918026,17.3716617 15.4858401,17.3378828 15.8731192,17.6833704 L17.1405354,18.8142569 L20.0763157,15.9229392 C20.4459983,15.5587554 21.0411356,15.5633116 21.4053194,15.9331514 C21.7693461,16.3028341 21.7647899,16.8978143 21.3951072,17.2619981 M29.7460398,14.9934692 L29.7485536,14.991741 L29.7455685,14.991741 C29.5389672,14.2302229 28.922777,13.580568 28.0278715,13.4540935 C28.0278715,13.4540935 27.3775882,13.3580986 26.319287,13.20193 C24.9668737,12.9538514 23.2303234,12.562016 22.6389567,12.1048224 C21.8632987,11.505286 20.808611,9.62387911 20.2098602,8.47445344 C19.9163764,7.89094237 19.7440254,7.54796858 19.7440254,7.54796858 C19.3754425,6.79996207 18.6521025,6.41645358 17.9194928,6.39807157 L17.9191786,6.39728602 L17.9188644,6.39807157 C17.1520045,6.37906111 16.3750896,6.76052715 15.9849824,7.54796858 C15.9849824,7.54796858 15.8127885,7.89015681 15.5177336,8.47696721 C14.8790765,9.70903339 13.7288653,11.786515 12.9927993,12.2884854 C12.1740927,12.8468586 10.0017159,13.2867701 8.71528922,13.5082969 C8.08841546,13.6075912 7.7206181,13.6658794 7.7206181,13.6658794 C6.92107911,13.7859124 6.34605205,14.327789 6.09294587,14.991741 L6.08996076,14.991741 L6.09231743,14.9934692 C5.8118739,15.7309493 5.92845043,16.6186277 6.57810532,17.2470725 C6.57810532,17.2470725 6.85179306,17.5151043 7.32124138,17.9746546 C8.30082983,18.9575424 9.93023027,20.6848231 10.1847504,21.5385655 C10.4721069,22.5024428 10.1842791,24.7992517 9.98254831,26.1086166 C9.96290941,26.232106 9.94531295,26.3433408 9.92991605,26.441221 C9.86738579,26.8252009 9.82229487,27.0658953 9.82229487,27.0658953 L9.83439243,27.0636957 C9.75505127,27.809974 10.0851419,28.4731404 10.6091078,28.8954554 L10.6083223,28.8979692 L10.6103647,28.8963981 C11.2251409,29.3909842 12.1055922,29.5542227 12.9040314,29.1306509 C12.9040314,29.1306509 13.169078,28.9920788 13.6319277,28.7499704 C14.8270727,28.1402218 17.1664588,27.0148341 18.1056696,27.0402861 C19.0384389,27.065581 20.8599864,27.87926 22.0350212,28.4531873 C22.721283,28.8029169 23.1315004,29.0120319 23.1315004,29.0120319 C23.8490273,29.3848568 24.6328552,29.284777 25.2279925,28.8963981 L25.2301921,28.8979692 L25.2292494,28.8954554 C25.889745,28.4637138 26.3169304,27.6765866 26.1609189,26.7863944 C26.1609189,26.7863944 26.1109576,26.4914966 26.0237608,25.9764861 C25.8132318,24.6515672 25.4657018,22.078871 25.7802384,21.1933921 C26.0925755,20.3141977 27.4292778,18.8331103 28.3383233,17.8931139 C28.8828708,17.3484093 29.2085623,17.0228748 29.2085623,17.0228748 C29.7848463,16.4558604 29.9315882,15.6794168 29.7460398,14.9934692"/></g></g><path fill="#A15842" fill-rule="nonzero" d="M145.044934,74.8999894 C145.044934,74.8999894 139.814978,74.8999894 139.102026,77.038844 C138.389075,79.1776987 140.051806,80.8453639 140.051806,80.8453639 C140.051806,80.8453639 137.2,82.2712669 139.102026,84.8862449 C139.102026,84.8862449 137.673656,87.2643947 140.051806,88.6902978 C140.051806,88.6902978 138.625903,90.355496 141.004053,92.0206943 C143.382203,93.6858925 146.710132,93.9227207 147.41815,93.2097691 C148.259383,92.3685357 148.089163,91.1375225 146.446167,89.795496 C146.446167,89.795496 149.559471,90.1186678 150.033128,88.4534696 C150.506784,86.7882713 148.84652,85.8384916 148.84652,85.8384916 C148.84652,85.8384916 150.985374,85.8384916 150.985374,83.9364652 C150.985374,82.0344387 149.083348,81.5583154 149.083348,81.5583154 C149.083348,81.5583154 150.089868,80.8305621 149.7963,79.656289 C149.445991,78.2575225 147.171454,77.6309145 145.98978,77.3965533 C145.675755,77.3386676 145.358624,77.2991292 145.04,77.2781392 L145.044934,74.8999894 Z"/><path fill="#30242A" fill-rule="nonzero" d="M139.853356 88.7473455C139.932209 88.4865111 140.20758 88.3389861 140.468415 88.4178391 142.796853 89.1217509 145.194399 89.5725645 147.619487 89.7624644 147.891148 89.7837372 148.094128 90.0212072 148.072855 90.2928685 148.051583 90.5645298 147.814113 90.7675097 147.542451 90.7462369 145.04665 90.5507998 142.579195 90.0868411 140.182863 89.362404 139.922028 89.283551 139.774503 89.0081799 139.853356 88.7473455ZM138.961052 84.9552238C139.026503 84.6907082 139.293995 84.5293347 139.55851 84.594786 142.955458 85.4353214 146.453531 85.7951279 149.950454 85.6636856 150.222755 85.6534504 150.451795 85.8658964 150.462031 86.138197 150.472266 86.4104976 150.25982 86.6395382 149.987519 86.6497734 146.398365 86.7846825 142.808031 86.4153862 139.32149 85.5526818 139.056974 85.4872305 138.895601 85.2197394 138.961052 84.9552238ZM139.712674 81.0113707C139.776312 80.746413 140.042692 80.583211 140.30765 80.6468489 143.515056 81.417208 146.831259 81.6288805 150.110581 81.2725679 150.38148 81.2431336 150.624948 81.4388791 150.654382 81.7097776 150.683816 81.9806761 150.488071 82.224144 150.217172 82.2535783 146.825101 82.6221416 143.39488 82.4031914 140.077196 81.6063458 139.812239 81.5427079 139.649037 81.2763285 139.712674 81.0113707Z"/><path fill="#A15842" fill-rule="nonzero" d="M216.616388,120.087302 C216.616388,120.087302 197.356828,125.082897 190.698502,130.076025 C187.691278,132.330826 184.037709,136.490122 182.853568,138.397082 C181.669427,140.304042 176.671366,147.433558 179.049515,147.670386 C181.427665,147.907214 184.042643,143.629505 184.042643,143.629505 C184.042643,143.629505 182.611806,148.859461 182.858502,150.524659 C183.105198,152.189857 185.47348,151.713734 185.47348,151.713734 C187.375507,153.61576 189.040705,151.237611 189.040705,151.237611 C192.368634,153.376465 195.948194,141.964307 195.948194,141.964307 C197.901094,141.001735 199.70358,139.760188 201.299031,138.278668 C201.299031,138.278668 222.579031,138.160254 229.237357,132.214879 C233.964053,127.996377 235.130925,119.67532 235.128462,111.756377 L216.626256,111.756377 L216.616388,120.087302 Z"/><path fill="#30242A" fill-rule="nonzero" d="M221.016194 117.94591C221.280551 117.879821 221.54843 118.040549 221.61452 118.304906 221.677605 118.557246 221.534024 118.812797 221.290919 118.892988L221.255524 118.903232 216.913674 119.988694C216.649317 120.054783 216.381437 119.894056 216.315348 119.629699 216.252263 119.377358 216.395844 119.121807 216.638949 119.041617L216.674344 119.031373 221.016194 117.94591ZM186.280734 136.882426C186.525946 137.001268 186.628388 137.296393 186.509546 137.541605L186.41303 137.743191C186.396889 137.77731 186.380721 137.811691 186.364525 137.846336L186.267016 138.057386C186.250709 138.093093 186.234373 138.129068 186.218009 138.165313L186.119479 138.386028 186.020256 138.613298 185.920326 138.847213C185.903611 138.886758 185.886867 138.926583 185.870092 138.966691L185.76908 139.210742 185.667332 139.461662 185.564836 139.719542 185.46158 139.984469 185.357553 140.256534 185.252742 140.535827 185.094032 140.968515 184.987211 141.266269 184.879566 141.571565 184.771084 141.884491 184.606767 142.368385 184.440501 142.869952 184.328554 143.214299 184.215712 143.566724 184.101962 143.927318 183.987293 144.29617 183.81354 144.865129 183.696521 145.255019 183.578542 145.653481C183.501653 145.914901 183.2274 146.064494 182.96598 145.987606 182.704559 145.910718 182.554967 145.636464 182.631855 145.375044L182.751412 144.971269 182.870042 144.576058 182.987758 144.18932 183.162644 143.624902 183.278129 143.258951 183.392745 142.901156 183.506504 142.551426 183.619418 142.209672 183.731502 141.875802 183.842768 141.549727 183.953228 141.231355 184.117437 140.768043 184.279906 140.321556 184.387273 140.033093 184.4939 139.751882 184.599798 139.477831 184.704981 139.21085 184.809461 138.950849 184.913252 138.697736 185.016366 138.451422 185.118815 138.211816 185.220614 137.978828 185.321775 137.752366 185.42231 137.532341 185.522232 137.318662 185.621555 137.111238C185.740398 136.866026 186.035522 136.763583 186.280734 136.882426ZM188.943483 138.54706C189.058209 138.299896 189.35158 138.192534 189.598744 138.307261 189.845908 138.421987 189.95327 138.715358 189.838544 138.962522 188.125955 142.652086 186.911309 146.828685 185.807065 151.788878 185.747852 152.05486 185.484229 152.222479 185.218248 152.163266 184.952266 152.104053 184.784647 151.84043 184.84386 151.574449L184.91542 151.254782 185.059546 150.621837C186.121737 146.011188 187.304877 142.077236 188.943483 138.54706ZM192.923593 139.965274C193.173363 140.074212 193.28753 140.365002 193.178592 140.614772L193.091857 140.815587 193.005902 141.018532 192.920651 141.223799 192.793935 141.53647 192.668388 141.855439 192.585215 142.071901 192.461058 142.402797 192.337402 142.741707 192.255119 142.972417 192.131741 143.326116 192.008195 143.689548 191.88423 144.063355 191.801231 144.318643 191.676013 144.711175 191.549708 145.115801 191.422066 145.533165 191.249365 146.110578 191.117629 146.560168 190.893119 147.342879 190.661415 148.169918 190.421357 149.044266 190.171786 149.968906 189.91154 150.946818 189.749787 151.560377C189.680525 151.823921 189.410733 151.981417 189.147189 151.912155 188.883646 151.842893 188.72615 151.573101 188.795411 151.309558L189.117865 150.090565 189.374108 149.13554 189.571808 148.409087 189.810829 147.545382 189.996315 146.887975 190.132491 146.413454 190.266438 145.954077 190.398416 145.509176 190.528685 145.078082 190.657507 144.660125 190.827466 144.122132 190.911847 143.860953 191.037887 143.4784 191.16352 143.10631 191.289008 142.744016 191.372713 142.507598 191.498535 142.160144 191.624906 141.820701 191.752085 141.488603 191.837449 141.270953 191.966555 140.949608C191.980978 140.914225 191.99543 140.878944 192.009911 140.843762L192.097163 140.633824 192.185199 140.42606 192.274096 140.220273C192.383034 139.970503 192.673824 139.856336 192.923593 139.965274Z"/><path fill="#000" fill-rule="nonzero" d="M187.63558,128.245395 C187.726946,128.502114 187.5929,128.784292 187.336181,128.875658 L186.393893,129.212543 L185.46404,129.548086 L184.851222,129.77099 L183.942884,130.104092 L183.047928,130.43561 L182.16671,130.765453 L181.299587,131.09353 L180.72951,131.311223 L180.165961,131.528064 L179.333107,131.851669 L178.786337,132.066263 L178.246464,132.279912 L177.713592,132.492587 L177.187827,132.704264 L176.669275,132.914914 C176.583456,132.949936 176.497943,132.984913 176.412736,133.019846 L175.9052,133.228907 L175.405139,133.436875 L174.91266,133.643722 L174.427867,133.849423 L173.950866,134.05395 L173.481762,134.257277 L173.020661,134.459376 C172.944484,134.492955 172.868644,134.526483 172.793144,134.559957 L172.344245,134.760165 L171.903611,134.959079 L171.471349,135.156671 L171.047564,135.352915 C170.977645,135.385509 170.908084,135.418045 170.838883,135.450524 L170.428011,135.644696 C170.360257,135.67694 170.292868,135.709126 170.225845,135.741253 C166.089043,137.718914 163.613984,140.70507 162.335588,145.092591 L162.262987,145.347679 L162.192925,145.605904 C162.147061,145.779118 162.102881,145.954481 162.060369,146.132102 L161.99785,146.400243 C161.987638,146.44522 161.97753,146.490341 161.967525,146.535609 L161.908734,146.808989 C161.899141,146.85485 161.889652,146.900861 161.880265,146.947023 L161.825173,147.22583 C161.816196,147.272606 161.807321,147.319537 161.798547,147.366625 L161.747126,147.651047 L161.698137,147.939318 L161.651565,148.23152 C161.644004,148.280552 161.636543,148.329752 161.629182,148.379121 L161.586214,148.677377 C161.57229,148.777481 161.558764,148.878275 161.545633,148.979773 L161.507425,149.286393 L161.471578,149.59732 L161.438078,149.912638 L161.406915,150.23243 C161.401914,150.286106 161.397011,150.339973 161.392204,150.39403 L161.364519,150.720691 C161.360097,150.775522 161.355771,150.830549 161.351541,150.885772 L161.327306,151.219489 L161.305355,151.558013 C161.301886,151.61484 161.298512,151.67187 161.295232,151.729105 L161.276683,152.074999 L161.260387,152.425911 C161.257858,152.484819 161.255422,152.543939 161.253079,152.603274 L161.240136,152.961868 L161.229414,153.325688 L161.220899,153.694817 L161.214579,154.06934 L161.209185,154.641418 L161.208295,155.029789 C161.208326,155.094989 161.208447,155.160426 161.208657,155.226101 L161.210987,155.623031 L161.215448,156.025772 L161.222026,156.434407 L161.235837,157.058593 L161.247654,157.482329 L161.261544,157.912251 L161.277495,158.348444 L161.295493,158.790989 L161.326301,159.466904 L161.361644,160.157583 L161.387704,160.626379 L161.415748,161.101945 L161.445763,161.584366 C161.450929,161.665346 161.456176,161.746614 161.461505,161.828173 C161.479271,162.100087 161.273244,162.334918 161.001331,162.352684 C160.729418,162.37045 160.494587,162.164423 160.476821,161.89251 L160.445398,161.399875 L160.415972,160.914158 L160.375606,160.198367 L160.339811,159.497656 L160.31851,159.038751 L160.299277,158.586331 L160.282124,158.140312 L160.267068,157.700607 L160.25412,157.26713 L160.243297,156.839793 C160.241671,156.769077 160.240134,156.698613 160.238687,156.6284 L160.22808,156.003197 L160.223713,155.593764 C160.223167,155.526011 160.222712,155.458499 160.222347,155.391227 L160.221258,154.990455 L160.22237,154.595349 L160.225699,154.205822 L160.231259,153.821789 L160.239063,153.443161 C160.240552,153.380502 160.242135,153.318065 160.243812,153.255848 L160.25501,152.885168 L160.268489,152.519679 L160.284263,152.159293 L160.302345,151.803925 L160.32275,151.453489 L160.345493,151.107897 L160.370587,150.767063 L160.398047,150.430901 L160.427887,150.099325 L160.460121,149.772248 L160.494764,149.449583 C160.500739,149.396168 160.506815,149.342934 160.512993,149.289878 L160.551274,148.973671 C160.557858,148.921322 160.564543,148.869147 160.571331,148.817146 L160.613284,148.507201 L160.657703,148.201322 L160.704601,147.899425 L160.753993,147.601421 C160.770874,147.502726 160.788173,147.404665 160.805893,147.307225 L160.860315,147.016751 C160.869596,146.968643 160.878983,146.920688 160.888476,146.872882 L160.946709,146.587827 C160.956627,146.540613 160.966651,146.493544 160.976783,146.44662 L161.038857,146.16679 L161.103511,145.890337 C161.114502,145.844538 161.125601,145.798876 161.136809,145.753349 L161.205358,145.481797 C161.228642,145.391811 161.252363,145.302351 161.276521,145.213404 L161.350314,144.948085 C161.362832,144.904116 161.375461,144.860272 161.3882,144.81655 C162.74399,140.163405 165.405987,136.95171 169.799774,134.851193 L170.003644,134.753821 L170.417889,134.558045 C170.487649,134.525303 170.557766,134.492504 170.628239,134.459649 L171.055327,134.261854 L171.490848,134.062745 C171.564131,134.029452 171.637762,133.996106 171.711738,133.962706 L172.159713,133.761675 C172.23506,133.728065 172.310747,133.694403 172.386772,133.660689 L172.846969,133.457793 L173.315184,133.253686 L173.791313,133.048395 L174.275254,132.841944 L174.766902,132.634359 L175.266154,132.425667 L175.772906,132.215893 L176.287055,132.005063 L176.808497,131.793202 L177.337128,131.580337 C177.425827,131.544778 177.514821,131.509177 177.604108,131.473536 L178.143329,131.259213 L178.689482,131.043949 C178.781079,131.007995 178.87296,130.972003 178.965124,130.935973 L179.521478,130.719348 L180.368486,130.392776 L181.230155,130.064322 L181.812574,129.844349 L182.697902,129.512949 L183.59696,129.179899 L184.203786,128.956991 L184.816456,128.733414 L185.434865,128.509193 L186.373013,128.171712 L187.005317,127.945995 C187.262036,127.85463 187.544215,127.988676 187.63558,128.245395 Z"/><path fill="#EAA58B" fill-rule="nonzero" d="M47.8096916,196.651884 C38.082467,198.625452 31.1503084,201.161487 31.1503084,201.161487 L21.7906608,197.014527 L21.8103965,196.809769 L0,216.616994 L0.476123348,217.186862 C1.68137119,218.632496 3.46622221,219.468439 5.34837004,219.4688 L49.1245815,219.4688 L47.8096916,196.651884 Z"/><path fill="#A15842" fill-rule="nonzero" d="M31.1404405,201.161487 C31.1404405,201.161487 38.0725991,198.613117 47.7998238,196.651884 L49.1147137,219.4688 L80.3587665,219.4688 C88.8056388,219.4688 96.2089868,213.548095 97.7829075,205.249241 C98.8313656,199.710915 97.193304,193.780342 91.3071366,189.746862 C81.8389427,183.258756 61.5851982,174.767478 56.3552423,173.10228 L27.5830837,179.763073 C22.1138326,185.708448 23.3029075,195.455408 23.3029075,195.455408 L31.1404405,201.161487 Z"/><path fill="#30242A" fill-rule="nonzero" d="M47.7875643 196.475835C56.3086942 194.828156 62.9584195 194.197014 71.7128278 194.604841 71.9850255 194.617522 72.1954058 194.848461 72.1827254 195.120659 72.170045 195.392856 71.9391056 195.603237 71.6669079 195.590556 62.999232 195.186769 56.4248265 195.810763 47.9749026 197.444673 47.7073654 197.496405 47.4485465 197.32146 47.3968144 197.053923 47.3450824 196.786386 47.5200271 196.527567 47.7875643 196.475835ZM56.378525 172.705808C56.461244 172.446174 56.7387762 172.302756 56.9984105 172.385475 57.3803422 172.507158 57.7966517 172.646904 58.2437316 172.803211L58.7009348 172.964983C58.8566657 173.02071 59.0156819 173.078222 59.1778499 173.137462L59.6736753 173.320313C59.8420132 173.382955 60.0133691 173.44727 60.1876096 173.513203L60.7188509 173.715797C60.8087888 173.750353 60.8994145 173.785299 60.9907112 173.820629L61.5464101 174.037154C61.6403241 174.07399 61.7348757 174.111196 61.8300483 174.148764L62.4084012 174.378469C62.5059906 174.417459 62.6041676 174.456799 62.7029154 174.49648L63.3021186 174.738613 63.9142199 174.988613C64.0172671 175.030917 64.1208183 175.073534 64.2248568 175.116459L64.8548023 175.377635 65.4956419 175.645843 66.146574 175.920751C66.2558592 175.967109 66.3655315 176.013732 66.4755742 176.060613L67.1401419 176.344942 67.812798 176.635136 68.4927408 176.93086C68.6066273 176.980589 68.7207841 177.030536 68.8351943 177.080691L69.5245643 177.384084C69.6399217 177.43505 69.7554993 177.486211 69.8712804 177.537562L70.5682738 177.847872C70.6848016 177.899949 70.8014995 177.952201 70.9183507 178.00462L71.6211639 178.321096 72.3268549 178.641265 73.0346221 178.964794 73.7436639 179.291347 74.4531786 179.620592 75.1623646 179.952194 75.8704204 180.285819 76.5765441 180.621134C76.6940259 180.677142 76.8113938 180.733206 76.928631 180.78932L77.6303539 181.126543 78.3281407 181.46462 79.0211899 181.803217 79.7086998 182.142001 80.3898688 182.480637 81.0638953 182.818792C81.1755933 182.875093 81.2869603 182.931359 81.3979796 182.987585L82.0597893 183.324391C82.6075977 183.604561 83.1458783 183.88336 83.6725437 184.159918L84.2988332 184.490655C85.6431351 185.204682 86.903273 185.901209 88.0425558 186.564948 88.2780052 186.70212 88.3576752 187.004188 88.2205038 187.239638 88.0833324 187.475087 87.7812636 187.554757 87.5458142 187.417586 86.7627209 186.96136 85.9217312 186.489362 85.0350187 186.006662L84.4372369 185.683333C84.2358075 185.575065 84.0322537 185.466325 83.8267093 185.357167L83.2042373 185.028498 82.5706225 184.697661 81.9266665 184.364988C81.7103801 184.253829 81.4925037 184.142419 81.2731709 184.030815L80.6109372 183.695475 79.9407671 183.359302 79.263462 183.02263 78.5798235 182.685793C78.3509775 182.573523 78.1212095 182.461282 77.8906532 182.349124L77.1967527 182.012959C77.0807529 181.956992 76.9645895 181.90106 76.8482791 181.845169L76.1487861 181.510385 75.4465668 181.176938C75.3293476 181.121493 75.2120482 181.066118 75.0946853 181.01082L74.3898795 180.680006 73.6843513 180.351364 72.9789022 180.02523 72.2743339 179.701935 71.5714479 179.381815C71.4544849 179.328745 71.3376255 179.275821 71.2208862 179.22305L70.5220265 178.908319 69.8268531 178.597596 69.1361674 178.291217 68.450771 177.989516 67.7714656 177.692826C67.6588001 177.643813 67.5464218 177.595024 67.4343474 177.546464L66.7656813 177.257917 66.1051099 176.975216C65.9957338 176.928605 65.8867284 176.882252 65.7781103 176.836162L65.1311841 176.562857 64.4943567 176.296233 63.8684296 176.036624C63.7650613 175.993959 63.6621806 175.9516 63.5598041 175.909554L62.9517304 175.661094C62.8514378 175.620328 62.751683 175.57989 62.6524825 175.539786L62.0640656 175.303226 61.4897554 175.075017 60.9303532 174.855492 60.3866608 174.644987C60.297399 174.610672 60.2088253 174.576748 60.1209562 174.54322L59.6023312 174.346869C59.5173476 174.314955 59.433102 174.283453 59.3496113 174.252367L58.8578573 174.070922C58.6970474 174.012147 58.5393902 173.955099 58.3850193 173.899831L57.9318988 173.739429C57.4889043 173.584482 57.0766884 173.44607 56.6988583 173.325694 56.439224 173.242974 56.2958059 172.965442 56.378525 172.705808Z"/><path fill="#FFBE21" fill-rule="nonzero" d="M26.4532159,196.982456 L2.45215859,218.763249 C3.34968953,219.227224 4.34540752,219.469174 5.35577093,219.4688 L22.8267841,219.4688 L31.1404405,201.161487 C29.8383622,199.501404 28.2512027,198.086326 26.4532159,196.982456 L26.4532159,196.982456 Z"/><path fill="#FF7235" fill-rule="nonzero" d="M23.3029075,195.452941 L0,216.616994 L0.476123348,217.186862 C1.02116342,217.839812 1.69243252,218.375988 2.44969163,218.763249 L26.4532159,196.982456 C25.4628319,196.357821 24.406282,195.844852 23.3029075,195.452941 Z"/><path fill="#30242A" fill-rule="nonzero" d="M17.9586784 214.816113C18.2222689 214.816113 18.4382197 215.017387 18.457307 215.272682L18.4586784 215.309505 18.4586784 219.523073C18.4586784 219.795566 18.2348208 220.016465 17.9586784 220.016465 17.695088 220.016465 17.4791371 219.815191 17.4600498 219.559896L17.4586784 219.523073 17.4586784 215.309505C17.4586784 215.037012 17.682536 214.816113 17.9586784 214.816113ZM14.1546256 214.816113C14.418216 214.816113 14.6341668 215.017387 14.6532541 215.272682L14.6546256 215.309505 14.6546256 219.523073C14.6546256 219.795566 14.4307679 220.016465 14.1546256 220.016465 13.8910351 220.016465 13.6750843 219.815191 13.655997 219.559896L13.6546256 219.523073 13.6546256 215.309505C13.6546256 215.037012 13.8784832 214.816113 14.1546256 214.816113Z"/><path fill="#4756DF" fill-rule="nonzero" d="M44.1092511,122.793558 C44.381744,122.793558 44.6026432,123.014457 44.6026432,123.28695 C44.6026432,123.559443 44.381744,123.780342 44.1092511,123.780342 C42.8646532,123.780342 41.5524214,123.858666 40.3263793,123.973097 C40.0550655,123.998419 39.8145942,123.799004 39.7892716,123.52769 C39.763949,123.256377 39.9633642,123.015905 40.234678,122.990583 C41.4885909,122.873551 42.8287822,122.793558 44.1092511,122.793558 Z"/><path fill="#30242A" fill-rule="nonzero" d="M117.79725,145.115776 L117.79725,145.115776 C116.785796,145.51049 115.626325,144.992428 115.256281,143.980975 L89.7232412,76.7809746 C89.3285275,75.7695209 89.8465892,74.6100495 90.8580429,74.2400054 L90.8580429,74.2400054 C91.8694967,73.8452918 93.028968,74.3633535 93.3990121,75.3748072 L118.907382,142.550138 C119.326765,143.586261 118.808704,144.721063 117.79725,145.115776 Z"/><g transform="rotate(-22 168.848 -133.87)"><mask id="e" fill="#fff"><use xlink:href="#d"/></mask><path fill="url(#b)" d="M0,0 L0,27.0839316 C0,31.8816369 3.88928821,35.7709251 8.68699349,35.7709251 L8.68699349,35.7709251 L35.7709251,35.7709251 L35.7709251,8.68683638 C35.7709251,3.8891311 31.881794,0 27.0840887,0 L27.0840887,0 L0,0 Z" mask="url(#e)"/><path fill="#FFF" d="M21.3951072,17.2619981 L17.8315106,20.7715485 C17.6491044,20.9511266 17.4107667,21.0417798 17.1721148,21.0417798 C16.9488597,21.0417798 16.7251334,20.9625957 16.5464979,20.8031279 L14.6218855,19.0857451 C14.2346063,18.7401005 14.2008274,18.14622 14.546315,17.7589409 C14.8918026,17.3716617 15.4858401,17.3378828 15.8731192,17.6833704 L17.1405354,18.8142569 L20.0763157,15.9229392 C20.4459983,15.5587554 21.0411356,15.5633116 21.4053194,15.9331514 C21.7693461,16.3028341 21.7647899,16.8978143 21.3951072,17.2619981 M29.7460398,14.9934692 L29.7485536,14.991741 L29.7455685,14.991741 C29.5389672,14.2302229 28.922777,13.580568 28.0278715,13.4540935 C28.0278715,13.4540935 27.3775882,13.3580986 26.319287,13.20193 C24.9668737,12.9538514 23.2303234,12.562016 22.6389567,12.1048224 C21.8632987,11.505286 20.808611,9.62387911 20.2098602,8.47445344 C19.9163764,7.89094237 19.7440254,7.54796858 19.7440254,7.54796858 C19.3754425,6.79996207 18.6521025,6.41645358 17.9194928,6.39807157 L17.9191786,6.39728602 L17.9188644,6.39807157 C17.1520045,6.37906111 16.3750896,6.76052715 15.9849824,7.54796858 C15.9849824,7.54796858 15.8127885,7.89015681 15.5177336,8.47696721 C14.8790765,9.70903339 13.7288653,11.786515 12.9927993,12.2884854 C12.1740927,12.8468586 10.0017159,13.2867701 8.71528922,13.5082969 C8.08841546,13.6075912 7.7206181,13.6658794 7.7206181,13.6658794 C6.92107911,13.7859124 6.34605205,14.327789 6.09294587,14.991741 L6.08996076,14.991741 L6.09231743,14.9934692 C5.8118739,15.7309493 5.92845043,16.6186277 6.57810532,17.2470725 C6.57810532,17.2470725 6.85179306,17.5151043 7.32124138,17.9746546 C8.30082983,18.9575424 9.93023027,20.6848231 10.1847504,21.5385655 C10.4721069,22.5024428 10.1842791,24.7992517 9.98254831,26.1086166 C9.96290941,26.232106 9.94531295,26.3433408 9.92991605,26.441221 C9.86738579,26.8252009 9.82229487,27.0658953 9.82229487,27.0658953 L9.83439243,27.0636957 C9.75505127,27.809974 10.0851419,28.4731404 10.6091078,28.8954554 L10.6083223,28.8979692 L10.6103647,28.8963981 C11.2251409,29.3909842 12.1055922,29.5542227 12.9040314,29.1306509 C12.9040314,29.1306509 13.169078,28.9920788 13.6319277,28.7499704 C14.8270727,28.1402218 17.1664588,27.0148341 18.1056696,27.0402861 C19.0384389,27.065581 20.8599864,27.87926 22.0350212,28.4531873 C22.721283,28.8029169 23.1315004,29.0120319 23.1315004,29.0120319 C23.8490273,29.3848568 24.6328552,29.284777 25.2279925,28.8963981 L25.2301921,28.8979692 L25.2292494,28.8954554 C25.889745,28.4637138 26.3169304,27.6765866 26.1609189,26.7863944 C26.1609189,26.7863944 26.1109576,26.4914966 26.0237608,25.9764861 C25.8132318,24.6515672 25.4657018,22.078871 25.7802384,21.1933921 C26.0925755,20.3141977 27.4292778,18.8331103 28.3383233,17.8931139 C28.8828708,17.3484093 29.2085623,17.0228748 29.2085623,17.0228748 C29.7848463,16.4558604 29.9315882,15.6794168 29.7460398,14.9934692"/></g><path fill="#EAA58B" fill-rule="nonzero" d="M108.903965,115.084307 C108.903965,115.084307 113.54185,113.54739 114.82467,115.481487 C116.107489,117.415584 114.918414,119.527302 114.918414,119.527302 C114.918414,119.527302 118.147665,120.166245 116.970925,123.289417 C116.970925,123.289417 119.040705,125.262985 117.067137,127.335232 C117.067137,127.335232 118.942026,128.600782 117.030132,130.90739 C115.118238,133.213998 111.874185,134.361135 110.968811,133.848007 C109.903084,133.241135 109.73533,131.97065 111.000881,130.184571 C111.000881,130.184571 107.993656,131.356377 107.066079,129.831796 C106.138502,128.307214 107.532335,126.903514 107.532335,126.903514 C107.532335,126.903514 105.403348,127.49065 104.882819,125.596025 C104.362291,123.701399 106.1163,122.709681 106.1163,122.709681 C106.1163,122.709681 104.917357,122.263161 104.882819,121.012412 C104.835947,119.194263 108.025727,117.610474 108.879295,117.225628 L108.903965,115.084307 Z"/><path fill="#A15842" fill-rule="nonzero" d="M114.673698 119.183922C114.897403 119.028332 115.204883 119.08355 115.360473 119.307256 115.516063 119.530961 115.460845 119.838441 115.237139 119.994031 112.689054 121.766257 109.059404 122.901782 105.481094 123.52871 105.212689 123.575735 104.956983 123.396272 104.909958 123.127867 104.862933 122.859462 105.042396 122.603756 105.310801 122.556731 108.75784 121.952802 112.27442 120.85265 114.673698 119.183922ZM116.72453 123.142851C116.953985 122.995872 117.259145 123.062731 117.406125 123.292185 117.553105 123.52164 117.486246 123.8268 117.256791 123.973779 113.914412 126.114779 110.135885 127.481919 106.197361 127.975282 105.926981 128.009152 105.680339 127.817422 105.646469 127.547042 105.6126 127.276662 105.804329 127.03002 106.074709 126.99615 109.867362 126.521059 113.505943 125.204555 116.72453 123.142851ZM116.88933 127.261413C117.119482 127.115527 117.42432 127.183838 117.570206 127.413989 117.716092 127.644141 117.647781 127.948979 117.41763 128.094865 116.995618 128.362366 116.522555 128.632802 116.005702 128.904738L115.690393 129.068067C115.369946 129.231554 115.034258 129.395477 114.684898 129.559526L114.331038 129.723606C114.271321 129.750956 114.211239 129.778306 114.150798 129.805656L113.783919 129.969732C113.722076 129.997073 113.65989 130.02441 113.597367 130.051742L113.218253 130.21566 112.831419 130.379386 112.513215 130.51162 112.200447 130.639558 111.743124 130.823047 111.44722 130.939516 111.018701 131.105017 110.610831 131.258974 110.351637 131.354919 109.983796 131.488381 109.753626 131.57014C109.496597 131.660629 109.214877 131.525622 109.124387 131.268593 109.033898 131.011564 109.168904 130.729844 109.425934 130.639355L109.735686 130.528736 110.097981 130.396097 110.401364 130.282807 110.508132 130.242502C111.139271 130.003602 111.793617 129.744246 112.450167 129.469227L112.63953 129.389497 113.012594 129.229937 113.377791 129.07032 113.734741 128.910743C114.969193 128.352401 116.04514 127.79652 116.88933 127.261413Z"/><path fill="#3EC1F3" fill-rule="nonzero" d="M43.7638767,161.549505 C39.4590308,162.074967 34.655859,162.85206 29.2482819,163.819108 L36.8563877,143.370474 L40.1843172,123.881487 C40.1843172,123.881487 29.2482819,125.070562 24.2551542,130.788976 C19.6493392,136.051003 5.23242291,160.510915 10.9335683,173.351443 C16.6347137,186.191972 33.7652863,181.662633 37.8012335,180.473558 C40.0042291,179.824747 43.3420264,178.329769 46.7686344,177.21717 L43.7638767,161.549505 Z"/><path fill="#EAA58B" fill-rule="nonzero" d="M54.9268722,175.956553 C60.1592952,176.669505 66.1022026,179.284483 67.0544493,175.956553 C67.0544493,175.956553 70.2614978,175.875144 69.2500441,172.825981 C69.2500441,172.825981 70.8585022,172.626157 71.0953304,171.437082 C71.5714537,169.061399 65.8653744,166.920078 65.8653744,166.920078 C65.8653744,166.920078 70.3823789,167.633029 71.3346256,166.673381 C72.5459031,165.459637 71.366696,163.528007 63.9880176,161.739461 C58.6297797,160.44184 52.1466079,160.520782 43.7589427,161.547038 L46.7711013,177.204835 C49.6426432,176.29206 52.5487225,175.630915 54.9268722,175.956553 Z"/><path fill="#A15842" fill-rule="nonzero" d="M56.581211 163.989003C56.6249897 163.72005 56.8785089 163.53751 57.1474621 163.581289 58.6495012 163.825782 60.5047311 164.284865 62.422763 164.850979L62.8841478 164.988847C63.0382456 165.035451 63.1925966 165.082685 63.3470521 165.130494L63.8105839 165.27559C64.274132 165.4223 64.7372832 165.573689 65.1960232 165.728269L65.653144 165.883858C66.0326049 166.014309 66.4080731 166.146633 66.7772257 166.279969L67.2170284 166.440401C67.2897741 166.467203 67.3622299 166.494031 67.4343774 166.520879L67.8634129 166.682148C67.9342525 166.709048 68.0047465 166.735953 68.0748764 166.762858 68.3292894 166.860462 68.4564086 167.145827 68.3588052 167.40024 68.2612018 167.654653 67.9758361 167.781773 67.7214232 167.684169 67.583467 167.631243 67.4440545 167.578307 67.3033356 167.525415L66.8774101 167.366928C66.8058194 167.340555 66.7339396 167.314206 66.6617895 167.287888L66.2257955 167.130421 65.7842146 166.974047C65.63619 166.922141 65.4873842 166.870473 65.3379475 166.819096L64.8878946 166.665899 64.4349563 166.514786C64.283596 166.464799 64.1319049 166.415214 63.9800331 166.366087L63.5240254 166.220133C63.2198589 166.123818 62.9155698 166.029554 62.6123586 165.93778L62.1585004 165.802042C62.0830422 165.779748 62.0076888 165.757625 61.9324591 165.735677L61.4827147 165.606162 61.0368385 165.481209C59.5580318 165.072669 58.1587016 164.745664 56.9889256 164.555254 56.7199724 164.511476 56.5374323 164.257956 56.581211 163.989003ZM55.7464176 167.917617C55.7868013 167.648133 56.0379986 167.462411 56.3074825 167.502795L56.4079308 167.518296 56.6133725 167.552656C56.6481147 167.558754 56.6831069 167.565037 56.7183475 167.571503L56.9327595 167.612495 57.1530594 167.657844 57.3791734 167.707499C57.4173394 167.716131 57.4557447 167.72494 57.4943876 167.733925L57.7290843 167.789941C57.7686716 167.799627 57.8084934 167.809487 57.8485483 167.819519L58.0916616 167.881782C58.1326424 167.892503 58.1738532 167.903394 58.2152924 167.914455L58.4666562 167.982848C58.5090029 167.994584 58.5515749 168.006487 58.5943707 168.018557L58.8538189 168.092966 59.1185644 168.17132C59.163126 168.184705 59.2079052 168.198253 59.2529005 168.211961L59.5254536 168.296138 59.8031193 168.384132 60.0858241 168.475892 60.3734939 168.571367 60.6660549 168.670504 60.9634335 168.773253 61.2655556 168.879563 61.7274717 169.04559 62.04113 169.160576 62.3592734 169.278942 62.844737 169.462716 63.1737706 169.589308 63.6752233 169.785181 64.1859373 169.988082 64.7056634 170.197836 65.2341525 170.414272 65.7711553 170.637215 66.4999721 170.944294 67.0558715 171.181746 67.6194542 171.425127 68.3824189 171.758558 68.7686728 171.928982 69.5503544 172.276991C69.7990545 172.388349 69.910392 172.680234 69.7990338 172.928934 69.6876756 173.177634 69.3957906 173.288972 69.1470905 173.177614L68.7655972 173.007276 67.8241793 172.591234 67.2681818 172.348588 66.5377527 172.033567 65.9984639 171.803909 65.4667956 171.580108 64.9430236 171.362341 64.4274236 171.150783 63.9202714 170.945608 63.4218427 170.746993 62.9324134 170.555112 62.611263 170.431019 62.2943166 170.310049 61.9816559 170.192254 61.6733625 170.077686 61.2192901 169.911997 60.775504 169.753861 60.4854973 169.65272 60.0594678 169.507561 59.6444599 169.370421 59.3740472 169.283537C59.3294014 169.269363 59.2849682 169.255343 59.2407493 169.241477L58.9780215 169.160154 58.720519 169.082603 58.4683236 169.008876 58.221517 168.939024 57.9801808 168.873101 57.7443968 168.811158 57.5142466 168.753246 57.2898121 168.699418C57.2528872 168.69079 57.2162038 168.682334 57.1797637 168.674052L56.9640558 168.626447 56.7542678 168.583055 56.5504813 168.54393C56.4166424 168.519279 56.2868589 168.497507 56.16124 168.478682 55.8917561 168.438298 55.7060338 168.187101 55.7464176 167.917617ZM55.0367172 171.702548C55.0876619 171.434859 55.3459651 171.259154 55.6136534 171.310099 57.1252081 171.597768 58.9116659 172.17218 60.8513937 172.94411L61.2413468 173.101103C61.5679507 173.234081 61.8985868 173.372381 62.2326921 173.515589L62.6352476 173.689768C62.8373219 173.778009 63.0405639 173.867957 63.2448522 173.959524L63.6547876 174.144789 64.0672965 174.334211 64.4821627 174.527631 64.89917 174.724891 65.3181022 174.925832 65.7387429 175.130295 66.160876 175.338121 66.5842852 175.549153 67.0087544 175.763231C67.2517696 175.886503 67.3488407 176.183438 67.2255687 176.426453 67.1022967 176.669468 66.8053622 176.766539 66.562347 176.643267L66.1527009 176.436649C66.0844966 176.402446 66.0163303 176.368361 65.9482067 176.334399L65.5400146 176.132112 65.1330696 175.932904 64.7275941 175.736929 64.3238102 175.54434 63.9219404 175.355291 63.5222067 175.169936 63.1248316 174.988429C63.0588113 174.958506 62.9928985 174.928751 62.9270979 174.899165L62.5336773 174.723717 62.1431709 174.552499C62.0135125 174.496149 61.8843768 174.440529 61.755801 174.385666L61.3717898 174.223372C61.3080802 174.196709 61.2445197 174.170242 61.1811132 174.143974L60.8025569 173.988775C60.7397842 173.963315 60.6771746 173.938059 60.6147327 173.913012L60.2421315 173.765255C59.9333694 173.644249 59.6290323 173.528611 59.3296988 173.41874L58.9729374 173.289689C57.6738905 172.826841 56.4761974 172.478748 55.429166 172.279484 55.1614777 172.228539 54.9857724 171.970236 55.0367172 171.702548Z"/><path fill="#4756DF" fill-rule="nonzero" d="M44.2951205,161.841376 C44.3301192,162.111612 44.1394217,162.359054 43.8691858,162.394053 L43.0149347,162.506682 L42.4833518,162.578678 L41.5659207,162.706109 L40.6094911,162.842927 L39.4108274,163.019649 L38.1571977,163.210223 L37.2912291,163.345057 L36.1751143,163.522453 L35.0219575,163.709784 L33.8321348,163.907156 L32.85413,164.072352 L31.5992569,164.288061 L30.5696993,164.468065 L29.2509947,164.702453 L27.8973548,164.947365 L26.7895424,165.150943 L25.6598048,165.361378 L24.5083348,165.578723 L23.3353248,165.803034 C23.2366819,165.822018 23.1378165,165.841075 23.0387293,165.860206 C22.7711773,165.911862 22.5124083,165.736843 22.4607525,165.469291 C22.4090967,165.201739 22.5841152,164.94297 22.8516672,164.891315 L24.0328232,164.66472 L25.1924791,164.445113 L26.3304423,164.23244 L27.4465204,164.026647 L28.5405209,163.827681 L29.6122513,163.635486 L30.6615191,163.450009 L31.433613,163.315278 L32.6918967,163.098995 L33.9141802,162.892955 L35.1000875,162.697054 L36.0223699,162.547561 L37.1418527,162.369644 L37.7956005,162.267625 L38.6461638,162.137072 L39.6751856,161.982601 L40.4708226,161.865935 L41.6178595,161.702325 L42.5307596,161.576308 L43.4042006,161.459566 L43.7424442,161.415442 C44.0126802,161.380443 44.2601218,161.57114 44.2951205,161.841376 Z"/></g></svg>