<svg xmlns="http://www.w3.org/2000/svg" xmlns:xlink="http://www.w3.org/1999/xlink" width="598" height="508" viewBox="0 0 598 508"><defs><filter id="b" width="110.8%" height="146.1%" x="-5.4%" y="-16.5%" filterUnits="objectBoundingBox"><feOffset dy="8" in="SourceAlpha" result="shadowOffsetOuter1"/><feGaussianBlur in="shadowOffsetOuter1" result="shadowBlurOuter1" stdDeviation="8"/><feColorMatrix in="shadowBlurOuter1" result="shadowMatrixOuter1" values="0 0 0 0 0.376470588 0 0 0 0 0.380392157 0 0 0 0 0.439215686 0 0 0 0.16 0"/><feOffset dy="2" in="SourceAlpha" result="shadowOffsetOuter2"/><feGaussianBlur in="shadowOffsetOuter2" result="shadowBlurOuter2" stdDeviation="2"/><feColorMatrix in="shadowBlurOuter2" result="shadowMatrixOuter2" values="0 0 0 0 0.156862745 0 0 0 0 0.160784314 0 0 0 0 0.239215686 0 0 0 0.04 0"/><feMerge><feMergeNode in="shadowMatrixOuter1"/><feMergeNode in="shadowMatrixOuter2"/></feMerge></filter><rect id="a" width="517" height="121.473" x="0" y="0" rx="60.737"/></defs><g fill="none" fill-rule="evenodd" transform="translate(16 8)"><g fill-rule="nonzero"><use xlink:href="#a" fill="#000" filter="url(#b)"/><use xlink:href="#a" fill="#FFF"/></g><text fill="#5B43B1" font-family="Archivo-SemiBold, Archivo" font-size="32" font-weight="500">
                    <tspan x="47.61" y="47.485">Reveal your skills and make </tspan>
                    <tspan x="47.61" y="88.485">the difference</tspan>
                </text><g transform="translate(38 63)"><rect width="11.851" height="201.424" x="86.052" y="233.338" fill="#FFBE21" fill-rule="nonzero"/><polygon fill="#A15842" fill-rule="nonzero" points="97.908 235.143 97.908 237.073 86.052 237.073 86.052 235.143"/><path fill="#4756DF" fill-rule="nonzero" d="M32.2738882 394.345165C34.7344449 387.288406 41.3899364 382.560577 48.8633684 382.560577 56.3368004 382.560577 62.9922918 387.288406 65.4528485 394.345165 67.7960771 387.622864 73.9643137 382.979061 81.0724376 382.585839 79.520723 379.820292 77.6730324 377.231584 75.5619122 374.865313L69.1828276 367.690049C65.1202014 363.123447 64.3488133 356.503009 67.2526962 351.124696L72.666715 341.063885 72.666715 341.063885C71.1467364 342.593514 62.3598128 350.8207 49.0226042 350.8207 35.6853956 350.8207 26.898472 342.593514 25.3784934 341.063885L25.3543668 341.063885 30.773211 351.124696C33.6644484 356.514292 32.869573 363.137611 28.7851755 367.690049L22.4109163 374.836361C20.2959039 377.202844 18.4434337 379.791448 16.8859149 382.556887 23.914541 383.046393 29.9713812 387.686362 32.2738882 394.345165L32.2738882 394.345165ZM82.0423287 404.512133C74.5666744 404.513395 67.9105134 409.245116 65.4528485 416.305236 62.9968616 409.243671 56.3398363 404.510801 48.8633684 404.510801 41.3869004 404.510801 34.7298751 409.243671 32.2738882 416.305236 29.2655724 407.674394 20.1450148 402.788981 11.2933589 405.067046 11.5384834 416.202469 16.0260205 426.824124 23.8392136 434.762119L74.1143136 434.762119C81.9116943 426.841004 86.397964 416.246506 86.6601683 405.1346 85.1555713 404.721929 83.602492 404.51258 82.0423287 404.512133Z"/><path fill="#30242A" fill-rule="nonzero" d="M48.9840016,350.840001 C62.3212102,350.840001 71.1081338,342.612816 72.6281124,341.083187 L25.3398908,341.083187 C26.8598694,342.59834 35.646793,350.840001 48.9840016,350.840001 Z"/><path fill="#3EC1F3" fill-rule="nonzero" d="M32.2738882,416.305236 C34.7298751,409.243671 41.3869004,404.510801 48.8633684,404.510801 C56.3398363,404.510801 62.9968616,409.243671 65.4528485,416.305236 C68.488628,407.575532 77.770391,402.692059 86.6842949,405.1346 C86.8825442,397.250887 84.9469304,389.460083 81.0820883,382.585839 C73.9739644,382.979061 67.8057278,387.622864 65.4624992,394.345165 C63.0019425,387.288406 56.346451,382.560577 48.873019,382.560577 C41.399587,382.560577 34.7440956,387.288406 32.2835388,394.345165 C29.9669759,387.703405 23.9131582,383.082837 16.8955655,382.600315 C13.0479801,389.451249 11.1161669,397.211837 11.3030095,405.067046 C20.1546655,402.788981 29.2752231,407.674394 32.2835388,416.305236 L32.2738882,416.305236 Z"/><path fill="#30242A" fill-rule="nonzero" d="M68.1399738 306.784722C68.4890982 306.381992 69.0985969 306.338536 69.501327 306.687661 69.9040572 307.036785 69.9475133 307.646284 69.5983888 308.049014 64.784197 313.602393 60.8825735 321.645586 57.8234459 331.287098 55.7438982 337.841248 54.322154 344.214507 53.4396251 349.615584 53.3536749 350.141599 52.8575789 350.498342 52.3315636 350.412392 51.8055483 350.326442 51.4488051 349.830346 51.5347553 349.304331 52.4312027 343.818073 53.8724152 337.357543 55.9836988 330.70337 59.1152554 320.833582 63.122561 312.572525 68.1399738 306.784722ZM39.7809823 289.424465C40.2866344 289.255956 40.8331503 289.529264 41.0016596 290.034917 41.8222476 292.497285 42.5684543 295.20663 43.2441435 298.136572L43.4551795 299.069119C44.1160656 302.045209 44.7068409 305.239119 45.2313689 308.624467L45.3948117 309.699857C45.4216866 309.880139 45.4483792 310.060943 45.4748899 310.242267L45.6317771 311.336401 45.7843275 312.442802C45.8093927 312.628214 45.8342783 312.814129 45.8589849 313.000544L46.0050811 314.124997 46.1469082 315.261254C46.1701918 315.451603 46.1932986 315.642437 46.2162293 315.833751L46.3517035 316.987368 46.4829762 318.152327 46.6100745 319.328445C46.6309112 319.525384 46.6515751 319.72278 46.6720667 319.92063L46.7929541 321.113138 46.9097346 322.316343 47.0224353 323.530059 47.1310832 324.754103 47.2351326 325.98051 47.3339998 327.200111 47.4277712 328.41225 47.5165332 329.616272 47.6404723 331.405651 47.7170884 332.586512 47.7889973 333.756961 47.8562853 334.916342 47.9190387 336.064 47.977344 337.199279 48.0566504 338.877553 48.1042129 339.979017 48.1476294 341.065807 48.2051694 342.667045 48.2538666 344.23158 48.2815627 345.253119 48.3055446 346.256707 48.3258985 347.241688 48.3427109 348.207406 48.3560681 349.153205C48.3580112 349.309142 48.3598139 349.464221 48.361478 349.61843 48.3672294 350.15139 47.9398423 350.588102 47.4068822 350.594282 46.8739221 350.599605 46.4372102 350.172218 46.4314589 349.639258L46.4198702 348.709674 46.4048869 347.759865 46.3864236 346.790491 46.3643945 345.80221 46.3387141 344.79568 46.3092968 343.771562 46.2760569 342.730514 46.2389089 341.673195 46.1977671 340.600264 46.1525459 339.51238 46.1031598 338.410202 46.0495231 337.294389 45.9915502 336.1656 45.9291555 335.024494 45.8622535 333.871731 45.7907584 332.707968 45.7145847 331.533865 45.6336468 330.350081 45.5478591 329.157275 45.457136 327.956105 45.3613919 326.747232 45.2605411 325.531314C45.2433023 325.328111 45.2258472 325.124641 45.208174 324.920919L45.1021976 323.726548 44.9923381 322.542173 44.8785734 321.36798 44.7608817 320.204152 44.6392409 319.050873C44.6186371 318.859549 44.5978679 318.668672 44.5769327 318.478247L44.4493272 317.341137C44.4277265 317.152531 44.4059591 316.964384 44.3840243 316.776699L44.2504046 315.656173 44.1127481 314.546933C44.0894677 314.363011 44.0660182 314.179566 44.0423991 313.996603L43.898646 312.904638 43.7508012 311.82442 43.5988426 310.756132C43.4704903 309.870915 43.33783 308.998317 43.2008044 308.138819L43.0342748 307.11374C42.9499587 306.604375 42.8640629 306.099795 42.776575 305.600104L42.5994728 304.60727C42.5397288 304.278518 42.4792734 303.95197 42.4181032 303.627656L42.2324442 302.661446C41.3559924 298.184033 40.3387024 294.150517 39.1705312 290.645143 39.0020218 290.139491 39.2753301 289.592975 39.7809823 289.424465Z"/><ellipse cx="74.685" cy="322.646" fill="#30242A" fill-rule="nonzero" rx="19.132" ry="4.304" transform="rotate(-23.75 74.685 322.646)"/><ellipse cx="73.445" cy="264.524" fill="#30242A" fill-rule="nonzero" rx="10.587" ry="3.691" transform="rotate(-53.51 73.445 264.524)"/><ellipse cx="23.439" cy="325.895" fill="#30242A" fill-rule="nonzero" rx="23.089" ry="4.077" transform="rotate(-8.6 23.44 325.895)"/><path fill="#FF7235" fill-rule="nonzero" d="M15.2404778 297.037586 15.2404778 297.071363C19.1021881 299.230771 20.6738121 303.982954 18.8610412 308.019005 17.0482703 312.055057 12.4520557 314.036987 8.27270309 312.584795L8.27270309 312.613747C18.840173 317.361871 28.9781887 317.72377 30.9083202 313.424402 32.8384516 309.125034 25.812773 301.785709 15.2404778 297.037586ZM46.4844813 262.623341C44.2358781 262.039477 41.3117289 265.441333 39.1741083 270.705767 36.6022081 264.312207 32.872229 260.03214 30.3582327 260.862096 27.8442364 261.692053 27.3954808 267.347338 29.1374245 274.015943 24.2831438 271.062841 19.911396 270.068824 18.4493214 271.878322 16.5867445 274.184829 20.1767891 280.168237 26.4690177 285.249308 28.2591607 286.707664 30.1852731 287.990662 32.2208096 289.080619 32.9257724 286.280407 34.999378 284.026856 37.7313916 283.091835 40.4634052 282.156814 43.482973 282.667247 45.7558567 284.448303 46.6989476 282.418519 47.4517072 280.305623 48.0044598 278.136773 50.0359232 270.314915 49.3555519 263.366442 46.4844813 262.623341ZM95.5387732 298.142586C94.8439258 295.922935 90.4094487 295.247389 84.8120674 296.212455 88.8749942 290.648851 90.5349073 285.220356 88.5034439 283.526666 86.4719805 281.832975 81.429512 284.443478 76.6910391 289.447344 76.6331352 283.763107 75.1614099 279.526468 72.8549028 279.241774 69.9162776 278.879874 66.7315606 285.094897 65.7471936 293.114594 65.4555145 295.407404 65.3844175 297.722904 65.5348791 300.02929 68.2854394 299.142949 71.297712 299.709308 73.5385303 301.534113 75.7793487 303.358919 76.9440413 306.194063 76.6331352 309.06713 78.8554832 308.785941 81.0473334 308.301376 83.1811063 307.619532 90.8871563 305.221343 96.4218083 300.970229 95.5387732 298.142586Z"/><path fill="#30242A" fill-rule="nonzero" d="M73.6028288 301.583046C71.3599652 299.712234 68.3152405 299.120406 65.5348791 300.014814 65.8099229 303.831649 66.7749886 306.770274 68.2274126 307.836672 69.5833299 309.091257 72.7197936 309.511061 76.6234845 309.052654 76.9325257 306.213834 75.7982955 303.409061 73.6028288 301.583046L73.6028288 301.583046ZM37.8181909 283.063434C35.0451151 283.978336 32.9331229 286.248728 32.2208096 289.080619 35.5985397 290.865991 38.5998942 291.58979 40.2887592 290.933545 42.0693055 290.451012 44.0814676 288.004571 45.7558567 284.448303 43.5094795 282.685094 40.5289254 282.165083 37.8181909 283.063434L37.8181909 283.063434Z"/><path fill="#F5EBDD" fill-rule="nonzero" d="M16.1814169,311.363987 C14.3001712,310.314907 13.5359718,307.999736 14.4230293,306.036886 C15.3100868,304.074035 17.5527412,303.117731 19.5832736,303.836474 C19.3531938,301.00121 17.7243313,298.467424 15.2404778,297.081014 L8.2582271,312.584795 C10.9379981,313.520498 13.907595,313.062942 16.1814169,311.363987 Z"/><path fill="#4856DF" fill-rule="nonzero" d="M14.4056959,306.041649 C13.5333584,308.003798 14.3039803,310.307287 16.1814169,311.349511 C18.5392508,309.596204 19.8253889,306.750282 19.5832736,303.821998 C17.5425516,303.09523 15.2863649,304.062468 14.4056959,306.041649 Z"/><path fill="#FFB7D5" fill-rule="nonzero" d="M333.29237,313.82973 L210.569785,313.82973 L212.644676,305.597719 L266.514646,305.597719 L287.060896,225.246345 C292.818863,202.731884 313.102892,186.981488 336.341978,186.981488 L336.341978,186.981488 C363.986286,186.981488 384.214064,213.038263 377.357272,239.818838 L364.661832,289.466645 C360.996536,303.798818 348.0858,313.825938 333.29237,313.82973 Z"/><polygon fill="#A15842" fill-rule="nonzero" points="246.27 355.122 254.985 355.122 254.985 433.336 246.27 433.336" transform="rotate(-90 250.627 394.23)"/><path fill="#A15842" fill-rule="nonzero" d="M302.617756,430.08155 L282.27417,308.989925 L218.975507,308.989925 L198.631921,430.08155 C198.437543,431.247334 198.766083,432.439586 199.530175,433.341251 C200.294267,434.242916 201.416463,434.762119 202.598342,434.762119 L202.598342,434.762119 C204.488525,434.760343 206.122739,433.443335 206.526159,431.596703 L233.171625,308.989925 L268.097354,308.989925 L294.733168,431.596703 C295.134941,433.444353 296.770158,434.762119 298.660986,434.762119 L298.660986,434.762119 C299.841177,434.759772 300.960703,434.238869 301.722623,433.337573 C302.484543,432.436277 302.811859,431.245672 302.617756,430.08155 Z"/><polygon fill="#FFBE21" fill-rule="nonzero" points="311.064 355.122 319.779 355.122 319.779 433.336 311.064 433.336" transform="rotate(-90 315.422 394.23)"/><path fill="#FFBE21" fill-rule="nonzero" d="M367.41227,430.08155 L347.049383,308.989925 L283.774847,308.989925 L263.431261,430.08155 C263.236882,431.247334 263.565423,432.439586 264.329515,433.341251 C265.093606,434.242916 266.215803,434.762122 267.397681,434.762122 L267.397681,434.762122 C269.287347,434.762122 270.920937,433.443605 271.320673,431.596703 L297.956488,308.989925 L332.887043,308.989925 L359.522857,431.596703 C359.925013,433.446122 361.562864,434.764441 363.4555,434.762122 L363.4555,434.762122 C364.635691,434.759772 365.755217,434.238869 366.517137,433.337573 C367.279057,432.436277 367.606374,431.245672 367.41227,430.08155 L367.41227,430.08155 Z"/><path fill="#FFB7D5" fill-rule="nonzero" d="M303.481489,289.466645 L311.240618,259.120153 L259.81709,259.120153 C239.07346,259.120153 220.966942,273.177707 215.824568,293.27383 L210.569785,313.82973 L272.107202,313.82973 C286.902429,313.828142 299.815747,303.800559 303.481489,289.466645 Z"/><path fill="#A15842" fill-rule="nonzero" d="M279.200435,303.826823 C279.733426,303.826823 280.165501,304.258898 280.165501,304.791889 C280.165501,305.300653 279.771813,305.717467 279.272459,305.754308 L279.200435,305.756955 L213.913738,305.756955 C213.380746,305.756955 212.948672,305.32488 212.948672,304.791889 C212.948672,304.283125 213.34236,303.866312 213.841714,303.829471 L213.913738,303.826823 L279.200435,303.826823 Z"/><path fill="#A15842" fill-rule="nonzero" d="M277.252148 259.517958C277.384221 259.00159 277.909886 258.690056 278.426254 258.822128 278.919151 258.948197 279.225412 259.432891 279.137367 259.9258L279.122084 259.996234 267.68123 304.727031C267.549157 305.2434 267.023492 305.554934 266.507124 305.422861 266.014227 305.296792 265.707966 304.812099 265.796011 304.319189L265.811294 304.248756 277.252148 259.517958ZM371.658559 257.117641C372.19155 257.117641 372.623625 257.549716 372.623625 258.082707 372.623625 258.591471 372.229937 259.008285 371.730583 259.045126L371.658559 259.047773 340.776455 259.047773C340.243464 259.047773 339.811389 258.615698 339.811389 258.082707 339.811389 257.573943 340.205077 257.157129 340.704431 257.120288L340.776455 257.117641 371.658559 257.117641ZM377.448954 235.403662C377.981945 235.403662 378.414019 235.835737 378.414019 236.368728 378.414019 236.877492 378.020331 237.294306 377.520978 237.331147L377.448954 237.333794 337.881258 237.333794C337.348267 237.333794 336.916192 236.901719 336.916192 236.368728 336.916192 235.859964 337.30988 235.44315 337.809234 235.406309L337.881258 235.403662 377.448954 235.403662Z"/><path fill="#FF7235" fill-rule="nonzero" d="M233.32121,226.56366 C233.32121,226.56366 194.607597,237.107003 178.162877,245.334189 C151.049355,258.888537 151.141036,267.834696 134.60946,317.916783 C119.346945,364.201337 117.667731,386.63429 96.6148215,387.52215 C80.5416515,388.197696 75.2723925,393.457305 72.666715,400.666346 L136.269373,430.843952 C137.782815,431.560213 139.592238,430.971886 140.395029,429.50251 L140.395029,429.50251 C141.214153,427.997978 140.685567,426.114759 139.203173,425.256221 L137.866557,424.484168 C143.777584,417.323381 155.179836,402.065691 166.548311,378.889637 L173.786304,382.267367 C173.786304,382.267367 185.478075,367.072407 187.331002,349.836333 C189.743666,327.577091 188.296067,312.575144 198.463035,303.865426 L317.021362,226.544359 L233.32121,226.56366 Z"/><path fill="#30242A" fill-rule="nonzero" d="M90.3660208,391.097719 C91.6254316,388.477565 98.6221582,372.515378 102.646482,374.445509 C107.881964,376.95468 94.2938384,392.979597 94.2938384,392.979597 L90.3660208,391.097719 Z"/><path fill="#30242A" fill-rule="nonzero" d="M72.6618897,400.893136 L136.264548,431.065917 C137.794741,431.79607 139.628417,431.186631 140.417113,429.685773 C141.20581,428.184916 140.667631,426.329074 139.198348,425.483011 L137.861731,424.710959 L137.996841,424.546898 L94.2793624,403.908967 C94.9344033,402.094052 95.3938045,400.214389 95.6497557,398.301935 C102.192901,399.435887 115.433604,400.656695 115.501158,395.199248 C115.573538,390.113352 101.112028,392.154466 95.8282929,393.592414 C95.7143912,391.63755 95.3345179,389.707339 94.699166,387.855098 C80.1218479,388.858766 75.1614099,393.973615 72.6618897,400.893136 Z"/><path fill="#FFB7D5" fill-rule="nonzero" d="M178.162877,245.334189 C175.118095,246.854167 172.420736,248.316242 170.003246,249.783142 L166.292568,261.667926 L180.575541,251.607116 L193.743863,262.107031 L188.889583,247.713076 L203.804674,240.88041 L192.276964,239.432812 C187.470738,241.147719 182.759357,243.117641 178.162877,245.334189 L178.162877,245.334189 Z"/><polygon fill="#FFB7D5" fill-rule="nonzero" points="220.245 239.148 219.28 245.436 225.572 243.018"/><polygon fill="#FFB7D5" fill-rule="nonzero" points="183.953 270.6 174.761 282.697 161.694 276.409 169.434 289.471 157.337 299.634 172.821 297.699 178.148 315.605 183.471 297.699 200.408 292.859 183.953 286.084"/><path fill="#FFB7D5" fill-rule="nonzero" d="M132.274001,362.966052 L133.403128,359.742733 L148.84418,358.922427 L136.298325,350.381595 L141.886056,337.000959 L129.24852,345.425982 L126.835855,342.820305 C124.905724,349.175263 123.197557,354.835373 121.527994,359.810287 L121.605199,359.810287 C121.788561,359.265025 121.971924,358.714938 122.155286,358.1552 L132.274001,362.966052 Z"/><path fill="#EAA58B" fill-rule="nonzero" d="M132.274001,362.966052 L122.14081,358.174501 C121.957448,358.734239 121.774085,359.284327 121.590723,359.829589 C115.467381,378.069331 109.889301,387.189203 96.6244721,387.748941 C95.9730528,387.748941 95.34576,387.81167 94.7281179,387.855098 C95.3634699,389.707339 95.7433432,391.63755 95.8572449,393.592414 C101.165106,392.144815 115.60249,390.113352 115.53011,395.199248 C115.452905,400.656695 102.221853,399.435887 95.6787077,398.301935 C95.4180666,400.214928 94.9538093,402.094603 94.2938384,403.908967 L138.011317,424.546898 C143.956122,417.308905 155.261867,402.12842 166.543485,379.14538 L132.274001,362.966052 Z"/><path fill="#FFB7D5" fill-rule="nonzero" d="M170.886281 326.250126 169.438683 339.317116 155.88916 338.834583 167.503726 347.549127 163.16093 363.033607 174.785147 352.866639 185.231984 359.834414C185.521503 358.911168 185.786896 357.976662 186.028163 357.030898L182.02314 347.056944 188.228513 340.258055C188.329845 338.993819 188.426351 337.748884 188.518032 336.537727L177.680344 338.347225 170.886281 326.250126ZM140.70385 299.088351C139.483042 302.861758 138.170552 306.958462 136.722954 311.41224L149.596931 312.198769 140.70385 299.088351Z"/><path fill="#30242A" fill-rule="nonzero" d="M186.163272,416.971132 C186.365936,414.075934 186.998054,396.656498 191.447007,396.970144 C197.237401,397.375472 190.506068,417.275127 190.506068,417.275127 L186.163272,416.971132 Z"/><path fill="#FF7235" fill-rule="nonzero" d="M293.328998,227.272983 C293.328998,227.272983 244.935776,236.248095 218.319263,247.375303 C191.447007,258.613493 191.707575,278.571053 196.542554,332.783621 C200.88535,381.316778 208.644479,404.883683 192.682291,412.140977 C178.042244,418.799931 172.956347,427.14775 173.651195,434.78142 L245.717479,434.78142 C246.537803,434.78142 247.324529,434.455547 247.904586,433.875491 C248.484642,433.295434 248.810515,432.508708 248.810515,431.688384 L248.810515,431.688384 C248.810515,429.980148 247.425716,428.595348 245.717479,428.595348 L244.501496,428.595348 C246.774226,421.159517 250.069926,406.644928 250.523507,382.624442 L259.460015,382.624442 C259.460015,382.624442 264.053728,361.392995 258.977483,342.458405 C253.669621,322.621479 248.81534,319.234098 245.915318,305.684575 L289.280547,305.684575 C322.396778,305.684575 347.184492,275.053388 339.980276,242.733336 C337.731673,232.633923 334.469751,227.292284 334.469751,227.292284 L293.328998,227.272983 Z"/><polygon fill="#FFB7D5" fill-rule="nonzero" points="263.325 255.598 254.442 266.773 240.607 262.02 248.806 275.439 238.161 289.959 252.193 284.149 260.015 298.567 260.903 282.697 274.452 279.797 262.843 272.535"/><path fill="#FFB7D5" fill-rule="nonzero" d="M243.994837 341.86489 252.197896 355.284129 241.553221 369.803543 255.585276 364.013149 260.786981 373.601077C261.549383 366.150769 261.925758 355.129719 259.493793 344.547773L257.83388 346.63714 243.994837 341.86489ZM207.814522 382.60514 207.192055 375.125881 222.903325 369.065268 208.031662 365.981883 209.672274 349.657796 200.021616 362.285681 199.732096 362.165048C200.65856 369.957954 201.469215 376.766493 201.922796 382.658219L201.922796 382.60514 207.814522 382.60514Z"/><path fill="#EAA58B" fill-rule="nonzero" d="M245.717479,428.576047 L244.501496,428.576047 C246.774226,421.140216 250.069926,406.625627 250.523507,382.60514 L201.90832,382.60514 L201.90832,382.648568 C201.946922,383.131101 201.9807,383.613634 202.014477,384.096167 C202.014477,384.139595 202.014477,384.187848 202.014477,384.231276 C203.022971,399.310428 201.377534,408.131129 192.66299,412.092724 C178.022942,418.751678 172.937046,427.099497 173.631893,434.733167 L245.717479,434.733167 C247.425716,434.733167 248.810515,433.348367 248.810515,431.640131 C248.810515,429.931894 247.425716,428.547095 245.717479,428.547095 L245.717479,428.576047 Z"/><polygon fill="#FFB7D5" fill-rule="nonzero" points="310.242 228.523 288.011 230.491 290.328 239.428 276.107 247.013 293.821 249.383 299.814 262.657 305.976 248.91 323.994 246.063 308.345 238.005"/><path fill="#FFB7D5" fill-rule="nonzero" d="M204.287207 291.406427 209.595068 274.469523 225.079548 276.882188 212.982449 266.237513 221.668041 256.07537 205.701028 261.865765 203.148429 257.489192C199.042074 262.140809 196.561855 267.916727 195.23489 275.342908L197.956375 275.429764 204.287207 291.406427ZM245.717479 238.274733C242.450732 239.181894 239.19846 240.132484 236.023394 241.112026L248.81534 249.797618 245.717479 238.274733Z"/><polygon fill="#FFB7D5" fill-rule="nonzero" points="224.611 316.571 217.837 302.538 214.449 318.023 201.87 317.058 213.479 327.22 206.222 344.157 218.821 332.412 229.263 344.451 226.064 326.25 236.709 312.218"/><path fill="#30242A" fill-rule="nonzero" d="M195.886309,422.915937 C202.284695,421.149866 214.772646,416.604407 212.514392,411.639143 C210.410549,407.006828 198.202467,415.016873 194.038209,418.582791 C192.987069,416.654208 191.644264,414.899609 190.057312,413.381087 C177.424602,419.81325 172.990125,427.601331 173.651195,434.762119 L245.717479,434.762119 C247.425716,434.762119 248.810515,433.377319 248.810515,431.669083 L248.810515,431.669083 C248.810515,429.960846 247.425716,428.576047 245.717479,428.576047 L197.029912,428.576047 C196.848939,426.654359 196.465614,424.757143 195.886309,422.915937 L195.886309,422.915937 Z"/><path fill="#A15842" fill-rule="nonzero" d="M233.271935 305.612289 245.730934 305.786001C246.263873 305.793431 246.689882 306.231488 246.682547 306.764427 246.675358 307.273142 246.275898 307.684426 245.776079 307.714302L245.704025 307.715945 233.245026 307.542233C232.712087 307.534802 232.286078 307.096746 232.293413 306.563807 232.300601 306.055092 232.700062 305.643807 233.199881 305.613932L233.271935 305.612289ZM255.917262 235.922819C256.048937 236.439289 255.737 236.964714 255.22053 237.09639L254.582634 237.259443 253.314983 237.585998 252.05832 237.913136 250.812806 238.240836 248.965789 238.733403 247.748847 239.062429 246.543612 239.391952 245.350246 239.721953 243.5828 240.217809 241.842957 240.714633 240.698663 241.046356C240.508999 241.101675 240.319862 241.157011 240.131257 241.212362L239.006025 241.544651 237.8937 241.877295C237.709397 241.932764 237.525639 241.988247 237.342428 242.043744L236.249765 242.376884C236.068759 242.432433 235.888308 242.487995 235.708414 242.54357L234.635772 242.877162C234.280474 242.988407 233.927434 243.099699 233.576678 243.211033L232.531291 243.545164C232.358211 243.600873 232.185709 243.656591 232.013788 243.71232L230.989261 244.046803C230.819678 244.102569 230.650683 244.158343 230.482278 244.214126L229.478973 244.54892 228.490014 244.883897 227.515562 245.219038C227.354371 245.274908 227.193791 245.330783 227.033826 245.386665L226.081434 245.722017 225.143949 246.057485 224.221531 246.393052 223.314339 246.728697 222.422534 247.064402C222.127847 247.176311 221.835752 247.288227 221.546274 247.400147L220.685721 247.735914C220.401506 247.847838 220.119935 247.959762 219.841035 248.071684L219.012374 248.407437C218.738843 248.51935 218.468009 248.631257 218.199899 248.743155 207.226517 253.339149 200.995261 259.337407 197.692361 268.505009 197.378521 269.376112 197.0893 270.277463 196.824087 271.213746L196.667835 271.779746C196.33551 273.015322 196.043548 274.311518 195.790603 275.678621L195.676625 276.314665C195.528335 277.169535 195.394742 278.051859 195.275531 278.964032L195.188815 279.653797 195.107463 280.35498 195.031446 281.067807 194.960734 281.792502 194.895298 282.52929C194.874362 282.776926 194.8543 283.026616 194.835108 283.278396L194.780135 284.040045C194.762677 284.296043 194.746083 284.554169 194.73035 284.814461L194.685722 285.60187C194.678712 285.7342 194.671916 285.86708 194.665333 286.000516L194.628388 286.807835 194.596526 287.628708 194.56972 288.46336C194.561623 288.743899 194.554365 289.026772 194.547939 289.312016L194.531154 290.174902 194.519335 291.05224 194.512454 291.944257C194.511717 292.094162 194.511185 292.244689 194.510856 292.39584L194.511325 293.310297 194.516658 294.239993 194.526825 295.185155 194.541797 296.146007 194.561543 297.122774 194.586036 298.115681 194.615245 299.124952 194.64914 300.150812 194.687693 301.193487 194.730874 302.2532 194.778654 303.330177 194.831002 304.424643 194.887891 305.536822 194.949289 306.666939 195.015168 307.815219C195.02652 308.008125 195.038057 308.201797 195.049779 308.396241 195.081852 308.928266 194.67656 309.385558 194.144535 309.417631 193.61251 309.449704 193.155218 309.044412 193.123145 308.512387L193.054182 307.340267 192.989754 306.186499 192.929893 305.050853 192.874631 303.933096 192.824003 302.832997 192.778042 301.750324 192.736779 300.684847 192.700249 299.636333 192.668484 298.604552 192.641517 297.589271 192.619382 296.590258C192.616097 296.425099 192.613015 296.260608 192.610136 296.096781L192.59531 295.121738C192.591185 294.799352 192.587879 294.479581 192.585397 294.162386L192.579814 293.218492C192.579814 293.062452 192.579814 292.907046 192.579814 292.75227L192.58233 291.83113C192.584005 291.526577 192.586519 291.224503 192.589876 290.924871L192.602484 290.03326C192.605009 289.885866 192.607747 289.739073 192.610697 289.592875L192.630961 288.722803C192.634766 288.57897 192.638785 288.435723 192.64302 288.293057L192.671014 287.444003C192.681209 287.163284 192.69227 286.884853 192.704202 286.608671L192.742617 285.786829 192.786293 284.978248 192.835263 284.182694 192.889559 283.399937 192.949215 282.629744C192.959606 282.502413 192.970222 282.375596 192.981063 282.249288L193.048821 281.497509 193.12202 280.757716C193.185296 280.146152 193.254275 279.546833 193.329044 278.959155L193.421551 278.25949C193.564496 277.21826 193.726309 276.213968 193.907493 275.243096L194.031157 274.600762C194.09443 274.282031 194.159867 273.966928 194.227487 273.65532L194.365644 273.036729C194.506723 272.422723 194.656584 271.822355 194.815376 271.234585L194.97715 270.650974C195.251754 269.685159 195.551304 268.753371 195.876486 267.850787 199.374195 258.142471 206.007632 251.75707 217.455375 246.962399 217.86792 246.79022 218.286727 246.618055 218.711703 246.445916L219.569857 246.101673C219.714244 246.044305 219.859311 245.986942 220.005053 245.929582L220.887581 245.585471 221.786155 245.241471C221.937246 245.184148 222.088998 245.12683 222.241409 245.069518L223.163748 244.725716C223.318779 244.668428 223.474461 244.611146 223.630792 244.553872L224.576529 244.210308 225.53766 243.866925C225.699123 243.80971 225.86122 243.752504 226.023948 243.695306L227.007867 243.352227 228.006773 243.009372C228.174497 242.952249 228.342839 242.895137 228.511796 242.838034L229.532878 242.495549C229.704278 242.43849 229.876286 242.381442 230.048898 242.324406L231.09179 241.98233 232.149019 241.640549 233.220422 241.29908 234.305835 240.957942 235.405096 240.61715 236.518042 240.276724 237.64451 239.936681 238.784338 239.597037C238.975413 239.540464 239.167039 239.483909 239.359211 239.427371L240.518772 239.088361 241.691285 238.749795 242.876587 238.411691C243.075194 238.35538 243.274328 238.299088 243.473983 238.242817L244.678164 237.905439 245.894728 237.568566 247.12351 237.232216 248.364349 236.896407 249.617082 236.561156 251.518125 236.059365 253.445012 235.558929 254.743691 235.226087C255.26016 235.094412 255.785586 235.406349 255.917262 235.922819Z"/><rect width="11.851" height="201.424" x="406.941" y="233.338" fill="#FFBE21" fill-rule="nonzero"/><polygon fill="#A15842" fill-rule="nonzero" points="418.792 235.143 418.792 237.073 406.941 237.073 406.941 235.143"/><path fill="#A15842" fill-rule="nonzero" d="M246.870733,81.8761779 C240.115273,80.9111121 224.640443,88.1732319 224.128958,102.528585 C223.617474,116.883938 236.433547,121.496952 238.484311,122.524747 L268.222812,117.906908 L270.273577,85.0946722 L246.870733,81.8761779 Z"/><circle cx="299.409" cy="23.113" r="23.113" fill="#A15842" fill-rule="nonzero"/><path fill="#30242A" fill-rule="nonzero" d="M284.416616,39.0079575 C285.825612,39.6593768 273.960128,11.5035837 267.904341,15.8946328 C262.205627,20.0395902 277.260653,35.7074326 284.416616,39.0079575 Z"/><path fill="#30242A" fill-rule="nonzero" d="M285.07286,40.7305998 C286.366048,42.274705 316.640161,31.6831084 312.451776,25.5742423 C308.446753,19.6969919 283.779672,39.1816693 285.07286,40.7305998 Z"/><path fill="#EAA58B" fill-rule="nonzero" d="M325.263023,118.167475 C325.263023,118.167475 345.587308,101.230571 332.501016,82.3587108 C324.172499,70.3291662 301.527231,75.1207177 301.527231,75.1207177 C302.077319,68.5148426 303.872341,49.4837461 289.560416,39.0272588 C275.248491,28.5707714 257.090779,34.0764715 250.475253,42.3277836 C243.859728,50.5790957 245.524466,65.996021 243.324116,77.0025959 C241.123766,88.0091707 242.590666,95.4932556 249.375078,99.0157455 C255.546674,102.219764 262.808794,100.284807 262.808794,100.284807 L262.036741,111.899373 C262.036741,111.899373 248.043288,112.425334 239.468679,115.52802 C218.806621,123.00728 182.505673,174.300524 182.505673,174.300524 C159.763899,173.335459 138.469723,172.370393 138.469723,172.370393 L149.601756,205.279135 C149.601756,205.279135 177.665868,214.471386 197.990153,209.139398 C218.608782,203.739855 238.156189,174.783057 238.156189,174.783057 L244.911649,194.137451 L233.297083,226.558835 L334.435973,226.558835 L317.499069,196.55494 C320.428044,169.948078 325.263023,118.167475 325.263023,118.167475 Z"/><path fill="#4756DF" fill-rule="nonzero" d="M292.764434,110.693041 L266.225126,158.816044 L255.368137,112.381906 C250.595887,112.864439 244.236103,113.800553 239.516932,115.508719 C218.806621,123.00728 182.505673,174.300524 182.505673,174.300524 C159.763899,173.335459 138.469723,172.370393 138.469723,172.370393 L149.601756,205.279135 C149.601756,205.279135 177.665868,214.471386 197.990153,209.139398 C218.608782,203.739855 238.156189,174.783057 238.156189,174.783057 L244.911649,194.137451 L233.297083,226.558835 L334.435973,226.558835 L317.499069,196.559766 C320.394267,169.943253 325.219595,118.16265 325.219595,118.16265 C320.739001,115.434919 315.832806,113.47766 310.705007,112.372255 C304.929088,111.069417 298.578955,111.846295 292.764434,110.693041 Z"/><path fill="#30242A" fill-rule="nonzero" d="M155.324596,223.176279 L239.130906,223.176279 L220.075682,162.994779 C218.926183,159.355055 215.549617,156.881086 211.732689,156.881086 L140.906514,156.881086 C138.115227,156.879363 135.490677,158.209727 133.841954,160.462059 C132.193232,162.714391 131.718282,165.618278 132.563521,168.278514 L148.313393,218.046955 C149.282929,221.101944 152.119451,223.177114 155.324596,223.176279 Z"/><path fill="#30242A" fill-rule="nonzero" d="M287.794346,216.401518 C288.286328,217.980365 287.999,219.699043 287.020222,221.032009 C286.041445,222.364975 284.487629,223.15369 282.833908,223.156978 L155.324596,223.156978 C152.119451,223.157813 149.282929,221.082643 148.313393,218.027653 L147.792258,216.382216 L287.794346,216.401518 Z"/><rect width="373.582" height="12.097" x="65.631" y="223.176" fill="#FFBE21" fill-rule="nonzero"/><path fill="#FFB7D5" fill-rule="nonzero" d="M364.657007,289.466645 L372.416136,259.120153 L327.154552,259.120153 C306.412134,259.121171 288.307272,273.178456 283.166856,293.27383 L277.907247,313.82973 L333.277894,313.82973 C348.074333,313.828635 360.989307,303.801308 364.657007,289.466645 Z"/><path fill="#A15842" fill-rule="nonzero" d="M278.039334,305.650557 C278.162055,305.131886 278.682006,304.810906 279.200676,304.933627 C279.695771,305.05077 280.010739,305.529851 279.931614,306.024271 L279.917606,306.094969 L278.127409,313.661085 C278.004688,314.179755 277.484737,314.500735 276.966067,314.378014 C276.470972,314.260871 276.156005,313.78179 276.23513,313.28737 L276.249137,313.216672 L278.039334,305.650557 Z"/><path fill="#EAA58A" fill-rule="nonzero" d="M134.435748,174.112337 C128.804589,176.925503 125.991423,181.615723 125.991423,184.901772 C125.991423,189.698148 130.874655,190.600485 130.874655,190.600485 C130.874655,190.600485 127.231532,196.32815 133.567189,199.015858 C133.567189,199.015858 133.567189,204.91241 139.468566,204.91241 C139.468566,204.91241 138.686863,209.510948 144.843982,209.945228 C151.001102,210.379507 157.336758,207.165838 157.87237,205.086122 C158.485186,202.630029 156.830099,200.574439 152.361844,199.92302 C152.361844,199.92302 158.393505,197.105028 157.43809,193.548761 C156.482675,189.992493 152.405272,190.074524 152.405272,190.074524 C152.405272,190.074524 156.308963,187.73424 154.224421,184.28413 C152.139879,180.834019 148.154158,182.030701 148.154158,182.030701 C148.154158,182.030701 149.196429,179.618037 147.372454,177.779586 C145.201056,175.608188 135.864045,178.348975 135.864045,178.348975 L134.435748,174.112337 Z"/><path fill="#A15842" fill-rule="nonzero" d="M153.783397 198.965655C154.261501 198.730079 154.840053 198.926686 155.075629 199.40479 155.311205 199.882894 155.114598 200.461446 154.636494 200.697022 149.885147 203.038154 144.887839 204.842829 139.73698 206.077674 139.218675 206.20193 138.697776 205.882491 138.57352 205.364186 138.449264 204.845881 138.768703 204.324983 139.287008 204.200726 144.298504 202.999291 149.160604 201.243445 153.783397 198.965655ZM153.008723 189.420034C153.460796 189.137706 154.056146 189.275311 154.338474 189.727385 154.620803 190.179458 154.483197 190.774808 154.031124 191.057136 147.755697 194.976257 140.94321 197.961042 133.807923 199.917615 133.293907 200.058564 132.762953 199.756133 132.622004 199.242117 132.481055 198.7281 132.783486 198.197146 133.297502 198.056197 140.252149 196.149157 146.892168 193.239937 153.008723 189.420034ZM148.094727 181.652357C148.530201 181.345044 149.13235 181.44894 149.439663 181.884414 149.746976 182.319889 149.643081 182.922037 149.207606 183.22935 143.558929 187.215605 137.295444 190.249688 130.665915 192.211095 130.154823 192.362306 129.61792 192.070565 129.466709 191.559473 129.315498 191.048382 129.607239 190.511479 130.118331 190.360268 136.54574 188.45866 142.618266 185.51708 148.094727 181.652357ZM332.525143 82.3587108C324.196626 70.3291662 301.551358 75.1207177 301.551358 75.1207177 302.101445 68.5148426 303.896468 49.4837461 289.584543 39.0272588 275.272618 28.5707714 257.114906 34.0764715 250.49938 42.3277836 247.806847 45.7055137 246.489532 50.2509734 245.722305 55.2114113 250.113354 55.9496866 256.555168 54.4393587 256.555168 54.4393587 265.361392 64.3457586 273.250805 65.9188158 273.250805 65.9188158 279.41275 59.756871 290.221486 59.9595348 291.977906 69.2965459 293.80188 78.9906313 278.3174 83.3479032 278.3174 83.3479032 278.3174 83.3479032 276.869802 100.76734 284.590327 107.059569 286.959863 108.937759 289.76154 110.193455 292.740308 110.712342 298.530702 111.865596 304.904961 111.088718 310.724308 112.381906 315.852107 113.487311 320.758302 115.44457 325.238897 118.172301 327.006803 116.614583 328.622524 114.892226 330.064225 113.0285 335.140471 106.591512 341.210735 94.9045655 332.525143 82.3587108Z"/><path fill="#EAA58B" fill-rule="nonzero" d="M265.124773,50.1658341 C265.534229,49.8246215 266.142765,49.879943 266.483978,50.2893981 C266.82519,50.6988532 266.769869,51.3073896 266.360413,51.6486021 C263.501537,54.030999 260.106988,55.6036695 255.812873,56.6692068 C255.29557,56.7975699 254.772154,56.4822717 254.643791,55.9649687 C254.515428,55.4476656 254.830726,54.9242499 255.348029,54.7958868 C259.377441,53.7960327 262.510193,52.3446509 265.124773,50.1658341 Z"/><path fill="#A15842" fill-rule="nonzero" d="M268.641267 97.6375398C269.103954 97.3729642 269.693517 97.5335653 269.958093 97.9962523 270.222668 98.4589393 270.062067 99.0485021 269.59938 99.3130777 267.487895 100.520475 265.262273 101.51628 262.954949 102.285977 262.449348 102.45464 261.902749 102.181498 261.734086 101.675897 261.565423 101.170296 261.838566 100.623697 262.344167 100.455034 264.530877 99.7255718 266.640158 98.781822 268.641267 97.6375398ZM282.800132 70.0464036C283.252107 69.7639189 283.847505 69.9013184 284.129989 70.3532939 284.39835 70.7826707 284.287765 71.3414859 283.888523 71.6384893L283.823099 71.6831518 279.422399 74.4335892C278.970424 74.7160739 278.375026 74.5786745 278.092541 74.1266989 277.824181 73.6973222 277.934766 73.1385069 278.334008 72.8415035L278.399432 72.796841 282.800132 70.0464036ZM258.507054 84.4713463C258.752704 83.9983393 259.335291 83.8140301 259.808298 84.0596801 260.281305 84.3053302 260.465614 84.8879167 260.219964 85.3609237 258.812925 88.0702225 255.086254 88.5505752 253.152004 87.3531819 252.69882 87.0726396 252.558866 86.4778371 252.839409 86.0246533 253.105924 85.5941287 253.656059 85.4462945 254.098954 85.6731173L254.167937 85.7120583C254.495603 85.914899 255.398234 86.0674321 256.220084 85.961499 257.211253 85.8337413 257.982533 85.3883387 258.445799 84.5833502L258.507054 84.4713463Z"/><circle cx="262.625" cy="72.501" r="1.65" fill="#30242A" fill-rule="nonzero"/><circle cx="248.946" cy="70.315" r="1.65" fill="#30242A" fill-rule="nonzero"/><path fill="#A15842" fill-rule="nonzero" d="M252.672275,76.3979283 C252.833002,75.8897487 253.375257,75.6080824 253.883437,75.768809 C254.391616,75.9295356 254.673283,76.4717911 254.512556,76.9799707 C254.336731,77.5358888 254.206691,78.0152289 254.134034,78.3913601 L254.102478,78.5716608 C254.089526,78.6554459 254.080808,78.7293891 254.076309,78.7921683 L254.072376,78.869033 L254.075642,78.8735753 C254.221735,79.1057062 254.41859,79.3017208 254.651345,79.4468179 L254.753251,79.5058418 C255.222891,79.75787 255.3993,80.3428973 255.147271,80.8125368 C254.895243,81.2821763 254.310216,81.4585851 253.840576,81.2065569 C253.196553,80.8609468 252.667756,80.3344105 252.304606,79.6634883 C252.061387,79.1770503 252.090411,78.5452629 252.32248,77.6091144 L252.39425,77.3332241 C252.407113,77.2858163 252.420421,77.2376839 252.434167,77.1888099 L252.52184,76.8865285 L252.619667,76.5656228 C252.636797,76.5105407 252.654336,76.4546483 252.672275,76.3979283 Z"/><circle cx="280.981" cy="84.004" r="5.781" fill="#F5EBDD" fill-rule="nonzero"/><path fill="#30242A" fill-rule="nonzero" d="M244.792841,60.111232 C239.044505,60.111232 234.346004,64.3410779 234.346004,69.6123043 C234.346004,74.8835306 239.044505,79.1133765 244.792841,79.1133765 C250.541177,79.1133765 255.239678,74.8835306 255.239678,69.6123043 C255.239678,64.3410779 250.541177,60.111232 244.792841,60.111232 Z M244.792841,62.0413635 C249.51778,62.0413635 253.309546,65.4549182 253.309546,69.6123043 C253.309546,73.7696904 249.51778,77.183245 244.792841,77.183245 C240.067902,77.183245 236.276136,73.7696904 236.276136,69.6123043 C236.276136,65.4549182 240.067902,62.0413635 244.792841,62.0413635 Z" transform="rotate(-78.99 244.793 69.612)"/><path fill="#30242A" fill-rule="nonzero" d="M265.75889,62.6820087 C260.010553,62.6820087 255.312053,66.9118546 255.312053,72.183081 C255.312053,77.4543073 260.010553,81.6841532 265.75889,81.6841532 C271.507226,81.6841532 276.205726,77.4543073 276.205726,72.183081 C276.205726,66.9118546 271.507226,62.6820087 265.75889,62.6820087 Z M265.75889,64.6121402 C270.483828,64.6121402 274.275595,68.0256949 274.275595,72.183081 C274.275595,76.3404671 270.483828,79.7540217 265.75889,79.7540217 C261.033951,79.7540217 257.242184,76.3404671 257.242184,72.183081 C257.242184,68.0256949 261.033951,64.6121402 265.75889,64.6121402 Z" transform="rotate(-78.99 265.759 72.183)"/><path fill="#30242A" fill-rule="nonzero" d="M253.671052 69.5046965 257.005354 69.8617708C257.535314 69.9185249 257.918924 70.3941514 257.86217 70.9241122 257.807996 71.4299839 257.372163 71.8025069 256.871725 71.785966L256.799829 71.7809287 253.465527 71.4238544C252.935566 71.3671003 252.551956 70.8914738 252.60871 70.361513 252.662885 69.8556413 253.098717 69.4831184 253.599155 69.4996592L253.671052 69.5046965ZM301.702748 75.6094045C301.784628 75.0827403 302.277951 74.7221713 302.804615 74.8040511 303.30734 74.8822092 303.658726 75.335256 303.618417 75.8343419L303.609968 75.9059176 302.649728 82.0823384C302.567848 82.6090026 302.074526 82.9695716 301.547861 82.8876918 301.045136 82.8095337 300.69375 82.3564869 300.734059 81.857401L300.742508 81.7858253 301.702748 75.6094045ZM232.525053 161.290741C233.005112 161.12578 233.525964 161.361197 233.724105 161.819419L233.751361 161.889802 238.422279 175.482753C238.595489 175.986814 238.32728 176.535851 237.823219 176.70906 237.34316 176.874022 236.822308 176.638604 236.624167 176.180382L236.596911 176.11 231.925993 162.517049C231.752783 162.012988 232.020992 161.463951 232.525053 161.290741ZM257.515408 192.207319C258.048399 192.207319 258.480474 192.639394 258.480474 193.172385 258.480474 193.681149 258.086786 194.097963 257.587432 194.134804L257.515408 194.137451 245.234946 194.137451C244.701955 194.137451 244.269881 193.705376 244.269881 193.172385 244.269881 192.663621 244.663568 192.246807 245.162922 192.209966L245.234946 192.207319 257.515408 192.207319ZM267.001153 157.388118C267.499546 157.285917 267.986948 157.587849 268.123349 158.069623L268.140411 158.139647 272.010324 177.011507C272.019045 177.054036 272.024882 177.09708 272.027803 177.140345L272.029997 177.205372 272.029997 194.624809C272.029997 195.1578 271.597922 195.589875 271.064931 195.589875 270.556167 195.589875 270.139353 195.196187 270.102512 194.696833L270.099865 194.624809 270.099706 177.302361 266.249624 158.527376C266.147422 158.028983 266.449354 157.541581 266.931129 157.40518L267.001153 157.388118Z"/><path fill="#30242A" fill-rule="nonzero" d="M241.066595 114.206216C241.530882 114.001019 242.069871 114.19128 242.30627 114.630987L242.339414 114.698796 249.688389 131.326879C249.979503 131.985565 249.473644 132.709792 248.770371 132.681556L248.699408 132.676194 242.047175 131.938481 271.867914 176.67005C272.148782 177.091352 272.054673 177.653177 271.664336 177.961789L271.600253 178.008356C271.178952 178.289223 270.617127 178.195115 270.308514 177.804777L270.261948 177.740694 239.292988 131.287255C238.851996 130.625766 239.355025 129.756951 240.128927 129.787231L240.202253 129.792737 247.245019 130.572913 240.574014 115.479035C240.368817 115.014748 240.559078 114.475759 240.998786 114.239359L241.066595 114.206216ZM312.271776 112.553376C312.579484 112.11818 313.181726 112.014831 313.616922 112.322539 314.030358 112.614862 314.144302 113.173002 313.890842 113.601211L313.847758 113.667686 302.569825 129.617498 312.120549 128.820323C313.021233 128.74511 313.509544 129.829176 312.893342 130.454614L312.840946 130.504288 270.252595 168.248009C269.853709 168.60152 269.243771 168.564736 268.890261 168.16585 268.555356 167.787959 268.570743 167.220646 268.912451 166.861397L268.97242 166.803516 309.387532 130.985479 300.666602 131.713651C299.874173 131.779824 299.356933 130.919054 299.757992 130.256297L299.798301 130.194778 312.271776 112.553376ZM309.704112 158.518709C310.115818 158.223954 310.680467 158.299284 311.001919 158.679118L311.050596 158.741613 320.329703 171.702446C320.63997 172.135821 320.540173 172.738662 320.106798 173.04893 319.695092 173.343684 319.130443 173.268354 318.808992 172.88852L318.760315 172.826025 309.481208 159.865192C309.17094 159.431818 309.270738 158.828977 309.704112 158.518709ZM309.866917 211.336915C310.140307 210.879381 310.732838 210.730103 311.190372 211.003492 312.063836 211.525412 313.041916 212.055232 314.108863 212.589394L314.699552 212.881165C314.799437 212.929858 314.900034 212.978581 315.001329 213.027333L315.617393 213.320154C315.929523 213.466711 316.247731 213.61347 316.571697 213.76036L317.227212 214.054293C317.337712 214.103303 317.448828 214.152323 317.560549 214.201349L318.23803 214.495563C318.35212 214.544605 318.466791 214.593647 318.582031 214.642688L319.280201 214.936895 319.991452 215.230937 320.715218 215.524685 321.45093 215.818011C321.574513 215.866856 321.698569 215.915679 321.823088 215.964476L322.575655 216.256929 323.338748 216.548639C323.466776 216.597189 323.595218 216.645702 323.724064 216.694176L324.501881 216.984532 325.288805 217.273825 326.084267 217.561926 326.887699 217.848707 327.698533 218.13404 328.516202 218.417797 329.340137 218.699848 330.586546 219.119448C331.092186 219.287995 331.365454 219.834531 331.196907 220.340171 331.02836 220.84581 330.481824 221.119078 329.976185 220.950532L329.130348 220.66673 328.290145 220.381048 327.45612 220.093597 326.628815 219.80449 325.808772 219.513839 324.996535 219.221756 324.192645 218.928353 323.397646 218.633742 322.61208 218.338034 321.836489 218.041343C321.708086 217.991819 321.58012 217.942258 321.452605 217.892664L320.692995 217.594706 319.944718 217.296045 319.208317 216.996793C319.086603 216.946874 318.965406 216.896936 318.844738 216.846979L318.127167 216.547049 317.422827 216.246807C317.306569 216.196747 317.190886 216.146678 317.075788 216.096604L316.392313 215.796104 315.723426 215.495573C313.628955 214.543958 311.762079 213.593554 310.20034 212.66037 309.742806 212.38698 309.593527 211.794449 309.866917 211.336915Z"/><circle cx="190.926" cy="90.475" r="9.491" fill="#FFB7D5" fill-rule="nonzero"/><path fill="#4756DF" fill-rule="nonzero" d="M153.628156,48.4702915 L162.130385,48.4702915 C163.505503,48.4702915 164.620255,49.5850441 164.620255,50.9601611 C164.620255,52.3352782 163.505503,53.4500308 162.130385,53.4500308 L153.628156,53.4500308 C152.253039,53.4500308 151.138287,52.3352782 151.138287,50.9601611 C151.138287,49.5850441 152.253039,48.4702915 153.628156,48.4702915 Z" transform="rotate(50.33 157.88 50.96)"/><path fill="#3EC1F3" fill-rule="nonzero" d="M172.497941,60.799142 L166.939162,54.0919351 L67.0210804,136.942829 C65.2065901,138.448711 64.9560144,141.140239 66.4613422,142.955189 L66.5723248,143.090298 C67.2946293,143.961353 68.3334424,144.509711 69.4601365,144.614689 C70.5868306,144.719666 71.7090675,144.372658 72.5798591,143.650036 L103.819037,117.738021 L103.819037,208.66169 L112.538406,208.66169 L112.538406,110.500028 L172.497941,60.799142 Z"/><path fill="#4756DF" fill-rule="nonzero" d="M157.140506,62.1154387 L159.923558,65.4917605 C160.90992,66.6837831 161.673516,68.0427526 162.178672,69.5035026 L162.270351,69.7785701 L160.432512,70.3682775 C160.032031,69.120166 159.411572,67.9545091 158.600165,66.9249251 L158.435347,66.7208384 L155.651132,63.3431083 L157.140506,62.1154387 Z"/><circle cx="108.176" cy="108.377" r="11.373" fill="#4756DF" fill-rule="nonzero"/><circle cx="108.176" cy="108.377" r="4.372" fill="#3EC1F3" fill-rule="nonzero"/><polygon fill="#A15842" fill-rule="nonzero" points="198.104 84.341 199.334 85.829 184.785 97.854 183.556 96.366"/><path fill="#3EC1F3" fill-rule="nonzero" d="M179.871043 59.5831592C176.811936 59.2237411 174.00891 57.6995311 172.04436 55.3272192L168.184097 50.6611263C165.34311 47.2407916 160.268645 46.7678946 156.844575 49.6043793L156.844575 49.6043793C155.201147 50.9671756 154.166502 52.9270869 153.968317 55.0528319 153.770131 57.1785769 154.424643 59.2959703 155.787828 60.9390765L159.648091 65.6196454C161.603901 67.9851848 162.576421 71.0115686 162.364751 74.0736213L161.399685 88.1828825C160.921402 95.0864143 162.673869 101.960956 166.398726 107.793018L167.63401 109.72315 213.923388 71.3280093 212.263475 69.7694281C207.225255 65.0292813 200.797234 62.0334853 193.927226 61.2237709L179.871043 59.5831592ZM112.538406 208.66169 103.819037 208.66169 90.9305842 212.17453C85.9699366 213.528026 82.5289639 218.034297 82.5296868 223.176279L133.822931 223.176279C133.822931 218.032928 130.379771 213.52621 125.417209 212.17453L112.538406 208.66169Z"/><path fill="#4756DF" fill-rule="nonzero" d="M204.526467 63.7562978C204.937296 63.4167404 205.545604 63.4745174 205.885161 63.8853462 206.207741 64.2756336 206.171726 64.8441461 205.815084 65.1911496L205.756113 65.2440405 163.394552 100.256626C162.983723 100.596183 162.375415 100.538406 162.035858 100.127577 161.713278 99.73729 161.749293 99.1687775 162.105935 98.821774L162.164906 98.768883 204.526467 63.7562978ZM112.538406 206.697781C113.071397 206.697781 113.503472 207.129856 113.503472 207.662847 113.503472 208.171611 113.109784 208.588425 112.61043 208.625266L112.538406 208.627913 103.606723 208.627913C103.073732 208.627913 102.641657 208.195838 102.641657 207.662847 102.641657 207.154083 103.035345 206.737269 103.534699 206.700429L103.606723 206.697781 112.538406 206.697781ZM131.839721 216.179552C132.372712 216.179552 132.804787 216.611627 132.804787 217.144618 132.804787 217.653382 132.411099 218.070196 131.911745 218.107037L131.839721 218.109684 84.2233773 218.109684C83.6903862 218.109684 83.2583115 217.677609 83.2583115 217.144618 83.2583115 216.635854 83.6519994 216.21904 84.1513533 216.182199L84.2233773 216.179552 131.839721 216.179552Z"/><path fill="#30242A" fill-rule="nonzero" d="M358.659123,347.66011 C359.624189,339.457051 359.141656,321.043596 348.496981,307.01154 C337.852306,292.979484 352.357244,298.808482 356.70004,302.668745 C363.648513,308.845165 369.76703,314.765844 375.089368,334.607595 L358.659123,347.66011 Z"/><path fill="#A15842" fill-rule="nonzero" d="M487.191405,434.762119 L544,434.762119 L544,432.904367 C543.997336,427.451088 539.575832,423.031744 534.122552,423.031744 L486.89706,423.031744 L487.191405,434.762119 Z"/><path fill="#A15842" fill-rule="nonzero" d="M348.612789,380.525424 L360.59408,434.762119 L382.858147,434.762119 L382.858147,431.384388 C382.858167,426.850045 379.189412,423.1705 374.655088,423.157203 L374.655088,423.157203 C374.655088,423.157203 385.782296,414.81421 392.557058,406.587024 C392.557058,406.587024 404.171624,420.739713 420.625995,418.317398 L421.817851,424.107793 C423.095702,430.302668 428.545078,434.75081 434.870365,434.762119 L488.832017,434.762119 C512.765647,434.762119 524.539449,431.109345 525.214995,417.482616 C525.257041,416.432328 524.868974,415.410311 524.140427,414.652623 C523.41188,413.894934 522.405861,413.467102 521.354732,413.467943 L506.290056,413.467943 C505.031776,413.46921 503.84088,412.899497 503.05226,411.919012 L496.639399,403.962045 C492.757584,399.153564 486.429679,397.048033 480.44077,398.572153 L467.542666,401.867853 C467.542666,401.867853 444.689909,369.026665 423.989249,346.217336 C404.205401,324.440628 366.992466,322.090693 352.333118,350.453975 C347.620099,359.735994 346.30392,370.374682 348.612789,380.525424 Z"/><path fill="#30242A" fill-rule="nonzero" d="M473.63176 422.066676C476.507011 422.065274 479.264981 423.206478 481.298587 425.239091 483.280049 427.219586 484.415567 429.888186 484.472495 432.683436L484.474745 432.904367 484.474745 434.762119 482.544613 434.762119 482.544613 432.904367C482.544613 430.541181 481.605544 428.274849 479.934111 426.604233 478.311839 424.982753 476.128714 424.051463 473.840525 423.999139L473.632231 423.996809 467.055308 423.996809 467.055308 422.066676 473.63176 422.066676ZM396.650443 349.326582C397.003924 348.92767 397.613859 348.890842 398.012771 349.244324L398.086175 349.310813 398.292367 349.506739 398.496379 349.708646C398.862268 350.076357 399.267804 350.513578 399.702962 351.019871 400.9388 352.45773 402.171907 354.166017 403.321527 356.141269 406.232273 361.142444 408.119665 366.980323 408.49838 373.623363 408.878483 380.291828 406.796441 387.425078 402.922635 394.700416 400.284783 399.654528 397.177345 404.043026 394.193402 407.593919 393.850506 408.001965 393.241747 408.05478 392.833701 407.711884 392.425654 407.368988 392.37284 406.760228 392.715736 406.352182 395.619598 402.896587 398.652411 398.613476 401.218958 393.793282 404.941064 386.802848 406.928271 379.994511 406.571377 373.733211 406.210798 367.408305 404.41748 361.861404 401.653362 357.112161 400.565298 355.242674 399.400885 353.629552 398.239202 352.277971 398.037216 352.042965 397.842808 351.824749 397.657223 351.623404L397.385619 351.334049C397.341507 351.287935 397.297984 351.242878 397.255072 351.19888L397.007024 350.949463 396.786353 350.737653 396.732701 350.68891C396.33379 350.335428 396.296961 349.725493 396.650443 349.326582ZM417.64504 396.90399C418.177258 396.875282 418.631977 397.283457 418.660685 397.815675L418.734024 399.061229 418.823042 400.450856 418.926644 401.960343C418.935885 402.09071 418.945279 402.222169 418.954824 402.354681 419.20021 405.761297 419.49487 409.167536 419.838636 412.344183L419.945317 413.307978C419.963271 413.466522 419.981311 413.624012 419.999438 413.780428L420.109239 414.705908C420.127712 414.857962 420.146272 415.008907 420.164918 415.158727L420.277828 416.043999C420.296819 416.189246 420.315896 416.333332 420.335059 416.47624L420.451068 417.319409C420.470574 417.457533 420.490167 417.594444 420.509845 417.730125 420.586347 418.257597 420.220762 418.747214 419.69329 418.823716 419.165818 418.900217 418.6762 418.534633 418.599699 418.007161 418.539761 417.593889 418.480644 417.16968 418.422347 416.734987L418.306844 415.851754 418.19352 414.941363 418.082369 414.004619 417.973387 413.042322C417.955404 412.879855 417.937511 412.716356 417.919708 412.551843 417.602049 409.616438 417.326377 406.491094 417.092445 403.350212L416.973911 401.706689 416.897125 400.578334 416.828575 399.517561 416.733356 397.919635C416.704648 397.387418 417.112823 396.932698 417.64504 396.90399ZM371.243581 428.84144C371.752345 428.84144 372.169159 429.235128 372.206 429.734482L372.208647 429.806506 372.208647 434.279586C372.208647 434.812577 371.776572 435.244651 371.243581 435.244651 370.734817 435.244651 370.318003 434.850964 370.281162 434.35161L370.278515 434.279586 370.278515 429.806506C370.278515 429.273515 370.71059 428.84144 371.243581 428.84144ZM376.565918 428.84144C377.074683 428.84144 377.491496 429.235128 377.528337 429.734482L377.530984 429.806506 377.530984 434.279586C377.530984 434.812577 377.098909 435.244651 376.565918 435.244651 376.057154 435.244651 375.640341 434.850964 375.6035 434.35161L375.600853 434.279586 375.600853 429.806506C375.600853 429.273515 376.032927 428.84144 376.565918 428.84144ZM472.865004 428.84144C473.373768 428.84144 473.790582 429.235128 473.827423 429.734482L473.83007 429.806506 473.83007 434.279586C473.83007 434.812577 473.397995 435.244651 472.865004 435.244651 472.35624 435.244651 471.939426 434.850964 471.902585 434.35161L471.899938 434.279586 471.899938 429.806506C471.899938 429.273515 472.332013 428.84144 472.865004 428.84144Z"/><path fill="#30242A" fill-rule="nonzero" d="M478.187341,428.84144 C478.696106,428.84144 479.112919,429.235128 479.14976,429.734482 L479.152407,429.806506 L479.152407,434.279586 C479.152407,434.812577 478.720333,435.244651 478.187341,435.244651 C477.678577,435.244651 477.261764,434.850964 477.224923,434.35161 L477.222276,434.279586 L477.222276,429.806506 C477.222276,429.273515 477.65435,428.84144 478.187341,428.84144 Z"/><circle cx="492.461" cy="414.563" r="2.176" fill="#30242A" fill-rule="nonzero"/><polygon fill="#30242A" fill-rule="nonzero" points="480.586 398.529 480.586 398.471 467.523 401.849 480.421 398.553"/><path fill="#30242A" fill-rule="nonzero" d="M448.43919,423.248884 C444.656132,425.179016 439.309668,428.957248 439.753598,434.680088 L460.763079,434.680088 L465.178255,427.717139 C466.644946,425.402583 469.19358,423.999014 471.933715,423.99681 L473.337886,423.99681 L480.537277,398.673485 L480.431119,398.562502 L467.533016,401.858202 L455.184999,417.67563 C453.367277,420.000702 451.065435,421.902439 448.43919,423.248884 L448.43919,423.248884 Z"/><path fill="#EAA58B" fill-rule="nonzero" d="M417.754924,358.039392 C417.754924,358.039392 411.911451,378.26717 430.783312,385.905665 C440.351939,389.765928 448.299255,386.836954 453.814606,383.010468 C445.481263,371.912212 434.455387,357.783649 423.984424,346.241463 C421.358919,343.352752 418.408821,340.776679 415.192675,338.564365 C412.33608,342.45358 409.209267,352.075285 417.754924,358.039392 Z"/><circle cx="369.55" cy="364.722" r="7.986" fill="#EAA58B" fill-rule="nonzero"/><path fill="#30242A" fill-rule="nonzero" d="M521.374034,413.467942 L518.478836,413.467942 C518.155965,415.102576 518.580742,416.795957 519.63692,418.084661 C520.693098,419.373366 522.270075,420.122444 523.936283,420.126897 C524.276346,420.126795 524.615634,420.094482 524.949602,420.03039 C525.096925,419.187812 525.192004,418.336931 525.234297,417.482616 C525.276342,416.432328 524.888275,415.410311 524.159728,414.652623 C523.431181,413.894934 522.425163,413.467102 521.374034,413.467942 Z"/><line x1="532.868" x2="532.868" y1="429.807" y2="434.169" stroke="#30242A" stroke-linecap="round" stroke-width="4"/><line x1="538.19" x2="538.19" y1="429.807" y2="434.169" stroke="#30242A" stroke-linecap="round" stroke-width="4"/><path stroke="#30242A" stroke-linecap="round" stroke-linejoin="round" stroke-width="4" d="M503.665077,434.183079 C515.496783,432.991223 522.551414,429.787205 525.113663,422.969015"/><path fill="#EAA58A" fill-rule="nonzero" d="M310.748435,180.308059 C304.793817,179.774805 298.806585,179.708657 292.84164,180.11022 C284.310458,180.809893 272.840652,183.04402 268.232463,185.273322 C263.624274,187.502624 245.978047,195.372735 250.730996,198.01219 C255.073792,200.424854 264.184012,196.796207 264.184012,196.796207 C264.184012,196.796207 255.093093,205.153676 253.529686,208.65204 C251.96628,212.150403 257.134207,214.114312 257.134207,214.114312 C258.49495,220.088069 264.584515,217.520994 264.584515,217.520994 C268.420651,225.680625 289.145438,208.00062 289.145438,208.00062 C294.076157,208.512906 299.055235,208.303209 303.92542,207.378153 C303.92542,207.378153 306.550399,208.849878 310.762911,210.895817 L310.748435,180.308059 Z"/><path fill="#4756DF" fill-rule="nonzero" d="M362.524212,221.241322 C401.237824,202.851994 345.119251,134.144139 325.263023,118.167475 L314.135815,163.173316 L328.167871,182.52771 C322.020402,181.466138 316.143152,180.737513 310.748435,180.308059 L310.748435,210.895817 C323.033721,216.869574 348.84923,227.755516 362.524212,221.241322 Z"/><path fill="#A15842" fill-rule="nonzero" d="M276.535058 186.570895C276.825781 187.017616 276.69932 187.615433 276.252599 187.906156 276.096391 188.007815 275.937802 188.112181 275.776906 188.219181L275.287372 188.54801 274.78445 188.892203 274.268589 189.251322 273.740239 189.624928 273.199851 190.012582C273.108808 190.078337 273.017282 190.144659 272.925283 190.21154L272.367681 190.619443 271.799166 191.040298 271.220189 191.473666 270.631199 191.919108 270.032647 192.376185 269.424983 192.844458 268.497386 193.566901 267.551821 194.312069 266.26574 195.338415 265.612859 195.864653 264.954017 196.399017 263.955563 197.214837 262.946231 198.046471C262.535549 198.386207 261.927216 198.328693 261.587481 197.918012 261.247746 197.50733 261.305259 196.898997 261.715941 196.559261L262.735952 195.718827 263.744901 194.894435 264.741351 194.087518 265.72386 193.299507 266.370411 192.785376 267.326489 192.032054 267.954086 191.542374 268.573356 191.063217 269.183872 190.595007 269.785207 190.138167 270.376934 189.693121C270.474731 189.619954 270.57211 189.547295 270.669062 189.475154L271.24558 189.048596 271.811424 188.634892 272.366168 188.234467 272.909386 187.847745 273.440652 187.47515C273.528177 187.414252 273.615185 187.353959 273.701669 187.294282L274.214206 186.943672 274.713725 186.608249 275.199798 186.288436C275.646519 185.997713 276.244335 186.124174 276.535058 186.570895ZM279.891817 193.076505C280.339183 192.786776 280.936717 192.914566 281.226446 193.361933 281.516175 193.809299 281.388385 194.406833 280.941019 194.696562 272.878728 199.917967 264.897938 206.82069 257.745704 214.003887 257.369637 214.381582 256.758593 214.382901 256.380898 214.006835 256.003203 213.630768 256.001884 213.019723 256.37795 212.642029 263.618534 205.3701 271.693118 198.386254 279.891817 193.076505ZM284.256483 200.3337C284.69591 200.032065 285.296659 200.143767 285.598294 200.583194 285.899929 201.02262 285.788227 201.623369 285.3488 201.925005 284.034157 202.827413 282.654328 203.836187 281.223593 204.935059L280.504049 205.491929 279.776417 206.063363C279.53257 206.256218 279.28744 206.451425 279.041095 206.648909L278.298478 207.248117C278.049767 207.450079 277.799907 207.654243 277.548964 207.860533L276.792948 208.485707C276.666426 208.590941 276.539649 208.696687 276.412626 208.802937L275.647603 209.4464 274.877071 210.10149 274.101426 210.767756 273.321065 211.444746 272.536384 212.132008 271.747781 212.82909 270.955653 213.535541 270.160395 214.250908C270.027613 214.370854 269.894717 214.491153 269.761716 214.611794L268.962508 215.339689C268.829117 215.461667 268.695638 215.583968 268.562077 215.706585L267.759812 216.445991 266.956003 217.192506 266.151049 217.945679C266.016816 218.071737 265.882553 218.198054 265.748266 218.32462 265.3604 218.690187 264.749621 218.67211 264.384054 218.284243 264.018488 217.896377 264.036565 217.285598 264.424431 216.920031L265.237482 216.156495 266.049578 215.399452 266.860336 214.649347 267.669372 213.906624 268.476305 213.171728 269.280748 212.445102 270.08232 211.727191 270.880637 211.01844C271.013397 210.901102 271.146006 210.784165 271.278455 210.667638L272.071169 209.973458 272.85967 209.289549C272.990714 209.176445 273.121567 209.063787 273.25222 208.951585L274.03368 208.283914 274.809968 207.627624 275.580699 206.98316 276.34549 206.350965 277.103958 205.731485C277.355684 205.52716 277.606293 205.325027 277.855719 205.125162L278.60039 204.532443C278.970889 204.239558 279.338585 203.95194 279.703263 203.66984L280.42853 203.113071C281.750574 202.106086 283.030103 201.175522 284.256483 200.3337Z"/><path fill="#3EC1F3" fill-rule="nonzero" d="M400.948304,198.5285 C402.471557,198.531156 403.705736,199.765335 403.708393,201.288588 L403.708393,201.698741 C403.705736,203.221994 402.471557,204.456173 400.948304,204.458829 L386.728061,204.458829 L386.728061,198.5285 L400.948304,198.5285 M400.948304,194.668237 L383.388933,194.668237 C383.249879,194.668231 383.11659,194.723798 383.018718,194.822576 C382.920846,194.921354 382.86651,195.05515 382.867775,195.194198 L382.867775,207.812432 C382.867775,208.100248 383.101118,208.333568 383.388933,208.333568 L400.948304,208.333568 C402.706642,208.333568 404.392751,207.634086 405.634725,206.389397 C406.876699,205.144707 407.5725,203.457074 407.568671,201.698741 L407.568671,201.274112 C407.568671,197.617793 404.604623,194.653761 400.948304,194.653761 L400.948304,194.668237 Z"/><path fill="#3EC1F3" fill-rule="nonzero" d="M379.716858,192.58852 C365.337378,192.58852 358.692901,181.128365 358.692901,181.128365 L368.343558,223.176279 L391.061206,223.176279 L400.711863,181.128365 C396.155715,188.310838 388.222364,192.64127 379.716858,192.58852 L379.716858,192.58852 Z"/><path fill="#30242A" fill-rule="nonzero" d="M379.716858,192.58852 C388.232631,192.651281 396.179199,188.319608 400.740815,181.128365 L358.692901,181.128365 C358.692901,181.128365 365.337378,192.58852 379.716858,192.58852 Z"/></g></g></svg>