<svg xmlns="http://www.w3.org/2000/svg" xmlns:xlink="http://www.w3.org/1999/xlink" width="83" height="100" viewBox="0 0 83 100"><defs><linearGradient id="b" x1=".778%" x2="98.266%" y1=".777%" y2="98.266%"><stop offset="0%" stop-color="#CD1AFF"/><stop offset="100%" stop-color="#1D80FF"/></linearGradient><path id="a" d="M0,0 L0,16.341638 C0,19.2364306 2.34668072,21.5831113 5.24147326,21.5831113 L5.24147326,21.5831113 L21.5831113,21.5831113 L21.5831113,5.24137846 C21.5831113,2.34658593 19.2365254,0 16.3417328,0 L16.3417328,0 L0,0 Z"/></defs><g fill="none" fill-rule="evenodd" transform="translate(0 -.14)"><path fill="#FFF" fill-rule="nonzero" d="M76.4220935,12.1122995 C79.5765482,12.1122995 82.1307626,14.6665139 82.1307626,17.8209686 C82.1307626,17.8209686 82.1307626,17.8209686 82.1307626,17.8209686 L82.1307626,71.9319997 C82.1307626,75.0864545 79.5765482,77.6406688 76.4220935,77.6406688 L76.4220935,77.6406688 L6.21951195,77.6406688 C3.06505723,77.6406688 0.510842871,75.0864545 0.510842871,71.9319997 L0.510842871,17.8209686 C0.510842871,14.6665139 3.06505723,12.1122995 6.21951195,12.1122995 L76.4220935,12.1122995 M76.4220935,11.6014567 L6.21951195,11.6014567 C2.78409365,11.6014567 0.0127710718,14.3855503 1.42108547e-14,17.8209686 L1.42108547e-14,71.9319997 C1.42108547e-14,75.367418 2.78409365,78.1387406 6.21951195,78.1515117 L76.4220935,78.1515117 C79.8575118,78.1515117 82.6288344,75.367418 82.6416054,71.9319997 L82.6416054,17.8209686 C82.6288344,14.3855503 79.8447407,11.6014567 76.4220935,11.6014567 Z"/><path fill="#F5EBDD" fill-rule="nonzero" d="M6.21951195,12.1122995 L76.4220935,12.1122995 C79.5765482,12.1122995 82.1307626,14.6665139 82.1307626,17.8209686 L82.1307626,71.9319997 C82.1307626,75.0864545 79.5765482,77.6406688 76.4220935,77.6406688 L6.21951195,77.6406688 C3.06505723,77.6406688 0.510842871,75.0864545 0.510842871,71.9319997 L0.510842871,17.8209686 C0.510842871,14.6665139 3.06505723,12.1122995 6.21951195,12.1122995 Z"/><polygon fill="#FFF" fill-rule="nonzero" points="82.373 24.117 82.373 25.117 .511 25.117 .511 24.117"/><circle cx="6.513" cy="18.115" r="2.171" fill="#FFF" fill-rule="nonzero"/><circle cx="13.09" cy="18.115" r="2.171" fill="#FFF" fill-rule="nonzero"/><circle cx="19.68" cy="18.115" r="2.171" fill="#FFF" fill-rule="nonzero"/><polygon fill="#3EC1F3" fill-rule="nonzero" points="14.61 66.198 14.559 66.159 14.559 66.236"/><path fill="#F5EBDC" fill-rule="nonzero" d="M28.7650094,52.662693 C28.8984815,52.6448967 29.0216017,52.7335991 29.0487339,52.8633138 L29.0519477,52.8821164 L29.5627906,56.7134379 C29.5814343,56.8532659 29.4831951,56.9817325 29.3433672,57.0003762 C29.2098951,57.0181725 29.0867748,56.9294701 29.0596427,56.7997554 L29.0564289,56.7809528 L28.545586,52.9496313 C28.5269423,52.8098034 28.6251815,52.6813367 28.7650094,52.662693 Z"/><path fill="#A15842" fill-rule="nonzero" d="M71.2625805,48.3821434 C71.2625805,48.3821434 77.0095628,41.6134753 70.6240269,35.866493 C66.7160789,32.3544483 62.0290956,33.3378208 62.0290956,33.3378208 C62.2078906,31.2050518 62.5654806,25.6751778 57.9295816,22.2908437 C53.2936825,18.9065097 47.4189895,20.6816887 45.2734494,23.3636138 C43.1279094,26.0455388 43.6642944,31.0262568 42.9618854,34.5893859 C42.2594765,38.1525149 42.7830904,40.4640789 44.9158594,41.7156439 C47.0486284,42.9672089 49.5517585,42.0732339 49.5517585,42.0732339 L49.0153735,45.2787729 C49.0153735,45.2787729 44.8136909,45.8407001 41.3655015,47.3732287 C37.4575535,49.1100945 28.7221404,53.8864753 28.7221404,53.8864753 C28.466719,52.9925003 27.0619011,38.4334785 26.4233475,33.7081819 C25.9380468,30.1067397 24.2522653,25.6624067 22.9751581,26.5563817 C21.7363642,27.4248146 22.2088938,30.2599925 22.2088938,30.2599925 L15.6956472,37.0286606 C15.6956472,37.0286606 12.4773371,60.233698 20.1655223,66.5298364 C25.7847939,71.1274222 40.4715264,63.7202006 40.4715264,63.7202006 L38.5558657,77.6406688 L56.0777762,77.6406688 C56.0777762,77.6406688 52.7956107,78.5091017 45.9630873,81.5997011 C38.0450228,85.1756012 33.447437,95.1370371 33.9582798,95.9033014 C34.4691227,96.6695658 36.0016513,96.0310122 38.0450228,93.4767978 C36.2570728,100.117755 38.0450228,99.6069123 39.1944193,99.4792015 C40.3693579,101.164983 41.8763443,99.0960694 41.8763443,99.0960694 C41.8763443,99.0960694 43.9197158,101.01173 47.1124838,92.0719799 C48.568386,91.382342 49.8965774,90.488367 51.071516,89.3900548 C51.071516,89.3900548 71.3775201,88.1129477 75.3365524,80.9611475 C79.2955846,73.8093473 76.6264306,55.1508114 71.2625805,48.3821434 Z"/><circle cx="44.724" cy="32.431" r="1" fill="#30242A" fill-rule="nonzero"/><path fill="#FFB7D5" fill-rule="nonzero" d="M52.5146471,83.8601808 L52.846695,84.6009029 L54.8134401,89.0069227 C60.8669281,88.2534295 72.4758323,86.1717448 75.3620945,80.9483764 C79.3211268,73.7965762 76.6392017,55.1508114 71.2753516,48.3821434 L71.2753516,48.3821434 C66.8054764,53.299006 59.8963266,51.9580435 57.125004,47.8713005 C56.6141612,47.9990112 56.0905472,48.0884087 55.5669333,48.1267219 C54.7495847,48.2033484 53.919465,48.1650352 53.1148875,48.0245534 C52.144286,47.8585294 51.2247689,47.4753973 50.4329624,46.887928 C49.4240478,46.1344347 49.0536867,45.3043151 49.0536867,45.3043151 L48.8876627,45.2787729 C48.1086274,45.3937126 44.4561008,45.9811819 41.3910436,47.3476866 C37.4830957,49.0845523 28.7476826,53.8609332 28.7476826,53.8609332 C28.6327429,53.4650299 28.287924,50.2978041 27.8792497,46.5175669 L22.9240738,48.4332277 L22.3876888,48.6375648 L19.8207034,49.6337084 L15.1592622,51.4344295 C15.4913101,57.4496043 16.7556462,63.6818874 20.2038355,66.4915232 C25.8231071,71.089109 40.5098397,63.6818874 40.5098397,63.6818874 L38.5941789,77.6023556 L56.1160894,77.6023556 C56.1160894,77.6023556 54.3153683,78.0876563 50.6245285,79.5818717 L51.4801903,81.4847614 L52.5146471,83.8601808 Z"/><path fill="#FF7235" fill-rule="nonzero" d="M28.3517793 60.8977937C25.1079271 60.8977937 22.4770863 63.5286345 22.4770863 66.7724867 22.4770863 67.0789925 22.5026285 67.3854982 22.5409417 67.6792328 25.8869625 68.5732079 30.4973194 67.52598 34.2009302 66.2744149 33.9455088 63.2348999 31.4040655 60.8977937 28.3517793 60.8977937ZM22.604797 50.2978041C22.604797 49.7486481 22.5281706 49.1867209 22.3749177 48.663107L19.8079323 49.6592506 15.1464911 51.4599717C15.2358886 53.0052714 15.3763704 54.550571 15.6062497 56.0703286 18.7862466 56.6961111 21.8768459 54.6144264 22.5026285 51.4344295 22.5664838 51.0512974 22.604797 50.6809363 22.604797 50.2978041ZM39.5903225 54.3845471C42.8341747 54.3845471 45.4650155 51.7537063 45.4650155 48.5098541 45.4650155 47.6925055 45.2862205 46.8751569 44.9541726 46.1216637 43.7281498 46.4409405 42.5404401 46.8623858 41.3782725 47.3604576 39.5775514 48.1650352 36.7551446 49.6081663 34.2392434 50.9235867 35.1843027 53.0308135 37.2787585 54.3845471 39.5903225 54.3845471Z"/><circle cx="53.894" cy="61.919" r="5.875" fill="#FF7235" fill-rule="nonzero"/><path fill="#FF7235" fill-rule="nonzero" d="M42.3999583 71.2423619C41.3144172 71.2423619 40.2544182 71.5360965 39.3349011 72.1107947L38.5686368 77.6278977 48.2491092 77.6278977C48.2618802 77.4618738 48.2746513 77.2830788 48.2746513 77.1170549 48.2746513 73.8732026 45.6438105 71.2423619 42.3999583 71.2423619ZM63.4849978 51.4982849C63.4849978 51.6132245 63.4722267 51.7153931 63.4722267 51.8303328 63.4722267 55.074185 66.1030675 57.7050258 69.3469197 57.7050258 71.4924598 57.7050258 73.4592048 56.5428582 74.4936617 54.6655107 73.5869156 52.1368385 72.5013745 49.9402141 71.2625805 48.3821434L71.2625805 48.3821434C69.0148719 50.8597313 66.1413807 51.7537063 63.4849978 51.4982849ZM68.9637876 76.3507906C68.9637876 79.4413899 71.351978 81.9956043 74.4298063 82.2127125 74.7873963 81.8295804 75.093902 81.408135 75.3493235 80.9483764 76.6519728 78.5984992 77.2394421 74.997057 77.2394421 70.9869404 74.2765534 69.658749 70.8028219 70.9869404 69.4746304 73.9498291 69.1425826 74.7033223 68.9637876 75.5206709 68.9637876 76.3507906ZM56.575848 82.2254836C55.0560904 82.2254836 53.6001882 82.8129529 52.5018761 83.8601808L52.8339239 84.6009029 54.800669 89.0069227C57.3676544 88.700417 59.9090977 88.2534295 62.4377699 87.6915023 62.2206617 84.613674 59.6664473 82.2254836 56.575848 82.2254836Z"/><path stroke="#F5EBDC" stroke-linecap="round" stroke-width="4" d="M66.4734286,73.9881423 C63.0380103,75.1630809 58.4148823,76.5806699 55.5541622,77.500187"/><path fill="#F5EBDC" fill-rule="nonzero" d="M62.8102595,61.3203145 C62.9443459,61.3079713 63.0637497,61.4016165 63.0855741,61.532329 L63.0880192,61.5512469 L64.301271,74.730993 C64.314202,74.8714644 64.21081,74.9958216 64.0703386,75.0087526 C63.9362522,75.0210959 63.8168484,74.9274506 63.7950239,74.7967382 L63.7925789,74.7778202 L62.5793271,61.5980742 C62.5663961,61.4576027 62.669788,61.3332455 62.8102595,61.3203145 Z"/><path fill="#30242A" fill-rule="nonzero" d="M39.9139134 87.9190938C40.0421357 87.9779025 40.0984065 88.1295212 40.0395978 88.2577435L39.9706021 88.4098968 39.9008307 88.5671361C39.8891392 88.5937589 39.8774167 88.620588 39.8656639 88.6476205L39.7947872 88.8122345 39.7232126 88.9815956 39.6509711 89.1555683 39.5780936 89.334017 39.5046112 89.5168063 39.4305551 89.7038006 39.3559562 89.8948644 39.2808456 90.0898622 39.2052544 90.2886584 39.1292136 90.4911176 39.0527542 90.6971042 38.9373484 91.0124015 38.8599785 91.2266137 38.7822988 91.443879 38.6652661 91.775205 38.5869476 91.9995101 38.4691023 92.3407605 38.3903391 92.5712584 38.232473 93.0388385 38.0743612 93.5142942 37.9557655 93.8754022C37.9119541 94.0094917 37.7677369 94.0826766 37.6336473 94.0388651 37.4995578 93.9950537 37.426373 93.8508365 37.4701844 93.716747L37.5919532 93.3460112 37.7137052 92.9793281 37.794813 92.7373549 37.9163079 92.3784645 38.0778292 91.9082669 38.1984826 91.5624664 38.3186033 91.2230545 38.4380881 90.8904984 38.5568339 90.5652651 38.6355362 90.3527419 38.7138337 90.1438194 38.7916957 89.9386359 38.8690916 89.73733 38.9459909 89.54004 39.0223631 89.3469043 39.0981774 89.1580614 39.1734034 88.9736497 39.2480105 88.7938076 39.3219681 88.6186735 39.3952457 88.4483858 39.4678126 88.283083C39.4798462 88.2559557 39.4918488 88.2290418 39.50382 88.2023442L39.5752636 88.0447782C39.6340724 87.9165559 39.785691 87.8602851 39.9139134 87.9190938ZM42.078807 89.1038806C42.1381109 88.9758865 42.289946 88.9202022 42.41794 88.9795061 42.5459341 89.03881 42.6016185 89.190645 42.5423145 89.3186391 41.1217122 92.3846874 40.080194 95.8959132 39.3417948 99.278258 39.3117075 99.4160775 39.1755922 99.5034116 39.0377728 99.4733242 38.8999534 99.4432369 38.8126193 99.3071216 38.8427066 99.1693022 39.5883912 95.7535858 40.6392762 92.2107816 42.078807 89.1038806ZM44.5665016 90.3613939C44.6225204 90.2319284 44.7728851 90.1723879 44.9023507 90.2284067 45.0318163 90.2844255 45.0913567 90.4347902 45.0353379 90.5642558 44.6604481 91.4306679 44.2877397 92.4267096 43.9252062 93.5066062L43.8308683 93.7901905 43.7370236 94.0773985 43.6437035 94.3680498 43.5509397 94.6619636C43.5201146 94.7604586 43.4893875 94.8594673 43.4587636 94.9589596L43.3672068 95.2588569 43.2763008 95.5614752 43.1860772 95.8666337 43.0965675 96.174152 43.0078032 96.4838493 42.9198159 96.7955452 42.832637 97.109059 42.7462982 97.4242102 42.660831 97.7408181 42.5762668 98.0587022 42.4926373 98.377682 42.409974 98.6975767 42.3283083 99.0182059C42.2937252 99.1549664 42.1548237 99.2377976 42.0180632 99.2032145 41.8813027 99.1686313 41.7984715 99.0297299 41.8330546 98.8929693L41.9153518 98.5698601 41.9986526 98.247498 42.0829268 97.9260612 42.1681445 97.6057276 42.2542752 97.2866753 42.341289 96.9690824C42.3558632 96.9162818 42.370473 96.8635493 42.3851176 96.8108888L42.4733993 96.4958187 42.5624887 96.1826531C42.5774025 96.1306274 42.5923488 96.0786884 42.6073268 96.02684L42.6975709 95.7168648C42.7126735 95.6653931 42.7278065 95.6140193 42.7429695 95.5627471L42.8343006 95.2563629 42.9263187 94.9525952C42.9417106 94.9021952 42.9571299 94.8519117 42.9725759 94.8017482L43.0655679 94.5022392C43.0811183 94.4525713 43.0966943 94.4030309 43.1122951 94.3536217L43.206193 94.058772 43.3006573 93.7672509 43.3956577 93.4792366C43.4115341 93.4315363 43.4274316 93.3839895 43.4433495 93.3366L43.5390975 93.0541796C43.5550948 93.0074339 43.5711112 92.9608529 43.5871462 92.9144402L43.683574 92.6380143C43.9734958 91.8149757 44.2690265 91.0488919 44.5665016 90.3613939Z"/><path fill="#F5EBDC" fill-rule="nonzero" d="M40.6532038,59.1354355 C40.6743361,58.995962 40.8045329,58.9000275 40.9440064,58.9211599 C41.0771402,58.9413317 41.1706031,59.0608783 41.160445,59.1930103 L41.158282,59.2119625 L40.4558731,63.8478616 C40.4347407,63.9873351 40.3045439,64.0832696 40.1650704,64.0621372 C40.0319366,64.0419654 39.9384737,63.9224188 39.9486318,63.7902868 L39.9507948,63.7713346 L40.6532038,59.1354355 Z"/><path fill="#30242A" fill-rule="nonzero" d="M70.6240269 35.866493C66.7160789 32.3544483 62.0290956 33.3378208 62.0290956 33.3378208 62.2078906 31.2050518 62.5654806 25.6751778 57.9295816 22.2908437 53.2936825 18.9065097 47.4189895 20.6816887 45.2734494 23.3636138 44.4050166 24.4491549 43.9708001 25.9305992 43.7281498 27.5269832 45.1457387 27.7696335 47.2401945 27.2715617 47.2401945 27.2715617 50.0881435 30.4771008 53.1148875 31.1922808 53.1148875 31.1922808 55.0688615 29.0595118 58.6319905 29.0595118 59.1683755 32.0862558 59.7558448 35.4322766 55.6052465 36.3645648 55.6052465 36.3645648 55.6052465 36.3645648 54.7240425 41.1409457 56.1799447 45.9556397 56.3842819 46.6325065 56.6907876 47.2838312 57.0994619 47.8713005 59.8707845 51.9580435 66.7799343 53.299006 71.2498094 48.3821434 71.4669176 48.1139509 71.6712548 47.8202162 71.8628209 47.5264816 73.1654702 45.5341944 75.6430581 40.3874524 70.6240269 35.866493ZM51.7897221 41.0712774C51.912838 41.0024159 52.0684664 41.0463979 52.1373279 41.1695138 52.2061894 41.2926298 52.1622074 41.4482582 52.0390915 41.5171197 51.2688103 41.9479549 50.4592165 42.287462 49.6106502 42.5355044 49.4752508 42.5750827 49.3334034 42.4974044 49.2938251 42.362005 49.2542468 42.2266056 49.3319252 42.0847581 49.4673246 42.0451799 50.2789976 41.8079216 51.0530167 41.4833329 51.7897221 41.0712774Z"/><path fill="#000" fill-rule="nonzero" d="M62.3570552,33.0454896 C62.51859,33.060257 62.6357556,33.1859561 62.618752,33.3262464 L62.490546,34.373591 L62.3999515,35.089995 L62.3201359,35.6896207 L62.2570495,36.1346828 L62.2060472,36.4749487 C62.1845802,36.6147766 62.0366594,36.7130158 61.875657,36.6943721 C61.7146545,36.6757284 61.6015387,36.5472617 61.6230057,36.4074338 L61.6673663,36.1123595 L61.7236637,35.7187758 L61.7685185,35.3897936 L61.8370346,34.864845 L61.9754392,33.7524229 L62.0337826,33.2727689 C62.0500134,33.1388554 62.1826266,33.0400524 62.3351422,33.0441908 L62.3570552,33.0454896 Z"/><path fill="#30242A" fill-rule="nonzero" d="M56.5659878 32.387013C56.6890682 32.318088 56.8447193 32.3619896 56.9136443 32.48507 56.9792872 32.6022894 56.942593 32.7490514 56.832628 32.822303L56.8155874 32.8327265 55.2192034 33.7267015C55.096123 33.7956265 54.9404719 33.7517249 54.8715469 33.6286445 54.805904 33.5114251 54.8425982 33.3646631 54.9525632 33.2914115L54.9696039 33.280988 56.5659878 32.387013ZM47.6524196 37.0124419C47.717803 36.8874442 47.8721375 36.8391172 47.9971353 36.9045007 48.122133 36.9698841 48.17046 37.1242186 48.1050766 37.2492164 47.8673374 37.7037177 47.4480677 37.9542872 46.9450254 38.0179912 46.5618664 38.0665136 46.1440305 37.9964143 45.9196792 37.8598526 45.7991814 37.7865061 45.7609577 37.6293643 45.8343042 37.5088664 45.9039834 37.3943935 46.0492879 37.3541729 46.166956 37.4133225L46.1852904 37.4234914C46.3032852 37.4953143 46.6056663 37.546044 46.8808461 37.5111959 47.2290401 37.4671015 47.4989845 37.3057738 47.6524196 37.0124419Z"/><circle cx="48.939" cy="33.133" r="1" fill="#30242A" fill-rule="nonzero"/><path fill="#30242A" fill-rule="nonzero" d="M46.2035008,35.2182368 C46.2566513,35.3006411 46.3351449,35.3710176 46.4270537,35.4186716 L46.4581704,35.4337 C46.5988959,35.4967864 46.6559361,35.6502111 46.5855734,35.7763838 C46.5152107,35.9025565 46.3440899,35.9536981 46.2033645,35.8906118 C45.9773031,35.7892698 45.7901579,35.6214777 45.6771272,35.4187938 C45.6326717,35.3390773 45.6129439,35.2523069 45.6160227,35.1324435 L45.6182425,35.0858926 L45.622578,35.0359341 C45.6234756,35.0273068 45.6244604,35.0185247 45.625532,35.0095816 L45.6329986,34.9539395 C45.6344153,34.9443268 45.6359177,34.9345403 45.6375055,34.9245736 L45.6480527,34.8625613 L45.6606253,34.7959208 L45.675201,34.7243469 L45.6917572,34.6475346 L45.7202557,34.5218262 L45.7530837,34.3826148 C45.7860501,34.2446807 45.9374894,34.156824 46.0913327,34.1863813 C46.245176,34.2159386 46.3431661,34.3517172 46.3101997,34.4896512 L46.2796186,34.6194962 L46.2545075,34.7308322 L46.2342108,34.8272949 L46.2230306,34.8851357 L46.2135045,34.9390591 L46.2054383,34.9901424 L46.2012474,35.0199358 L46.1948967,35.0745007 C46.1915655,35.1086058 46.1900391,35.1381148 46.1903153,35.1627102 L46.1909282,35.1905539 C46.1908022,35.1942795 46.190226,35.1953745 46.1886579,35.1933797 L46.2035008,35.2182368 Z"/><path fill="#000" fill-rule="nonzero" d="M43.5470432,29.8648284 C42.000934,29.8648284 40.7373354,31.0020672 40.7373354,32.4191082 C40.7373354,33.8361493 42.000934,34.9733881 43.5470432,34.9733881 C45.0931524,34.9733881 46.356751,33.8361493 46.356751,32.4191082 C46.356751,31.0020672 45.0931524,29.8648284 43.5470432,29.8648284 Z M43.5470432,30.3756844 C44.8223136,30.3756844 45.845895,31.2969076 45.845895,32.4191082 C45.845895,33.5413088 44.8223136,34.4625321 43.5470432,34.4625321 C42.2717727,34.4625321 41.2481913,33.5413088 41.2481913,32.4191082 C41.2481913,31.2969076 42.2717727,30.3756844 43.5470432,30.3756844 Z" transform="rotate(-76.95 43.547 32.42)"/><path fill="#000" fill-rule="nonzero" d="M49.1700414,30.746464 C47.6239322,30.746464 46.3603335,31.8837028 46.3603335,33.3007439 C46.3603335,34.1452431 46.8091231,34.8903655 47.4990397,35.3546213 L47.5700238,35.4008585 C48.0247521,35.6874721 48.5765853,35.8550237 49.1700414,35.8550237 C50.7161505,35.8550237 51.9797492,34.7177849 51.9797492,33.3007439 C51.9797492,31.8837028 50.7161505,30.746464 49.1700414,30.746464 Z M49.1700414,31.25732 C50.4453118,31.25732 51.4688932,32.1785433 51.4688932,33.3007439 C51.4688932,34.4229444 50.4453118,35.3441677 49.1700414,35.3441677 C47.8947709,35.3441677 46.8711895,34.4229444 46.8711895,33.3007439 C46.8711895,32.1785433 47.8947709,31.25732 49.1700414,31.25732 Z" transform="rotate(-76.95 49.17 33.3)"/><path fill="#000" fill-rule="nonzero" d="M45.6591487,32.8255739 C45.6781916,32.6168422 45.7969418,32.4689094 45.9291552,32.4830619 L45.9481251,32.4861972 L46.8421001,32.6861768 C46.9817477,32.7174156 47.078782,32.9200078 47.0588324,33.1386791 C47.0397895,33.3474108 46.9210392,33.4953436 46.7888259,33.4811911 L46.769856,33.4780558 L45.875881,33.2780761 C45.7362334,33.2468374 45.639199,33.0442452 45.6591487,32.8255739 Z"/><path fill="#30242A" fill-rule="nonzero" d="M20.4299062,30.7851043 C20.5162282,30.682597 20.6659669,30.6650068 20.7732378,30.7414097 L20.8122846,30.7732418 L21.1060389,31.0239068 L21.2146578,31.1174854 C21.4874571,31.3530606 21.7602874,31.5926742 22.0199498,31.8260827 L22.205653,31.9940212 L22.4555235,32.2236572 L22.6281374,32.3853009 L22.7485587,32.5000143 L22.861133,32.6091266 L22.9657711,32.7126262 L23.0310768,32.7785019 L23.0927891,32.8418745 L23.1785624,32.9322321 L23.2311759,32.9893314 L23.2801035,33.0439153 L23.3253189,33.0959803 L23.3667955,33.1455231 C23.3733953,33.1535698 23.3798382,33.1615113 23.3861236,33.1693475 L23.4219426,33.2151003 C23.4445566,33.2447589 23.4646341,33.2727301 23.4821397,33.2990094 L23.506465,33.3371589 C23.5139275,33.349452 23.5207427,33.3613215 23.5269061,33.3727669 L23.5356619,33.3896168 L23.6166231,33.5515393 L23.4850357,33.6874377 L23.4379327,33.7388951 L23.3813986,33.803284 L23.3200212,33.8756731 C23.3094892,33.8883053 23.2988099,33.9012198 23.2879891,33.914415 L23.2214135,33.9969401 C23.2100503,34.0112508 23.1985573,34.0258387 23.1869404,34.0407018 C22.9533608,34.3395541 22.7193463,34.685239 22.5008711,35.0727743 C21.9606076,36.0311037 21.6059619,37.079442 21.5231847,38.1908847 C21.4184922,39.5965815 21.7573924,41.0182132 22.6307628,42.43744 C22.7046947,42.5575795 22.6672362,42.7149055 22.5470967,42.7888375 C22.4269572,42.8627695 22.2696312,42.8253109 22.1956992,42.7051714 C21.2655614,41.1936976 20.9011386,39.6650028 21.0137527,38.1529436 C21.102577,36.9603075 21.4810517,35.8415302 22.0558719,34.8219035 C22.2875118,34.4110164 22.5357634,34.0443005 22.78445,33.7261197 C22.8219393,33.6781543 22.8583291,33.6327339 22.8934613,33.5899023 L22.9620019,33.5077041 L22.983587,33.4822481 L22.9788861,33.4764526 C22.9658292,33.4605331 22.9516933,33.4437605 22.9365069,33.4261628 L22.8878247,33.3709227 C22.8791953,33.3613128 22.8703104,33.3515037 22.8611736,33.3414989 L22.8033583,33.2791493 L22.7396683,33.2122707 L22.6702748,33.1410317 C22.6582434,33.1288046 22.6459816,33.1164027 22.6334928,33.1038297 L22.5757734,33.0461079 L22.4889006,32.9605188 L22.3962296,32.8706375 L22.2979657,32.7766662 L22.1943144,32.6788071 L22.0854812,32.5772623 L21.9716713,32.472234 L21.8617867,32.3717994 L21.8055437,32.3207159 C21.5535243,32.0922773 21.2858364,31.8555977 21.0158835,31.6211244 L20.7730953,31.4113459 L20.4607548,31.1450051 C20.3528524,31.0541399 20.339041,30.8930068 20.4299062,30.7851043 Z"/><path fill="#30242A" fill-rule="nonzero" d="M33.2941841,16.3139822 L33.2941841,16.3139822 C33.7794848,16.6077168 33.9199666,17.2334993 33.626232,17.7188001 L14.2908293,49.3399738 C13.9970947,49.8252745 13.3713121,49.9657563 12.8860114,49.6720216 L12.8860114,49.6720216 C12.4007107,49.378287 12.2602289,48.7525045 12.5539636,48.2672037 L31.9021373,16.64603 C32.1831009,16.1735004 32.8216545,16.0330186 33.2941841,16.3139822 Z"/><path fill="#A15842" fill-rule="nonzero" d="M22.2216649,30.2472215 C21.3276899,29.4809572 19.6035952,28.9828854 18.7734755,29.4809572 C17.3558865,30.3238479 17.7134765,31.945774 17.7134765,31.945774 C17.7134765,31.945774 15.4146836,31.588184 15.4402258,33.9380612 C15.4402258,33.9380612 13.5884204,34.7426387 14.3929979,36.5944441 C14.3929979,36.5944441 12.7966139,37.0031184 13.5501072,38.9698635 C14.1758897,40.5790185 15.5934786,41.4219093 16.4746826,41.8561257 C17.2409469,42.2392579 18.4158855,41.6901018 18.0072112,40.1958864 C18.0072112,40.1958864 18.9011862,40.4513078 19.4120291,39.9404649 C20.114438,39.238056 19.7951612,37.8970935 19.7951612,37.8970935 C19.7951612,37.8970935 20.6891363,38.1525149 21.3276899,37.641672 C22.1067252,37.0158895 21.710822,35.853722 21.710822,35.853722 C22.2982913,35.7770955 22.783592,35.3811923 22.9879292,34.8320362 C23.4987721,33.5549291 21.5831113,32.0224004 21.5831113,32.0224004 L22.2216649,30.2472215 Z"/><path fill="#30242A" fill-rule="nonzero" d="M14.1413564 36.4865677C14.2503078 36.3969628 14.4112694 36.4126463 14.5008743 36.5215977 15.6151516 37.8764576 16.8435249 39.1302236 18.1734373 40.2701485 18.2805421 40.3619526 18.2929457 40.5232001 18.2011416 40.6303049 18.1093375 40.7374098 17.9480899 40.7498134 17.8409851 40.6580093 16.4885688 39.4987953 15.2394197 38.223824 14.1063265 36.8460856 14.0167216 36.7371342 14.032405 36.5761726 14.1413564 36.4865677ZM15.2913398 33.740306C15.400557 33.6510253 15.5614713 33.667187 15.650752 33.7764042 16.9601338 35.3781721 18.4539794 36.8178698 20.0893975 38.0507235 20.2020415 38.1356397 20.2245193 38.2957939 20.139603 38.4084379 20.0546868 38.5210819 19.8945326 38.5435597 19.7818886 38.4586435 18.1136925 37.2010802 16.5903396 35.7329448 15.2552417 34.0997182 15.1659609 33.990501 15.1821226 33.8295867 15.2913398 33.740306ZM17.3420669 31.8571671C17.4544826 31.7719488 17.6146965 31.7939966 17.6999149 31.9064123 18.8762345 33.458153 20.3092358 34.8212519 21.9452688 35.9499878 22.0613811 36.0300963 22.0905679 36.1891646 22.0104594 36.3052782 21.930351 36.4213892 21.7712826 36.4505761 21.6551703 36.3704676 19.9748091 35.2111487 18.5022249 33.8103978 17.2928218 32.2150151 17.2076035 32.1025994 17.2296513 31.9423854 17.3420669 31.8571671ZM20.4297445 30.7852966C20.5159656 30.6827044 20.6656869 30.6649669 20.7730329 30.7412642L20.8009251 30.7636224 21.00082 30.9335185 21.2098543 31.1132001C21.5246198 31.3851429 21.8394305 31.6630502 22.1335815 31.9310246L22.318301 32.1005783 22.4473082 32.2206912C22.4893039 32.2600488 22.5302801 32.2987167 22.5701984 32.3366661L22.6867406 32.4483296 22.796704 32.5555079C22.89726 32.6544419 22.8985747 32.8161605 22.7996407 32.9167164 22.7007067 33.0172723 22.5389881 33.0185871 22.4384322 32.919653L22.3314315 32.8153668 22.2177526 32.7064541C22.1982636 32.6879275 22.1785067 32.6692162 22.1584873 32.6503246L22.035262 32.5348425 21.8512242 32.364976 21.7895548 32.3086568C21.5405765 32.0818352 21.2760967 31.8473545 21.0093739 31.6154482L20.7694887 31.4080691 20.4609471 31.1451669C20.3529553 31.0544078 20.3389854 30.8932884 20.4297445 30.7852966Z"/><g transform="rotate(28 14.643 58.731)"><mask id="c" fill="#fff"><use xlink:href="#a"/></mask><path fill="url(#b)" d="M0,0 L0,16.341638 C0,19.2364306 2.34668072,21.5831113 5.24147326,21.5831113 L5.24147326,21.5831113 L21.5831113,21.5831113 L21.5831113,5.24137846 C21.5831113,2.34658593 19.2365254,0 16.3417328,0 L16.3417328,0 L0,0 Z" mask="url(#c)"/><path fill="#FFF" d="M12.9091708,10.4153758 L10.7590026,12.532934 C10.6489442,12.6412861 10.5051383,12.6959835 10.3611428,12.6959835 C10.2264374,12.6959835 10.0914476,12.6482062 9.98366424,12.551988 L8.8224104,11.5157704 C8.58873769,11.3072187 8.5683565,10.948889 8.77681341,10.7152162 C8.98527033,10.4815435 9.34369488,10.4611623 9.57736759,10.6696193 L10.3420888,11.3519625 L12.1134512,9.60742748 C12.3365067,9.38768981 12.6955948,9.3904389 12.9153325,9.61358923 C13.1349754,9.83664476 13.1322263,10.1956381 12.9091708,10.4153758 M17.9478749,9.04661297 L17.9493916,9.04557021 L17.9475905,9.04557021 C17.8229334,8.58609287 17.4511426,8.19411045 16.9111833,8.11779949 C16.9111833,8.11779949 16.5188217,8.05987899 15.8802743,7.96565153 C15.0642683,7.81596828 14.0164855,7.57954648 13.6596725,7.30368945 C13.1916635,6.94194703 12.5552964,5.80676215 12.194028,5.11323291 C12.0169486,4.76115971 11.9129572,4.55421954 11.9129572,4.55421954 C11.6905652,4.10289467 11.2541233,3.87149707 10.8120885,3.86040591 L10.8118989,3.85993193 L10.8117093,3.86040591 C10.3490089,3.84893557 9.88024155,4.07910082 9.64486251,4.55421954 C9.64486251,4.55421954 9.54096584,4.76068573 9.36293851,5.11474965 C8.97759183,5.85814171 8.28358862,7.11163228 7.83946827,7.41450624 C7.34548511,7.75141205 6.03473761,8.0168415 5.25854606,8.15050419 C4.88030909,8.21041541 4.65839111,8.24558481 4.65839111,8.24558481 C4.17597309,8.31800913 3.82901888,8.64496133 3.67630215,9.04557021 L3.67450102,9.04557021 L3.67592297,9.04661297 C3.50671169,9.49158648 3.5770505,10.0271852 3.96903292,10.4063701 C3.96903292,10.4063701 4.13416795,10.5680925 4.41741909,10.8453715 C5.0084736,11.4384167 5.99160532,12.4806065 6.14517522,12.9957292 C6.31855752,13.5773041 6.14489083,14.9631302 6.02317247,15.753162 C6.01132294,15.8276718 6.00070576,15.8947876 5.99141573,15.9538456 C5.95368683,16.1855276 5.92648031,16.3307554 5.92648031,16.3307554 L5.93377962,16.3294283 C5.88590752,16.7797104 6.08507441,17.1798453 6.40121984,17.4346576 L6.40074586,17.4361743 L6.40197821,17.4352263 C6.77291586,17.7336449 7.30415395,17.8321382 7.7859084,17.5765675 C7.7859084,17.5765675 7.94582964,17.4929572 8.22509934,17.3468762 C8.94621428,16.9789721 10.3577302,16.2999467 10.924422,16.3153036 C11.4872273,16.3305658 12.5862948,16.8215155 13.2952758,17.1678062 C13.7093457,17.3788226 13.9568587,17.5049964 13.9568587,17.5049964 C14.3897931,17.7299478 14.8627315,17.6695626 15.2218196,17.4352263 L15.2231468,17.4361743 L15.222578,17.4346576 C15.6211014,17.1741575 15.8788523,16.6992284 15.7847197,16.1621129 C15.7847197,16.1621129 15.7545745,15.9841804 15.7019625,15.6734384 C15.5749356,14.8740217 15.3652463,13.3217334 15.5550284,12.7874619 C15.7434833,12.2569822 16.5500096,11.3633381 17.0985006,10.7961722 C17.4270644,10.4675137 17.623577,10.2710959 17.623577,10.2710959 C17.9712895,9.92897629 18.0598292,9.46049332 17.9478749,9.04661297"/></g></g></svg>