<svg xmlns="http://www.w3.org/2000/svg" xmlns:xlink="http://www.w3.org/1999/xlink" width="601" height="486" viewBox="0 0 601 486"><defs><path id="c" d="M0,0 L0,53.5662343 C0,63.055071 7.69218172,70.7472527 17.1810184,70.7472527 L17.1810184,70.7472527 L70.7472527,70.7472527 L70.7472527,17.1807077 C70.7472527,7.69187099 63.0553818,0 53.566545,0 L53.566545,0 L0,0 Z"/><path id="f" d="M0,0 L0,53.5662343 C0,63.055071 7.69218172,70.7472527 17.1810184,70.7472527 L17.1810184,70.7472527 L70.7472527,70.7472527 L70.7472527,17.1807077 C70.7472527,7.69187099 63.0553818,0 53.566545,0 L53.566545,0 L0,0 Z"/><linearGradient id="d" x1=".778%" x2="98.266%" y1=".777%" y2="98.266%"><stop offset="0%" stop-color="#CD1AFF"/><stop offset="100%" stop-color="#1D80FF"/></linearGradient><filter id="b" width="110.8%" height="146.1%" x="-5.4%" y="-16.5%" filterUnits="objectBoundingBox"><feOffset dy="8" in="SourceAlpha" result="shadowOffsetOuter1"/><feGaussianBlur in="shadowOffsetOuter1" result="shadowBlurOuter1" stdDeviation="8"/><feColorMatrix in="shadowBlurOuter1" result="shadowMatrixOuter1" values="0 0 0 0 0.376470588 0 0 0 0 0.380392157 0 0 0 0 0.439215686 0 0 0 0.16 0"/><feOffset dy="2" in="SourceAlpha" result="shadowOffsetOuter2"/><feGaussianBlur in="shadowOffsetOuter2" result="shadowBlurOuter2" stdDeviation="2"/><feColorMatrix in="shadowBlurOuter2" result="shadowMatrixOuter2" values="0 0 0 0 0.156862745 0 0 0 0 0.160784314 0 0 0 0 0.239215686 0 0 0 0.04 0"/><feMerge><feMergeNode in="shadowMatrixOuter1"/><feMergeNode in="shadowMatrixOuter2"/></feMerge></filter><rect id="a" width="517" height="121.473" x="0" y="0" rx="60.737"/></defs><g fill="none" fill-rule="evenodd" transform="translate(16 8)"><g fill-rule="nonzero"><use xlink:href="#a" fill="#000" filter="url(#b)"/><use xlink:href="#a" fill="#FFF"/></g><text fill="#5B43B1" font-family="Archivo-SemiBold, Archivo" font-size="32" font-weight="500">
                    <tspan x="47.61" y="47.485">Reveal your skills and make </tspan>
                    <tspan x="47.61" y="88.485">the difference</tspan>
                </text><g transform="translate(31 42.732)"><path fill="#30242A" fill-rule="nonzero" d="M192.578901 434.062435 192.578901 434.062435C189.769963 434.06398 187.400693 431.970985 187.055736 429.183309L182.937758 394.585463 202.220044 394.585463 198.102066 429.183309C197.759173 431.972073 195.388664 434.066163 192.578901 434.062435L192.578901 434.062435ZM408.904484 434.062435 408.904484 434.062435C406.095754 434.065881 403.726798 431.971313 403.386198 429.183309L399.26822 394.585463 418.545626 394.585463 414.427648 429.183309C414.084756 431.972073 411.714246 434.066163 408.904484 434.062435Z"/><path fill="#FFB7D5" fill-rule="nonzero" d="M79.4418462,251.597946 L166.00233,251.597946 L166.00233,395.0441 L39.9746374,395.0441 L39.9746374,291.060276 C39.9773318,269.265044 57.6466139,251.597946 79.4418462,251.597946 L79.4418462,251.597946 Z"/><path fill="#FFB7D5" fill-rule="nonzero" d="M176.316791,179.64555 L474.548176,179.64555 C496.345313,179.64555 514.015385,197.315622 514.015385,219.112759 L514.015385,395.029463 L136.859341,395.029463 L136.859341,219.10788 C136.859341,197.310743 154.529412,179.640671 176.326549,179.640671 L176.316791,179.64555 Z"/><path fill="#A15842" fill-rule="nonzero" d="M136.849582,271.758474 C137.364018,271.758474 137.785478,272.15655 137.82273,272.661471 L137.825407,272.734298 L137.825407,395.029463 C137.825407,395.568395 137.388515,396.005287 136.849582,396.005287 C136.335147,396.005287 135.913686,395.60721 135.876435,395.102289 L135.873758,395.029463 L135.873758,272.734298 C135.873758,272.195365 136.31065,271.758474 136.849582,271.758474 Z"/><path fill="#FFB7D5" fill-rule="nonzero" d="M176.316791,308.971529 L474.548176,308.971529 C496.345313,308.971529 514.015385,326.6416 514.015385,348.438737 L514.015385,395.034342 L136.859341,395.034342 L136.859341,348.438737 C136.859341,326.64541 154.523465,308.976917 176.316791,308.971529 L176.316791,308.971529 Z"/><path fill="#A15842" fill-rule="nonzero" d="M358.649538,307.995704 C359.188471,307.995704 359.625363,308.432596 359.625363,308.971529 C359.625363,309.485964 359.227286,309.907424 358.722365,309.944676 L358.649538,309.947353 L174.892088,309.947353 C154.617436,309.947353 138.143194,326.218847 137.815737,346.415464 L137.810769,347.028671 L137.810769,395.048979 C137.810769,395.587912 137.373878,396.024803 136.834945,396.024803 C136.320509,396.024803 135.899049,395.626727 135.861797,395.121806 L135.859121,395.048979 L135.859121,347.028671 C135.859121,325.686932 152.98701,308.345626 174.246606,308.000934 L174.892088,307.995704 L358.649538,307.995704 Z"/><polygon fill="#A15842" fill-rule="nonzero" points="388.017 309.572 388.017 395.029 386.065 395.029 386.065 309.572"/><polygon fill="#A15842" fill-rule="nonzero" points="514.015 249.68 514.015 251.632 426.02 251.632 426.02 249.68"/><path fill="#EAA58B" fill-rule="nonzero" d="M110.516967 235.58955C121.802374 236.999616 125.32022 232.20832 126.974242 228.065946 128.852703 223.367353 127.642681 219.327441 126.178945 214.077507 126.178945 214.077507 129.906593 212.047792 129.325978 209.720452 128.838066 207.84199 124.59811 207.632188 124.59811 207.632188 124.43222 206.792979 124.28422 205.922869 124.15411 205.021858 123.21244 198.435045 121.802374 194.673243 121.802374 194.673243 118.508967 195.614913 114.278769 195.161155 112.868703 194.673243 110.963977 199.950825 107.52495 204.53846 102.993363 207.846869 102.993363 207.846869 92.6447473 196.561463 86.0628132 205.026737 80.6957802 211.930693 88.4145495 220.542342 93.5864176 221.484012 90.5125714 227.968364 82.2424615 231.730166 77.9390769 233.301243 78.2025495 235.340715 78.4513846 237.233814 78.6709451 238.882957L110.873143 238.882957 110.516967 235.58955ZM222.517187 276.535133C224.216453 270.491986 225.603954 264.365485 226.674198 258.17988L215.388791 227.612188C215.388791 227.612188 220.092264 214.926474 215.876703 213.033375 211.661143 211.140276 202.220044 223.391748 198.458242 233.257331 196.833495 237.521682 192.393495 247.323836 187.880308 257.077199L222.517187 276.535133Z"/><path fill="#3EC1F3" fill-rule="nonzero" d="M175.882549,282.634034 C175.882549,282.634034 148.608264,259.589946 136.800791,251.119792 C124.993319,242.649638 111.458637,244.074342 111.458637,244.074342 L110.868264,238.897594 L78.6660659,238.897594 C79.153978,242.571572 79.4711209,245.011133 79.4711209,245.011133 L55.4951209,330.60555 L126.969363,324.960408 L125.090901,298.613155 C125.090901,298.613155 163.635956,330.815353 185.75789,327.770781 C205.708615,325.009199 217.042813,296.202869 222.512308,276.540012 L187.870549,257.082078 C181.952176,269.894649 175.882549,282.634034 175.882549,282.634034 Z"/><path fill="#30242A" fill-rule="nonzero" d="M93.5864176,221.498649 C88.4145495,220.556979 80.6909011,211.945331 86.0628132,205.041375 C92.6447473,196.5761 102.993363,207.861507 102.993363,207.861507 C107.52495,204.553097 110.963977,199.965462 112.868703,194.68788 C114.278769,195.175792 118.508967,195.62955 121.802374,194.68788 C121.802374,194.68788 128.857582,192.336144 128.384308,186.69588 C127.754901,179.123485 116.157231,182.460803 116.157231,182.460803 C116.157231,182.460803 103.471516,173.053858 89.809978,179.167397 C75.2506813,185.720056 73.8357363,198.927836 74.7627692,207.861507 C75.2994725,212.989463 76.7680879,224.450518 77.9244396,233.31588 C82.2424615,231.739924 90.5125714,227.983001 93.5864176,221.498649 Z"/><path fill="#A15842" fill-rule="nonzero" d="M214.118838,230.279824 C215.100382,229.834442 216.257135,230.269086 216.702517,231.25063 C217.1479,232.232174 216.713255,233.388927 215.731711,233.83431 L215.373144,234.000381 C215.313723,234.028465 215.254483,234.056748 215.195435,234.085221 L214.843568,234.258303 C214.785345,234.287514 214.727342,234.316903 214.669571,234.346462 L214.325849,234.525808 C214.269063,234.556021 214.212538,234.586392 214.156285,234.616912 L213.822151,234.801775 C213.711936,234.863958 213.60292,234.926685 213.49521,234.989901 L213.176105,235.180959 C213.018618,235.277166 212.86431,235.374347 212.713542,235.472317 L212.416831,235.669253 C210.617537,236.889491 209.393245,238.210723 209.420883,239.282844 C209.43443,239.773453 209.62981,240.141767 209.991546,240.465959 C210.151085,240.60894 210.31165,240.717031 210.43186,240.785872 L210.52405,240.835165 C210.537446,240.841744 210.549777,240.847498 210.560922,240.852412 L210.590682,240.864623 L214.520832,242.328321 L210.860526,244.398245 L210.790396,244.444944 L210.666025,244.534532 C210.45479,244.692223 210.240629,244.88313 210.04356,245.101631 C209.32824,245.894747 209.046232,246.772538 209.351893,247.885085 C209.557165,248.632236 209.904078,248.955449 210.485489,249.112173 C210.932879,249.23277 211.474629,249.231505 211.980474,249.147676 L212.140494,249.118121 L212.191294,249.106643 L219.266091,247.15554 L214.095037,252.363203 L214.035705,252.427498 L213.959318,252.519188 C213.931402,252.554115 213.901229,252.593303 213.86938,252.636448 L213.769397,252.777451 L213.662874,252.94037 C213.64477,252.969248 213.626539,252.998962 213.608255,253.029476 C213.03004,253.994445 212.921809,254.8883 213.455304,255.765161 C213.699453,256.166449 214.313045,256.395329 215.376075,256.375237 C216.092064,256.361705 216.899406,256.229105 217.717918,256.014699 C217.966608,255.949556 218.201396,255.88074 218.41727,255.811606 L218.689769,255.720845 L218.840885,255.66673 L224.924619,253.296282 L221.162618,258.605617 C219.442164,261.033704 219.411483,262.325053 220.365893,262.960833 L220.417213,262.993621 L220.459318,263.00014 L220.496879,263.004084 C220.666559,263.019474 220.903394,263.010503 221.190642,262.971361 C221.871231,262.87862 222.725319,262.633217 223.64136,262.255168 C224.637711,261.843976 225.778751,262.31834 226.189943,263.314691 C226.601135,264.311042 226.126771,265.452081 225.13042,265.863274 C222.457802,266.966259 220.059916,267.293008 218.541018,266.418734 C216.278625,265.130427 215.464871,262.973619 216.030773,260.449781 L216.078699,260.247164 L216.033397,260.251286 C215.935634,260.258254 215.838103,260.263978 215.740833,260.268416 L215.449836,260.277837 C213.14088,260.321477 211.223259,259.606174 210.120696,257.793984 C209.157664,256.211127 208.992692,254.592607 209.390444,253.056521 L209.440655,252.872372 L209.31455,252.836974 C207.569475,252.317074 206.235421,251.065346 205.638785,249.094887 L205.588063,248.919158 C204.944782,246.577738 205.508044,244.514232 206.827348,242.861461 L206.852281,242.830654 L206.83091,242.806452 C206.076762,241.928301 205.599247,240.841808 205.526392,239.562638 L205.518978,239.387012 C205.457392,236.99811 206.919413,234.942445 209.343151,233.08623 C210.833437,231.944897 212.521127,231.004797 214.118838,230.279824 Z"/><path fill="#4756DF" fill-rule="nonzero" d="M124.305051,277.197372 C124.817611,277.153481 125.271498,277.514147 125.351693,278.014048 L125.360574,278.086381 L127.10242,298.427436 C127.148401,298.964404 126.750379,299.436978 126.213411,299.482959 C125.700851,299.526851 125.246964,299.166185 125.166768,298.666283 L125.157888,298.59395 L123.416042,278.252896 C123.37006,277.715928 123.768083,277.243354 124.305051,277.197372 Z"/><path fill="#A15842" fill-rule="nonzero" d="M101.411842,233.02035 C101.672067,232.548405 102.265608,232.376773 102.737552,232.636997 C105.107074,233.943525 107.648971,234.909445 110.288192,235.50624 C110.813853,235.625106 111.143626,236.147598 111.024761,236.673259 C110.905895,237.19892 110.383403,237.528693 109.857742,237.409828 C107.039592,236.772572 104.325363,235.741165 101.795195,234.34606 C101.32325,234.085835 101.151618,233.492294 101.411842,233.02035 Z"/><path fill="#4756DF" fill-rule="nonzero" d="M69.7558185,291.682843 C69.9455274,291.178404 70.5082458,290.923264 71.0126852,291.112973 C71.4931037,291.293649 71.7473997,291.812654 71.6066513,292.297427 L71.5825551,292.36984 L59.4628189,324.596433 C59.2731099,325.100873 58.7103915,325.356012 58.2059522,325.166303 C57.7255337,324.985628 57.4712376,324.466622 57.611986,323.981849 L57.6360822,323.909437 L69.7558185,291.682843 Z"/><path fill="#A15842" fill-rule="nonzero" d="M117.008259,216.654865 C117.46188,216.414713 118.019114,216.568087 118.288981,216.994687 L118.327257,217.060711 C118.701105,217.766868 119.343585,218.153936 120.183446,218.262729 C120.812173,218.344173 121.495863,218.238721 121.776628,218.098671 L121.824437,218.072043 C122.280644,217.785121 122.883068,217.922353 123.169991,218.378559 C123.456913,218.834766 123.319681,219.43719 122.863475,219.724113 C121.156287,220.797816 117.872232,220.372409 116.602414,217.973863 C116.350254,217.497561 116.531957,216.907025 117.008259,216.654865 Z"/><circle cx="118.041" cy="206.92" r="1.41" fill="#A15842" fill-rule="nonzero"/><path fill="#A15842" fill-rule="nonzero" d="M91.3196182,210.687751 C91.5653387,210.237122 92.1146617,210.057462 92.5751551,210.264249 L92.6435139,210.29818 L97.815382,213.118311 C98.2885428,213.376318 98.4629598,213.969046 98.2049533,214.442207 C97.9592327,214.892837 97.4099097,215.072496 96.9494163,214.865709 L96.8810576,214.831778 L91.7091894,212.011647 C91.2360286,211.75364 91.0616116,211.160912 91.3196182,210.687751 Z"/><path fill="#EAA58B" fill-rule="nonzero" d="M224.112659,414.916759 L260.135209,404.25588 C257.388264,394.761111 252.133451,376.762034 248.75222,366.276803 L203.800879,385.041902 C209.683097,395.576066 216.479844,405.572819 224.112659,414.916759 L224.112659,414.916759 Z"/><path d="M106.755165,346.121155 L119.797055,352.249331 L107.813934,345.008715 C107.121099,345.730825 106.755165,346.121155 106.755165,346.121155 Z"/><polygon points="157.474 369.946 168.832 375.279 171.199 373.112"/><path fill="#FFBE21" fill-rule="nonzero" d="M224.795736,415.721814 C223.741454,419.724386 223.08769,423.821852 222.844088,427.95377 L286.570286,427.95377 C285.347846,425.011781 283.177097,422.562819 280.403077,420.996144 L261.945363,410.545067 C261.945363,410.545067 261.242769,408.105507 260.135209,404.251001 L224.112659,414.916759 C224.55178,415.443704 224.795736,415.721814 224.795736,415.721814 Z"/><path fill="#FF7235" fill-rule="nonzero" d="M222.912396,434.06243 L287.804703,434.06243 L287.604659,432.052232 C287.464451,430.641916 287.114161,429.26049 286.565407,427.95377 L222.839209,427.95377 C222.699256,429.988644 222.723731,432.031493 222.912396,434.06243 L222.912396,434.06243 Z"/><path fill="#A15842" fill-rule="nonzero" d="M190.934637,355.059704 C194.047516,365.79377 198.814418,376.093594 203.800879,385.041902 L248.75222,366.276803 C248.264308,364.700847 247.776396,363.29566 247.366549,362.110034 C233.300044,321.462078 224.795736,288.771968 204.103385,285.459045 C171.535253,280.277419 116.132835,336.367792 107.813934,344.98432 L119.797055,352.249331 L157.473626,369.945902 L171.198593,373.112452 L190.934637,355.059704 Z"/><path fill="#30242A" fill-rule="nonzero" d="M188.353999 337.855924C188.892924 337.858863 189.327438 338.298119 189.324513 338.837044 189.296065 344.078729 189.812651 349.309169 190.865942 354.444016 190.974237 354.971956 190.634046 355.487726 190.106106 355.59602 189.578166 355.704315 189.062396 355.364124 188.954102 354.836184 187.873629 349.568826 187.343711 344.203406 187.372893 338.826452 187.375818 338.287527 187.815074 337.853014 188.353999 337.855924ZM364.465451 243.601067C364.465451 243.601067 319.397011 255.491485 299.573143 266.645155 276.997451 279.330869 275.587385 296.271177 261.481846 339.065946 256.939385 352.839704 253.728923 363.90555 250.74778 372.600144L289.605099 390.945638 289.678286 390.799265C289.678286 390.799265 308.706857 388.003529 310.370637 364.452012 311.624571 346.887177 312.224703 333.855045 318.362637 320.715572L423.234462 243.591309 364.465451 243.601067Z"/><path fill="#4856DF" fill-rule="nonzero" d="M229.796835,398.435089 C216.208484,400.494078 210.538945,403.138561 208.328703,409.300891 L233.997758,421.249858 C233.997758,421.249858 247.761758,417.346561 255.173143,419.254298 L255.173143,419.278693 C260.137821,420.443298 264.983968,422.065214 269.649495,424.12366 C277.297022,413.68522 283.992023,402.581315 289.65389,390.945638 L250.796571,372.600144 C245.224615,388.872012 240.579692,396.800583 229.796835,398.435089 Z"/><path fill="#30242A" fill-rule="nonzero" d="M248.991297,428.236759 L261.511121,434.06243 C264.402827,430.908027 267.110348,427.589603 269.62022,424.12366 C264.954693,422.065214 260.108547,420.443298 255.143868,419.278693 L248.991297,428.236759 Z"/><path fill="#F5EBDD" fill-rule="nonzero" d="M241.671417 387.905305C241.877062 387.435033 242.408701 387.208332 242.885418 387.374334L242.956466 387.402198 251.670576 391.212792C252.164361 391.428719 252.389609 392.004055 252.173682 392.49784 251.968037 392.968112 251.436397 393.194813 250.959681 393.028811L250.888633 393.000947 242.174523 389.190353C241.680738 388.974426 241.45549 388.39909 241.671417 387.905305ZM236.719293 393.950115C236.925159 393.47994 237.456905 393.253489 237.933543 393.419715L238.004578 393.447613 246.718688 397.263085C247.212372 397.479245 247.43735 398.054687 247.22119 398.54837 247.015324 399.018545 246.483579 399.244996 246.00694 399.07877L245.935905 399.050873 237.221796 395.2354C236.728112 395.019241 236.503134 394.443799 236.719293 393.950115Z"/><circle cx="410.08" cy="134.026" r="4.938" fill="#FFBE21" fill-rule="nonzero"/><circle cx="427.484" cy="83.239" r="19.751" fill="#30242A" fill-rule="nonzero"/><path fill="#3EC1F3" fill-rule="nonzero" d="M413.86167,96.4077483 C415.071692,96.9639681 404.928,72.8903857 399.756132,76.6521878 C394.867253,80.1944296 407.728615,93.6071329 413.86167,96.4077483 Z"/><path fill="#3EC1F3" fill-rule="nonzero" d="M414.403253,97.8763637 C415.510813,99.1986054 441.379912,90.1478362 437.823033,84.9222977 C434.353978,79.9016824 413.300571,96.5346054 414.403253,97.8763637 Z"/><path fill="#30242A" fill-rule="nonzero" d="M462.755341,192.341023 L465.019253,191.989726 L465.019253,191.326166 C464.286972,191.712266 463.530798,192.051241 462.755341,192.341023 Z"/><path fill="#A15842" fill-rule="nonzero" d="M401.146681,187.169155 C423.161275,187.569243 434.271033,165.154561 437.091165,158.465287 C436.115341,158.284759 435.139516,158.128627 434.06611,158.011529 C421.380396,156.601463 419.018901,156.133067 414.783824,150.487924 C410.548747,144.842781 410.080352,133.557375 410.080352,133.557375 C410.080352,133.557375 421.048615,131.117814 419.487297,122.271968 C418.077231,114.275089 408.670286,114.275089 403.498418,119.920232 C403.498418,119.920232 395.501538,118.036891 387.977934,109.571616 C387.977934,109.571616 382.474286,110.864583 378.707604,110.235177 C377.73178,116.392627 377.79033,123.281946 376.67789,128.853902 C374.794549,138.260847 376.189978,144.374386 381.849758,147.667792 C387.509538,150.961199 394.076835,148.604583 394.076835,148.604583 L392.666769,157.069858 C392.666769,157.069858 384.455209,158.021287 377.609802,160.172979 C378.971077,170.799704 383.864835,186.856891 401.146681,187.169155 Z"/><polygon fill="#A15842" fill-rule="nonzero" points="431.714 243.601 434.276 241.864 429.836 243.601"/><path fill="#A15842" fill-rule="nonzero" d="M330.135956,189.052496 C330.135956,189.052496 305.481758,155.386561 299.568264,148.604583 C292.981451,141.080979 284.04778,133.088979 281.227648,135.918869 C278.407516,138.748759 286.399516,148.145946 286.399516,148.145946 L284.989451,178.713638 C284.989451,178.713638 301.188132,222.396408 318.850549,228.095221 C327.681758,230.944627 344.456176,223.430781 356.30756,217.068408 L337.976703,183.890386 C333.317143,186.944715 330.135956,189.052496 330.135956,189.052496 Z"/><path fill="#FF7235" fill-rule="nonzero" d="M462.755341,192.341023 C462.755341,192.341023 460.872,181.997287 458.520264,176.352144 C455.002418,167.901507 449.196264,160.738957 437.091165,158.465287 C434.271033,165.154561 423.161275,187.569243 401.146681,187.169155 C383.864835,186.856891 378.971077,170.799704 377.62444,160.172979 C376.182585,160.61365 374.771127,161.148244 373.399121,161.773331 C368.437055,164.090913 349.042549,176.64977 337.976703,183.890386 L356.288044,217.048891 C363.992176,212.916276 369.617802,209.242298 369.617802,209.242298 L364.445934,243.571792 L429.826154,243.571792 L434.266154,241.834825 L465.004615,220.981463 C464.964831,211.392134 464.213005,201.818998 462.755341,192.341023 L462.755341,192.341023 Z"/><path fill="#30242A" fill-rule="nonzero" d="M476.392484,168.360144 C473.021011,152.351748 455.700132,152.83966 455.700132,152.83966 C457.407535,145.059738 455.113344,136.941268 449.586593,131.205638 C440.179648,121.330298 427.010901,125.560496 427.010901,125.560496 C427.498813,119.920232 428.420967,105.341419 416.19389,96.4077483 C403.966813,87.474078 388.451209,92.1726714 382.806066,99.2278802 C380.508,102.101682 379.390681,105.995221 378.722242,110.235177 C382.474286,110.864583 387.992571,109.571616 387.992571,109.571616 C395.516176,118.036891 403.513055,119.920232 403.513055,119.920232 C408.684923,114.275089 418.091868,114.275089 419.501934,122.271968 C421.063253,131.117814 410.094989,133.557375 410.094989,133.557375 C410.094989,133.557375 410.582901,144.842781 414.798462,150.487924 C419.014022,156.133067 421.385275,156.601463 434.080747,158.011529 C435.134637,158.128627 436.139736,158.284759 437.105802,158.465287 C449.210901,160.734078 455.017055,167.901507 458.534901,176.352144 C460.886637,181.997287 462.769978,192.341023 462.769978,192.341023 C463.537132,192.050287 464.28513,191.711325 465.009495,191.326166 C469.566593,188.954913 479.30044,182.168056 476.392484,168.360144 Z"/><path fill="#30242A" fill-rule="nonzero" d="M412.388853 122.385719C412.8461 122.100459 413.448021 122.239881 413.733282 122.697128 414.004279 123.131513 413.892 123.696467 413.488063 123.996451L413.421873 124.041558 409.66007 126.388415C409.202823 126.673675 408.600902 126.534253 408.315641 126.077005 408.044644 125.642621 408.156923 125.077667 408.56086 124.777683L408.62705 124.732576 412.388853 122.385719ZM389.091556 134.764579C389.343716 134.288276 389.934252 134.106573 390.410554 134.358733 390.886856 134.610893 391.06856 135.201429 390.8164 135.677731 389.546666 138.076116 386.271567 138.500628 384.557671 137.429443 384.100657 137.14381 383.961726 136.541774 384.24736 136.08476 384.518712 135.650597 385.075616 135.503503 385.522461 135.734775L385.592043 135.774449C385.838903 135.928737 386.569281 136.053171 387.23712 135.966607 388.031798 135.863603 388.649481 135.510957 389.030292 134.87347L389.091556 134.764579Z"/><circle cx="392.745" cy="124.609" r="1.41" fill="#30242A" fill-rule="nonzero"/><circle cx="381.864" cy="122.74" r="1.41" fill="#30242A" fill-rule="nonzero"/><path fill="#30242A" fill-rule="nonzero" d="M385.987898 125.595852C386.488442 125.795613 386.732274 126.363323 386.532512 126.863866L386.380117 127.260864C386.264088 127.570631 386.148052 127.895643 386.040187 128.219004 385.976706 128.409311 385.917961 128.593467 385.864925 128.769344 385.743832 129.17091 385.656578 129.516052 385.61129 129.779992L385.599711 129.851865 385.584222 129.975232 385.580822 130.015621 385.62128 130.074158C385.724726 130.213007 385.852731 130.33216 385.999215 130.42554L386.089275 130.478426C386.563659 130.734176 386.740897 131.326067 386.485146 131.800451 386.229396 132.274836 385.637505 132.452074 385.163121 132.196323 384.581727 131.882882 384.104866 131.406021 383.769711 130.781867 383.537944 130.296261 383.587583 129.700903 383.829138 128.79112L383.907272 128.508548 383.996384 128.205883C384.055163 128.010963 384.119608 127.808937 384.188825 127.601436 384.304825 127.253689 384.428645 126.906872 384.552472 126.576287L384.719884 126.140465C384.919645 125.639922 385.487355 125.39609 385.987898 125.595852ZM284.997173 149.983018C285.803327 149.322906 286.979221 149.415347 287.673556 150.17555L287.743631 150.25657 288.368242 151.019748 288.673981 151.073776 288.970389 151.129392 289.126707 151.160022C290.273117 151.387846 291.421907 151.690494 292.510203 152.082859 295.495204 153.159046 297.570752 154.702446 298.163355 157.069789 298.470897 158.299956 298.342326 159.445555 297.902538 160.465748L297.829833 160.625274 297.912126 160.68492C299.504034 161.879367 300.514431 163.602406 300.570868 165.812167L300.573363 166.008408C300.573363 168.144417 299.612208 169.717785 298.071303 170.675755L298.006945 170.71432 298.044199 170.776032C298.813554 172.097294 299.092831 173.626732 298.662605 175.302191L298.615559 175.476033C298.002284 177.632078 296.204388 178.809945 293.792029 179.315028L293.713807 179.330359 293.721266 179.343065C294.94295 181.565089 294.784883 183.810897 293.04846 185.624876L292.946529 185.729047C292.879176 185.796401 292.806981 185.858733 292.730525 185.915544 291.78444 186.618543 290.63949 187.002825 289.460855 187.013238 288.383029 187.022211 287.501772 186.155968 287.492512 185.078142 287.483251 184.000316 288.349495 183.119059 289.427321 183.109798 289.700728 183.107449 289.968057 183.037595 290.206129 182.908015L290.285248 182.860891 290.315105 182.825466C290.834289 182.173262 290.678874 181.291835 289.441339 180.036293L289.242357 179.840162C289.103937 179.707414 288.953914 179.570652 288.791849 179.429721L288.539663 179.215176 288.409511 179.107823C286.933514 177.902204 287.886002 175.534303 289.751603 175.647364L289.977352 175.665819 290.090217 175.673115C290.974422 175.725814 291.975733 175.692802 292.878639 175.517463 294.087263 175.282755 294.727674 174.877511 294.861189 174.408123 295.105499 173.549219 294.859712 172.832077 294.215519 172.134827 294.02823 171.932112 293.823628 171.752421 293.621367 171.602311L293.500978 171.515959 293.422415 171.46425C291.714142 170.487006 292.368212 167.905072 294.294164 167.820681L294.449564 167.81514C294.541617 167.809292 294.648811 167.798293 294.766352 167.780872 295.098823 167.731596 295.42757 167.643892 295.71369 167.516673 296.372381 167.223794 296.670066 166.82671 296.670066 166.008408 296.670066 165.02102 296.281898 164.341601 295.5695 163.807071 295.297135 163.602709 294.996295 163.437149 294.696562 163.312163L294.58082 163.265671 294.45204 163.218762 294.38599 163.198168C292.808178 162.803203 292.388307 160.777148 293.639321 159.781848L293.717239 159.721486 293.772797 159.671321C293.869089 159.582403 293.968715 159.474439 294.060593 159.352777 294.379435 158.930581 294.499541 158.508236 294.376746 158.017055 294.189916 157.270707 293.059529 156.430139 291.186353 155.754799 290.300662 155.43548 289.334466 155.180936 288.36589 154.988453 288.161653 154.947865 287.966524 154.911911 287.782496 154.8804L287.363441 154.813239 287.107931 154.777901C286.644578 154.723305 286.217456 154.504742 285.902627 154.163859L285.826303 154.076114 284.723622 152.729476C284.040747 151.895524 284.16322 150.665892 284.997173 149.983018ZM399.677292 145.955653C400.151314 145.699232 400.743455 145.875633 400.999876 146.349656 401.256296 146.823678 401.079895 147.415819 400.605873 147.672239 398.694857 148.705996 396.724669 149.626412 394.705525 150.428715 394.204681 150.627724 393.637339 150.383039 393.43833 149.882196 393.239321 149.381353 393.484006 148.81401 393.984849 148.615001 395.932847 147.840968 397.833613 146.952984 399.677292 145.955653ZM330.727053 188.160325C331.13883 187.856073 331.710852 187.923668 332.041613 188.302817L332.091775 188.365262 337.034324 195.054537C337.35459 195.487987 337.262836 196.098994 336.829387 196.419259 336.41761 196.723512 335.845587 196.655917 335.514827 196.276768L335.464665 196.214322 330.522115 189.525047C330.20185 189.091598 330.293603 188.480591 330.727053 188.160325Z"/><path fill="#A15842" fill-rule="nonzero" d="M370.264243 193.592672C370.349039 193.060452 370.84923 192.697744 371.38145 192.78254 371.889478 192.863483 372.243055 193.322914 372.200397 193.827407L372.191582 193.899748 369.791054 208.966473C369.706257 209.498693 369.206067 209.861401 368.673847 209.776605 368.165818 209.695662 367.812242 209.236231 367.8549 208.731738L367.863715 208.659397 370.264243 193.592672ZM429.119002 199.127879C429.633414 199.122951 430.058704 199.516933 430.100837 200.021469L430.104218 200.094267 430.338416 224.309344C430.343628 224.848252 429.910982 225.289348 429.372075 225.294606 428.857663 225.299535 428.432373 224.905553 428.39024 224.401016L428.386859 224.328219 428.152661 200.113142C428.147449 199.574234 428.580095 199.133138 429.119002 199.127879Z"/><path fill="#000" fill-rule="nonzero" d="M455.4698 153.246188C455.609061 152.725559 456.144007 152.416398 456.664637 152.555659 457.185266 152.694919 457.494427 153.229866 457.355167 153.750495 456.66046 156.347677 455.730266 158.876068 454.576149 161.304233 454.344796 161.790982 453.762659 161.99802 453.275911 161.766667 452.789162 161.535313 452.582124 160.953177 452.813477 160.466428 453.916639 158.145466 454.805765 155.728705 455.4698 153.246188ZM426.915945 125.919336C427.016871 125.389937 427.52785 125.042592 428.057248 125.143518 428.562583 125.239856 428.902039 125.709817 428.844075 126.212781L428.833066 126.28482 427.501066 133.271721C427.40014 133.80112 426.889161 134.148465 426.359763 134.047539 425.854428 133.951201 425.514972 133.48124 425.572936 132.978276L425.583945 132.906237 426.915945 125.919336Z"/><path fill="#30242A" fill-rule="nonzero" d="M399.26822,244.074342 C399.26822,244.074342 358.820308,256.760056 336.249495,267.586825 C313.805538,278.320891 316.498813,303.326386 320.729011,347.062825 C322.226901,362.524759 323.978505,374.629858 324.866505,384.217331 L367.802769,384.217331 C370.008132,382.987792 383.025626,374.629858 375.262945,351.766298 C369.593407,335.074825 364.699648,324.018737 364.699648,309.51799 L400.609978,309.51799 C421.849384,309.518753 439.235696,292.623262 439.842989,271.392539 L440.628527,244.069463 L399.26822,244.074342 Z"/><path fill="#4856DF" fill-rule="nonzero" d="M316.679341,415.141199 C305.242681,422.762386 301.227165,427.553682 301.822418,434.077067 L330.121319,434.038034 C330.121319,434.038034 340.93833,424.675001 348.461934,423.264935 C353.447749,422.317603 358.512201,421.845466 363.587209,421.854869 C365.309538,413.418869 367.163604,400.75755 367.490505,384.392979 L367.802769,384.231968 L324.866505,384.231968 C326.364396,400.323309 325.412967,409.310649 316.679341,415.141199 Z"/><path fill="#30242A" fill-rule="nonzero" d="M346.690813,433.994122 L360.503604,433.994122 C360.503604,433.994122 362.006374,429.793199 363.626242,421.859748 C358.551234,421.850345 353.486782,422.322483 348.500967,423.269814 L346.690813,433.994122 Z"/><path fill="#000" fill-rule="nonzero" d="M364.265407,309.40577 C364.804339,309.40577 365.241231,309.842662 365.241231,310.381594 C365.241231,310.89603 364.843154,311.31749 364.338233,311.354742 L364.265407,311.357419 L353.180044,311.357419 C352.641111,311.357419 352.20422,310.920527 352.20422,310.381594 C352.20422,309.867159 352.602296,309.445698 353.107217,309.408447 L353.180044,309.40577 L364.265407,309.40577 Z"/><path fill="#F5EBDD" fill-rule="nonzero" d="M334.605231 401.81632C335.144164 401.81632 335.581055 402.253211 335.581055 402.792144 335.581055 403.30658 335.182978 403.72804 334.678058 403.765292L334.605231 403.767968 324.002901 403.767968C323.463968 403.767968 323.027077 403.331077 323.027077 402.792144 323.027077 402.277708 323.425154 401.856248 323.930074 401.818996L324.002901 401.81632 334.605231 401.81632ZM332.248615 409.339924C332.787548 409.339924 333.22444 409.776815 333.22444 410.315748 333.22444 410.830184 332.826363 411.251644 332.321442 411.288896L332.248615 411.291572 321.646286 411.291572C321.107353 411.291572 320.670462 410.854681 320.670462 410.315748 320.670462 409.801312 321.068538 409.379852 321.573459 409.342601L321.646286 409.339924 332.248615 409.339924Z"/><path fill="#FFB7D5" fill-rule="nonzero" d="M427.445143,251.597946 L514.015385,251.597946 L514.015385,395.0441 L388.00233,395.0441 L388.00233,291.060276 C388.005019,269.274567 405.659438,251.611412 427.445143,251.597946 L427.445143,251.597946 Z"/><path fill="#4756DF" fill-rule="nonzero" d="M492.381363 395.107529C494.750559 388.303854 501.165862 383.744676 508.370242 383.744676 515.574621 383.744676 521.989924 388.303854 524.359121 395.107529 526.619398 388.628667 532.564799 384.153241 539.416088 383.773331 537.919944 381.104805 536.138376 378.606682 534.102725 376.322913L527.955033 369.438474C524.03348 365.03943 523.284598 358.656382 526.081451 353.469111L531.30211 343.769419 531.30211 343.769419C529.838374 345.233155 521.36822 353.176364 508.511736 353.176364 495.655253 353.176364 487.189978 345.247792 485.726242 343.769419L485.726242 343.769419 490.95178 353.469111C493.743044 358.658941 492.990453 365.040371 489.06844 369.438474L482.920747 376.322913C480.880276 378.610357 479.095351 381.113507 477.597626 383.787968 484.344214 384.269372 490.156931 388.720033 492.381363 395.107529ZM540.348 404.895045C533.143127 404.898809 526.728926 409.45941 524.359121 416.263397 521.994555 409.454854 515.577698 404.890569 508.370242 404.890569 501.162786 404.890569 494.745929 409.454854 492.381363 416.263397 489.48467 407.941183 480.690077 403.230931 472.157407 405.431748 472.398402 416.16688 476.730183 426.404683 484.267385 434.052671L532.707297 434.052671C540.229528 426.420873 544.558627 416.207969 544.812396 405.495177 543.357406 405.098315 541.856142 404.896506 540.348 404.895045Z"/><path fill="#30242A" fill-rule="nonzero" d="M508.487341,353.176364 C521.343824,353.176364 529.809099,345.247792 531.277714,343.769419 L485.701846,343.769419 C487.165582,345.247792 495.635736,353.176364 508.487341,353.176364 Z"/><path fill="#3EC1F3" fill-rule="nonzero" d="M492.381363,416.273155 C494.745929,409.464612 501.162786,404.900327 508.370242,404.900327 C515.577698,404.900327 521.994555,409.464612 524.359121,416.273155 C527.28293,407.862419 536.223522,403.155385 544.812396,405.504935 C545.006752,397.906926 543.142125,390.397843 539.416088,383.773331 C532.564799,384.153241 526.619398,388.628667 524.359121,395.107529 C521.989924,388.303854 515.574621,383.744676 508.370242,383.744676 C501.165862,383.744676 494.750559,388.303854 492.381363,395.107529 C490.149983,388.704589 484.313649,384.250545 477.548835,383.787968 C473.849591,390.393604 471.995784,397.872872 472.181802,405.441507 C480.714473,403.240689 489.509065,407.950941 492.405758,416.273155 L492.381363,416.273155 Z"/><path fill="#30242A" fill-rule="nonzero" d="M526.915893 310.707658C527.269357 310.300826 527.885698 310.257563 528.29253 310.611026 528.699362 310.96449 528.742625 311.580831 528.389162 311.987663 523.75431 317.322315 519.995868 325.062876 517.048988 334.346661 515.044546 340.661408 513.671718 346.816256 512.826813 352.001305 512.740137 352.533222 512.238669 352.894161 511.706751 352.807485 511.174834 352.720809 510.813895 352.21934 510.900571 351.687423 511.759574 346.415856 513.152185 340.172317 515.188804 333.756198 518.209124 324.241049 522.074741 316.27976 526.915893 310.707658ZM499.596384 293.935363C500.107661 293.764937 500.66029 294.041252 500.830715 294.552528 502.075566 298.28708 503.142828 302.610128 504.047033 307.422783L504.231788 308.425458 504.411918 309.441911C504.441556 309.612457 504.471002 309.783569 504.500258 309.955243L504.673505 310.991997C504.815976 311.861523 504.953705 312.744895 505.086765 313.641604L505.244201 314.724025 505.397184 315.819055 505.545742 316.9265 505.689905 318.046166 505.8297 319.177858 505.965157 320.321381C505.987373 320.512944 506.00941 320.704991 506.031267 320.897519L506.160269 322.058424 506.285005 323.230673 506.405501 324.414073 506.521788 325.608428 506.633893 326.813543 506.741845 328.029225 506.84436 329.238569 506.941651 330.441156 507.033806 331.636285 507.120914 332.823257 507.203063 334.001371 507.28034 335.169925 507.352834 336.32822 507.420634 337.475554 507.483826 338.611228 507.542499 339.73454 507.596742 340.844789 507.646642 341.941277 507.692288 343.0233 507.733767 344.09016 507.771169 345.141155 507.80458 346.175584 507.834089 347.192748 507.871228 348.684588 507.891368 349.655521 507.907914 350.606737 507.920954 351.537534C507.92284 351.690927 507.924584 351.843439 507.926243 351.995057 507.931886 352.53396 507.499638 352.975446 506.960735 352.981702 506.421833 352.986843 505.980346 352.554595 505.974648 352.015692L505.963402 351.101602 505.940051 349.691787 505.920035 348.727152 505.896357 347.743532 505.868932 346.74163 505.83767 345.722151 505.802486 344.6858 505.742162 343.101176 505.696788 342.025724 505.647186 340.935863 505.593267 339.832298 505.534945 338.715733 505.472133 337.586873 505.404743 336.446421 505.332687 335.295083 505.255879 334.133561 505.174231 332.96256 505.087656 331.782785 504.996067 330.594939 504.899376 329.399728 504.797495 328.197854 504.744595 327.595057 504.635729 326.397312C504.617243 326.198569 504.598586 326.000268 504.579757 325.802415L504.464723 324.620698 504.345545 323.44992 504.222201 322.290284 504.094667 321.141994C504.073061 320.95157 504.051279 320.761626 504.029321 320.572168L503.895455 319.441278C503.850126 319.066279 503.804088 318.693256 503.757338 318.322242L503.614947 317.215263C503.542679 316.664822 503.468798 316.118978 503.393292 315.577847L503.240108 314.501901C503.110642 313.610571 502.976634 312.732542 502.838024 311.868344L502.669478 310.837978 502.496488 309.821092C502.262862 308.474322 502.017323 307.164041 501.759614 305.892419L501.564047 304.945984C500.805593 301.34603 499.946018 298.07009 498.979219 295.169694 498.808793 294.658417 499.085108 294.105788 499.596384 293.935363Z"/><ellipse cx="533.248" cy="325.972" fill="#30242A" fill-rule="nonzero" rx="18.443" ry="4.147" transform="rotate(-23.75 533.248 325.972)"/><ellipse cx="532.049" cy="269.976" fill="#30242A" fill-rule="nonzero" rx="10.202" ry="3.562" transform="rotate(-53.51 532.049 269.976)"/><ellipse cx="483.868" cy="329.155" fill="#30242A" fill-rule="nonzero" rx="22.254" ry="3.933" transform="rotate(-8.6 483.868 329.155)"/><path fill="#FF7235" fill-rule="nonzero" d="M475.963121 301.316188 475.963121 301.350342C479.680812 303.432979 481.192639 308.009893 479.44691 311.897185 477.701181 315.784476 473.275886 317.69511 469.249451 316.299968L469.249451 316.334122C479.437055 320.910737 489.205055 321.257155 491.068879 317.109902 492.932703 312.962649 486.150725 305.892803 475.963121 301.316188ZM506.077055 268.143045C503.905846 267.581946 501.085714 270.860715 499.026725 275.949638 496.548132 269.787309 492.95222 265.664452 490.532176 266.464627 488.112132 267.264803 487.673011 272.714781 489.351429 279.150342 484.677231 276.300935 480.456791 275.344627 479.051604 277.086474 477.256088 279.311353 480.715385 285.078474 486.780132 289.972232 488.505827 291.379491 490.363675 292.616422 492.327692 293.665726 493.007191 290.967712 495.005166 288.796428 497.637478 287.895356 500.269791 286.994284 503.179239 287.485698 505.369582 289.201331 506.278782 287.245971 507.0056 285.210881 507.540791 283.121946 509.49244 275.559309 508.843516 268.860276 506.077055 268.143045ZM553.355736 302.379836C552.687297 300.242781 548.413187 299.5841 543.016879 300.516012 546.920176 295.148979 548.540044 289.923441 546.578637 288.288935 544.617231 286.65443 539.747868 289.172056 535.190769 293.992627 535.137099 288.518254 533.727033 284.43443 531.497275 284.161199 528.662505 283.814781 525.593538 289.801463 524.666505 297.534869 524.385774 299.743268 524.318782 301.973602 524.466462 304.194869 527.115794 303.344985 530.015219 303.892747 532.171898 305.650588 534.328577 307.408429 535.449839 310.137803 535.151736 312.9041 537.292462 312.642878 539.404387 312.183906 541.46044 311.533067 548.871824 309.205726 554.209582 305.107265 553.355736 302.379836Z"/><path fill="#30242A" fill-rule="nonzero" d="M532.214505 305.707397C530.053531 303.905743 527.120964 303.335062 524.442066 304.194869 524.705538 307.873726 525.637451 310.688979 527.037758 311.73799 528.340484 312.948012 531.365538 313.3481 535.127341 312.9041 535.423377 310.1687 534.329803 307.46682 532.214505 305.707397L532.214505 305.707397ZM497.724 287.849814C495.050954 288.731103 493.016003 290.920747 492.332571 293.651089 495.591824 295.373419 498.475385 296.090649 500.105011 295.436847 501.822462 294.948935 503.759473 292.616715 505.374462 289.186693 503.20952 287.487065 500.337044 286.985115 497.724 287.849814Z"/><path fill="#F5EBDD" fill-rule="nonzero" d="M476.870637,315.119221 C475.06364,314.104851 474.331888,311.877449 475.185271,309.989084 C476.038655,308.10072 478.193983,307.178037 480.149407,307.863968 C479.92779,305.123921 478.35135,302.675952 475.948484,301.340583 L469.234813,316.29021 C471.816152,317.197137 474.679694,316.758 476.870637,315.119221 L476.870637,315.119221 Z"/><path fill="#4856DF" fill-rule="nonzero" d="M475.158066,309.996144 C474.307476,311.892119 475.052007,314.12359 476.870637,315.128979 C479.142046,313.438169 480.381349,310.695843 480.149407,307.873726 C478.186711,307.17087 476.013477,308.094973 475.158066,309.996144 L475.158066,309.996144 Z"/><g transform="rotate(31 145.71 525.41)"><path fill="#30242A" fill-rule="nonzero" d="M109.719582,212.166052 L109.719582,212.166052 C107.719143,212.946712 105.425956,211.922096 104.694088,209.921657 L54.1951865,77.0144038 C53.4145271,75.0139642 54.4391425,72.7207774 56.4395821,71.9889093 L56.4395821,71.9889093 C58.4400216,71.20825 60.7332085,72.2328653 61.4650766,74.2333049 L111.915186,207.091766 C112.744637,209.140997 111.720022,211.385393 109.719582,212.166052 Z"/><g transform="rotate(-20 68.614 12.098)"><mask id="e" fill="#fff"><use xlink:href="#c"/></mask><path fill="url(#d)" d="M0,0 L0,53.5662343 C0,63.055071 7.69218172,70.7472527 17.1810184,70.7472527 L17.1810184,70.7472527 L70.7472527,70.7472527 L70.7472527,17.1807077 C70.7472527,7.69187099 63.0553818,0 53.566545,0 L53.566545,0 L0,0 Z" mask="url(#e)"/><path fill="#FFF" d="M42.3149542,34.1405468 L35.2669209,41.0816882 C34.9061605,41.4368554 34.4347794,41.616148 33.9627768,41.616148 C33.521226,41.616148 33.078743,41.4595389 32.7254402,41.1441454 L28.9189677,37.747529 C28.1530122,37.0639177 28.0862047,35.889349 28.7695054,35.1233935 C29.452806,34.3574381 30.6276854,34.2906306 31.3936409,34.9739312 L33.9003196,37.2105834 L39.7066661,31.4921742 C40.4378195,30.7718963 41.614874,30.7809076 42.3351518,31.5123718 C43.0551189,32.2435252 43.0461077,33.420269 42.3149542,34.1405468 M58.831316,29.653881 L58.8362877,29.6504629 L58.8303838,29.6504629 C58.4217706,28.1443428 57.2030779,26.8594641 55.4331459,26.6093245 C55.4331459,26.6093245 54.1470243,26.419467 52.0539306,26.1105989 C49.3791457,25.6199524 45.9446199,24.8449857 44.775023,23.9407542 C43.2409369,22.7549992 41.15499,19.0339782 39.9707886,16.7606596 C39.3903404,15.6065993 39.0494669,14.9282704 39.0494669,14.9282704 C38.3204886,13.4488732 36.8898764,12.6903753 35.440931,12.6540196 L35.4403096,12.6524659 L35.4396881,12.6540196 C33.923003,12.616421 32.3864311,13.3708793 31.6148824,14.9282704 C31.6148824,14.9282704 31.2743196,15.6050456 30.6907641,16.7656313 C29.4276367,19.2023952 27.1527645,23.3112103 25.696983,24.3040005 C24.0777562,25.4083436 19.7812586,26.2783944 17.2369814,26.7165272 C15.9971589,26.9129101 15.2697342,27.0281918 15.2697342,27.0281918 C13.6884168,27.2655914 12.5511361,28.3373076 12.0505461,29.6504629 L12.0446422,29.6504629 L12.0493032,29.653881 C11.4946457,31.1124591 11.7252092,32.8680974 13.0100879,34.1110272 C13.0100879,34.1110272 13.5513838,34.6411368 14.4798524,35.5500292 C16.4172692,37.4939714 19.6398754,40.9101639 20.1432619,42.598684 C20.7115916,44.5050276 20.1423297,49.0476252 19.7433493,51.6372694 C19.7045077,51.8815051 19.6697057,52.1015037 19.6392539,52.29509 C19.5155824,53.0545201 19.4264022,53.5305622 19.4264022,53.5305622 L19.4503286,53.526212 C19.2934087,55.0021911 19.9462576,56.3137927 20.9825503,57.1490416 L20.9809966,57.1540133 L20.9850361,57.150906 C22.2009322,58.1290917 23.9422768,58.4519427 25.5214191,57.614208 C25.5214191,57.614208 26.0456248,57.340142 26.9610425,56.8613033 C29.3247843,55.6553507 33.9515904,53.4295742 35.809149,53.4799128 C37.6539675,53.5299408 41.2565995,55.1392241 43.5805675,56.2743297 C44.9378468,56.9660201 45.7491692,57.379605 45.7491692,57.379605 C47.1682843,58.1169731 48.7185285,57.9190366 49.895583,57.150906 L49.8999332,57.1540133 L49.8980688,57.1490416 C51.204388,56.2951488 52.0492696,54.7383792 51.7407122,52.9777692 C51.7407122,52.9777692 51.6418993,52.3945244 51.4694428,51.3759434 C51.0530613,48.7555367 50.3657212,43.6672929 50.9878075,41.9160048 C51.6055436,40.177146 54.2492553,37.2478713 56.0471532,35.388759 C57.1241519,34.3114497 57.7683003,33.667612 57.7683003,33.667612 C58.9080669,32.5461786 59.198291,31.0105389 58.831316,29.653881"/></g></g><path fill="#A15842" fill-rule="nonzero" d="M286.867912,148.136188 C286.867912,148.136188 276.524176,148.136188 275.11411,152.366386 C273.704044,156.596583 276.992571,159.894869 276.992571,159.894869 C276.992571,159.894869 271.352308,162.715001 275.11411,167.886869 C275.11411,167.886869 272.289099,172.590342 276.992571,175.410474 C276.992571,175.410474 274.17244,178.70388 278.875912,181.997287 C283.579385,185.290693 290.161319,185.759089 291.561626,184.349023 C293.225407,182.685243 292.888747,180.250561 289.639253,177.59632 C289.639253,177.59632 295.796703,178.235485 296.733495,174.942078 C297.670286,171.648671 294.386637,169.77021 294.386637,169.77021 C294.386637,169.77021 298.616835,169.77021 298.616835,166.008408 C298.616835,162.246605 294.855033,161.304935 294.855033,161.304935 C294.855033,161.304935 296.845714,159.865594 296.265099,157.543133 C295.572264,154.776671 291.073714,153.537375 288.736615,153.073858 C288.115542,152.959373 287.488325,152.881174 286.858154,152.83966 L286.867912,148.136188 Z"/><path fill="#30242A" fill-rule="nonzero" d="M276.60008 175.523302C276.756034 175.007427 277.30066 174.715654 277.816534 174.871608 282.421688 176.263796 287.163521 177.155409 291.959828 177.53099 292.497116 177.573063 292.898567 178.042728 292.856494 178.580016 292.814421 179.117304 292.344756 179.518755 291.807468 179.476682 286.871307 179.090149 281.991207 178.172538 277.251773 176.739756 276.735899 176.583802 276.444125 176.039177 276.60008 175.523302ZM274.835293 168.023295C274.964742 167.500139 275.493782 167.180977 276.016937 167.310426 282.735374 168.972825 289.653816 169.684446 296.569984 169.424481 297.108536 169.404238 297.56153 169.824411 297.581773 170.362963 297.602016 170.901516 297.181843 171.354509 296.643291 171.374752 289.54471 171.641573 282.443796 170.911184 275.548162 169.204939 275.025006 169.07549 274.705844 168.54645 274.835293 168.023295ZM276.321841 160.223195C276.447703 159.699165 276.974545 159.376387 277.498575 159.502249 283.842141 161.025855 290.400882 161.444498 296.886681 160.739788 297.42246 160.681573 297.903988 161.068716 297.962202 161.604495 298.020417 162.140274 297.633275 162.621802 297.097495 162.680017 290.388702 163.408956 283.604458 162.975919 277.042788 161.399929 276.518758 161.274067 276.195979 160.747225 276.321841 160.223195Z"/><path fill="#A15842" fill-rule="nonzero" d="M428.420967,237.507045 C428.420967,237.507045 390.32967,247.387265 377.160923,257.262605 C371.213275,261.722122 363.987297,269.94832 361.645319,273.71988 C359.303341,277.491441 349.418242,291.5921 354.121714,292.060496 C358.825187,292.528891 363.997055,284.068496 363.997055,284.068496 C363.997055,284.068496 361.167165,294.412232 361.655077,297.705638 C362.142989,300.999045 366.826945,300.057375 366.826945,300.057375 C370.588747,303.819177 373.882154,299.115704 373.882154,299.115704 C380.464088,303.345902 387.543692,280.775089 387.543692,280.775089 C391.406112,278.871327 394.971045,276.415813 398.126505,273.485682 C398.126505,273.485682 440.213802,273.251485 453.382549,261.492803 C462.730945,253.149507 465.038769,236.692232 465.033898,221.030254 L428.440484,221.030254 L428.420967,237.507045 Z"/><path fill="#30242A" fill-rule="nonzero" d="M437.122844 233.271829C437.645686 233.141119 438.175495 233.459004 438.306205 233.981845 438.430974 234.480921 438.147002 234.986346 437.666192 235.144946L437.596189 235.165206 429.008936 237.312019C428.486094 237.44273 427.956286 237.124844 427.825575 236.602003 427.700806 236.102927 427.984778 235.597503 428.465588 235.438902L428.535592 235.418642 437.122844 233.271829ZM368.423521 270.724214C368.908498 270.959259 369.111107 271.542952 368.876062 272.027929L368.685174 272.426623C368.653251 272.494103 368.621274 272.562102 368.589242 272.630622L368.39639 273.048033C368.364137 273.118655 368.331828 273.189806 368.299463 273.26149L368.104594 273.698017 367.908351 274.147509 367.71071 274.610144C367.677652 274.688355 367.644535 274.767121 367.611358 274.846445L367.411578 275.329126 367.210342 275.825393 367.007627 276.335423 366.803409 276.859393 366.597666 277.39748 366.390373 277.949862 366.076478 278.805626 365.865209 279.39452 365.65231 279.998329 365.437755 280.617231 365.112771 281.574269 364.783932 282.566263 364.562526 283.247306 364.339348 283.944328 364.114376 284.657506 363.887585 285.387017 363.543939 286.512296 363.3125 287.283416 363.079161 288.071489C362.927092 288.588522 362.384678 288.884385 361.867644 288.732316 361.350611 288.580247 361.054748 288.037833 361.206817 287.520799L361.443276 286.722219 361.677901 285.940576 361.910717 285.175691 362.256605 284.059393 362.48501 283.335619 362.711695 282.627977 362.936685 281.936286 363.160007 281.260369 363.381685 280.600046 363.601744 279.955139 363.820211 279.325467 364.144981 278.409136 364.46631 277.526079 364.67866 276.955561 364.889544 276.399385 365.098988 275.857371 365.307017 275.32934 365.513657 274.815112 365.718933 274.31451 365.92287 273.827354 366.125494 273.353464 366.32683 272.892663 366.526904 272.44477 366.725741 272.009607 366.923367 271.586995 367.119806 271.176755C367.354851 270.691778 367.938544 270.489169 368.423521 270.724214ZM373.689869 274.016506C373.916774 273.527667 374.496998 273.315328 374.985836 273.542233 375.474674 273.769137 375.687014 274.349362 375.460109 274.8382 372.072974 282.135369 369.670663 290.39579 367.486704 300.205994 367.369593 300.732049 366.848204 301.063563 366.32215 300.946452 365.796095 300.829342 365.46458 300.307953 365.581691 299.781898L365.723221 299.149666 366.008272 297.897836C368.109059 288.778957 370.449057 280.998438 373.689869 274.016506ZM381.561678 276.82143C382.055669 277.036886 382.281467 277.612007 382.06601 278.105998L381.894468 278.503166 381.724466 278.904549 381.555859 279.310523 381.305242 279.92892 381.056936 280.559772 380.892438 280.987888 380.646883 281.642329 380.402318 282.31262 380.239579 282.768917 379.995563 283.468458 379.751215 284.187247 379.50604 284.926559 379.341885 285.431463 379.09423 286.207808 378.844426 287.008073 378.591978 287.833529 378.250412 288.975528 377.989867 289.864721 377.545833 291.412757 377.087572 293.048463 376.612789 294.777738 376.11919 296.606478 375.60448 298.540579 375.284567 299.754068C375.147582 300.2753 374.61399 300.586795 374.092758 300.449809 373.571525 300.312824 373.260031 299.779233 373.397016 299.258L374.03476 296.847094 374.541553 294.958257 374.932563 293.521489 375.405295 291.813265 375.772146 290.513054 376.041473 289.574553 376.306391 288.666004 376.567416 287.786084 376.825061 286.933471 377.079843 286.106843 377.415987 285.042807 377.582874 284.526251 377.832154 283.769642 378.08063 283.033729 378.328817 282.317188 378.494368 281.849604 378.743218 281.162413 378.993152 280.491068 379.244685 279.834248 379.413517 279.403784 379.66886 278.768232C379.697387 278.698251 379.725969 278.628473 379.754609 278.558891L379.927176 278.143678 380.101292 277.732766 380.27711 277.325762C380.492567 276.831771 381.067687 276.605974 381.561678 276.82143Z"/><path fill="#000" fill-rule="nonzero" d="M371.103117,253.64201 C371.283818,254.149746 371.018705,254.707835 370.510969,254.888536 L368.647326,255.554823 L366.808275,256.218455 L365.596251,256.659311 L363.799752,257.318117 L362.02972,257.973789 L360.28686,258.626148 L358.571875,259.275015 L357.444385,259.705564 L356.329805,260.134429 L354.682597,260.774451 L353.601204,261.198872 L352.53345,261.621423 L351.479543,262.042051 L350.439692,262.460701 L349.414106,262.877323 C349.244376,262.946588 349.075248,263.015766 348.906728,263.084856 L347.902929,263.498334 L346.913916,263.909649 L345.939897,264.31875 L344.98108,264.725582 L344.037674,265.130093 L343.109887,265.532229 L342.197928,265.931939 C342.047265,265.998352 341.89727,266.064661 341.747948,266.130866 L340.860121,266.526835 L339.988642,266.920244 L339.13372,267.311039 L338.295563,267.699168 C338.157279,267.763632 338.019702,267.827981 337.882837,267.892217 L337.070219,268.276247 C336.936217,268.340021 336.802936,268.403678 336.670379,268.467217 C328.488666,272.378609 323.593528,278.284587 321.065135,286.962169 L320.921544,287.466676 L320.782977,287.977391 C320.692267,288.319972 320.60489,288.666802 320.52081,289.018099 L320.397161,289.548423 C320.376963,289.637378 320.356971,289.726619 320.337183,289.81615 L320.220907,290.356837 C320.201936,290.44754 320.183168,290.538539 320.164602,290.629838 L320.055643,291.181259 C320.037888,291.273772 320.020334,291.366591 320.002982,291.459721 L319.901283,292.022248 L319.804391,292.592385 L319.712283,293.170298 C319.697329,293.267274 319.682573,293.364581 319.668015,293.462222 L319.583033,294.052109 C319.555494,294.250093 319.528742,294.449442 319.502772,294.650184 L319.427204,295.256612 L319.356306,295.87156 L319.290052,296.495191 L319.228416,297.127672 C319.218527,297.233832 319.20883,297.340368 319.199323,297.447283 L319.144567,298.093347 C319.135822,298.201792 319.127266,298.310623 319.1189,298.419843 L319.070968,299.079863 L319.027554,299.749393 C319.020693,299.861783 319.01402,299.974576 319.007533,300.087776 L318.970847,300.771881 L318.938616,301.465908 C318.933614,301.582416 318.928796,301.699344 318.924163,301.816695 L318.898565,302.525917 L318.877359,303.245475 L318.860518,303.975535 L318.848017,304.71626 L318.837349,305.847709 L318.835589,306.615823 C318.835651,306.744775 318.83589,306.874195 318.836305,307.004087 L318.840913,307.78913 L318.849736,308.585665 L318.862746,309.393857 L318.890061,310.628365 L318.913433,311.466424 L318.940905,312.316718 L318.972451,313.179414 L319.008048,314.054675 L319.06898,315.391489 L319.138881,316.757506 L319.190423,317.684683 L319.245888,318.625252 L319.30525,319.579378 C319.315467,319.739538 319.325846,319.90027 319.336385,320.061577 C319.371523,320.599363 318.964046,321.063809 318.426259,321.098947 C317.888473,321.134084 317.424027,320.726607 317.388889,320.188821 L317.326743,319.214493 L317.268544,318.253849 L317.188709,316.838167 L317.117913,315.452311 L317.075785,314.544694 L317.037745,313.649905 L317.003822,312.767775 L316.974043,311.898132 L316.948436,311.040806 L316.92703,310.195625 C316.923814,310.055764 316.920774,309.916402 316.917911,309.777536 L316.896932,308.541016 L316.888297,307.731247 C316.887217,307.597245 316.886316,307.463721 316.885595,307.330671 L316.88344,306.53803 L316.885641,305.756595 L316.892225,304.986194 L316.903221,304.226657 L316.918656,303.477813 C316.921601,303.353887 316.924731,303.230399 316.928048,303.107347 L316.950196,302.374221 L316.976854,301.651361 L317.008051,300.938596 L317.043813,300.235754 L317.084171,299.542665 L317.129151,298.859158 L317.178782,298.185062 L317.233092,297.520206 L317.292109,296.864418 L317.355861,296.217529 L317.424377,295.579368 C317.436194,295.473725 317.448212,295.368439 317.46043,295.263506 L317.536143,294.638115 C317.549164,294.534579 317.562386,294.431389 317.575811,294.328542 L317.658785,293.715537 L317.746636,293.110575 L317.83939,292.513485 L317.937077,291.924098 C317.970464,291.7289 318.004678,291.534957 318.039724,291.342241 L318.147359,290.767745 C318.165716,290.672599 318.184281,290.577753 318.203056,290.483203 L318.318227,289.919425 C318.337843,289.826045 318.35767,289.732953 318.377708,289.640147 L318.500478,289.086705 L318.628348,288.539939 C318.650087,288.449358 318.672039,288.359048 318.694205,288.269006 L318.82978,287.731933 C318.875832,287.55396 318.922746,287.377029 318.970526,287.20111 L319.116472,286.676365 C319.141231,286.589404 319.166208,286.50269 319.191404,286.416218 C321.872867,277.213291 327.137728,270.861242 335.827701,266.706869 L336.230912,266.514287 L337.0502,266.127085 C337.18817,266.062327 337.326847,265.997458 337.466227,265.932478 L338.310916,265.541282 L339.172283,265.147488 C339.317223,265.081641 339.462849,265.015689 339.609157,264.949632 L340.495156,264.552035 C340.644176,264.485561 340.793869,264.418985 340.944231,264.352306 L341.854402,263.951022 L342.780431,263.547342 L343.722113,263.141319 L344.679245,262.733003 L345.651619,262.322445 L346.639033,261.909696 L347.641281,261.494808 L348.658157,261.077831 L349.689458,260.658816 L350.734978,260.237815 C350.910405,260.167485 351.086416,260.097075 351.263007,260.026585 L352.329472,259.602699 L353.409644,259.176954 C353.590804,259.105844 353.772526,259.034659 353.954807,258.9634 L355.055156,258.534961 L356.730356,257.889073 L358.434554,257.23946 L359.586454,256.8044 L361.337445,256.148963 L363.115589,255.49026 L364.315762,255.049396 L365.527491,254.607208 L366.750572,254.163747 L368.606029,253.496281 L369.856592,253.049862 C370.364328,252.869161 370.922416,253.134275 371.103117,253.64201 Z"/><path fill="#EAA58B" fill-rule="nonzero" d="M94.5573626,388.935441 C75.318989,392.838737 61.6086593,397.854474 61.6086593,397.854474 L43.0972747,389.652671 L43.1363077,389.247704 L0,428.422166 L0.94167033,429.549243 C3.32539324,432.408399 6.8554475,434.061715 10.5779341,434.06243 L97.1579341,434.06243 L94.5573626,388.935441 Z"/><path fill="#A15842" fill-rule="nonzero" d="M61.5891429,397.854474 C61.5891429,397.854474 75.2994725,392.814342 94.5378462,388.935441 L97.1384176,434.06243 L158.932484,434.06243 C175.638593,434.06243 190.280835,422.352539 193.393714,405.939177 C195.467341,394.98555 192.227604,383.256144 180.586022,375.278781 C161.859956,362.446693 121.802374,345.652759 111.458637,342.359353 L54.5534505,355.532979 C43.7364396,367.29166 46.0881758,386.569067 46.0881758,386.569067 L61.5891429,397.854474 Z"/><path fill="#30242A" fill-rule="nonzero" d="M94.5135996 388.587253C111.366575 385.328497 124.518312 384.080232 141.832663 384.886827 142.371012 384.911907 142.787099 385.368655 142.76202 385.907004 142.736941 386.445353 142.280192 386.861441 141.741843 386.836361 124.59903 386.037757 111.59626 387.271883 94.8841147 390.503408 94.3549831 390.605723 93.8430946 390.25972 93.7407797 389.730588 93.6384647 389.201457 93.984468 388.689568 94.5135996 388.587253ZM111.504685 341.575215C111.668286 341.061714 112.217186 340.778064 112.730687 340.941665 113.486066 341.182327 114.309437 341.458716 115.193666 341.767859L116.097916 342.087809C116.405919 342.198025 116.720419 342.31177 117.041153 342.428935L118.021789 342.790575C118.354726 342.914468 118.693631 343.041669 119.038242 343.17207L120.088923 343.572758C120.266802 343.641103 120.44604 343.710219 120.626605 343.780094L121.725659 344.208334C121.911401 344.281188 122.098404 344.354773 122.286635 344.429074L123.430493 344.883381C123.623504 344.960496 123.817677 345.038301 124.01298 345.116782L125.198075 345.595669 126.408681 346.090116C126.612487 346.173784 126.817289 346.258073 127.023055 346.342968L128.268952 346.859518 129.536396 347.389978 130.823801 347.933686C131.039944 348.025372 131.256852 348.117582 131.474493 348.210303L132.788866 348.772646 134.119236 349.346588 135.464018 349.931466C135.689261 350.029821 135.915039 350.128603 136.141318 350.2278L137.504745 350.827846C137.732897 350.928646 137.961485 351.029833 138.190475 351.131392L139.568979 351.745119C139.799446 351.848117 140.03025 351.95146 140.261357 352.055135L141.651371 352.681057 143.047077 353.314283 144.44689 353.954153 145.849223 354.600006 147.252491 355.251182 148.65511 355.90702 150.055493 356.566859 151.452055 357.23004C151.684409 357.340812 151.916538 357.451696 152.148408 357.562677L153.536266 358.229631 154.916339 358.898275 156.287042 359.567949 157.64679 360.237991 158.993997 360.907741 160.327078 361.576539C160.547993 361.68789 160.768253 361.799173 160.987825 361.910375L162.296743 362.576506C163.380191 363.130622 164.444796 363.682027 165.486427 364.228999L166.725094 364.883128C169.383836 366.295321 171.87612 367.672901 174.129378 368.985636 174.595047 369.256931 174.752617 369.854359 174.481321 370.320028 174.210026 370.785696 173.612598 370.943266 173.146929 370.671971 171.598138 369.769654 169.93484 368.836142 168.181112 367.881465L166.998827 367.241989C166.600443 367.027858 166.197857 366.812793 165.791334 366.596902L164.560217 365.946866 163.307062 365.29254 162.033455 364.634585C161.605687 364.414735 161.174774 364.194391 160.74098 363.973661L159.431223 363.31043 158.10577 362.645552 156.766205 361.979686 155.414114 361.313494C154.961505 361.091449 154.507073 360.86946 154.051082 360.647636L152.678695 359.982773C152.449272 359.872082 152.219526 359.76146 151.989489 359.650921L150.606041 358.988788 149.217201 358.329301C148.985367 358.219644 148.753374 358.110124 148.521255 358.000756L147.127299 357.346476 145.731915 356.696494 144.336688 356.051468 142.943202 355.412061 141.553043 354.778933C141.321716 354.673971 141.090593 354.569299 140.859707 354.46493L139.477512 353.842457 138.102607 353.227915 136.736578 352.621963 135.381011 352.025262 134.03749 351.438472C133.814661 351.341536 133.592401 351.245041 133.370742 351.149L132.048263 350.578315 130.741794 350.019193C130.525471 349.927007 130.309882 349.835329 130.095059 349.744175L128.815577 349.203635 127.556068 348.676309 126.318118 348.162858C126.113677 348.078475 125.910201 347.994699 125.707722 347.911541L124.505082 347.420139C124.306725 347.339515 124.109431 347.259537 123.913234 347.180219L122.749471 346.712354 121.613608 346.261004 120.50723 345.826832 119.431922 345.410497C119.255382 345.34263 119.080202 345.275535 118.906415 345.209224L117.880686 344.820883C117.712607 344.757766 117.545987 344.69546 117.38086 344.63398L116.408276 344.275119C116.090228 344.158876 115.778416 344.046045 115.473103 343.936738L114.576927 343.619497C113.700779 343.313046 112.885504 343.039295 112.138236 342.801217 111.624735 342.637616 111.341085 342.088717 111.504685 341.575215Z"/><path fill="#FFBE21" fill-rule="nonzero" d="M52.3188132,389.589243 L4.84984615,432.667001 C6.62497073,433.584644 8.59428832,434.06317 10.5925714,434.06243 L45.1465055,434.06243 L61.5891429,397.854474 C59.01391,394.571183 55.8748472,391.772461 52.3188132,389.589243 L52.3188132,389.589243 Z"/><path fill="#FF7235" fill-rule="nonzero" d="M46.0881758,386.564188 L0,428.422166 L0.94167033,429.549243 C2.01964323,430.840639 3.34727019,431.901081 4.84496703,432.667001 L52.3188132,389.589243 C50.3600451,388.353847 48.2704151,387.339305 46.0881758,386.564188 Z"/><path fill="#30242A" fill-rule="nonzero" d="M35.5053626 424.860408C36.0197985 424.860408 36.4412586 425.258484 36.4785103 425.763405L36.4811868 425.836232 36.4811868 434.16977C36.4811868 434.708703 36.0442954 435.145594 35.5053626 435.145594 34.9909268 435.145594 34.5694667 434.747518 34.532215 434.242597L34.5295385 434.16977 34.5295385 425.836232C34.5295385 425.297299 34.9664298 424.860408 35.5053626 424.860408ZM27.9817582 424.860408C28.4961941 424.860408 28.9176542 425.258484 28.9549059 425.763405L28.9575824 425.836232 28.9575824 434.16977C28.9575824 434.708703 28.5206911 435.145594 27.9817582 435.145594 27.4673224 435.145594 27.0458623 434.747518 27.0086106 434.242597L27.0059341 434.16977 27.0059341 425.836232C27.0059341 425.297299 27.4428254 424.860408 27.9817582 424.860408Z"/><path fill="#4756DF" fill-rule="nonzero" d="M87.2386813,242.859441 C87.7776141,242.859441 88.2145055,243.296332 88.2145055,243.835265 C88.2145055,244.374198 87.7776141,244.811089 87.2386813,244.811089 C84.7771324,244.811089 82.1818181,244.965998 79.7569685,245.192317 C79.2203678,245.2424 78.744767,244.847999 78.6946842,244.311398 C78.6446015,243.774797 79.0390022,243.299197 79.5756029,243.249114 C82.0555749,243.01765 84.7061873,242.859441 87.2386813,242.859441 Z"/><path fill="#30242A" fill-rule="nonzero" d="M232.977811,287.008023 L232.977811,287.008023 C230.977371,287.788683 228.684184,286.764067 227.952316,284.763628 L177.453415,151.856375 C176.672756,149.855935 177.697371,147.562749 179.697811,146.83088 L179.697811,146.83088 C181.69825,146.050221 183.991437,147.074837 184.723305,149.075276 L235.173415,281.933738 C236.002866,283.982968 234.97825,286.227364 232.977811,287.008023 Z"/><g transform="rotate(-22 333.945 -264.768)"><mask id="g" fill="#fff"><use xlink:href="#f"/></mask><path fill="url(#d)" d="M0,0 L0,53.5662343 C0,63.055071 7.69218172,70.7472527 17.1810184,70.7472527 L17.1810184,70.7472527 L70.7472527,70.7472527 L70.7472527,17.1807077 C70.7472527,7.69187099 63.0553818,0 53.566545,0 L53.566545,0 L0,0 Z" mask="url(#g)"/><path fill="#FFF" d="M42.3149542,34.1405468 L35.2669209,41.0816882 C34.9061605,41.4368554 34.4347794,41.616148 33.9627768,41.616148 C33.521226,41.616148 33.078743,41.4595389 32.7254402,41.1441454 L28.9189677,37.747529 C28.1530122,37.0639177 28.0862047,35.889349 28.7695054,35.1233935 C29.452806,34.3574381 30.6276854,34.2906306 31.3936409,34.9739312 L33.9003196,37.2105834 L39.7066661,31.4921742 C40.4378195,30.7718963 41.614874,30.7809076 42.3351518,31.5123718 C43.0551189,32.2435252 43.0461077,33.420269 42.3149542,34.1405468 M58.831316,29.653881 L58.8362877,29.6504629 L58.8303838,29.6504629 C58.4217706,28.1443428 57.2030779,26.8594641 55.4331459,26.6093245 C55.4331459,26.6093245 54.1470243,26.419467 52.0539306,26.1105989 C49.3791457,25.6199524 45.9446199,24.8449857 44.775023,23.9407542 C43.2409369,22.7549992 41.15499,19.0339782 39.9707886,16.7606596 C39.3903404,15.6065993 39.0494669,14.9282704 39.0494669,14.9282704 C38.3204886,13.4488732 36.8898764,12.6903753 35.440931,12.6540196 L35.4403096,12.6524659 L35.4396881,12.6540196 C33.923003,12.616421 32.3864311,13.3708793 31.6148824,14.9282704 C31.6148824,14.9282704 31.2743196,15.6050456 30.6907641,16.7656313 C29.4276367,19.2023952 27.1527645,23.3112103 25.696983,24.3040005 C24.0777562,25.4083436 19.7812586,26.2783944 17.2369814,26.7165272 C15.9971589,26.9129101 15.2697342,27.0281918 15.2697342,27.0281918 C13.6884168,27.2655914 12.5511361,28.3373076 12.0505461,29.6504629 L12.0446422,29.6504629 L12.0493032,29.653881 C11.4946457,31.1124591 11.7252092,32.8680974 13.0100879,34.1110272 C13.0100879,34.1110272 13.5513838,34.6411368 14.4798524,35.5500292 C16.4172692,37.4939714 19.6398754,40.9101639 20.1432619,42.598684 C20.7115916,44.5050276 20.1423297,49.0476252 19.7433493,51.6372694 C19.7045077,51.8815051 19.6697057,52.1015037 19.6392539,52.29509 C19.5155824,53.0545201 19.4264022,53.5305622 19.4264022,53.5305622 L19.4503286,53.526212 C19.2934087,55.0021911 19.9462576,56.3137927 20.9825503,57.1490416 L20.9809966,57.1540133 L20.9850361,57.150906 C22.2009322,58.1290917 23.9422768,58.4519427 25.5214191,57.614208 C25.5214191,57.614208 26.0456248,57.340142 26.9610425,56.8613033 C29.3247843,55.6553507 33.9515904,53.4295742 35.809149,53.4799128 C37.6539675,53.5299408 41.2565995,55.1392241 43.5805675,56.2743297 C44.9378468,56.9660201 45.7491692,57.379605 45.7491692,57.379605 C47.1682843,58.1169731 48.7185285,57.9190366 49.895583,57.150906 L49.8999332,57.1540133 L49.8980688,57.1490416 C51.204388,56.2951488 52.0492696,54.7383792 51.7407122,52.9777692 C51.7407122,52.9777692 51.6418993,52.3945244 51.4694428,51.3759434 C51.0530613,48.7555367 50.3657212,43.6672929 50.9878075,41.9160048 C51.6055436,40.177146 54.2492553,37.2478713 56.0471532,35.388759 C57.1241519,34.3114497 57.7683003,33.667612 57.7683003,33.667612 C58.9080669,32.5461786 59.198291,31.0105389 58.831316,29.653881"/></g><path fill="#EAA58B" fill-rule="nonzero" d="M215.388791,227.612188 C215.388791,227.612188 224.561538,224.572496 227.098681,228.397726 C229.635824,232.222957 227.284088,236.399485 227.284088,236.399485 C227.284088,236.399485 233.670857,237.663177 231.343516,243.840144 C231.343516,243.840144 235.437099,247.743441 231.533802,251.841902 C231.533802,251.841902 235.241934,254.344891 231.460615,258.906869 C227.679297,263.468847 221.263253,265.737638 219.472615,264.722781 C217.364835,263.522518 217.033055,261.00977 219.536044,257.477287 C219.536044,257.477287 213.588396,259.794869 211.753846,256.779572 C209.919297,253.764276 212.676,250.988056 212.676,250.988056 C212.676,250.988056 208.465319,252.149287 207.435824,248.402122 C206.40633,244.654957 209.875385,242.69355 209.875385,242.69355 C209.875385,242.69355 207.504132,241.81043 207.435824,239.336715 C207.343121,235.740803 213.651824,232.608408 215.34,231.847265 L215.388791,227.612188 Z"/><path fill="#A15842" fill-rule="nonzero" d="M226.800091 235.720351C227.242533 235.412627 227.850662 235.521838 228.158386 235.964279 228.46611 236.406721 228.3569 237.01485 227.914458 237.322574 222.87489 240.827658 215.696217 243.073486 208.619083 244.313415 208.088236 244.406421 207.582503 244.05148 207.489498 243.520633 207.396492 242.989786 207.751433 242.484054 208.28228 242.391048 215.099788 241.196606 222.054832 239.02074 226.800091 235.720351ZM230.856201 243.550269C231.310013 243.259574 231.913554 243.391807 232.204249 243.845619 232.494943 244.299431 232.36271 244.902973 231.908898 245.193667 225.298385 249.428108 217.825267 252.132017 210.035707 253.107786 209.500954 253.174772 209.013147 252.795572 208.946161 252.260818 208.879174 251.726065 209.258374 251.238258 209.793128 251.171272 217.294186 250.231643 224.490521 247.627878 230.856201 243.550269ZM231.182139 251.695905C231.63733 251.407374 232.240235 251.542477 232.528767 251.997668 232.817298 252.452858 232.682194 253.055764 232.227004 253.344295 231.392354 253.873354 230.456735 254.408219 229.434511 254.94605L228.810898 255.269081C228.177122 255.592423 227.513203 255.916628 226.822242 256.241082L226.122383 256.565597C226.004275 256.619689 225.885446 256.673782 225.765908 256.727874L225.0403 257.052382C224.917987 257.106456 224.794995 257.160523 224.671338 257.214579L223.921533 257.538774 223.156457 257.86259 222.527117 258.124119 221.908528 258.377154 221.004042 258.740056 220.418807 258.970407 219.571287 259.297734 218.764609 259.602227 218.251979 259.791986 217.524467 260.055944 217.069239 260.217646C216.56089 260.396615 216.003709 260.1296 215.82474 259.621251 215.64577 259.112902 215.912785 258.555721 216.421134 258.376752L217.033759 258.157973 217.7503 257.89564 218.350327 257.671577 218.561491 257.591863C219.80975 257.119369 221.103907 256.606418 222.402422 256.062489L222.776942 255.904801 223.514782 255.589224 224.237064 255.273537 224.943035 254.957927C227.384518 253.853645 229.51251 252.754232 231.182139 251.695905Z"/><path fill="#3EC1F3" fill-rule="nonzero" d="M86.5556044,319.51043 C78.0415385,320.549682 68.5418901,322.086605 57.8468571,323.999221 L72.8940659,283.556188 L79.476,245.011133 C79.476,245.011133 57.8468571,247.362869 47.9715165,258.672671 C38.8621978,269.079836 10.3486154,317.45632 21.6242637,342.852144 C32.8999121,368.247968 66.7805275,359.289902 74.7627692,356.938166 C79.1198242,355.654957 85.7212747,352.69821 92.4983736,350.497726 L86.5556044,319.51043 Z"/><path fill="#EAA58B" fill-rule="nonzero" d="M108.633626,348.004496 C118.982242,349.414561 130.736044,354.58643 132.619385,348.004496 C132.619385,348.004496 138.962242,347.843485 136.961802,341.812891 C136.961802,341.812891 140.142989,341.417682 140.611385,339.065946 C141.553055,334.367353 130.267648,330.132276 130.267648,330.132276 C130.267648,330.132276 139.201319,331.542342 141.084659,329.644364 C143.480308,327.243836 141.148088,323.423485 126.554637,319.886122 C115.957187,317.319704 103.134857,317.475836 86.5458462,319.50555 L92.5032527,350.473331 C98.1825495,348.668056 103.930154,347.360452 108.633626,348.004496 Z"/><path fill="#A15842" fill-rule="nonzero" d="M111.905555 324.335236C111.99214 323.803304 112.493547 323.442279 113.025479 323.528864 115.996192 324.012419 119.66544 324.920388 123.458898 326.040041L124.371419 326.312713C124.676191 326.404886 124.981464 326.498305 125.286944 326.592861L126.203711 326.87983C127.120511 327.169992 128.036525 327.469407 128.943814 327.775133L129.847902 328.082854C130.598394 328.34086 131.34099 328.602568 132.071095 328.866277L132.940931 329.183579C133.084807 329.236586 133.228109 329.289646 133.370801 329.342745L134.219342 329.661703C134.359447 329.714904 134.49887 329.768118 134.637571 329.82133 135.140746 330.014368 135.392161 330.578761 135.199122 331.081935 135.006083 331.58511 134.441691 331.836524 133.938516 331.643486 133.665669 331.53881 133.38994 331.434113 133.111628 331.329505L132.269239 331.016051C132.127648 330.963889 131.985485 330.911777 131.842787 330.859727L130.980484 330.548291 130.107132 330.239016C129.81437 330.136358 129.520064 330.034168 129.224511 329.932556L128.334402 329.629565 127.438587 329.330695C127.139228 329.231831 126.839216 329.133764 126.538846 329.0366L125.63696 328.747934C125.035383 328.557445 124.433564 328.37101 123.833878 328.1895L122.936243 327.92104C122.787003 327.876948 122.63797 327.833192 122.489181 327.789784L121.599683 327.533632 120.717835 327.286501C117.793071 326.478496 115.025495 325.831749 112.711928 325.45516 112.179996 325.368575 111.81897 324.867168 111.905555 324.335236ZM110.254512 332.105196C110.334382 331.572215 110.831197 331.204895 111.364179 331.284766L111.562844 331.315424 111.969164 331.383382C112.037876 331.395442 112.107084 331.407867 112.176782 331.420656L112.600843 331.501729 113.036549 331.59142 113.483754 331.689627C113.559239 331.706699 113.635196 331.724121 113.711624 331.741892L114.175803 331.852681C114.254099 331.871837 114.332858 331.891337 114.412078 331.91118L114.892904 332.034323C114.973955 332.055525 115.055461 332.077065 115.137419 332.098941L115.634563 332.23421C115.718316 332.25742 115.802514 332.280962 115.887155 332.304834L116.400288 332.451998 116.923898 332.606967C117.012032 332.63344 117.100596 332.660233 117.189587 332.687346L117.728638 332.85383 118.277802 333.027863 118.836932 333.209345 119.405881 333.398173 119.984504 333.594246 120.572656 333.797462 121.170189 334.007719 122.08376 334.336086 122.704109 334.563503 123.333329 334.797605 124.293472 335.161072 124.944231 335.411444 125.935997 335.798839 126.94608 336.200133 127.973988 336.614983 129.019226 337.043046 130.081303 337.483979 131.522747 338.091317 132.622197 338.560947 133.736844 339.042302 135.245825 339.701758 136.009753 340.03882 137.555752 340.727107C138.047628 340.947349 138.26783 341.524636 138.047587 342.016511 137.827344 342.508387 137.250058 342.728589 136.758182 342.508346L136.00367 342.171456 134.141746 341.348613 133.042102 340.868711 131.597469 340.245667 130.530871 339.791452 129.479344 339.348822 128.443435 338.918125 127.423689 338.499707 126.42065 338.093916 125.434864 337.701097 124.466878 337.321597 123.831711 337.076168 123.204858 336.836916 122.586482 336.603942 121.976744 336.377351 121.078686 336.049655 120.200971 335.736895 119.6274 335.536859 118.784805 335.249765 117.964007 334.978533 117.429189 334.806695C117.340889 334.778661 117.25301 334.750932 117.165554 334.723509L116.645935 334.562669 116.13665 334.409289 115.637861 334.263472 115.14973 334.125322 114.672419 333.994939 114.206088 333.872429 113.750901 333.757892 113.307017 333.651432C113.233987 333.634367 113.161435 333.617643 113.089365 333.601262L112.662741 333.50711 112.247825 333.421291 111.844778 333.343908C111.580074 333.295155 111.32339 333.252094 111.074942 333.214863 110.541961 333.134992 110.174642 332.638178 110.254512 332.105196ZM108.850876 339.59098C108.951634 339.06155 109.462502 338.714042 109.991933 338.8148 112.981465 339.38375 116.514697 340.519813 120.351065 342.046526L121.122309 342.357024C121.768262 342.620027 122.422189 342.893554 123.082978 343.176789L123.879147 343.521278C124.278807 343.6958 124.680776 343.873699 125.084815 344.054799L125.895579 344.421213 126.711434 344.795849 127.531951 345.178393 128.356702 345.56853 129.185261 345.965948 130.017198 346.370332 130.852087 346.781369 131.6895 347.198745 132.52901 347.622146C133.009642 347.865952 133.201628 348.453225 132.957822 348.933857 132.714016 349.414489 132.126743 349.606475 131.646111 349.362669L130.835919 348.954023C130.701025 348.886376 130.566207 348.818964 130.431473 348.751793L129.624156 348.351712 128.819306 347.957722 128.017362 347.570125 127.218763 347.189225 126.423951 346.815328 125.633363 346.448735 124.84744 346.089752C124.716866 346.030572 124.586504 345.971722 124.456365 345.913208L123.678263 345.566208 122.905924 345.227576C122.649488 345.116127 122.394085 345.006123 122.139789 344.897616L121.380297 344.576632C121.254293 344.5239 121.128584 344.471554 121.00318 344.419601L120.254476 344.112651C120.130325 344.062295 120.006497 344.012346 119.883 343.962808L119.146074 343.670575C118.535409 343.431251 117.933495 343.202543 117.341477 342.985242L116.635879 342.730007C114.066642 341.814592 111.697861 341.12614 109.627056 340.732037 109.097626 340.631279 108.750118 340.120411 108.850876 339.59098Z"/><path fill="#4756DF" fill-rule="nonzero" d="M87.6062913,320.087689 C87.6755113,320.622158 87.2983524,321.111545 86.7638833,321.180765 L85.0743572,321.403522 L84.0229997,321.545915 L82.2085168,321.797946 L80.3169033,322.068543 L77.9462023,322.418062 L75.4667905,322.794976 L73.7540894,323.061649 L71.5466527,323.412501 L69.2659547,323.783002 L66.9127394,324.17336 L64.9784548,324.500084 L62.4965836,324.92671 L60.4603386,325.282718 L57.8522223,325.746287 L55.1750117,326.230671 L52.9839952,326.633305 L50.7496155,327.0495 L48.4722536,327.479364 L46.1522904,327.923002 C45.9571957,327.960549 45.7616611,327.99824 45.5656878,328.036076 C45.0365271,328.13824 44.5247372,327.792091 44.4225731,327.262931 C44.3204089,326.73377 44.6665581,326.22198 45.1957188,326.119816 L47.5317932,325.67166 L49.825345,325.237324 L52.0759933,324.816703 L54.2833576,324.409689 L56.447057,324.016175 L58.5667109,323.636055 L60.6419384,323.269222 L62.1689754,323.002753 L64.6575919,322.57499 L67.0750077,322.167487 L69.4204792,321.780036 L71.2445569,321.484372 L73.4586548,321.132489 L74.7516285,320.930717 L76.433861,320.672512 L78.4690464,320.367002 L80.0426465,320.13626 L82.3112406,319.812675 L84.1167622,319.563441 L85.8442419,319.332549 L86.5132156,319.245281 C87.0476846,319.176061 87.5370713,319.55322 87.6062913,320.087689 Z"/></g></g></svg>