<svg xmlns="http://www.w3.org/2000/svg" width="1127.384" height="901.04" viewBox="0 0 1127.384 901.04"><g fill="none" fill-rule="evenodd"><rect width="24.56" height="417.43" x="178.334" y="483.57" fill="#FFBE21" fill-rule="nonzero"/><polygon fill="#A15842" fill-rule="nonzero" points="202.904 487.31 202.904 491.31 178.334 491.31 178.334 487.31"/><path fill="#4756DF" fill-rule="nonzero" d="M66.8843306 817.24C71.9835826 802.615589 85.7764075 792.817648 101.264331 792.817648 116.752254 792.817648 130.545079 802.615589 135.644331 817.24 140.500432 803.308719 153.283471 793.684912 168.014331 792.87 164.798561 787.138688 160.969411 781.773854 156.594331 776.87L143.374331 762C134.954953 752.536185 133.35633 738.816003 139.374331 727.67L150.594331 706.82 150.594331 706.82C147.444331 709.99 129.234331 727.04 101.594331 727.04 73.9543306 727.04 55.7443306 709.99 52.5943306 706.82L52.5443306 706.82 63.7743306 727.67C69.7661244 738.839386 68.1188264 752.565537 59.6543306 762L46.4443306 776.81C42.0611839 781.714293 38.2221289 787.078911 34.9943306 792.81 49.560439 793.824451 62.1126205 803.440311 66.8843306 817.24L66.8843306 817.24ZM170.024331 838.31C154.531802 838.312616 140.73759 848.118624 135.644331 862.75 130.554549 848.115629 116.758545 838.30724 101.264331 838.30724 85.7701158 838.30724 71.9741122 848.115629 66.8843306 862.75 60.649904 844.863464 41.7484817 834.738944 23.4043306 839.46 23.912326 862.537026 33.2122875 884.549319 49.4043306 901L153.594331 901C169.753604 884.584301 179.050939 862.628287 179.594331 839.6 176.476207 838.744781 173.257609 838.310926 170.024331 838.31Z"/><path fill="#30242A" fill-rule="nonzero" d="M101.514331,727.08 C129.154331,727.08 147.364331,710.03 150.514331,706.86 L52.5143306,706.86 C55.6643306,710 73.8743306,727.08 101.514331,727.08 Z"/><path fill="#3EC1F3" fill-rule="nonzero" d="M66.8843306,862.75 C71.9741122,848.115629 85.7701158,838.30724 101.264331,838.30724 C116.758545,838.30724 130.554549,848.115629 135.644331,862.75 C141.935673,844.658582 161.171177,834.538084 179.644331,839.6 C180.055182,823.261811 176.04382,807.116167 168.034331,792.87 C153.303471,793.684912 140.520432,803.308719 135.664331,817.24 C130.565079,802.615589 116.772254,792.817648 101.284331,792.817648 C85.7964075,792.817648 72.0035826,802.615589 66.9043306,817.24 C62.1034909,803.475633 49.5575733,793.899978 35.0143306,792.9 C27.0406035,807.097859 23.0371183,823.180885 23.4243306,839.46 C41.7684817,834.738944 60.669904,844.863464 66.9043306,862.75 L66.8843306,862.75 Z"/><path fill="#30242A" fill-rule="nonzero" d="M141.213123 635.779943C141.936647 634.945325 143.199771 634.855267 144.034388 635.578792 144.869005 636.302317 144.959063 637.56544 144.235539 638.400057 134.258619 649.908867 126.172903 666.577562 119.833174 686.558608 115.523525 700.141415 112.577105 713.349342 110.748154 724.54252 110.570031 725.632633 109.541923 726.371947 108.45181 726.193824 107.361698 726.015701 106.622384 724.987593 106.800507 723.89748 108.658302 712.527772 111.645068 699.138985 116.020487 685.348892 122.510317 664.894767 130.815048 647.774572 141.213123 635.779943ZM82.4420148 599.802587C83.4899272 599.453368 84.6225254 600.019772 84.9717438 601.067684 86.6723283 606.170691 88.2187654 611.785532 89.6190621 617.857536L90.0564125 619.790144C91.4260315 625.957786 92.6503528 632.576837 93.7373834 639.592624L94.0761018 641.82126C94.1317974 642.194876 94.187115 642.569575 94.2420558 642.94535L94.5671883 645.212832 94.8833335 647.505733C94.9352785 647.889981 94.9868514 648.275271 95.0380534 648.661597L95.3408227 650.99191 95.6347449 653.346686C95.6829977 653.741166 95.7308843 654.13665 95.7784057 654.533128L96.0591622 656.923881 96.3312115 659.338141 96.5946097 661.775524C96.6377916 662.18366 96.6806153 662.592744 96.7230821 663.002767L96.9736088 665.474118 97.2156245 667.967637 97.4491852 670.48294 97.6743469 673.019646 97.8899786 675.561248 98.0948708 678.088746 98.2892025 680.600781 98.4731526 683.095993 98.7300037 686.804298 98.8887827 689.251511 99.0378065 691.677146 99.177254 694.079845 99.3073041 696.458249 99.4281357 698.810999 99.5924901 702.28905 99.6910585 704.571721 99.7810349 706.823982 99.9002806 710.142385 100.001201 713.384723 100.058598 715.501759 100.108298 717.581593 100.150479 719.622864 100.185321 721.624215 100.213003 723.584287C100.21703 723.90745 100.220765 724.228837 100.224214 724.548419 100.236133 725.652924 99.3504172 726.557964 98.245912 726.570773 97.1414069 726.581803 96.2363661 725.696087 96.224447 724.591581L96.2004306 722.665115 96.1693794 720.696734 96.131116 718.687804 96.085463 716.639692 96.032243 714.553764 95.9712786 712.431383 95.9023923 710.273918 95.8254068 708.082732 95.7401447 705.859193 95.6464284 703.604664 95.5440807 701.320513 95.4329242 699.008105 95.3127813 696.668806 95.1834747 694.303981 95.044827 691.914995 94.8966608 689.503216 94.7387987 687.070007 94.5710632 684.616736 94.393277 682.144768 94.2052626 679.655468 94.0068427 677.150202 93.7978397 674.630336C93.7621142 674.209217 93.7259402 673.787547 93.6893142 673.365354L93.469689 670.890142 93.2420164 668.435648 93.0062508 666.002252 92.7623467 663.590337 92.5102586 661.200284C92.4675594 660.803785 92.4245173 660.408212 92.3811313 660.013575L92.1166819 657.657031C92.0719168 657.266165 92.026806 656.876249 91.9813484 656.487292L91.7044353 654.165117 91.4191562 651.866331C91.37091 651.48517 91.3223133 651.105 91.2733651 650.725828L90.9754516 648.462842 90.6690583 646.2242 90.3541397 644.010283C90.0881427 642.175761 89.8132177 640.367392 89.5292463 638.58617L89.1841308 636.461799C89.0093942 635.406192 88.8313839 634.360502 88.6500743 633.324942L88.2830481 631.267395C88.1592346 630.586091 88.0339471 629.909353 87.9071781 629.237245L87.5224187 627.234875C85.7060622 617.955894 83.5978327 609.596846 81.1769174 602.332316 80.827699 601.284403 81.3941025 600.151805 82.4420148 599.802587Z"/><ellipse cx="154.777" cy="668.65" fill="#30242A" fill-rule="nonzero" rx="39.65" ry="8.92" transform="rotate(-23.75 154.777 668.65)"/><ellipse cx="152.208" cy="548.199" fill="#30242A" fill-rule="nonzero" rx="21.94" ry="7.65" transform="rotate(-53.51 152.208 548.2)"/><ellipse cx="48.576" cy="675.385" fill="#30242A" fill-rule="nonzero" rx="47.85" ry="8.45" transform="rotate(-8.6 48.576 675.385)"/><path fill="#FF7235" fill-rule="nonzero" d="M31.5843306 615.58 31.5843306 615.65C39.58733 620.125152 42.8443599 629.973564 39.0875778 638.337867 35.3307957 646.702171 25.8056112 650.809519 17.1443306 647.8L17.1443306 647.86C39.0443306 657.7 60.0543306 658.45 64.0543306 649.54 68.0543306 640.63 53.4943306 625.42 31.5843306 615.58ZM96.3343306 544.26C91.6743306 543.05 85.6143306 550.1 81.1843306 561.01 75.8543306 547.76 68.1243306 538.89 62.9143306 540.61 57.7043306 542.33 56.7743306 554.05 60.3843306 567.87 50.3243306 561.75 41.2643306 559.69 38.2343306 563.44 34.3743306 568.22 41.8143306 580.62 54.8543306 591.15 58.5642187 594.172294 62.5558895 596.831176 66.7743306 599.09 68.2352939 593.286846 72.5326294 588.616593 78.194448 586.678859 83.8562665 584.741124 90.1140117 585.798943 94.8243306 589.49 96.7787901 585.28348 98.3388074 580.904719 99.4843306 576.41 103.694331 560.2 102.284331 545.8 96.3343306 544.26ZM197.994331 617.87C196.554331 613.27 187.364331 611.87 175.764331 613.87 184.184331 602.34 187.624331 591.09 183.414331 587.58 179.204331 584.07 168.754331 589.48 158.934331 599.85 158.814331 588.07 155.764331 579.29 150.984331 578.7 144.894331 577.95 138.294331 590.83 136.254331 607.45 135.649856 612.201614 135.502514 617.000252 135.814331 621.78 141.514585 619.943149 147.757212 621.11687 152.401079 624.898593 157.044945 628.680316 159.458652 634.555861 158.814331 640.51 163.419919 639.927264 167.962305 638.923052 172.384331 637.51 188.354331 632.54 199.824331 623.73 197.994331 617.87Z"/><path fill="#30242A" fill-rule="nonzero" d="M152.534331 625C147.886225 621.122934 141.576345 619.896432 135.814331 621.75 136.384331 629.66 138.384331 635.75 141.394331 637.96 144.204331 640.56 150.704331 641.43 158.794331 640.48 159.434787 634.596836 157.084211 628.78423 152.534331 625L152.534331 625ZM78.3743306 586.62C72.6274148 588.516042 68.2505271 593.221196 66.7743306 599.09 73.7743306 602.79 79.9943306 604.29 83.4943306 602.93 87.1843306 601.93 91.3543306 596.86 94.8243306 589.49 90.1689437 585.83593 83.9920503 584.758259 78.3743306 586.62L78.3743306 586.62Z"/><path fill="#F5EBDD" fill-rule="nonzero" d="M33.5343306,645.27 C29.6356415,643.09589 28.0519164,638.297935 29.8902523,634.230128 C31.7285882,630.162321 36.3762599,628.180479 40.5843306,629.67 C40.1075137,623.794205 36.7318628,618.543192 31.5843306,615.67 L17.1143306,647.8 C22.6678818,649.739149 28.8220674,648.79091 33.5343306,645.27 Z"/><path fill="#4856DF" fill-rule="nonzero" d="M29.8543306,634.24 C28.0465003,638.306352 29.6435354,643.080098 33.5343306,645.24 C38.4207002,641.606451 41.0860896,635.708568 40.5843306,629.64 C36.355143,628.133848 31.679427,630.138348 29.8543306,634.24 Z"/><path fill="#FFB7D5" fill-rule="nonzero" d="M690.714331,650.38 L436.384331,650.38 L440.684331,633.32 L552.324331,633.32 L594.904331,466.8 C606.837129,420.141084 648.873702,387.5 697.034331,387.5 L697.034331,387.5 C754.324331,387.5 796.244331,441.5 782.034331,497 L755.724331,599.89 C748.128378,629.591962 721.372201,650.372141 690.714331,650.38 Z"/><rect width="18.06" height="162.09" x="510.369" y="735.955" fill="#A15842" fill-rule="nonzero" transform="rotate(-90 519.4 817)"/><path fill="#A15842" fill-rule="nonzero" d="M627.144331,891.3 L584.984331,640.35 L453.804331,640.35 L411.644331,891.3 C411.241501,893.715969 411.922367,896.186788 413.505869,898.055397 C415.089371,899.924006 417.415009,901.000001 419.864331,901.000001 L419.864331,901.000001 C423.781543,900.99632 427.168284,898.266956 428.004331,894.44 L483.224331,640.35 L555.604331,640.35 L610.804331,894.44 C611.636963,898.269066 615.025782,901.000001 618.944331,901.000001 L618.944331,901.000001 C621.390156,900.995136 623.710258,899.915618 625.289259,898.047775 C626.868261,896.179932 627.546591,893.712524 627.144331,891.3 Z"/><rect width="18.06" height="162.09" x="644.649" y="735.955" fill="#FFBE21" fill-rule="nonzero" transform="rotate(-90 653.68 817)"/><path fill="#FFBE21" fill-rule="nonzero" d="M761.424331,891.3 L719.224331,640.35 L588.094331,640.35 L545.934331,891.3 C545.531501,893.715969 546.212367,896.186788 547.795869,898.055397 C549.379371,899.924006 551.705009,901.000006 554.154331,901.000006 L554.154331,901.000006 C558.07047,901.000006 561.455917,898.267516 562.284331,894.44 L617.484331,640.35 L689.874331,640.35 L745.074331,894.44 C745.907757,898.272731 749.302035,901.004812 753.224331,901.000006 L753.224331,901.000006 C755.670156,900.995136 757.990258,899.915618 759.569259,898.047775 C761.148261,896.179932 761.826591,893.712524 761.424331,891.3 L761.424331,891.3 Z"/><path fill="#FFB7D5" fill-rule="nonzero" d="M628.934331,599.89 L645.014331,537 L538.444331,537 C495.455281,537 457.931376,566.132842 447.274331,607.78 L436.384331,650.38 L563.914331,650.38 C594.575925,650.376708 621.337455,629.59557 628.934331,599.89 Z"/><path fill="#A15842" fill-rule="nonzero" d="M578.614331,629.65 C579.7189,629.65 580.614331,630.545431 580.614331,631.65 C580.614331,632.704362 579.798453,633.568165 578.763593,633.644514 L578.614331,633.65 L443.314331,633.65 C442.209761,633.65 441.314331,632.754569 441.314331,631.65 C441.314331,630.595638 442.130208,629.731835 443.165068,629.655486 L443.314331,629.65 L578.614331,629.65 Z"/><path fill="#A15842" fill-rule="nonzero" d="M574.576705 537.824411C574.850412 536.75429 575.939799 536.108669 577.00992 536.382375 578.031399 536.64364 578.666092 537.648118 578.483628 538.669622L578.451956 538.815589 554.741956 631.515589C554.46825 632.58571 553.378863 633.231331 552.308742 632.957625 551.287263 632.69636 550.652569 631.691882 550.835034 630.670378L550.866705 630.524411 574.576705 537.824411ZM770.224331 532.85C771.3289 532.85 772.224331 533.745431 772.224331 534.85 772.224331 535.904362 771.408453 536.768165 770.373593 536.844514L770.224331 536.85 706.224331 536.85C705.119761 536.85 704.224331 535.954569 704.224331 534.85 704.224331 533.795638 705.040208 532.931835 706.075068 532.855486L706.224331 532.85 770.224331 532.85ZM782.224331 487.85C783.3289 487.85 784.224331 488.745431 784.224331 489.85 784.224331 490.904362 783.408453 491.768165 782.373593 491.844514L782.224331 491.85 700.224331 491.85C699.119761 491.85 698.224331 490.954569 698.224331 489.85 698.224331 488.795638 699.040208 487.931835 700.075068 487.855486L700.224331 487.85 782.224331 487.85Z"/><path fill="#FF7235" fill-rule="nonzero" d="M483.534331,469.53 C483.534331,469.53 403.304331,491.38 369.224331,508.43 C313.034331,536.52 313.224331,555.06 278.964331,658.85 C247.334331,754.77 243.854331,801.26 200.224331,803.1 C166.914331,804.5 155.994331,815.4 150.594331,830.34 L282.404331,892.88 C285.540785,894.364378 289.290629,893.145131 290.954331,890.1 L290.954331,890.1 C292.65188,886.982011 291.556441,883.079232 288.484331,881.3 L285.714331,879.7 C297.964331,864.86 321.594331,833.24 345.154331,785.21 L360.154331,792.21 C360.154331,792.21 384.384331,760.72 388.224331,725 C393.224331,678.87 390.224331,647.78 411.294331,629.73 L656.994331,469.49 L483.534331,469.53 Z"/><path fill="#30242A" fill-rule="nonzero" d="M187.274331,810.51 C189.884331,805.08 204.384331,772 212.724331,776 C223.574331,781.2 195.414331,814.41 195.414331,814.41 L187.274331,810.51 Z"/><path fill="#30242A" fill-rule="nonzero" d="M150.584331,830.81 L282.394331,893.34 C285.565499,894.853168 289.365606,893.590168 291.000098,890.479794 C292.63459,887.36942 291.51927,883.523378 288.474331,881.77 L285.704331,880.17 L285.984331,879.83 L195.384331,837.06 C196.741836,833.298775 197.693898,829.403366 198.224331,825.44 C211.784331,827.79 239.224331,830.32 239.364331,819.01 C239.514331,808.47 209.544331,812.7 198.594331,815.68 C198.358281,811.628744 197.571032,807.628579 196.254331,803.79 C166.044331,805.87 155.764331,816.47 150.584331,830.81 Z"/><path fill="#FFB7D5" fill-rule="nonzero" d="M369.224331,508.43 C362.914331,511.58 357.324331,514.61 352.314331,517.65 L344.624331,542.28 L374.224331,521.43 L401.514331,543.19 L391.454331,513.36 L422.364331,499.2 L398.474331,496.2 C388.51392,499.753971 378.750064,503.836431 369.224331,508.43 L369.224331,508.43 Z"/><polygon fill="#FFB7D5" fill-rule="nonzero" points="456.434 495.61 454.434 508.64 467.474 503.63"/><polygon fill="#FFB7D5" fill-rule="nonzero" points="381.224 560.79 362.174 585.86 335.094 572.83 351.134 599.9 326.064 620.96 358.154 616.95 369.194 654.06 380.224 616.95 415.324 606.92 381.224 592.88"/><path fill="#FFB7D5" fill-rule="nonzero" d="M274.124331,752.21 L276.464331,745.53 L308.464331,743.83 L282.464331,726.13 L294.044331,698.4 L267.854331,715.86 L262.854331,710.46 C258.854331,723.63 255.314331,735.36 251.854331,745.67 L252.014331,745.67 C252.394331,744.54 252.774331,743.4 253.154331,742.24 L274.124331,752.21 Z"/><path fill="#EAA58B" fill-rule="nonzero" d="M274.124331,752.21 L253.124331,742.28 C252.744331,743.44 252.364331,744.58 251.984331,745.71 C239.294331,783.51 227.734331,802.41 200.244331,803.57 C198.894331,803.57 197.594331,803.7 196.314331,803.79 C197.631032,807.628579 198.418281,811.628744 198.654331,815.68 C209.654331,812.68 239.574331,808.47 239.424331,819.01 C239.264331,830.32 211.844331,827.79 198.284331,825.44 C197.744179,829.404482 196.782053,833.299918 195.414331,837.06 L286.014331,879.83 C298.334331,864.83 321.764331,833.37 345.144331,785.74 L274.124331,752.21 Z"/><path fill="#FFB7D5" fill-rule="nonzero" d="M354.144331 676.12 351.144331 703.2 323.064331 702.2 347.134331 720.26 338.134331 752.35 362.224331 731.28 383.874331 745.72C384.474331 743.806667 385.024331 741.87 385.524331 739.91L377.224331 719.24 390.084331 705.15C390.294331 702.53 390.494331 699.95 390.684331 697.44L368.224331 701.19 354.144331 676.12ZM291.594331 619.83C289.064331 627.65 286.344331 636.14 283.344331 645.37L310.024331 647 291.594331 619.83Z"/><path fill="#30242A" fill-rule="nonzero" d="M385.804331,864.13 C386.224331,858.13 387.534331,822.03 396.754331,822.68 C408.754331,823.52 394.804331,864.76 394.804331,864.76 L385.804331,864.13 Z"/><path fill="#FF7235" fill-rule="nonzero" d="M607.894331,471 C607.894331,471 507.604331,489.6 452.444331,512.66 C396.754331,535.95 397.294331,577.31 407.314331,689.66 C416.314331,790.24 432.394331,839.08 399.314331,854.12 C368.974331,867.92 358.434331,885.22 359.874331,901.04 L509.224331,901.04 C510.924368,901.04 512.554777,900.364663 513.756885,899.162554 C514.958993,897.960446 515.634331,896.330038 515.634331,894.63 L515.634331,894.63 C515.634331,891.089855 512.764476,888.22 509.224331,888.22 L506.704331,888.22 C511.414331,872.81 518.244331,842.73 519.184331,792.95 L537.704331,792.95 C537.704331,792.95 547.224331,748.95 536.704331,709.71 C525.704331,668.6 515.644331,661.58 509.634331,633.5 L599.504331,633.5 C668.134331,633.5 719.504331,570.02 704.574331,503.04 C699.914331,482.11 693.154331,471.04 693.154331,471.04 L607.894331,471 Z"/><polygon fill="#FFB7D5" fill-rule="nonzero" points="545.714 529.7 527.304 552.86 498.634 543.01 515.624 570.82 493.564 600.91 522.644 588.87 538.854 618.75 540.694 585.86 568.774 579.85 544.714 564.8"/><path fill="#FFB7D5" fill-rule="nonzero" d="M505.654331 708.48 522.654331 736.29 500.594331 766.38 529.674331 754.38 540.454331 774.25C542.034331 758.81 542.814331 735.97 537.774331 714.04L534.334331 718.37 505.654331 708.48ZM430.674331 792.91 429.384331 777.41 461.944331 764.85 431.124331 758.46 434.524331 724.63 414.524331 750.8 413.924331 750.55C415.844331 766.7 417.524331 780.81 418.464331 793.02L418.464331 792.91 430.674331 792.91Z"/><path fill="#EAA58B" fill-rule="nonzero" d="M509.224331,888.18 L506.704331,888.18 C511.414331,872.77 518.244331,842.69 519.184331,792.91 L418.434331,792.91 L418.434331,793 C418.514331,794 418.584331,795 418.654331,796 C418.654331,796.09 418.654331,796.19 418.654331,796.28 C420.744331,827.53 417.334331,845.81 399.274331,854.02 C368.934331,867.82 358.394331,885.12 359.834331,900.94 L509.224331,900.94 C512.764476,900.94 515.634331,898.070145 515.634331,894.53 C515.634331,890.989855 512.764476,888.12 509.224331,888.12 L509.224331,888.18 Z"/><polygon fill="#FFB7D5" fill-rule="nonzero" points="642.944 473.59 596.874 477.67 601.674 496.19 572.204 511.91 608.914 516.82 621.334 544.33 634.104 515.84 671.444 509.94 639.014 493.24"/><path fill="#FFB7D5" fill-rule="nonzero" d="M423.364331 603.91 434.364331 568.81 466.454331 573.81 441.384331 551.75 459.384331 530.69 426.294331 542.69 421.004331 533.62C412.494331 543.26 407.354331 555.23 404.604331 570.62L410.244331 570.8 423.364331 603.91ZM509.224331 493.8C502.454331 495.68 495.714331 497.65 489.134331 499.68L515.644331 517.68 509.224331 493.8Z"/><polygon fill="#FFB7D5" fill-rule="nonzero" points="465.484 656.06 451.444 626.98 444.424 659.07 418.354 657.07 442.414 678.13 427.374 713.23 453.484 688.89 475.124 713.84 468.494 676.12 490.554 647.04"/><path fill="#30242A" fill-rule="nonzero" d="M405.954331,876.45 C419.214331,872.79 445.094331,863.37 440.414331,853.08 C436.054331,843.48 410.754331,860.08 402.124331,867.47 C399.945952,863.473209 397.163126,859.836982 393.874331,856.69 C367.694331,870.02 358.504331,886.16 359.874331,901 L509.224331,901 C512.764476,901 515.634331,898.130145 515.634331,894.59 L515.634331,894.59 C515.634331,891.049855 512.764476,888.18 509.224331,888.18 L408.324331,888.18 C407.949282,884.197498 407.15488,880.265713 405.954331,876.45 L405.954331,876.45 Z"/><path fill="#A15842" fill-rule="nonzero" d="M483.432213 633.350194 509.252213 633.710194C510.356675 633.725594 511.239535 634.63342 511.224335 635.737883 511.209437 636.792142 510.381596 637.644487 509.345772 637.706401L509.196448 637.709806 483.376448 637.349806C482.271986 637.334406 481.389126 636.42658 481.404327 635.322117 481.419224 634.267858 482.247065 633.415513 483.282889 633.353599L483.432213 633.350194ZM530.362336 488.925899C530.63522 489.99623 529.988762 491.085121 528.918431 491.358005L527.596456 491.695916 524.969379 492.372668 522.365075 493.050627 519.783875 493.729753 515.956121 494.750546 513.434132 495.43242 510.936407 496.115323 508.463278 496.799216 504.800427 497.826827 501.19478 498.856444 498.823348 499.543905C498.430288 499.658549 498.038322 499.773226 497.647456 499.887935L495.315528 500.576571 493.010349 501.265942C492.6284 501.380896 492.24758 501.495879 491.867895 501.61089L489.603462 502.301288C489.228346 502.416408 488.854379 502.531555 488.481568 502.646728L486.258627 503.338064C485.522308 503.568608 484.790668 503.799248 484.063763 504.029978L481.897305 504.722429C481.538614 504.83788 481.181121 504.953352 480.824832 505.068843L478.701606 505.762026C478.350162 505.877594 477.999937 505.993181 477.650936 506.108784L475.571687 506.802611 473.522172 507.496817 471.50272 508.191363C471.168668 508.307147 470.835883 508.422943 470.504372 508.538751L468.530637 509.233734 466.587795 509.928959 464.676178 510.624386 462.796115 511.319976 460.94794 512.015689C460.337232 512.24761 459.731895 512.479545 459.131982 512.711487L457.348574 513.40733C456.759567 513.639281 456.176039 513.871232 455.598047 514.103178L453.880733 514.798992C453.313867 515.03092 452.752592 515.262836 452.196962 515.494733 429.45575 525.019462 416.542111 537.450237 409.697188 556.449155 409.046785 558.254425 408.447406 560.122383 407.897779 562.062735L407.573963 563.235711C406.885252 565.796317 406.280192 568.482549 405.75599 571.315732L405.519781 572.633866C405.212465 574.405499 404.935607 576.234023 404.688555 578.124409L404.508845 579.553876 404.340252 581.007006 404.182714 582.484267 404.03617 583.986123 403.900561 585.513041C403.857173 586.026242 403.815597 586.543698 403.775823 587.065487L403.661897 588.643926C403.625717 589.174456 403.591329 589.709396 403.558722 590.248824L403.466236 591.880648C403.451709 592.154888 403.437625 592.43027 403.423982 592.706803L403.347416 594.379888 403.281387 596.081063 403.225833 597.810795C403.209054 598.392183 403.194012 598.978408 403.180694 599.569548L403.145909 601.357789 403.121417 603.175983 403.107156 605.024597C403.105629 605.335261 403.104525 605.647211 403.103844 605.960457L403.104817 607.855574 403.115868 609.782276 403.136938 611.741027 403.167965 613.732294 403.208888 615.756544 403.259647 617.814241 403.320179 619.905852 403.390424 622.031843 403.470321 624.192679 403.55981 626.388826 403.658828 628.620751 403.767315 630.888919 403.88521 633.193796 404.012452 635.535849 404.148979 637.915542C404.172504 638.31532 404.196414 638.716686 404.220706 639.119649 404.287174 640.222217 403.447249 641.169908 402.344681 641.236376 401.242114 641.302844 400.294423 640.462919 400.227955 639.360351L400.085037 636.931252 399.951516 634.540186 399.827459 632.186675 399.712936 629.870238 399.608015 627.590396 399.512764 625.346668 399.427252 623.138576 399.351546 620.965638 399.285717 618.827376 399.229831 616.72331 399.183958 614.652959C399.17715 614.310684 399.170763 613.969793 399.164797 613.630278L399.134071 611.609602C399.125522 610.941489 399.11867 610.278796 399.113528 609.621442L399.101957 607.665319C399.101957 607.341942 399.101957 607.019879 399.101957 606.699121L399.107172 604.790154C399.110643 604.158998 399.115852 603.532981 399.12281 602.912024L399.148939 601.064251C399.154172 600.758792 399.159845 600.454578 399.165959 600.151599L399.207954 598.348463C399.215839 598.050383 399.224169 597.753519 399.232945 597.457859L399.290959 595.69828C399.312087 595.116521 399.33501 594.5395 399.359738 593.96714L399.43935 592.263958 399.529865 590.588256 399.631349 588.939552 399.743873 587.317368 399.867504 585.721223C399.889038 585.457342 399.911038 585.194526 399.933505 584.932765L400.073925 583.374781 400.225623 581.841636C400.356757 580.574232 400.499709 579.332203 400.65466 578.114301L400.84637 576.664319C401.142609 574.506476 401.477951 572.425182 401.853436 570.41315L402.109717 569.081977C402.240843 568.421441 402.376454 567.768421 402.516591 567.122647L402.802907 565.840681C403.095278 564.568216 403.40585 563.324015 403.73493 562.10592L404.070191 560.896447C404.63928 558.894895 405.260065 556.96386 405.933973 555.093345 413.182616 534.973855 426.929736 521.740764 450.654011 511.8043 451.508968 511.447476 452.376903 511.090683 453.257624 510.733941L455.036059 510.020532C455.335287 509.901644 455.635923 509.782764 455.937958 509.663891L457.766907 508.950757 459.629111 508.237852C459.942231 508.119056 460.256722 508.00027 460.572578 507.881496L462.484031 507.169002C462.805316 507.050279 463.127952 506.931569 463.451932 506.812873L465.411874 506.100872 467.403721 505.389246C467.738335 505.270674 468.074265 505.15212 468.411503 505.033584L470.450573 504.322587 472.520704 503.612055C472.868296 503.493674 473.217168 503.375314 473.567312 503.256976L475.683402 502.54721C476.038611 502.428961 476.395079 502.310736 476.752799 502.192534L478.914087 501.483616 481.105086 500.77531 483.325458 500.067651 485.574866 499.360676 487.852972 498.654421 490.159439 497.948922 492.493929 497.244217 494.856105 496.540341C495.252089 496.423099 495.649213 496.305894 496.047469 496.188725L498.450541 495.486162 500.880454 494.784518 503.336872 494.083832C503.748465 493.967133 504.161149 493.850475 504.574915 493.733859L507.070457 493.034676 509.59166 492.336541 512.138186 491.63949 514.709697 490.94356 517.305857 490.248787 521.245575 489.208877 525.238852 488.171775 527.93023 487.481995C529.000561 487.20911 530.089452 487.855568 530.362336 488.925899Z"/><rect width="24.56" height="417.43" x="843.344" y="483.57" fill="#FFBE21" fill-rule="nonzero"/><polygon fill="#A15842" fill-rule="nonzero" points="867.904 487.31 867.904 491.31 843.344 491.31 843.344 487.31"/><path fill="#A15842" fill-rule="nonzero" d="M511.614331,169.68 C497.614331,167.68 465.544331,182.73 464.484331,212.48 C463.424331,242.23 489.984331,251.79 494.234331,253.92 L555.864331,244.35 L560.114331,176.35 L511.614331,169.68 Z"/><circle cx="620.494" cy="47.9" r="47.9" fill="#A15842" fill-rule="nonzero"/><path fill="#30242A" fill-rule="nonzero" d="M589.424331,80.84 C592.344331,82.19 567.754331,23.84 555.204331,32.94 C543.394331,41.53 574.594331,74 589.424331,80.84 Z"/><path fill="#30242A" fill-rule="nonzero" d="M590.784331,84.41 C593.464331,87.61 656.204331,65.66 647.524331,53 C639.224331,40.82 588.104331,81.2 590.784331,84.41 Z"/><path fill="#EAA58B" fill-rule="nonzero" d="M674.074331,244.89 C674.074331,244.89 716.194331,209.79 689.074331,170.68 C671.814331,145.75 624.884331,155.68 624.884331,155.68 C626.024331,141.99 629.744331,102.55 600.084331,80.88 C570.424331,59.21 532.794331,70.62 519.084331,87.72 C505.374331,104.82 508.824331,136.77 504.264331,159.58 C499.704331,182.39 502.744331,197.9 516.804331,205.2 C529.594331,211.84 544.644331,207.83 544.644331,207.83 L543.044331,231.9 C543.044331,231.9 514.044331,232.99 496.274331,239.42 C453.454331,254.92 378.224331,361.22 378.224331,361.22 C331.094331,359.22 286.964331,357.22 286.964331,357.22 L310.034331,425.42 C310.034331,425.42 368.194331,444.47 410.314331,433.42 C453.044331,422.23 493.554331,362.22 493.554331,362.22 L507.554331,402.33 L483.484331,469.52 L693.084331,469.52 L657.984331,407.34 C664.054331,352.2 674.074331,244.89 674.074331,244.89 Z"/><path fill="#4756DF" fill-rule="nonzero" d="M606.724331,229.4 L551.724331,329.13 L529.224331,232.9 C519.334331,233.9 506.154331,235.84 496.374331,239.38 C453.454331,254.92 378.224331,361.22 378.224331,361.22 C331.094331,359.22 286.964331,357.22 286.964331,357.22 L310.034331,425.42 C310.034331,425.42 368.194331,444.47 410.314331,433.42 C453.044331,422.23 493.554331,362.22 493.554331,362.22 L507.554331,402.33 L483.484331,469.52 L693.084331,469.52 L657.984331,407.35 C663.984331,352.19 673.984331,244.88 673.984331,244.88 C664.698757,239.227057 654.531169,235.170838 643.904331,232.88 C631.934331,230.18 618.774331,231.79 606.724331,229.4 Z"/><path fill="#30242A" fill-rule="nonzero" d="M321.894331,462.510001 L495.574331,462.510001 L456.084331,337.79 C453.702111,330.247045 446.704523,325.119997 438.794331,325.119997 L292.014331,325.119997 C286.229674,325.116425 280.790562,327.873469 277.373754,332.541197 C273.956945,337.208925 272.97266,343.226932 274.724331,348.74 L307.364331,451.88 C309.373594,458.211153 315.251994,462.511731 321.894331,462.510001 Z"/><path fill="#30242A" fill-rule="nonzero" d="M596.424331,448.47 C597.443914,451.741999 596.848456,455.303785 594.820039,458.06622 C592.791622,460.828656 589.571499,462.463187 586.144331,462.470001 L321.894331,462.470001 C315.251994,462.471731 309.373594,458.171153 307.364331,451.84 L306.284331,448.43 L596.424331,448.47 Z"/><rect width="774.21" height="25.07" x="136.014" y="462.51" fill="#FFBE21" fill-rule="nonzero"/><path fill="#FFB7D5" fill-rule="nonzero" d="M755.714331,599.89 L771.794331,537 L677.994331,537 C635.007791,537.00211 597.487318,566.134394 586.834331,607.78 L575.934331,650.38 L690.684331,650.38 C721.348435,650.37773 748.113397,629.597122 755.714331,599.89 Z"/><path fill="#A15842" fill-rule="nonzero" d="M576.208067,633.4295 C576.462394,632.354609 577.539939,631.68941 578.61483,631.943737 C579.640863,632.186504 580.293602,633.179351 580.129623,634.203985 L580.100594,634.3505 L576.390594,650.0305 C576.136267,651.105391 575.058722,651.77059 573.983831,651.516263 C572.957798,651.273496 572.30506,650.280649 572.469038,649.256015 L572.498067,649.1095 L576.208067,633.4295 Z"/><path fill="#EAA58A" fill-rule="nonzero" d="M278.604331,360.83 C266.934331,366.66 261.104331,376.38 261.104331,383.19 C261.104331,393.13 271.224331,395 271.224331,395 C271.224331,395 263.674331,406.87 276.804331,412.44 C276.804331,412.44 276.804331,424.66 289.034331,424.66 C289.034331,424.66 287.414331,434.19 300.174331,435.09 C312.934331,435.99 326.064331,429.33 327.174331,425.02 C328.444331,419.93 325.014331,415.67 315.754331,414.32 C315.754331,414.32 328.254331,408.48 326.274331,401.11 C324.294331,393.74 315.844331,393.91 315.844331,393.91 C315.844331,393.91 323.934331,389.06 319.614331,381.91 C315.294331,374.76 307.034331,377.24 307.034331,377.24 C307.034331,377.24 309.194331,372.24 305.414331,368.43 C300.914331,363.93 281.564331,369.61 281.564331,369.61 L278.604331,360.83 Z"/><path fill="#A15842" fill-rule="nonzero" d="M318.700352 412.335959C319.691174 411.847751 320.890164 412.2552 321.378371 413.246022 321.866579 414.236843 321.45913 415.435833 320.468309 415.924041 310.621629 420.775797 300.26522 424.5158 289.590591 427.074891 288.516457 427.332399 287.436948 426.670394 287.179439 425.59626 286.921931 424.522126 287.583937 423.442617 288.658071 423.185109 299.043884 420.695258 309.120087 417.056445 318.700352 412.335959ZM317.09492 392.553637C318.031796 391.96854 319.265598 392.253714 319.850694 393.190589 320.43579 394.127465 320.150617 395.361267 319.213741 395.946363 306.208561 404.068341 292.090379 410.254002 277.303228 414.308799 276.237982 414.600902 275.137633 413.974144 274.845531 412.908898 274.553429 411.843651 275.180186 410.743303 276.245433 410.451201 290.658225 406.499056 304.418985 400.469994 317.09492 392.553637ZM306.911166 376.455922C307.813643 375.819047 309.061534 376.034359 309.698409 376.936836 310.335284 377.839312 310.119971 379.087203 309.217495 379.724078 297.51119 387.985184 284.530758 394.27301 270.791736 398.337824 269.732551 398.651194 268.619876 398.046591 268.306506 396.987406 267.993137 395.928221 268.59774 394.815545 269.656925 394.502176 282.977074 390.561288 295.561761 384.465164 306.911166 376.455922ZM689.124331 170.68C671.864331 145.75 624.934331 155.68 624.934331 155.68 626.074331 141.99 629.794331 102.55 600.134331 80.88 570.474331 59.21 532.844331 70.62 519.134331 87.72 513.554331 94.72 510.824331 104.14 509.234331 114.42 518.334331 115.95 531.684331 112.82 531.684331 112.82 549.934331 133.35 566.284331 136.61 566.284331 136.61 579.054331 123.84 601.454331 124.26 605.094331 143.61 608.874331 163.7 576.784331 172.73 576.784331 172.73 576.784331 172.73 573.784331 208.83 589.784331 221.87 594.694951 225.762358 600.50114 228.364658 606.674331 229.44 618.674331 231.83 631.884331 230.22 643.944331 232.9 654.571169 235.190838 664.738757 239.247057 674.024331 244.9 677.688136 241.67179 681.036551 238.10238 684.024331 234.24 694.544331 220.9 707.124331 196.68 689.124331 170.68Z"/><path fill="#EAA58B" fill-rule="nonzero" d="M549.443962,103.963557 C550.292516,103.256429 551.553645,103.371077 552.260773,104.219631 C552.967901,105.068185 552.853253,106.329314 552.004699,107.036443 C546.079971,111.973716 539.045116,115.232915 530.146001,117.441132 C529.073943,117.707151 527.989218,117.053728 527.723199,115.98167 C527.457179,114.909613 528.110602,113.824887 529.18266,113.558868 C537.533204,111.486773 544.025512,108.478932 549.443962,103.963557 Z"/><path fill="#A15842" fill-rule="nonzero" d="M556.731535 202.34381C557.690407 201.795504 558.912215 202.128333 559.460521 203.087205 560.008827 204.046076 559.675997 205.267885 558.717126 205.81619 554.34129 208.318399 549.728915 210.382101 544.947223 211.977221 543.899416 212.326758 542.766646 211.760698 542.41711 210.712892 542.067573 209.665086 542.633632 208.532316 543.681439 208.182779 548.213173 206.671042 552.584441 204.715217 556.731535 202.34381ZM586.074333 145.164003C587.011006 144.578583 588.244907 144.863329 588.830327 145.800002 589.386477 146.689842 589.157301 147.847929 588.329913 148.463438L588.194328 148.555997 579.074328 154.255997C578.137655 154.841417 576.903755 154.556671 576.318334 153.619998 575.762184 152.730158 575.99136 151.572071 576.818748 150.956562L576.954333 150.864003 586.074333 145.164003ZM535.729416 175.058221C536.2385 174.077962 537.445851 173.696 538.42611 174.205085 539.406368 174.71417 539.78833 175.921521 539.279246 176.901779 536.363301 182.516524 528.640158 183.512005 524.631621 181.03053 523.692444 180.449135 523.402405 179.216468 523.9838 178.277291 524.536126 177.385073 525.676224 177.078701 526.59408 177.548768L526.73704 177.62947C527.416093 178.049836 529.286705 178.365945 530.989904 178.14641 533.044001 177.881645 534.6424 176.958594 535.602471 175.290338L535.729416 175.058221Z"/><circle cx="544.264" cy="150.25" r="3.42" fill="#30242A" fill-rule="nonzero"/><circle cx="515.914" cy="145.72" r="3.42" fill="#30242A" fill-rule="nonzero"/><path fill="#A15842" fill-rule="nonzero" d="M523.637434,158.326888 C523.970523,157.273738 525.094292,156.690014 526.147442,157.023103 C527.200592,157.356192 527.784317,158.479961 527.451228,159.533112 C527.086848,160.685195 526.817352,161.678578 526.66678,162.458072 L526.601383,162.831727 C526.574541,163.005362 526.556474,163.158602 526.54715,163.288706 L526.539,163.448 L526.545768,163.457413 C526.848529,163.938481 527.256493,164.344701 527.738853,164.6454 L527.950043,164.767721 C528.923323,165.290024 529.288912,166.502433 528.76661,167.475713 C528.244307,168.448993 527.031898,168.814582 526.058618,168.292279 C524.723945,167.576038 523.628069,166.484845 522.875476,165.094427 C522.37143,164.086334 522.43158,162.77702 522.912518,160.836948 L523.061255,160.265193 C523.087912,160.166945 523.115491,160.067196 523.143979,159.96591 L523.325672,159.339462 L523.528408,158.674418 C523.563909,158.560266 523.600256,158.444435 523.637434,158.326888 Z"/><circle cx="582.304" cy="174.09" r="11.98" fill="#F5EBDD" fill-rule="nonzero"/><path fill="#30242A" fill-rule="nonzero" d="M507.308112,124.574377 C495.395274,124.574377 485.658112,133.3403 485.658112,144.264377 C485.658112,155.188454 495.395274,163.954377 507.308112,163.954377 C519.220951,163.954377 528.958112,155.188454 528.958112,144.264377 C528.958112,133.3403 519.220951,124.574377 507.308112,124.574377 Z M507.308112,128.574377 C517.100064,128.574377 524.958112,135.64862 524.958112,144.264377 C524.958112,152.880134 517.100064,159.954377 507.308112,159.954377 C497.51616,159.954377 489.658112,152.880134 489.658112,144.264377 C489.658112,135.64862 497.51616,128.574377 507.308112,128.574377 Z" transform="rotate(-78.99 507.308 144.264)"/><path fill="#30242A" fill-rule="nonzero" d="M550.758103,129.902049 C538.845264,129.902049 529.108103,138.667971 529.108103,149.592049 C529.108103,160.516126 538.845264,169.282049 550.758103,169.282049 C562.670941,169.282049 572.408103,160.516126 572.408103,149.592049 C572.408103,138.667971 562.670941,129.902049 550.758103,129.902049 Z M550.758103,133.902049 C560.550055,133.902049 568.408103,140.976291 568.408103,149.592049 C568.408103,158.207806 560.550055,165.282049 550.758103,165.282049 C540.966151,165.282049 533.108103,158.207806 533.108103,149.592049 C533.108103,140.976291 540.966151,133.902049 550.758103,133.902049 Z" transform="rotate(-78.99 550.758 149.592)"/><path fill="#30242A" fill-rule="nonzero" d="M525.707295 144.041371 532.617295 144.781371C533.715585 144.898988 534.510577 145.884675 534.39296 146.982965 534.280689 148.031332 533.37747 148.803348 532.340364 148.769068L532.191366 148.758629 525.281366 148.018629C524.183076 147.901012 523.388084 146.915325 523.505701 145.817035 523.617972 144.768668 524.521191 143.996652 525.558297 144.030932L525.707295 144.041371ZM625.248072 156.692753C625.417759 155.601296 626.440119 154.854053 627.531577 155.023741 628.573423 155.185716 629.301635 156.124609 629.218099 157.158913L629.20059 157.307247 627.21059 170.107247C627.040902 171.198704 626.018542 171.945947 624.927084 171.776259 623.885238 171.614284 623.157026 170.675391 623.240562 169.641087L623.258072 169.492753 625.248072 156.692753ZM481.884377 334.258556C482.87925 333.91669 483.958663 334.404569 484.369291 335.354187L484.425775 335.500047 494.105775 363.670047C494.464734 364.714663 493.908899 365.852485 492.864284 366.211444 491.869412 366.55331 490.789998 366.065431 490.379371 365.115813L490.322886 364.969953 480.642886 336.799953C480.283927 335.755337 480.839762 334.617515 481.884377 334.258556ZM533.674331 398.33C534.7789 398.33 535.674331 399.225431 535.674331 400.33 535.674331 401.384362 534.858453 402.248165 533.823593 402.324514L533.674331 402.33 508.224331 402.33C507.119761 402.33 506.224331 401.434569 506.224331 400.33 506.224331 399.275638 507.040208 398.411835 508.075068 398.335486L508.224331 398.33 533.674331 398.33ZM553.332566 326.170769C554.365435 325.958966 555.375525 326.58469 555.658203 327.583117L555.693561 327.728235 563.713561 366.838235C563.731635 366.92637 563.74373 367.015575 563.749785 367.105238L563.754331 367.24 563.754331 403.34C563.754331 404.444569 562.8589 405.34 561.754331 405.34 560.699969 405.34 559.836165 404.524122 559.759816 403.489262L559.754331 403.34 559.754 367.441 551.7751 328.531765C551.563297 327.498896 552.18902 326.488805 553.187448 326.206127L553.332566 326.170769Z"/><path fill="#30242A" fill-rule="nonzero" d="M499.585848 236.680695C500.548036 236.255445 501.665036 236.649742 502.154949 237.560991L502.223635 237.701517 517.453635 272.161517C518.056939 273.526577 517.008599 275.027464 515.551136 274.968947L515.404072 274.957835 501.618 273.429 563.418431 366.1306C564.000501 367.003704 563.80547 368.168029 562.996535 368.807596L562.863731 368.904101C561.990626 369.48617 560.826302 369.29114 560.186735 368.482205L560.09023 368.3494 495.91023 272.0794C494.996319 270.708533 496.038795 268.908002 497.642628 268.970754L497.794589 268.982165 512.39 270.599 498.565026 239.318483C498.139776 238.356295 498.534072 237.239295 499.445321 236.749381L499.585848 236.680695ZM647.151299 233.255354C647.788993 232.353455 649.037078 232.139275 649.938977 232.776968 650.79578 233.382777 651.031918 234.539465 650.506648 235.426885L650.417362 235.564646 627.045 268.619 646.837897 266.966937C648.704474 266.811066 649.716447 269.057681 648.439432 270.353837L648.330846 270.456782 560.070846 348.676782C559.244196 349.409396 557.980163 349.333166 557.247549 348.506516 556.553493 347.723374 556.585381 346.547677 557.293536 345.803169L557.417815 345.683218 641.174 271.454 623.100764 272.963063C621.458536 273.1002 620.38661 271.316342 621.217762 269.942846L621.301299 269.815354 647.151299 233.255354ZM641.830079 328.513802C642.683298 327.902954 643.853476 328.059067 644.519651 328.846235L644.620528 328.975749 663.850528 355.835749C664.493527 356.733873 664.286706 357.9832 663.388582 358.626198 662.535364 359.237046 661.365186 359.080933 660.69901 358.293765L660.598133 358.164251 641.368133 331.304251C640.725135 330.406127 640.931955 329.1568 641.830079 328.513802ZM642.167476 437.97413C642.734048 437.025937 643.962008 436.716573 644.910201 437.283145 646.720366 438.364771 648.747337 439.462768 650.958474 440.569765L652.182617 441.174429C652.38962 441.27534 652.598095 441.376315 652.808019 441.477347L654.084748 442.08419C654.731607 442.387914 655.39106 442.692058 656.062447 442.996472L657.420933 443.605617C657.649934 443.707186 657.880211 443.808775 658.111741 443.910377L659.515751 444.520105C659.752192 444.621738 659.989836 444.723374 660.228658 444.825007L661.675543 445.43472 663.149539 446.044091 664.649469 446.652854 666.174157 447.260742C666.43027 447.361969 666.687365 447.463149 666.945417 447.564276L668.505035 448.170355 670.086466 448.774895C670.351791 448.875508 670.617975 448.976047 670.884995 449.076505L672.496942 449.678238 674.12776 450.277767 675.776273 450.874828 677.441304 451.469152 679.121675 452.060476 680.81621 452.648532 682.523731 453.233055 685.106786 454.102633C686.154673 454.451929 686.720993 455.584569 686.371697 456.632456 686.022402 457.680342 684.889762 458.246662 683.841875 457.897367L682.088965 457.309216 680.347731 456.717169 678.619299 456.121457 676.904794 455.522313 675.205339 454.919968 673.52206 454.314656 671.856081 453.706608 670.208526 453.096056 668.580521 452.483233 666.973189 451.868371C666.707086 451.765737 666.441891 451.663027 666.177627 451.560248L664.603415 450.942762 663.052688 450.323818 661.52657 449.703647C661.274331 449.600196 661.023164 449.496703 660.773092 449.393174L659.285998 448.771599 657.826325 448.149377C657.585394 448.045633 657.345652 447.941871 657.107123 447.838097L655.690691 447.215342 654.304491 446.592522C649.963915 444.620399 646.095005 442.650783 642.858461 440.716855 641.910268 440.150283 641.600903 438.922323 642.167476 437.97413Z"/><circle cx="395.674" cy="187.5" r="19.67" fill="#FFB7D5" fill-rule="nonzero"/><rect width="27.94" height="10.32" x="313.219" y="100.45" fill="#4756DF" fill-rule="nonzero" rx="5" transform="rotate(50.33 327.189 105.61)"/><path fill="#3EC1F3" fill-rule="nonzero" d="M357.484331,126 L345.964331,112.1 L138.894331,283.8 C135.133985,286.920785 134.614693,292.498702 137.734331,296.26 L137.964331,296.54 C139.461233,298.345171 141.614067,299.481589 143.949025,299.699143 C146.283983,299.916698 148.609704,299.197559 150.414331,297.7 L215.154331,244 L215.154331,432.43 L233.224331,432.43 L233.224331,229 L357.484331,126 Z"/><path fill="#4756DF" fill-rule="nonzero" d="M325.657618,128.72789 L331.425208,135.724972 C333.469342,138.195316 335.051817,141.011642 336.098701,144.038897 L336.288697,144.608946 L332.479964,145.831054 C331.650007,143.244471 330.364169,140.828766 328.682613,138.695059 L328.341043,138.27211 L322.571043,131.27211 L325.657618,128.72789 Z"/><circle cx="224.184" cy="224.6" r="23.57" fill="#4756DF" fill-rule="nonzero"/><circle cx="224.184" cy="224.6" r="9.06" fill="#3EC1F3" fill-rule="nonzero"/><polygon fill="#A15842" fill-rule="nonzero" points="410.55 174.788 413.099 177.872 382.949 202.792 380.4 199.708"/><path fill="#3EC1F3" fill-rule="nonzero" d="M372.764331 123.48C366.424643 122.735143 360.61566 119.576374 356.544331 114.66L348.544331 104.99C342.656675 97.9017062 332.140365 96.9216756 325.044331 102.8L325.044331 102.8C321.638494 105.624256 319.494299 109.685971 319.08358 114.09136 318.67286 118.496749 320.029271 122.884831 322.854331 126.29L330.854331 135.99C334.907548 140.892338 336.922995 147.164209 336.484331 153.51L334.484331 182.75C333.493138 197.056863 337.124947 211.303648 344.844331 223.39L347.404331 227.39 443.334331 147.82 439.894331 144.59C429.453135 134.766531 416.13172 128.55805 401.894331 126.88L372.764331 123.48ZM233.224331 432.43 215.154331 432.43 188.444331 439.71C178.163896 442.514983 171.032832 451.853769 171.03433 462.51L277.334331 462.51C277.334331 451.850931 270.198732 442.51122 259.914331 439.71L233.224331 432.43Z"/><path fill="#4756DF" fill-rule="nonzero" d="M423.860173 132.128403C424.711574 131.424705 425.97223 131.544442 426.675928 132.395842 427.344441 133.204673 427.269804 134.382857 426.530699 135.101986L426.408488 135.211597 338.618488 207.771597C337.767088 208.475295 336.506431 208.355558 335.802733 207.504158 335.13422 206.695327 335.208857 205.517143 335.947962 204.798014L336.070173 204.688403 423.860173 132.128403ZM233.224331 428.36C234.3289 428.36 235.224331 429.255431 235.224331 430.36 235.224331 431.414362 234.408453 432.278165 233.373593 432.354514L233.224331 432.36 214.714331 432.36C213.609761 432.36 212.714331 431.464569 212.714331 430.36 212.714331 429.305638 213.530208 428.441835 214.565068 428.365486L214.714331 428.36 233.224331 428.36ZM273.224331 448.01C274.3289 448.01 275.224331 448.905431 275.224331 450.01 275.224331 451.064362 274.408453 451.928165 273.373593 452.004514L273.224331 452.01 174.544331 452.01C173.439761 452.01 172.544331 451.114569 172.544331 450.01 172.544331 448.955638 173.360208 448.091835 174.395068 448.015486L174.544331 448.01 273.224331 448.01Z"/><path fill="#30242A" fill-rule="nonzero" d="M743.284331,720.49 C745.284331,703.49 744.284331,665.33 722.224331,636.25 C700.164331,607.17 730.224331,619.25 739.224331,627.25 C753.624331,640.05 766.304331,652.32 777.334331,693.44 L743.284331,720.49 Z"/><path fill="#A15842" fill-rule="nonzero" d="M1009.65433,901 L1127.38433,901 L1127.38433,897.15 C1127.37881,885.848637 1118.2157,876.69 1106.91433,876.69 L1009.04433,876.69 L1009.65433,901 Z"/><path fill="#A15842" fill-rule="nonzero" d="M722.464331,788.6 L747.294331,901 L793.434331,901 L793.434331,894 C793.434371,884.603037 785.831253,876.977557 776.434331,876.95 L776.434331,876.95 C776.434331,876.95 799.494331,859.66 813.534331,842.61 C813.534331,842.61 837.604331,871.94 871.704331,866.92 L874.174331,878.92 C876.822546,891.758245 888.11582,900.976564 901.224331,901 L1013.05433,901 C1062.65433,901 1087.05433,893.43 1088.45433,865.19 C1088.54147,863.013385 1087.73724,860.89536 1086.2274,859.325128 C1084.71756,857.754895 1082.63269,856.868257 1080.45433,856.87 L1049.23433,856.87 C1046.62667,856.872626 1044.15866,855.691953 1042.52433,853.66 L1029.23433,837.17 C1021.18967,827.204916 1008.07573,822.841417 995.664331,826 L968.934331,832.83 C968.934331,832.83 921.574331,764.77 878.674331,717.5 C837.674331,672.37 760.554331,667.5 730.174331,726.28 C720.407082,745.516035 717.679436,767.563628 722.464331,788.6 Z"/><path fill="#30242A" fill-rule="nonzero" d="M981.553354 874.689995C987.512018 874.687088 993.227627 877.052117 997.442068 881.2645 1001.54845 885.368872 1003.90169 890.899273 1004.01967 896.692144L1004.02433 897.15 1004.02433 901 1000.02433 901 1000.02433 897.15C1000.02433 892.252539 998.078205 887.555798 994.614332 884.093618 991.252338 880.733266 986.728035 878.803262 981.985998 878.694826L981.554331 878.689995 967.924331 878.689995 967.924331 874.689995 981.553354 874.689995ZM822.017452 723.943593C822.750007 723.11689 824.014034 723.040567 824.840738 723.773122L824.99286 723.910913 825.420172 724.31695 825.842966 724.735381C826.601234 725.497426 827.441666 726.403521 828.343487 727.452762 830.904633 730.432577 833.460121 733.972828 835.842592 738.066335 841.874814 748.430759 845.786241 760.529165 846.571089 774.296185 847.358813 788.115897 843.043995 802.898827 835.015928 817.976222 829.54925 828.243112 823.109404 837.337825 816.925487 844.696686 816.21487 845.54232 814.953279 845.651773 814.107645 844.941156 813.26201 844.230539 813.152557 842.968948 813.863174 842.123314 819.881131 834.961946 826.166327 826.085638 831.485233 816.096278 839.198916 801.60932 843.317199 787.499738 842.577573 774.523834 841.83031 761.416114 838.113841 749.92073 832.38549 740.07841 830.130588 736.204089 827.717461 732.861059 825.309994 730.060044 824.891397 729.573019 824.488506 729.12079 824.103901 728.703522L823.54103 728.103863C823.449611 728.008297 823.359416 727.914922 823.270484 727.823739L822.75643 727.306848 822.299112 726.867893 822.187924 726.766878C821.361221 726.034324 821.284898 724.770296 822.017452 723.943593ZM865.526607 822.542903C866.629573 822.483409 867.571933 823.32931 867.631427 824.432276L867.783415 827.01356 867.967894 829.89342 868.1826 833.021676C868.201751 833.291849 868.221218 833.564284 868.240999 833.838901 868.749537 840.898764 869.36019 847.957847 870.07261 854.541123L870.293695 856.538488C870.330902 856.867056 870.368289 857.193436 870.405856 857.517593L870.633407 859.435556C870.671691 859.750672 870.710153 860.063491 870.748795 860.373978L870.98279 862.208613C871.022146 862.509622 871.061681 862.808226 871.101395 863.104389L871.341812 864.851768C871.382237 865.138018 871.422841 865.421752 871.463622 865.702936 871.622163 866.796068 870.864527 867.81075 869.771395 867.969291 868.678262 868.127833 867.66358 867.370197 867.505039 866.277064 867.380823 865.420601 867.25831 864.541472 867.137495 863.640615L866.898127 861.810204 866.663274 859.923513 866.432926 857.982205 866.207073 855.987945C866.169804 855.651247 866.132723 855.312413 866.095828 854.971477 865.437511 848.888151 864.866209 842.411195 864.38141 835.902038L864.13576 832.496005 863.976628 830.157605 863.834567 827.959262 863.637234 824.647724C863.57774 823.544758 864.423641 822.602397 865.526607 822.542903ZM769.364331 888.73C770.418692 888.73 771.282496 889.545878 771.358845 890.580738L771.364331 890.73 771.364331 900C771.364331 901.104569 770.4689 902 769.364331 902 768.309969 902 767.446165 901.184122 767.369816 900.149262L767.364331 900 767.364331 890.73C767.364331 889.625431 768.259761 888.73 769.364331 888.73ZM780.394331 888.73C781.448692 888.73 782.312496 889.545878 782.388845 890.580738L782.394331 890.73 782.394331 900C782.394331 901.104569 781.4989 902 780.394331 902 779.339969 902 778.476165 901.184122 778.399816 900.149262L778.394331 900 778.394331 890.73C778.394331 889.625431 779.289761 888.73 780.394331 888.73ZM979.964331 888.73C981.018692 888.73 981.882496 889.545878 981.958845 890.580738L981.964331 890.73 981.964331 900C981.964331 901.104569 981.0689 902 979.964331 902 978.909969 902 978.046165 901.184122 977.969816 900.149262L977.964331 900 977.964331 890.73C977.964331 889.625431 978.859761 888.73 979.964331 888.73Z"/><path fill="#30242A" fill-rule="nonzero" d="M990.994331,888.73 C992.048692,888.73 992.912496,889.545878 992.988845,890.580738 L992.994331,890.73 L992.994331,900 C992.994331,901.104569 992.0989,902 990.994331,902 C989.939969,902 989.076165,901.184122 988.999816,900.149262 L988.994331,900 L988.994331,890.73 C988.994331,889.625431 989.889761,888.73 990.994331,888.73 Z"/><circle cx="1020.574" cy="859.14" r="4.51" fill="#30242A" fill-rule="nonzero"/><polygon fill="#30242A" fill-rule="nonzero" points="995.964 825.91 995.964 825.79 968.894 832.79 995.624 825.96"/><path fill="#30242A" fill-rule="nonzero" d="M929.344331,877.14 C921.504331,881.14 910.424331,888.97 911.344331,900.83 L954.884331,900.83 L964.034331,886.4 C967.073897,881.603321 972.35568,878.694567 978.034331,878.69 L980.944331,878.69 L995.864331,826.21 L995.644331,825.98 L968.914331,832.81 L943.324331,865.59 C939.557288,870.408476 934.786955,874.349631 929.344331,877.14 L929.344331,877.14 Z"/><path fill="#EAA58B" fill-rule="nonzero" d="M865.754331,742 C865.754331,742 853.644331,783.92 892.754331,799.75 C912.584331,807.75 929.054331,801.68 940.484331,793.75 C923.214331,770.75 900.364331,741.47 878.664331,717.55 C873.22324,711.563442 867.109465,706.224794 860.444331,701.64 C854.524331,709.7 848.044331,729.64 865.754331,742 Z"/><circle cx="765.854" cy="755.85" r="16.55" fill="#EAA58B" fill-rule="nonzero"/><path fill="#30242A" fill-rule="nonzero" d="M1080.49433,856.869997 L1074.49433,856.869997 C1073.82521,860.25761 1074.70552,863.766968 1076.89434,866.437677 C1079.08316,869.108385 1082.35128,870.660773 1085.80433,870.67 C1086.50908,870.66979 1087.21222,870.602824 1087.90433,870.47 C1088.20964,868.723844 1088.40668,866.960479 1088.49433,865.19 C1088.58147,863.013385 1087.77724,860.89536 1086.2674,859.325128 C1084.75756,857.754895 1082.67269,856.868257 1080.49433,856.869997 Z"/><line x1="1104.314" x2="1104.314" y1="890.73" y2="899.77" stroke="#30242A" stroke-linecap="round" stroke-width="4"/><line x1="1115.344" x2="1115.344" y1="890.73" y2="899.77" stroke="#30242A" stroke-linecap="round" stroke-width="4"/><path stroke="#30242A" stroke-linecap="round" stroke-linejoin="round" stroke-width="4" d="M1043.79433,899.8 C1068.31433,897.33 1082.93433,890.69 1088.24433,876.56"/><path fill="#EAA58A" fill-rule="nonzero" d="M643.994331,373.67 C631.653996,372.564886 619.246069,372.427801 606.884331,373.26 C589.204331,374.71 565.434331,379.34 555.884331,383.96 C546.334331,388.58 509.764331,404.89 519.614331,410.36 C528.614331,415.36 547.494331,407.84 547.494331,407.84 C547.494331,407.84 528.654331,425.16 525.414331,432.41 C522.174331,439.66 532.884331,443.73 532.884331,443.73 C535.704331,456.11 548.324331,450.79 548.324331,450.79 C556.274331,467.7 599.224331,431.06 599.224331,431.06 C609.442741,432.12166 619.761372,431.687085 629.854331,429.77 C629.854331,429.77 635.294331,432.82 644.024331,437.06 L643.994331,373.67 Z"/><path fill="#4756DF" fill-rule="nonzero" d="M751.294331,458.5 C831.524331,420.39 715.224331,278 674.074331,244.89 L651.014331,338.16 L680.094331,378.27 C667.354331,376.07 655.174331,374.56 643.994331,373.67 L643.994331,437.06 C669.454331,449.44 722.954331,472 751.294331,458.5 Z"/><path fill="#A15842" fill-rule="nonzero" d="M573.09061 386.649088C573.693104 387.574872 573.431026 388.813785 572.505242 389.416279 572.181517 389.626957 571.852856 389.843246 571.519416 390.064992L570.504908 390.746456 569.462653 391.459761 568.393584 392.203998 567.298633 392.978257 566.178733 393.781631C565.990056 393.917902 565.800378 394.055348 565.609719 394.193951L564.454146 395.039289 563.275958 395.911469 562.076086 396.809579 560.855465 397.732711 559.615027 398.679956 558.355705 399.650405 556.433357 401.147595 554.473769 402.691878 551.808498 404.818875 550.455468 405.90945 549.090086 407.016864 547.020893 408.707568 544.929156 410.431045C544.07806 411.135112 542.817352 411.015921 542.113285 410.164825 541.409219 409.31373 541.528409 408.053021 542.379505 407.348955L544.493373 405.60724 546.584318 403.898773 548.649357 402.22652 550.685507 400.593447 552.025418 399.527963 554.006792 397.966781 555.307423 396.95197 556.590797 395.958965 557.856028 394.988647 559.102232 394.041893 560.328528 393.119582C560.531202 392.967949 560.73301 392.817372 560.933933 392.667867L562.128706 391.783869 563.30136 390.926511 564.451011 390.096671 565.576776 389.295229 566.677769 388.523063C566.859155 388.396858 567.039472 388.271908 567.218701 388.148234L568.280882 387.42163 569.316082 386.7265 570.323419 386.063721C571.249202 385.461227 572.488116 385.723305 573.09061 386.649088ZM580.047149 400.131299C580.974269 399.530865 582.212597 399.795697 582.813031 400.722818 583.413465 401.649939 583.148633 402.888267 582.221512 403.488701 565.51324 414.309529 548.97387 428.614716 534.151595 443.501156 533.372235 444.28389 532.105908 444.286625 531.323175 443.507265 530.540441 442.727905 530.537706 441.461578 531.317066 440.678844 546.322435 425.608516 563.056183 411.135209 580.047149 400.131299ZM589.092473 415.171092C590.00314 414.545984 591.248131 414.777475 591.873239 415.688142 592.498346 416.598809 592.266855 417.8438 591.356188 418.468908 588.631725 420.339057 585.77217 422.429638 582.807117 424.706939L581.315936 425.860993 579.807994 427.045232C579.302645 427.444904 578.794639 427.849451 578.284114 428.258717L576.745116 429.500514C576.229689 429.91906 575.711879 430.342169 575.191824 430.769684L573.62506 432.065293C573.362855 432.283379 573.100124 432.502528 572.836882 432.722719L571.25145 434.05623 569.6546 435.413837 568.047155 436.794605 566.429937 438.197598 564.803767 439.621878 563.169468 441.06651 561.527862 442.530557 559.879771 444.013082C559.604595 444.261658 559.329182 444.510964 559.053551 444.760982L557.397274 446.26947C557.120835 446.522255 556.844213 446.775713 556.567422 447.029824L554.904809 448.562167 553.238998 450.109243 551.570813 451.670116C551.29263 451.931359 551.014382 452.193138 550.736087 452.455433 549.932273 453.213033 548.666497 453.175569 547.908897 452.371756 547.151298 451.567942 547.188761 450.302167 547.992575 449.544567L549.677538 447.962216 551.360524 446.393323 553.040737 444.838807 554.717383 443.299589 556.389667 441.776591 558.056794 440.270733 559.71797 438.782937 561.3724 437.314122C561.647532 437.070952 561.922349 436.828612 562.196836 436.58712L563.839656 435.148505 565.473743 433.731173C565.745318 433.496776 566.016497 433.263304 566.287263 433.030777L567.906759 431.647098 569.515536 430.287004 571.112797 428.951418 572.697749 427.641259 574.269596 426.357449C574.791273 425.934006 575.310633 425.515108 575.827544 425.100908L577.370798 423.872557C578.138619 423.265582 578.900632 422.669525 579.656389 422.084901L581.159431 420.931054C583.899231 418.844182 586.550925 416.915683 589.092473 415.171092Z"/><path fill="#3EC1F3" fill-rule="nonzero" d="M830.924331,411.43 C834.081117,411.435504 836.638826,413.993214 836.644331,417.15 L836.644331,418 C836.638826,421.156786 834.081117,423.714496 830.924331,423.72 L801.454331,423.72 L801.454331,411.43 L830.924331,411.43 M830.924331,403.43 L794.534331,403.43 C794.246156,403.429988 793.969927,403.545145 793.767098,403.749852 C793.564269,403.954559 793.451662,404.231837 793.454284,404.52 L793.454284,430.67 C793.454284,431.266468 793.937863,431.75 794.534331,431.75 L830.924331,431.75 C834.568305,431.75 838.062594,430.300395 840.636458,427.720904 C843.210321,425.141413 844.652298,421.643965 844.644363,418 L844.644363,417.12 C844.644363,409.542653 838.501677,403.4 830.924331,403.4 L830.924331,403.43 Z"/><path fill="#3EC1F3" fill-rule="nonzero" d="M786.924331,399.12 C757.124331,399.12 743.354331,375.37 743.354331,375.37 L763.354331,462.51 L810.434331,462.51 L830.434331,375.37 C820.99218,390.254941 804.551121,399.229319 786.924331,399.12 L786.924331,399.12 Z"/><path fill="#30242A" fill-rule="nonzero" d="M786.924331,399.12 C804.572398,399.250065 821.040847,390.273116 830.494331,375.37 L743.354331,375.37 C743.354331,375.37 757.124331,399.12 786.924331,399.12 Z"/></g></svg>