<svg xmlns="http://www.w3.org/2000/svg" width="1182.02" height="816.82" viewBox="0 0 1182.02 816.82"><g fill="none" fill-rule="evenodd"><rect width="16.85" height="151.26" x="850.855" y="661.775" fill="#A15842" fill-rule="nonzero" transform="rotate(-90 859.28 737.405)"/><path fill="#A15842" fill-rule="nonzero" d="M959.82,806.73 L920.48,572.55 L798.08,572.55 L758.74,806.73 C758.380096,808.974854 759.021443,811.264717 760.495003,812.996053 C761.968562,814.727389 764.126481,815.726481 766.4,815.730016 L766.4,815.730016 C770.054036,815.737311 773.216765,813.191294 773.99,809.62 L825.5,572.5 L893.05,572.5 L944.56,809.62 C945.340884,813.190724 948.50489,815.734418 952.16,815.730016 L952.16,815.730016 C954.433519,815.726481 956.591438,814.727389 958.064997,812.996053 C959.538557,811.264717 960.179904,808.974854 959.82,806.73 L959.82,806.73 Z"/><rect width="16.85" height="151.26" x="976.165" y="661.775" fill="#CA7358" fill-rule="nonzero" transform="rotate(-90 984.59 737.405)"/><path fill="#CA7358" fill-rule="nonzero" d="M1085.13,806.73 L1045.79,572.55 L923.39,572.55 L884.04,806.73 C883.683389,808.975967 884.327308,811.265524 885.802358,812.996352 C887.277407,814.72718 889.435902,815.725982 891.71,815.73005 L891.71,815.73005 C895.364036,815.737311 898.526765,813.191294 899.3,809.62 L950.81,572.5 L1018.32,572.5 L1069.83,809.62 C1070.61088,813.190724 1073.77489,815.734418 1077.43,815.73005 L1077.43,815.73005 C1079.7105,815.738212 1081.87948,814.744152 1083.36203,813.011295 C1084.84459,811.278437 1085.49102,808.981761 1085.13,806.73 L1085.13,806.73 Z"/><path fill="#FFB7D5" fill-rule="nonzero" d="M961.5,534.8 L976.5,476.12 L877.05,476.12 C836.950867,476.118216 801.943141,503.278318 791.98,542.12 L781.82,581.92 L900.82,581.92 C929.436209,581.92 954.413342,562.524839 961.5,534.8 L961.5,534.8 Z"/><path fill="#FFB7D5" fill-rule="nonzero" d="M1019.15,581.92 L781.82,581.92 L785.82,565.99 L890,565.99 L929.73,410.61 C940.863548,367.070146 980.089208,336.61 1025.03,336.61 L1025.03,336.61 C1078.49,336.61 1117.61,387 1104.37,438.79 L1079.82,534.79 C1072.73812,562.515201 1047.76538,581.914661 1019.15,581.92 L1019.15,581.92 Z"/><path fill="#A15842" fill-rule="nonzero" d="M914.54,562.44 C915.644569,562.44 916.54,563.335431 916.54,564.44 C916.54,565.494362 915.724122,566.358165 914.689262,566.434514 L914.54,566.44 L788.28,566.44 C787.175431,566.44 786.28,565.544569 786.28,564.44 C786.28,563.385638 787.095878,562.521835 788.130738,562.445486 L788.28,562.44 L914.54,562.44 Z"/><path fill="#A15842" fill-rule="nonzero" d="M910.642338 476.854554C910.915966 475.784413 912.005306 475.138711 913.075446 475.412338 914.096945 475.673528 914.731712 476.67796 914.549323 477.699478L914.517662 477.845446 892.397662 564.355446C892.124034 565.425587 891.034694 566.071289 889.964554 565.797662 888.943055 565.536472 888.308288 564.53204 888.490677 563.510522L888.522338 563.364554 910.642338 476.854554ZM716.4 135.23C709.77 118.36 697.75 98.86 691.22 104.45 689.64 105.81 688.69 108.12 688.22 111.09 686.95 119.46 689.62 133.09 693.06 145.49L682.74 150C682.672549 150.311775 682.585713 150.619038 682.48 150.92 680.59 156.5 674.38 157.07 674.38 157.07 674.38 157.07 681.67 161.59 678.43 169 675.19 176.41 664.66 174 664.66 174 671.44 181.24 670.51 186.36 666.18 189.83 665.295266 190.466138 664.26255 190.865454 663.18 190.99 663.47 200.11 664.05 210.55 665.11 221.51L734.43 199.51C728.71 175.81 721.6 148.46 716.4 135.23Z"/><path fill="#30242A" fill-rule="nonzero" d="M690.947737 145.572835C692.001036 145.240214 693.124545 145.824439 693.457165 146.877737L693.728892 147.731201 694.308534 149.501025 694.647694 150.492361 694.809942 150.944879 694.897781 151.178062C694.910961 151.212053 694.923391 151.243545 694.935038 151.272447 695.111757 151.710974 695.126734 152.196017 694.980885 152.64182L694.717538 153.311831 694.567596 153.710693 694.406012 154.158425C694.004375 155.293316 693.601205 156.590365 693.224211 158.024578 691.450609 164.771964 690.885927 171.882167 692.241377 178.678846 692.457405 179.762085 691.754392 180.815348 690.671154 181.031377 689.587915 181.247405 688.534652 180.544392 688.318623 179.461154 686.828832 171.990837 687.43999 164.295429 689.355627 157.007691 689.711023 155.655645 690.089207 154.412891 690.471266 153.295225L690.721939 152.580912 690.937 151.997 690.656767 151.189203 690.262909 150.009709 689.960845 149.080096 689.642835 148.082263C689.310214 147.028964 689.894439 145.905455 690.947737 145.572835ZM678.973829 148.424039C679.214603 146.228061 681.189982 144.643054 683.385961 144.883829 685.581939 145.124603 687.166946 147.099982 686.926171 149.295961 686.481655 153.350167 684.544032 156.421962 681.653213 158.47127L681.343 158.683 681.352231 158.698663C683.436199 162.067923 683.993836 166.043224 682.236164 170.310471L682.092576 170.64796C680.344829 174.62894 677.039114 176.980064 672.90728 177.927143L672.64858 177.984447 672.278 178.058 672.363795 178.246934C674.798749 183.798292 673.60223 188.908147 668.922377 192.794796L668.681417 192.991364C666.957535 194.372859 664.44013 194.095299 663.058636 192.371417 661.677141 190.647535 661.954701 188.13013 663.678583 186.748636 666.309931 184.639911 666.475623 182.286813 662.864347 178.030866L662.439318 177.540843C662.365767 177.457788 662.290854 177.374033 662.21457 177.289567L661.740343 176.774154C659.08976 173.943739 661.613374 169.418345 665.356772 170.100632L665.714106 170.172165 666.013021 170.221293 666.276897 170.259161C667.884848 170.477015 669.612244 170.474947 671.119911 170.129367 672.960153 169.707555 674.135378 168.8717 674.767424 167.43204 675.705496 165.295319 675.267704 163.589945 673.799628 161.899066 673.434339 161.47834 673.036428 161.104018 672.643701 160.78983L672.355755 160.568897 672.262097 160.5033C669.061869 158.505901 670.164149 153.636231 673.831043 153.147309L674.112345 153.114148 674.261097 153.087524 674.469139 153.043577 674.729426 152.980409C675.392974 152.808923 676.054266 152.547777 676.643957 152.194198 677.908589 151.435922 678.687142 150.381533 678.937075 148.708637L678.973829 148.424039Z"/><path fill="#EAA58B" fill-rule="nonzero" d="M657.22,117.15 C661.28,118.37 679.39,118.57 681.92,130.33 C683.12,135.87 675.71,138.07 675.71,138.07 C675.71,138.07 683.71,141.98 682.95,148.83 C682.903655,149.227178 682.83353,149.621219 682.74,150.01 L693.08,145.49 C689.64,133.09 686.97,119.49 688.24,111.09 L675.97,84.09 L662.83,55.16 L634.83,67.89 L647.97,96.82 L652.29,106.32 L652.29,106.32 L657.22,117.15 Z"/><path fill="#A15842" fill-rule="nonzero" d="M675.71,138.07 C675.71,138.07 683.12,135.87 681.92,130.33 C679.39,118.57 661.28,118.33 657.22,117.15 L652.32,106.32 L652.32,106.32 C652.11,106.32 643.07,107.74 639.42,113.39 C633.7,122.25 640.67,128.6 640.67,128.6 C640.67,128.6 626.57,133.42 633.74,146.72 C633.74,146.72 625.65,156.84 635.74,164.93 C635.74,164.93 628.1,171.75 638.07,180.93 C646.32,188.55 657.32,192 663.21,191 C664.29255,190.875454 665.325266,190.476138 666.21,189.84 C670.54,186.37 671.47,181.25 664.69,174.01 C664.69,174.01 675.22,176.39 678.46,169.01 C681.7,161.63 674.41,157.08 674.41,157.08 C674.41,157.08 680.62,156.51 682.51,150.93 C682.615713,150.629038 682.702549,150.321775 682.77,150.01 C682.86353,149.621219 682.933655,149.227178 682.98,148.83 C683.71,142 675.71,138.07 675.71,138.07 Z"/><path fill="#30242A" fill-rule="nonzero" d="M638.037229 127.525205C638.559024 126.551654 639.771243 126.185433 640.744795 126.707229 650.003025 131.669374 662.713096 134.642751 676.390157 135.94906 677.489722 136.054081 678.29596 137.030591 678.19094 138.130157 678.085919 139.229722 677.109409 140.03596 676.009843 139.93094 661.850655 138.578582 648.676283 135.496586 638.855205 130.232771 637.881654 129.710976 637.515433 128.498757 638.037229 127.525205ZM632.716547 147.356561C633.182366 146.355019 634.371897 145.920729 635.373439 146.386547 648.38448 152.437997 664.355296 156.185027 677.475173 157.206029 678.576413 157.291728 679.399671 158.253933 679.313971 159.355173 679.228272 160.456413 678.266067 161.279671 677.164827 161.193971 663.597484 160.138147 647.167222 156.283323 633.686561 150.013453 632.685019 149.547634 632.250729 148.358103 632.716547 147.356561ZM633.782578 165.665148C634.243654 164.661413 635.431118 164.221502 636.434852 164.682578 643.001974 167.699256 651.874624 170.482577 661.124102 172.81642L662.862324 173.248696 664.606553 173.67012 666.353963 174.080377C666.645306 174.147804 666.936665 174.214754 667.227979 174.281218L668.974864 174.674129C669.265766 174.738627 669.556507 174.802626 669.847027 174.86612 670.926125 175.10196 671.609721 176.167929 671.37388 177.247027 671.13804 178.326125 670.072071 179.009721 668.992973 178.77388L667.166303 178.368748 665.337791 177.951157 663.510347 177.521383C663.206023 177.448753 662.901866 177.375628 662.597934 177.302012L660.777549 176.854478C660.171982 176.703369 659.567807 176.550344 658.965507 176.395448L657.164719 175.925197C648.791828 173.704936 640.881639 171.127098 634.765148 168.317422 633.761413 167.856346 633.321502 166.668882 633.782578 165.665148Z"/><path fill="#3EC1F3" fill-rule="nonzero" d="M1010.18,292.85 C1010.20411,291.438546 1010.15739,290.026771 1010.04,288.62 L1008.46,279.74 C1002.12,257.35 980.05,240.34 971.94,213.57 L944.27,213.84 L944.27,213.32 L908.47,229.43 L894.57,200.38 L894.32,200.38 L881.48,229.43 L866.71,213.73 L866.71,213.84 C866.71,213.84 821.82,215.44 744.41,242.48 C744.41,242.48 740.09,222.73 734.49,199.59 L665.17,221.59 C669.26,263.74 680.59,313.45 710.83,324.59 C746.27,337.64 832.08,312.46 832.08,312.46 L844.2,408.52 L1003.68,408.52 L1003.68,390.77 C1003.68,390.77 1016.74,384.27 1016.74,369.32 C1016.71,342.28 1009.24,338.55 1010.18,292.85 Z"/><polygon fill="#F5EBDD" fill-rule="nonzero" points="894.31 200.38 868.44 200.38 866.7 213.73 881.47 229.43"/><path fill="#F5EBDD" fill-rule="nonzero" d="M894.62,200.38 L908.52,229.43 L944.32,213.32 C944.46,211.84 944.91,207.32 945.51,200.93 L945.51,200.38 L894.62,200.38 Z"/><path fill="#4756DF" fill-rule="nonzero" d="M826.206098,280.604928 C827.25259,280.476347 828.209443,281.180794 828.411425,282.198619 L828.435072,282.346098 L831.965072,311.076098 C832.099776,312.172423 831.320227,313.170369 830.223902,313.305072 C829.17741,313.433653 828.220557,312.729206 828.018575,311.711381 L827.994928,311.563902 L824.464928,282.833902 C824.330224,281.737577 825.109773,280.739631 826.206098,280.604928 Z"/><circle cx="894.07" cy="252.28" r="7.93" fill="#30242A" fill-rule="nonzero"/><circle cx="687.02" cy="239.22" r="7.93" fill="#30242A" fill-rule="nonzero"/><path fill="#4756DF" fill-rule="nonzero" d="M745.972273,241.002001 C747.004492,240.787055 748.016483,241.409701 748.302199,242.407264 L748.337999,242.552273 L751.927999,259.792273 C752.15318,260.873646 751.4591,261.932817 750.377727,262.157999 C749.345508,262.372945 748.333517,261.750299 748.047801,260.752736 L748.012001,260.607727 L744.422001,243.367727 C744.19682,242.286354 744.8909,241.227183 745.972273,241.002001 Z"/><path fill="#A15842" fill-rule="nonzero" d="M894.32,200.38 L894.63,200.38 L894.54,200.19 L945.54,200.19 L945.54,200.38 L945.61,200.38 C946.03,195.87 946.54,190.49 947.08,184.68 C938.32,181.74 916.43,172.96 908.75,156.74 C921.68,152.43 936.75,134.11 925.99,119.02 C911.71,99.02 887.2,125.49 887.2,125.49 C887.2,125.49 872.11,115.79 864.57,95.32 C861.34,96.39 851.64,97.47 844.1,95.32 C844.1,95.32 840.86,103.94 838.71,119.02 C838.41,121.1 838.076667,123.1 837.71,125.02 C837.71,125.02 827.94,124.43 826.87,128.74 C825.53,134.07 834.08,139.74 834.08,139.74 C830.73,151.74 827.95,161.03 832.25,171.79 C836.05,181.28 844.11,192.26 869.97,189.03 L868.52,200.16 L894.44,200.16 L894.32,200.38 Z"/><path fill="#EAA58B" fill-rule="nonzero" d="M864.53,95.32 C872.07,115.79 887.16,125.49 887.16,125.49 C887.16,125.49 911.67,99.03 925.95,119.02 C936.72,134.11 921.64,152.43 908.71,156.74 C916.39,172.96 938.28,181.74 947.04,184.68 C948.93,164.13 951.21,138.11 951.81,125.49 C952.81,104.92 950.81,74.75 917.33,59.76 C886.08,45.76 856.99,67.3 856.99,67.3 C856.99,67.3 830.42,59.65 828.99,77 C827.91,89.93 844.08,95.32 844.08,95.32 C851.6,97.47 861.32,96.39 864.53,95.32 Z"/><path fill="#30242A" fill-rule="nonzero" d="M887.638391 182.590921C888.549152 181.965951 889.794108 182.19763 890.419079 183.108391 891.044049 184.019152 890.81237 185.264108 889.901609 185.889079 884.648464 189.493823 878.057637 191.743652 870.971226 192.970676 869.882852 193.15913 868.847778 192.4296 868.659324 191.341226 868.47087 190.252852 869.2004 189.217778 870.288774 189.029324 876.857837 187.891879 882.937978 185.816377 887.638391 182.590921ZM852.209345 145.610063C852.722935 144.632158 853.932031 144.255756 854.909937 144.769345 855.887842 145.282935 856.264244 146.492031 855.750655 147.469937 852.922408 152.855085 845.604501 153.786231 841.755983 151.39972 840.817254 150.817603 840.528162 149.584713 841.11028 148.645983 841.663291 147.75419 842.803625 147.448696 843.721119 147.919468L843.864017 148.00028C844.086479 148.138232 844.618332 148.316741 845.270008 148.429377 846.074121 148.568362 846.954277 148.594547 847.797551 148.487247 849.695829 148.245706 851.176645 147.39232 852.083688 145.837032L852.209345 145.610063Z"/><circle cx="855.91" cy="121.18" r="3.26" fill="#30242A" fill-rule="nonzero"/><path fill="#30242A" fill-rule="nonzero" d="M910.866341 130.262618C911.798256 129.669653 913.034416 129.944426 913.627382 130.876341 914.190699 131.761661 913.970882 132.921561 913.148491 133.543731L913.013659 133.637382 901.163659 141.177382C900.231744 141.770347 898.995584 141.495574 898.402618 140.563659 897.839301 139.678339 898.059118 138.518439 898.881509 137.896269L899.016341 137.802618 910.866341 130.262618ZM844.17 408.49C844.17 408.49 763.96 438.34 734.17 454.19 682.39 481.7 676.08 496.4 644.17 593.28 633.51 625.4 626.32 651.58 619.53 672L705.76 711.41 705.87 711.19 719.87 717.74C719.87 717.74 742.46 688.32 746.08 655.02 750.76 612.02 747.96 582.95 767.61 566.1L995.07 408.46 844.17 408.49Z"/><path fill="#A15842" fill-rule="nonzero" d="M605.62,705.45 L624.43,714.22 C637.43,720.3 636.43,729.09 634.89,732.48 C633.470892,735.152293 631.908621,737.746063 630.21,740.25 L677.11,762.42 C687.620895,745.977949 697.186397,728.950353 705.76,711.42 L619.53,672 C614.99,685.73 610.65,696.84 605.62,705.45 Z"/><path fill="#FF7235" fill-rule="nonzero" d="M624.43,714.22 L605.62,705.45 C600.62,713.96 595.02,720.02 587.85,723.69 C582.479143,726.344924 576.58993,727.785648 570.6,727.91 C569.03,727.97 567.52,728.07 566.03,728.17 C570.03,735.33 571.85,746.3 571.85,746.3 C582.97,749.3 596.3,745.56 605.85,741.73 C609.45,740.28 612.5,738.81 614.67,737.73 C617.728347,736.153088 621.345753,736.086578 624.46,737.55 L630.26,740.29 C631.958621,737.786063 633.520892,735.192293 634.94,732.52 C636.46,729.09 637.48,720.3 624.43,714.22 Z"/><path fill="#30242A" fill-rule="nonzero" d="M630.21,740.25 L624.41,737.51 C621.295753,736.046578 617.678347,736.113088 614.62,737.69 C612.45,738.81 609.4,740.28 605.8,741.69 C596.3,745.52 582.97,749.27 571.8,746.26 C571.8,746.26 569.98,735.26 565.98,728.13 C564.98,728.2 564.09,728.28 563.17,728.37 C545.08,730.1 534.32,735 527.92,742.29 L650.41,799.39 C655.5,793.22 662.7,783.93 671.08,771.56 C673.08,768.67 675.08,765.64 677.08,762.42 L630.21,740.25 Z"/><path fill="#FF7235" fill-rule="nonzero" d="M521.98,752.51 L642.4,808.51 C642.4,808.51 645.4,805.43 650.4,799.34 L527.92,742.29 C525.30564,745.286167 523.289319,748.755326 521.98,752.51 L521.98,752.51 Z"/><path fill="#000" fill-rule="nonzero" d="M939.848923,407.961555 C940.12751,408.978446 939.568863,410.027125 938.590954,410.374194 L938.389854,410.435011 L936.063248,411.084983 L931.728126,412.322829 L929.034459,413.104674 L925.802184,414.053955 L922.454251,415.049368 L918.996177,416.089995 L915.43348,417.174918 L913.002948,417.922355 L911.771675,418.303218 C891.754316,424.50716 871.738086,431.286729 853.064213,438.417663 L850.755388,439.303823 L848.471984,440.189307 C848.09355,440.336828 847.716187,440.48432 847.3399,440.63178 L845.095137,441.516157 L842.876476,442.399736 L840.684188,443.282468 L838.518547,444.164303 C838.159842,444.311198 837.802259,444.458054 837.445804,444.60487 L835.320643,445.48527 L833.222809,446.364652 L831.152575,447.242967 C830.809851,447.389262 830.468289,447.53551 830.127893,447.68171 L828.09957,448.558334 L826.099528,449.433769 L824.12804,450.307967 L822.185377,451.180879 C821.864017,451.326254 821.54387,451.471574 821.224941,451.616837 L819.326028,452.487728 C819.011994,452.63276 818.699189,452.777734 818.387619,452.922648 L816.533069,453.791409 C814.693432,454.659437 812.898668,455.525243 811.150004,456.388608 L809.416751,457.251151 C809.130452,457.39477 808.845445,457.538319 808.561735,457.681797 L806.875094,458.541807 L805.219866,459.400068 C800.848055,461.686388 796.814235,463.953526 793.141657,466.197323 L791.670621,467.102256 C790.942835,467.553739 790.226611,468.003789 789.521776,468.452609 L788.127242,469.348671 C787.437518,469.795941 786.759069,470.242116 786.091725,470.687398 L784.771791,471.576831 C784.554253,471.724892 784.337936,471.872868 784.122834,472.020767 L782.846747,472.907301 C764.973927,485.455166 755.786361,497.556243 751.389312,513.804928 C751.295199,514.152709 751.203076,514.501486 751.112936,514.85147 L750.848456,515.905256 C750.719183,516.43417 750.594355,516.966276 750.473948,517.502285 L750.239023,518.579721 C750.086327,519.301762 749.941463,520.031588 749.804374,520.770887 L749.604565,521.887152 L749.416377,523.018894 C749.264383,523.968813 749.12445,524.936172 748.996467,525.924272 L748.848616,527.120157 C748.824928,527.3212 748.801716,527.523127 748.77898,527.725961 L748.648258,528.954087 L748.528902,530.205289 L748.42087,531.480834 L748.324118,532.781989 C748.293744,533.220117 748.265242,533.662724 748.238606,534.110022 L748.16429,535.466197 C748.152835,535.694642 748.141844,535.924312 748.131318,536.155235 L748.073717,537.556 L748.027206,538.988076 L747.991743,540.452729 L747.967286,541.951225 L747.953792,543.484831 L747.951219,545.054815 L747.959524,546.662441 C747.964101,547.204731 747.970483,547.753507 747.978665,548.308978 L748.008599,549.995692 L748.049285,551.723849 L748.100679,553.494716 L748.162739,555.30956 L748.235423,557.169648 L748.318688,559.076246 L748.412493,561.030621 L748.516794,563.03404 L748.631549,565.087768 L748.756716,567.193074 L748.963895,570.45051 L749.114906,572.6903 L749.360652,576.1554 L749.629347,579.750798 L749.920849,583.480769 L750.127783,586.044291 L750.456976,590.008051 L750.930759,595.520873 L751.312053,599.831887 C751.410422,600.932068 750.598294,601.903684 749.498113,602.002053 C748.397932,602.100422 747.426316,601.288294 747.327947,600.188113 L746.942645,595.83164 L746.579827,591.628144 L746.239658,587.573245 L745.922302,583.662565 L745.627925,579.891724 L745.356691,576.256341 L745.188808,573.905845 L744.956512,570.486495 L744.814739,568.275965 L744.683496,566.119151 L744.562832,564.014756 L744.452796,561.96148 L744.353435,559.958028 L744.2648,558.0031 L744.186939,556.0954 L744.1199,554.23363 L744.063733,552.416491 L744.018486,550.642688 C744.011858,550.350593 744.005687,550.060249 743.999974,549.771631 L743.971199,548.060395 C743.967322,547.778567 743.963905,547.498408 743.960949,547.219893 L743.948757,545.568307 C743.946773,545.024207 743.946773,544.486465 743.946773,543.954864 L743.957766,542.378268 L743.979067,540.83722 C743.988041,540.329318 743.998893,539.827125 744.011629,539.330423 L744.055502,537.85658 C744.080275,537.12768 744.109307,536.410651 744.142626,535.704763 L744.21499,534.307625 L744.298835,532.938899 L744.394211,531.597287 C744.42793,531.154457 744.463579,530.71593 744.501166,530.28149 L744.619749,528.990212 C744.640484,528.77697 744.661707,528.564696 744.683416,528.353362 L744.819533,527.096429 C744.843197,526.888749 744.86735,526.681955 744.891994,526.476021 L745.045754,525.250512 L745.211338,524.044332 C745.297093,523.445857 745.387301,522.854144 745.481988,522.268462 L745.677343,521.104923 C745.778015,520.526959 745.883185,519.954539 745.99288,519.386934 L746.218311,518.257928 C746.295472,517.883588 746.374652,517.511172 746.455859,517.140463 L746.705572,516.033243 L746.967499,514.93497 L747.241688,513.844345 C747.335133,513.481934 747.430631,513.120582 747.528188,512.760072 C752.729611,493.538936 764.251065,479.816698 787.318371,465.113908 L788.790654,464.183946 C789.286565,463.873484 789.787642,463.562527 790.293934,463.251014 L791.057288,462.783321 C794.613992,460.610319 798.49566,458.419543 802.682968,456.213934 L804.374147,455.330906 C804.658711,455.183605 804.944623,455.03624 805.231876,454.888812 L806.971441,454.003489 L808.742922,453.116689 C809.040813,452.968768 809.340022,452.820788 809.640544,452.672748 L811.459381,451.78381 C811.765131,451.635538 812.072181,451.487209 812.380527,451.338824 L814.246103,450.447843 C814.559608,450.299235 814.874396,450.150573 815.190464,450.001858 L817.102159,449.108927 C817.744473,448.811073 818.391855,448.513011 819.044258,448.214749 L821.016485,447.319365 L823.018566,446.422817 L825.050225,445.525148 C825.391285,445.375445 825.733565,445.225698 826.077061,445.075906 L828.152573,444.176633 L830.256977,443.276342 C830.610104,443.126211 830.964422,442.976039 831.319928,442.825828 L833.467154,441.92409 C833.827383,441.773723 834.188787,441.623318 834.551361,441.472876 L836.740791,440.569785 C837.10802,440.419198 837.476407,440.268576 837.845946,440.117918 L840.076962,439.213568 L842.335358,438.308431 L844.620859,437.402549 L846.933191,436.495963 L849.272079,435.588716 L851.637247,434.68085 C870.399929,427.516003 890.494295,420.709969 910.587531,414.482511 L913.048245,413.722829 L916.657601,412.619369 L920.164003,411.559999 L923.561949,410.545629 L925.764274,409.894834 L928.969226,408.957494 L932.913825,407.820872 L937.391555,406.561077 C938.45687,406.269224 939.557071,406.89624 939.848923,407.961555 Z"/><path fill="#A15842" fill-rule="nonzero" d="M912.351518 565.707771C912.623369 564.637177 913.711635 563.989668 914.782229 564.261518 915.804159 564.521012 916.440593 565.524388 916.2599 566.546207L916.228482 566.692229 912.508482 581.342229C912.236631 582.412823 911.148365 583.060332 910.077771 582.788482 909.055841 582.528988 908.419407 581.525612 908.6001 580.503793L908.631518 580.357771 912.351518 565.707771ZM1094.8 472.12C1095.90457 472.12 1096.8 473.015431 1096.8 474.12 1096.8 475.174362 1095.98412 476.038165 1094.94926 476.114514L1094.8 476.12 1032.31 476.12C1031.20543 476.12 1030.31 475.224569 1030.31 474.12 1030.31 473.065638 1031.12588 472.201835 1032.16074 472.125486L1032.31 472.12 1094.8 472.12Z"/><rect width="16.85" height="151.26" x="426.895" y="661.775" fill="#A15842" fill-rule="nonzero" transform="rotate(-90 435.32 737.405)"/><path fill="#A15842" fill-rule="nonzero" d="M334.78,806.73 L374.12,572.55 L496.53,572.55 L535.87,806.73 C536.230177,808.976578 535.587557,811.268139 534.111751,812.999854 C532.635946,814.731569 530.475267,815.729406 528.2,815.73 L528.2,815.73 C524.548637,815.729715 521.390085,813.18706 520.61,809.62 L469.1,572.55 L401.55,572.55 L350.04,809.67 C349.259915,813.23706 346.101363,815.780002 342.45,815.780002 L342.45,815.780002 C340.16445,815.780002 337.994024,814.777258 336.516309,813.03367 C335.038594,811.290082 334.403486,808.984325 334.78,806.73 L334.78,806.73 Z"/><rect width="16.85" height="151.26" x="301.585" y="661.775" fill="#CA7358" fill-rule="nonzero" transform="rotate(-90 310.01 737.405)"/><path fill="#CA7358" fill-rule="nonzero" d="M209.47,806.73 L248.81,572.55 L371.22,572.55 L410.56,806.73 C410.920177,808.976578 410.277557,811.268139 408.801751,812.999854 C407.325946,814.731569 405.165267,815.729406 402.89,815.73 L402.89,815.73 C399.238637,815.729715 396.080085,813.18706 395.3,809.62 L343.79,572.55 L276.24,572.55 L224.73,809.67 C223.949915,813.23706 220.791363,815.780002 217.14,815.780002 L217.14,815.780002 C214.85445,815.780002 212.684024,814.777258 211.206309,813.03367 C209.728594,811.290082 209.093486,808.984325 209.47,806.73 L209.47,806.73 Z"/><path fill="#3EC1F3" fill-rule="nonzero" d="M333.11,534.8 L318.11,476.12 L417.56,476.12 C457.660346,476.114672 492.669989,503.276262 502.63,542.12 L512.79,581.870004 L393.79,581.870004 C365.187033,581.879789 340.21278,562.507045 333.11,534.8 L333.11,534.8 Z"/><path fill="#3EC1F3" fill-rule="nonzero" d="M275.45,581.92 L512.78,581.92 L508.78,565.99 L404.6,565.99 L364.86,410.61 C353.726452,367.070146 314.500792,336.61 269.56,336.61 L269.56,336.61 C216.1,336.61 176.98,387 190.22,438.79 L214.78,534.79 C221.855606,562.519314 246.83219,581.92 275.45,581.92 Z"/><path fill="#4756DF" fill-rule="nonzero" d="M506.32,562.44 C507.424569,562.44 508.32,563.335431 508.32,564.44 C508.32,565.494362 507.504122,566.358165 506.469262,566.434514 L506.32,566.44 L380.06,566.44 C378.955431,566.44 378.06,565.544569 378.06,564.44 C378.06,563.385638 378.875878,562.521835 379.910738,562.445486 L380.06,562.44 L506.32,562.44 Z"/><path fill="#4756DF" fill-rule="nonzero" d="M381.524343 475.412392C382.545813 475.151091 383.584867 475.727442 383.915302 476.711097L383.957608 476.854343 406.087608 563.364343C406.361352 564.434455 405.715768 565.523864 404.645657 565.797608 403.624187 566.058909 402.585133 565.482558 402.254698 564.498903L402.212392 564.355657 380.082392 477.845657C379.808648 476.775545 380.454232 475.686136 381.524343 475.412392ZM380.304467 566.28236C381.325954 566.021125 382.364971 566.597542 382.695343 567.581218L382.73764 567.724467 385.96764 580.354467C386.241315 581.424596 385.595661 582.513965 384.525533 582.78764 383.504046 583.048875 382.465029 582.472458 382.134657 581.488782L382.09236 581.345533 378.86236 568.715533C378.588685 567.645404 379.234339 566.556035 380.304467 566.28236ZM262.29 472.12C263.394569 472.12 264.29 473.015431 264.29 474.12 264.29 475.174362 263.474122 476.038165 262.439262 476.114514L262.29 476.12 199.8 476.12C198.695431 476.12 197.8 475.224569 197.8 474.12 197.8 473.065638 198.615878 472.201835 199.650738 472.125486L199.8 472.12 262.29 472.12Z"/><circle cx="894.07" cy="252.28" r="7.93" fill="#30242A" fill-rule="nonzero"/><path fill="#A15842" fill-rule="nonzero" d="M1008.46,279.74 L1010.04,288.62 C1009.809,285.614943 1009.27973,282.640306 1008.46,279.74 Z"/><polygon fill="#3EC1F3" fill-rule="nonzero" points="945.51 200.93 945.57 200.38 945.5 200.38"/><polygon fill="#F5EBDD" fill-rule="nonzero" points="868.47 200.19 868.31 200.19 868.29 200.38 868.44 200.38"/><polygon fill="#F5EBDD" fill-rule="nonzero" points="894.31 200.38 894.39 200.19 868.47 200.19 868.44 200.38"/><polygon fill="#F5EBDD" fill-rule="nonzero" points="868.29 200.38 866.55 213.57 866.7 213.73 868.44 200.38"/><polygon fill="#F5EBDD" fill-rule="nonzero" points="945.49 200.19 894.53 200.19 894.62 200.38 945.5 200.38"/><circle cx="339.3" cy="45.6" r="45.6" fill="#30242A" fill-rule="nonzero"/><path fill="#3EC1F3" fill-rule="nonzero" d="M370.79 76C368 77.28 391.42 21.71 403.36 30.39 414.61 38.58 384.9 69.49 370.79 76ZM369.49 79.4C366.94 82.45 307.21 61.56 315.49 49.5 323.41 37.9 372.04 76.35 369.49 79.4Z"/><path fill="#EAA58B" fill-rule="nonzero" d="M451.88,107.93 C443.21,109.39 430.51,106.41 430.51,106.41 C413.13,125.95 394.67,130.29 394.67,130.29 C382.73,117.29 361.01,117.29 357.76,135.72 C354.15,156.15 379.47,161.78 379.47,161.78 C379.47,161.78 383.06,187.32 373.29,200.35 C371.92,202.17 370.66,203.77 369.4,205.18 L417.83,205.18 L416.39,196.53 C416.39,196.53 431.59,201.96 444.62,194.36 C457.65,186.76 460.91,172.64 456.56,150.92 C453.99,138.06 454.08,122.15 451.88,107.93 Z"/><path fill="#FF7235" fill-rule="nonzero" d="M435.68,384.24 C414.23,396.37 403.03,419.68 403.03,419.68 L477.64,419.68 L455.45,375.18 C446.61,379 438.32,382.72 435.68,384.24 Z"/><path fill="#FF7235" fill-rule="nonzero" d="M331.32,217.52 C298.56,221.16 286.48,232.78 262.63,261.4 C256.74,268.47 247.63,280.51 241.93,288.03 L242.11,288.18 C242.11,288.18 200.62,339.63 202.53,378.75 L260.72,395 L300.44,343.24 L311.64,377.75 C311.64,377.75 286.46,392.67 272.47,419.75 L403.03,419.75 C403.03,419.75 414.23,396.44 435.68,384.31 C438.34,382.79 446.61,379.09 455.45,375.25 L452.45,369.25 L461.76,340.45 L482.32,363.73 C482.32,363.73 468.32,369.6 455.46,375.18 L477.65,419.68 L556,419.68 C599.83,390.77 566.25,338.55 552.27,319.89 C542.64,307.06 498.17,242.48 467.4,225.7 C446.88,214.51 419.66,216.07 419.66,216.07 L417.84,205.18 L369.4,205.18 C362.76,212.6 355.95,214.78 331.32,217.52 Z"/><path fill="#A15842" fill-rule="nonzero" d="M498.397266,353.457524 C499.431405,353.069415 500.584366,353.593126 500.972476,354.627266 C501.342104,355.612161 500.884684,356.70483 499.946953,357.141924 L499.802734,357.202476 L482.962734,363.522476 C481.928595,363.910585 480.775634,363.386874 480.387524,362.352734 C480.017896,361.367839 480.475316,360.27517 481.413047,359.838076 L481.557266,359.777524 L498.397266,353.457524 Z"/><path fill="#FFB7D5" fill-rule="nonzero" d="M330.24,370 C330.5,351.68 333.52,305.27 356.4,281.64 C381.64,255.64 438.47,261.13 456.19,284.44 C473.91,307.75 461.79,340.44 461.79,340.44 L453.4,369.35 L477.64,419.71 L260.32,419.71 L303.22,380.54 L330.24,370 Z"/><path fill="#F5EBDD" fill-rule="nonzero" d="M453.33 367.32C454.434569 367.32 455.33 368.215431 455.33 369.32 455.33 370.374362 454.514122 371.238165 453.479262 371.314514L453.33 371.32 330.29 371.32C329.185431 371.32 328.29 370.424569 328.29 369.32 328.29 368.265638 329.105878 367.401835 330.140738 367.325486L330.29 367.32 453.33 367.32ZM431.01 328.15C432.114569 328.15 433.01 329.045431 433.01 330.15 433.01 331.204362 432.194122 332.068165 431.159262 332.144514L431.01 332.15 383.45 332.15C382.345431 332.15 381.45 331.254569 381.45 330.15 381.45 329.095638 382.265878 328.231835 383.300738 328.155486L383.45 328.15 431.01 328.15Z"/><path fill="#EAA58B" fill-rule="nonzero" d="M471.12,368.39 L495.36,424.39 L448.73,424.39 C439.41,424.39 427.28,424.39 428.22,419.72 C420.75,425.32 408.63,424.39 409.56,419.72 C397.44,425.32 393.71,421.59 392.78,419.72 C391.85,417.85 403.97,402 431.01,387 C446.72,378.38 471.12,368.39 471.12,368.39 Z"/><path fill="#A15842" fill-rule="nonzero" d="M447.772656 390.884013C448.742461 390.355286 449.957261 390.712851 450.485987 391.682656 451.014714 392.652461 450.657149 393.867261 449.687344 394.395987 436.320033 401.683693 425.128775 408.96992 416.027095 415.904607 415.391841 416.388615 414.77619 416.863855 414.180057 417.329976L413.013787 418.249956 411.89941 419.144996C410.992342 419.880299 410.139169 420.588976 409.339492 421.269404L408.405534 422.072254 407.635757 422.747245 407.034183 423.284536 406.237576 424.012621 405.424809 424.78393C405.40955 424.798977 405.396019 424.812408 405.384214 424.824214 404.603165 425.605262 403.336835 425.605262 402.555786 424.824214 401.774738 424.043165 401.774738 422.776835 402.555786 421.995786L403.138008 421.434926 403.779565 420.837861 404.352551 420.316565 405.318485 419.457622 406.25459 418.644406C406.895829 418.093119 407.571442 417.523684 408.281633 416.936933L409.372878 416.043926C409.559083 415.892961 409.747455 415.740941 409.937999 415.587878L411.107332 414.657084C411.50581 414.342716 411.912996 414.02428 412.328917 413.70188L413.602905 412.722893C422.863725 405.666955 434.224967 398.270057 447.772656 390.884013ZM456.068808 401.204751C457.005068 400.61867 458.239169 400.902547 458.825249 401.838808 459.41133 402.775068 459.127453 404.009169 458.191192 404.595249 442.378004 414.493991 427.182564 425.346926 412.689315 437.093746 411.831205 437.789246 410.571755 437.657425 409.876254 436.799315 409.180754 435.941205 409.312575 434.681755 410.170685 433.986254 424.790145 422.13714 440.117912 411.189693 456.068808 401.204751ZM465.527717 412.315347C466.507831 411.805984 467.71529 412.187603 468.224653 413.167717 468.734016 414.147831 468.352397 415.35529 467.372283 415.864653 465.100251 417.045423 462.754935 418.290284 460.342642 419.594704 457.51827 421.121951 454.612334 422.725285 451.636769 424.396092 443.002995 429.244037 434.166409 434.440187 425.607736 439.636514L422.697288 441.410346 419.31296 443.490993 415.755677 445.701798 414.38953 446.560002C413.456167 447.150687 412.220683 446.872892 411.629998 445.93953 411.039313 445.006167 411.317108 443.770683 412.25047 443.179998L414.954611 441.486858 418.534342 439.271789 421.323513 437.561988 423.531826 436.217363C432.12663 430.999099 441.001128 425.780656 449.67835 420.908315 452.172961 419.507567 454.619604 418.153586 457.011512 416.851299L458.440035 416.07617C460.871063 414.761619 463.235656 413.506525 465.527717 412.315347Z"/><path fill="#A15842" fill-rule="nonzero" d="M346.585179,208.331755 L372.695179,208.331755 C372.81983,208.331755 372.939377,208.38138 373.027519,208.469522 C373.115661,208.557664 373.165179,208.67721 373.165179,208.801862 L373.165179,292.211862 C373.165179,299.684275 367.107591,305.741862 359.635179,305.741862 L359.635179,305.741862 C352.162766,305.741862 346.105179,299.684275 346.105179,292.211862 L346.105179,208.801862 C346.105179,208.675458 346.156038,208.554371 346.246355,208.465936 C346.336672,208.3775 346.458803,208.329173 346.585179,208.331755 L346.585179,208.331755 Z" transform="rotate(-20.32 359.635 257.037)"/><path d="M473.79,340.41 L464.48,369.21 L467.48,375.21 C480.32,369.6 494.32,363.73 494.32,363.73 L473.79,340.41 Z"/><path fill="#A15842" fill-rule="nonzero" d="M438.09,306 L438.09,306 C441.66176,306.410443 445.250113,305.383495 448.063937,303.145567 C450.877762,300.907638 452.686003,297.642495 453.09,294.07 L461.17,222.77 C452.66193,219.461146 443.725155,217.383531 434.63,216.6 L426.17,291 C425.759434,294.570209 426.785033,298.157184 429.020863,300.970728 C431.256692,303.784271 434.519319,305.593555 438.09,306 Z"/><circle cx="371.59" cy="288.99" r="7.93" fill="#30242A" fill-rule="nonzero"/><circle cx="439.87" cy="291.45" r="7.93" fill="#30242A" fill-rule="nonzero"/><path fill="#30242A" fill-rule="nonzero" d="M287.18,219.33 L335.13,205.18 L369.4,205.18 C370.66,203.77 371.92,202.18 373.29,200.35 C383.06,187.35 379.47,161.78 379.47,161.78 C379.47,161.78 354.15,156.15 357.76,135.72 C361.01,117.27 382.76,117.27 394.67,130.29 C394.67,130.29 413.13,125.95 430.51,106.41 C430.51,106.41 443.21,109.41 451.88,107.93 C450.36,98.14 447.76,89.16 442.45,82.52 C429.45,66.23 393.59,55.38 365.36,76.01 C337.13,96.64 339.3,130.29 340.36,143.32 C340.36,143.32 309.96,133.55 288.25,156.32 C275.488321,169.56217 270.189637,188.306451 274.13,206.27 C274.13,206.27 234.13,205.14 226.36,242.1 C222.36,261.03 228.67,274.24 236.66,283 L241.66,272.82 L287.18,219.33 Z"/><path fill="#30242A" fill-rule="nonzero" d="M331.32,217.52 C355.96,214.78 362.77,212.6 369.41,205.18 L335.13,205.18 L287.18,219.33 L241.64,272.85 L236.64,283.03 C238.26789,284.816863 240.018834,286.487611 241.88,288.03 C247.54,280.51 256.69,268.47 262.58,261.4 C286.47,232.78 298.55,221.16 331.32,217.52 Z"/><path fill="#A15842" fill-rule="nonzero" d="M400.711552,191.437183 C401.237778,190.466019 402.451652,190.105326 403.422817,190.631552 C407.609457,192.900086 411.925931,194.920353 416.349868,196.681884 C417.376077,197.090502 417.876734,198.253659 417.468116,199.279868 C417.059498,200.306077 415.896341,200.806734 414.870132,200.398116 C410.300443,198.57855 405.841758,196.491722 401.517183,194.148448 C400.546019,193.622222 400.185326,192.408348 400.711552,191.437183 Z"/><path fill="#000" fill-rule="nonzero" d="M271.91075 205.56592C272.978913 205.284669 274.072829 205.922587 274.35408 206.99075 275.896587 212.849034 277.982942 218.550425 280.585957 224.020629 281.060575 225.018032 280.636774 226.21134 279.639371 226.685957 278.641968 227.160575 277.44866 226.736774 276.974043 225.739371 274.263996 220.044241 272.091853 214.108417 270.48592 208.00925 270.204669 206.941087 270.842587 205.847171 271.91075 205.56592ZM337.965941 142.295291C339.001697 142.098094 340.002852 142.738019 340.271403 143.740338L340.304709 143.885941 343.434709 160.325941C343.641296 161.411019 342.929138 162.458121 341.844059 162.664709 340.808303 162.861906 339.807148 162.221981 339.538597 161.219662L339.505291 161.074059 336.375291 144.634059C336.168704 143.548981 336.880862 142.501879 337.965941 142.295291Z"/><path fill="#A15842" fill-rule="nonzero" d="M322.127108,312.205157 C322.76491,311.303335 324.013022,311.089305 324.914843,311.727108 C325.771574,312.33302 326.007572,313.489736 325.482194,314.377092 L325.392892,314.514843 L303.602892,345.324843 C302.96509,346.226665 301.716978,346.440695 300.815157,345.802892 C299.958426,345.19698 299.722428,344.040264 300.247806,343.152908 L300.337108,343.015157 L322.127108,312.205157 Z"/><circle cx="379.47" cy="162.87" r="11.4" fill="#F5EBDD" fill-rule="nonzero"/><path fill="#A15842" fill-rule="nonzero" d="M371.263564 136.840705C371.819345 135.950635 372.960623 135.648687 373.876649 136.122309L374.019295 136.203564 382.699295 141.623564C383.636211 142.208597 383.921468 143.44238 383.336436 144.379295 382.780655 145.269365 381.639377 145.571313 380.723351 145.097691L380.580705 145.016436 371.900705 139.596436C370.963789 139.011403 370.678532 137.77762 371.263564 136.840705ZM425.011603 163.848537C425.989955 163.335798 427.198723 163.713252 427.711463 164.691603 428.609051 166.404282 430.155425 167.339391 432.164857 167.597555 433.016884 167.70702 433.905929 167.681827 434.717246 167.542685 435.309157 167.441172 435.802356 167.285656 436.057395 167.15457L436.133396 167.111887C437.071238 166.528341 438.304567 166.815554 438.888113 167.753396 439.471659 168.691238 439.184446 169.924567 438.246604 170.508113 434.387876 172.909099 427.004977 171.960573 424.168537 166.548397 423.655798 165.570045 424.033252 164.361277 425.011603 163.848537Z"/><circle cx="419.5" cy="141.13" r="3.26" fill="#30242A" fill-rule="nonzero"/><circle cx="444.62" cy="136.81" r="3.26" fill="#30242A" fill-rule="nonzero"/><path fill="#A15842" fill-rule="nonzero" d="M435.18033,143.645817 C436.204367,143.231786 437.370152,143.726293 437.784183,144.75033 L437.979142,145.244968 L438.168502,145.738997 C438.452985,146.490024 438.737444,147.278912 439.003847,148.070997 C439.113876,148.398139 439.218616,148.719429 439.317385,149.033639 L439.460975,149.499492 C439.526876,149.71779 439.589377,149.929396 439.6483,150.134641 L439.814163,150.731625 L439.957509,151.292438 C440.396623,153.103741 440.442848,154.345383 439.9203,155.349391 C439.225236,156.638135 438.168135,157.695236 436.879391,158.3903 C435.907204,158.914634 434.694034,158.551578 434.1697,157.579391 C433.670334,156.653499 433.975857,155.509028 434.845899,154.94919 L434.980609,154.8697 C435.448375,154.617417 435.850748,154.26293 436.152538,153.847247 L436.285,153.648 L436.284051,153.58944 C436.278858,153.476873 436.264962,153.337331 436.241873,153.174907 L436.215701,153.005006 C436.114039,152.389507 435.913068,151.587656 435.631666,150.655517 C435.505405,150.237281 435.364868,149.79905 435.212538,149.346135 C435.046501,148.852463 434.872125,148.3578 434.694976,147.873405 L434.30001,146.820974 L434.075817,146.24967 C433.661786,145.225633 434.156293,144.059848 435.18033,143.645817 Z"/><path fill="#3EC1F3" fill-rule="nonzero" d="M604.05,805.79 L586.19,805.79 C587.438863,809.315545 587.962672,813.05704 587.73,816.79 L663.12,816.79 C664.46,802 654.63,785.87 626.32,773 L625.73,772.72 C617.96,778.55 610.98,788.2 604.05,805.79 Z"/><path fill="#F5EBDD" fill-rule="nonzero" d="M624.98,772.36 C601.43,760.68 605.68,735.03 612.54,676.85 C609.212823,671.048867 602.679802,667.868591 596.061471,668.828249 C589.44314,669.787907 584.082464,674.692769 582.54,681.2 C580.772835,673.87604 574.21914,668.715582 566.685,668.715582 C559.15086,668.715582 552.597165,673.87604 550.83,681.2 C549.062835,673.87604 542.50914,668.715582 534.975,668.715582 C527.44086,668.715582 520.887165,673.87604 519.12,681.2 C517.352835,673.87604 510.79914,668.715582 503.265,668.715582 C495.73086,668.715582 489.177165,673.87604 487.41,681.2 C485.642835,673.87604 479.08914,668.715582 471.555,668.715582 C464.02086,668.715582 457.467165,673.87604 455.7,681.2 C454.481538,676.123658 450.903915,671.93883 446.078783,669.945841 C441.253652,667.952852 435.765639,668.393178 431.32,671.13 C431.42,676.28 431.62,681.66 431.94,687.35 C433.46,714.28 439.54,750.3 444.76,777.5 C470.2,778.86 480.51,797.64 483.76,805.79 L526.59,805.79 C526.98,804.79 527.36,803.86 527.75,802.92 L527.99,802.35 C528.36,801.48 528.72,800.63 529.09,799.8 C529.18,799.58 529.28,799.38 529.37,799.17 C529.7,798.43 530.03,797.72 530.37,797.02 L530.67,796.39 C530.983333,795.723333 531.293333,795.093333 531.6,794.5 L532.02,793.65 L532.96,791.84 L533.5,790.84 C533.68,790.5 533.87,790.17 534.05,789.84 C534.37,789.27 534.7,788.71 535.05,788.16 C535.19,787.94 535.32,787.72 535.45,787.5 C536.2,786.27 536.95,785.11 537.71,784.02 L537.85,783.81 C538.28,783.2 538.71,782.61 539.14,782.03 C541.75305,778.47617 544.85735,775.311265 548.36,772.63 C549.16,773.07 549.99,773.49 550.87,773.89 C571.7,783.35 582.52,794.6 586.26,805.75 L604.05,805.75 C610.98,788.16 617.96,778.51 625.72,772.67 L624.98,772.36 Z"/><path fill="#3EC1F3" fill-rule="nonzero" d="M586.19,805.79 L586.26,805.79 C582.52,794.64 571.7,783.39 550.87,773.93 C549.99,773.53 549.16,773.11 548.36,772.67 C544.971798,775.261299 541.959718,778.310398 539.41,781.73 L539.41,781.73 L539.23,781.97 L539.15,782.07 L539.15,782.07 C538.72,782.65 538.29,783.24 537.86,783.85 L537.72,784.06 C536.96,785.15 536.21,786.31 535.46,787.54 C535.33,787.76 535.2,787.98 535.06,788.2 C534.74,788.75 534.41,789.31 534.06,789.88 C533.88,790.2 533.69,790.53 533.51,790.88 L532.97,791.88 L532.03,793.69 L531.61,794.54 C531.303333,795.146667 530.993333,795.776667 530.68,796.43 L530.38,797.06 C530.06,797.76 529.73,798.47 529.38,799.21 C529.29,799.42 529.19,799.62 529.1,799.84 C528.73,800.67 528.37,801.52 528,802.39 L527.76,802.96 C527.37,803.9 526.99,804.85 526.6,805.83 L483.81,805.83 C480.52,797.68 470.21,778.9 444.81,777.54 C449.16,800.25 452.92,816.82 452.92,816.82 L587.73,816.82 C587.966749,813.077064 587.442883,809.324955 586.19,805.79 L586.19,805.79 Z"/><path fill="#A15842" fill-rule="nonzero" d="M295.78,462.76 L295.78,445.76 L263.9,445.76 C261.241857,460.949879 261.869273,476.53299 265.74,491.46 L267.04,491.46 C282.897056,491.46 295.75793,478.61704 295.78,462.76 L295.78,462.76 Z"/><path fill="#EAA58B" fill-rule="nonzero" d="M580.62,466.23 L579.1,465.37 C568.46,464.96 555.42,465.99 539.65,469.54 L539.4,469.6 C538.13,469.88 536.84,470.19 535.53,470.51 L534.8,470.69 C533.54,471 532.27,471.33 530.98,471.69 L530.21,471.89 C528.8,472.27 527.38,472.68 525.93,473.1 L525.49,473.22 C523.87,473.7 522.22,474.22 520.55,474.72 C462.32,492.97 436.49,538.72 428.72,567.08 L445.94,567.08 C440.8,591 430.25,616.38 431.32,671.13 C435.766924,668.384675 441.261009,667.939587 446.091853,669.9333 C450.922697,671.927013 454.503687,676.117429 455.72,681.2 C457.487165,673.87604 464.04086,668.715582 471.575,668.715582 C479.10914,668.715582 485.662835,673.87604 487.43,681.2 C489.197165,673.87604 495.75086,668.715582 503.285,668.715582 C510.81914,668.715582 517.372835,673.87604 519.14,681.2 C520.907165,673.87604 527.46086,668.715582 534.995,668.715582 C542.52914,668.715582 549.082835,673.87604 550.85,681.2 C552.617165,673.87604 559.17086,668.715582 566.705,668.715582 C574.23914,668.715582 580.792835,673.87604 582.56,681.2 C584.102464,674.692769 589.46314,669.787907 596.081471,668.828249 C602.699802,667.868591 609.232823,671.048867 612.56,676.85 C614.19,663 615.97,647.31 617.56,629.53 C626.72,526.7 633.7,496.54 580.62,466.23 Z"/><path fill="#30242A" fill-rule="nonzero" d="M400.323853,419.95483 C400.691217,418.91314 401.83348,418.36649 402.87517,418.733853 L404.710985,419.39475 L407.136621,420.285996 L410.018385,421.363372 L412.321154,422.236374 L414.472867,423.060779 L416.673055,423.912081 L420.061324,425.238986 L422.376896,426.156569 L424.736302,427.100282 L427.138218,428.069905 L429.581317,429.065218 L432.064275,430.086003 C432.481349,430.258244 432.900029,430.431537 433.320286,430.605878 C456.136275,440.070933 478.953535,450.671576 500.259784,462.160063 C501.163672,462.647447 502.063353,463.135689 502.959964,463.625443 C504.177257,464.291456 505.361656,464.954704 506.514484,465.616042 C533.31066,480.98808 545.188041,496.591953 548.995178,521.466416 L549.165497,522.622146 L549.325038,523.793565 L549.473862,524.981436 C549.545604,525.579612 549.61335,526.184244 549.677133,526.795762 L549.799425,528.028106 L549.911209,529.279576 C549.928968,529.489791 549.946291,529.700834 549.96318,529.912722 L550.059315,531.194314 L550.145093,532.496942 C550.15853,532.715842 550.171537,532.93565 550.184117,533.156383 L550.254471,534.491996 L550.314617,535.850556 L550.364615,537.232825 L550.404526,538.639568 L550.434409,540.071547 L550.454325,541.529529 L550.464333,543.014275 L550.464493,544.526551 L550.454866,546.06712 C550.452449,546.326281 550.449626,546.586654 550.4464,546.848253 L550.422204,548.432693 L550.388369,550.047337 L550.344957,551.692947 L550.292028,553.370288 L550.22964,555.080123 L550.157855,556.823217 L550.076733,558.600333 L549.986332,560.412236 L549.886714,562.259689 L549.720134,565.099196 L549.435009,569.482307 L549.226196,572.439076 L548.947478,576.15509 L548.6352,580.095464 L548.097237,586.522143 L547.759036,590.40727 L544.092079,630.637819 C543.334221,639.128004 542.498845,647.532031 541.555581,656.276395 L540.715238,663.848605 L535.925996,705.095405 L535.655695,707.577143 L535.409392,709.918881 L535.107329,712.910095 L534.900431,715.059348 L534.771809,716.449135 L534.592783,718.471627 L534.379909,721.057202 L534.239518,722.917245 L534.115548,724.713031 L534.041982,725.876113 L533.975654,727.013019 L533.889678,728.671387 L533.819847,730.276226 L533.782222,731.317968 L533.751712,732.338304 L533.728293,733.338186 L533.711939,734.318568 L533.702627,735.280403 L533.701808,736.690468 L533.709992,737.610109 L533.735303,738.961352 C533.781546,740.826179 533.875618,742.598281 534.020933,744.283198 L534.114298,745.28373 C534.130893,745.448756 534.148007,745.612922 534.165644,745.776232 L534.277764,746.745875 C535.857056,759.538797 540.825144,766.929043 550.929844,771.752186 L551.697355,772.109153 C577.67275,783.911824 590.362416,799.456193 589.77878,816.159839 C589.740209,817.263734 588.814057,818.127351 587.710161,818.091189 C586.606266,818.050209 585.742649,817.124057 585.78122,816.020161 C586.294706,801.324198 574.915919,787.232358 550.7797,776.088431 L550.044394,775.751641 C536.488838,769.607976 530.689816,759.415053 529.819815,741.358776 L529.771833,740.219985 C529.757961,739.836952 529.746203,739.450472 529.736533,739.06051 L529.717385,738.139438 L529.701914,736.730968 L529.700468,735.772651 L529.711654,734.303718 C529.71379,734.138304 529.716223,733.972137 529.718955,733.805195 L529.738934,732.794097 L529.782384,731.240478 L529.82037,730.178655 L529.865599,729.094827 L529.94707,727.425682 L530.04496,725.701511 L530.159346,723.919007 L530.244805,722.69663 L530.38685,720.809552 L530.54559,718.855318 L530.66073,717.513553 L530.847464,715.44004 L531.122739,712.556597 L531.271696,711.061773 L531.592362,707.961019 L532.052521,703.750731 L536.826115,662.646966 L537.293088,658.475068 C538.159455,650.560725 538.936061,642.957244 539.645043,635.354193 L543.329171,595.051624 L543.912394,588.482996 L544.175153,585.442036 L544.592105,580.461724 L544.909147,576.494261 L545.192133,572.759162 L545.444079,569.213007 L545.668005,565.812379 L545.839075,562.984295 L545.941894,561.144906 L546.035669,559.341452 L546.120347,557.573189 L546.230189,554.985153 L546.319263,552.472117 L546.36702,550.837189 L546.405413,549.233738 C546.411029,548.969077 546.416252,548.705698 546.421082,548.443583 L546.445331,546.885953 L546.460084,545.357941 L546.465288,543.858806 C546.465356,543.611315 546.465025,543.364996 546.464292,543.119834 L546.455072,541.66262 L546.436171,540.232424 C546.432211,539.996268 546.427845,539.761207 546.423073,539.527225 L546.389548,538.136164 C546.37674,537.676712 546.362297,537.221453 546.346209,536.770264 L546.293001,535.428781 L546.229872,534.110974 C546.218521,533.893271 546.206754,533.676524 546.194571,533.460717 L546.116461,532.177029 L546.028296,530.91516 L545.930024,529.674365 C545.912801,529.469281 545.895153,529.265044 545.877082,529.061638 L545.763549,527.851062 L545.639777,526.659704 C545.618292,526.462704 545.596378,526.266475 545.574034,526.070999 L545.434801,524.907074 C545.386665,524.522033 545.336799,524.139886 545.285196,523.760508 L545.125164,522.63056 C545.09762,522.443578 545.06964,522.257259 545.041222,522.071585 C541.430483,498.48032 530.319912,483.883842 504.52408,469.085666 C503.394912,468.437901 502.233994,467.787803 501.041251,467.135221 C500.152225,466.649611 499.258898,466.164816 498.361349,465.680851 C477.186099,454.262999 454.487469,443.71747 431.787568,434.300574 L429.297521,433.272232 C428.885735,433.102942 428.475579,432.934706 428.06708,432.767527 L425.636194,431.777186 L423.246411,430.812456 L420.899058,429.873558 L418.595465,428.960715 L415.225032,427.640786 L411.960535,426.380726 L409.220307,425.337631 L406.293101,424.239603 L403.343458,423.153722 L401.54483,422.506147 C400.50314,422.138783 399.95649,420.99652 400.323853,419.95483 Z"/><path fill="#A15842" fill-rule="nonzero" d="M520.55,474.71 C459.72,493.82 436.14,538.84 428.68,567.07 L428.68,567.07 C436.49,538.73 462.32,493 520.55,474.71 Z"/><path fill="#FFB7D5" fill-rule="nonzero" d="M486.97,466.32 C507.85109,456.486368 530.735775,451.651962 553.81,452.2 C529.016192,440.013567 503.590082,429.15815 477.64,419.68 L272.47,419.68 C272.47,419.68 266.87,429.01 263.98,445.3 C263.98,445.47 263.93,445.63 263.9,445.8 L295.78,445.8 L295.78,462.8 C295.78,470.422322 292.752044,477.732453 287.362249,483.122249 C281.972453,488.512044 274.662322,491.54 267.04,491.54 L265.74,491.54 C276.91,534.38 314.22,567.11 362.05,567.11 L402.83,567.11 C411.12,536.41 429.6,493.26 486.97,466.32 Z"/><path fill="#A15842" fill-rule="nonzero" d="M520.55 474.71C545.22 466.96 564.44 464.81 579.1 465.37L577.44 464.45C569.52 460.12 561.57 456.02 553.81 452.2 530.735775 451.651962 507.85109 456.486368 486.97 466.32 429.6 493.26 411.12 536.41 402.83 567.07L428.68 567.07C436.14 538.84 459.72 493.82 520.55 474.71ZM469.46 567.65C470.564569 567.65 471.46 568.545431 471.46 569.65 471.46 570.704362 470.644122 571.568165 469.609262 571.644514L469.46 571.65 447.32 571.65C446.215431 571.65 445.32 570.754569 445.32 569.65 445.32 568.595638 446.135878 567.731835 447.170738 567.655486L447.32 567.65 469.46 567.65Z"/><path fill="#30242A" fill-rule="nonzero" d="M530.49 362.66C531.544362 362.66 532.408165 363.475878 532.484514 364.510738L532.49 364.66 532.49 412.22C532.49 413.324569 531.594569 414.22 530.49 414.22 529.435638 414.22 528.571835 413.404122 528.495486 412.369262L528.49 412.22 528.49 364.66C528.49 363.555431 529.385431 362.66 530.49 362.66ZM552.740335 300.148466C553.210624 299.149015 554.402084 298.720045 555.401534 299.190335 556.400985 299.660624 556.829955 300.852084 556.359665 301.851534L556.225243 302.125447 556.057015 302.44552C556.02614 302.502575 555.993842 302.56145 555.960112 302.622094L555.740501 303.00677 555.486183 303.431425 555.196797 303.893587 554.871982 304.390782C553.651412 306.221323 552.146851 308.047763 550.339207 309.7543 545.154481 314.64903 538.554212 317.6 530.49 317.6 522.424683 317.6 515.834373 314.648059 510.667973 309.751633 508.866632 308.044422 507.369002 306.217281 506.155488 304.386035L505.989596 304.133103 505.684376 303.652899C505.636442 303.575819 505.589971 303.500251 505.544956 303.426245L505.29226 303.001379C505.253033 302.933831 505.215247 302.867949 505.178892 302.803785L504.977883 302.439819 504.810868 302.119544C504.760821 302.020342 504.716377 301.928833 504.677475 301.845431 504.210556 300.844401 504.643539 299.654394 505.644569 299.187475 506.597931 298.742791 507.722701 299.114343 508.231002 300.015465L508.394883 300.339402 508.568225 300.662782C508.817247 301.115107 509.124019 301.624449 509.489825 302.176465 510.543889 303.767094 511.851024 305.361828 513.419527 306.848367 517.881252 311.076941 523.514067 313.6 530.49 313.6 537.467038 313.6 543.112394 311.07597 547.593293 306.8457 549.168618 305.358487 550.482885 303.763052 551.543956 302.171718 551.912204 301.619441 552.221223 301.109845 552.472242 300.657271L552.647073 300.33359 552.740335 300.148466Z"/><path fill="#A15842" fill-rule="nonzero" d="M509.67,332.95 L551.32,332.95 L551.32,337.3 C551.32,348.804091 541.994091,358.13 530.49,358.13 L530.49,358.13 C518.985909,358.13 509.66,348.804091 509.66,337.3 L509.66,332.95 L509.67,332.95 Z"/><path fill="#30242A" fill-rule="nonzero" d="M551.92,297.37 L509.08,297.37 C505.385215,297.37 502.39,300.365215 502.39,304.06 L502.39,337.61 C502.39,345.065236 505.351581,352.215124 510.623228,357.486772 C515.894876,362.758419 523.044764,365.72 530.5,365.72 L530.947979,365.716436 C546.293291,365.467701 558.61,352.961596 558.61,337.61 L558.61,304.06 C558.61,302.285702 557.905163,300.584074 556.650544,299.329456 C555.395926,298.074837 553.694298,297.37 551.92,297.37 Z M509.08,301.37 L551.92,301.37 C552.633432,301.37 553.317644,301.65341 553.822117,302.157883 C554.32659,302.662356 554.61,303.346568 554.61,304.06 L554.61,337.61 C554.61,350.776891 544.045723,361.503616 530.899354,361.716765 L530.483798,361.720066 C524.10563,361.720066 517.973158,359.179847 513.451656,354.658344 C508.930153,350.136842 506.39,344.00437 506.39,337.61 L506.39,304.06 C506.39,302.574354 507.594354,301.37 509.08,301.37 Z"/><polygon fill="#30232A" fill-rule="nonzero" points="530.49 407.56 509.67 419.68 551.32 419.68"/><path fill="#30242A" fill-rule="nonzero" d="M778.49 362.66C779.544362 362.66 780.408165 363.475878 780.484514 364.510738L780.49 364.66 780.49 412.22C780.49 413.324569 779.594569 414.22 778.49 414.22 777.435638 414.22 776.571835 413.404122 776.495486 412.369262L776.49 412.22 776.49 364.66C776.49 363.555431 777.385431 362.66 778.49 362.66ZM800.740335 300.148466C801.210624 299.149015 802.402084 298.720045 803.401534 299.190335 804.400985 299.660624 804.829955 300.852084 804.359665 301.851534L804.225243 302.125447 804.057015 302.44552C804.02614 302.502575 803.993842 302.56145 803.960112 302.622094L803.740501 303.00677 803.486183 303.431425 803.196797 303.893587 802.871982 304.390782C801.651412 306.221323 800.146851 308.047763 798.339207 309.7543 793.154481 314.64903 786.554212 317.6 778.49 317.6 770.424683 317.6 763.834373 314.648059 758.667973 309.751633 756.866632 308.044422 755.369002 306.217281 754.155488 304.386035L753.989596 304.133103 753.684376 303.652899C753.636442 303.575819 753.589971 303.500251 753.544956 303.426245L753.29226 303.001379C753.253033 302.933831 753.215247 302.867949 753.178892 302.803785L752.977883 302.439819 752.810868 302.119544C752.760821 302.020342 752.716377 301.928833 752.677475 301.845431 752.210556 300.844401 752.643539 299.654394 753.644569 299.187475 754.597931 298.742791 755.722701 299.114343 756.231002 300.015465L756.394883 300.339402 756.568225 300.662782C756.817247 301.115107 757.124019 301.624449 757.489825 302.176465 758.543889 303.767094 759.851024 305.361828 761.419527 306.848367 765.881252 311.076941 771.514067 313.6 778.49 313.6 785.467038 313.6 791.112394 311.07597 795.593293 306.8457 797.168618 305.358487 798.482885 303.763052 799.543956 302.171718 799.912204 301.619441 800.221223 301.109845 800.472242 300.657271L800.647073 300.33359 800.740335 300.148466Z"/><path fill="#FF7235" fill-rule="nonzero" d="M757.67,332.95 L799.32,332.95 L799.32,337.3 C799.32,348.804091 789.994091,358.13 778.49,358.13 L778.49,358.13 C766.985909,358.13 757.66,348.804091 757.66,337.3 L757.66,332.95 L757.67,332.95 Z"/><path fill="#30242A" fill-rule="nonzero" d="M799.92,297.37 L757.08,297.37 C753.385215,297.37 750.39,300.365215 750.39,304.06 L750.39,337.61 C750.39,353.134724 762.975276,365.72 778.5,365.72 L778.947979,365.716436 C794.293291,365.467701 806.61,352.961596 806.61,337.61 L806.61,304.06 C806.61,302.285702 805.905163,300.584074 804.650544,299.329456 C803.395926,298.074837 801.694298,297.37 799.92,297.37 Z M757.08,301.37 L799.92,301.37 C800.633432,301.37 801.317644,301.65341 801.822117,302.157883 C802.32659,302.662356 802.61,303.346568 802.61,304.06 L802.61,337.61 C802.61,350.776891 792.045723,361.503616 778.899354,361.716765 L778.483798,361.720066 C765.184415,361.720066 754.39,350.925585 754.39,337.61 L754.39,304.06 C754.39,302.574354 755.594354,301.37 757.08,301.37 Z"/><polygon fill="#30232A" fill-rule="nonzero" points="778.49 407.56 757.67 419.68 799.32 419.68"/><path fill="#A15842" fill-rule="nonzero" d="M331.617838,355.427028 C331.669185,356.530404 330.816347,357.466491 329.712972,357.517838 L327.001501,357.653274 L324.488026,357.79183 L320.59607,358.023704 L315.638482,358.34071 L308.720818,358.810983 L302.646567,359.243089 L298.42152,359.551809 L296.98167,359.658351 C291.475968,360.06696 285.836938,360.498946 280.268097,360.935608 L267.033683,361.993291 C265.932819,362.08369 264.967109,361.264547 264.876709,360.163683 C264.790419,359.112858 265.532865,358.18518 266.558005,358.024392 L266.949576,357.986796 L275.791588,357.276208 C281.317633,356.837978 286.964908,356.399747 292.530199,355.980193 L299.553596,355.457753 L305.461555,355.030832 L311.317684,354.62194 L317.315889,354.222886 L322.090931,353.925338 L324.795676,353.76795 L328.655069,353.563778 L329.527028,353.522162 C330.630404,353.470815 331.566491,354.323653 331.617838,355.427028 Z"/><path fill="#3EC1F3" fill-rule="nonzero" d="M214.81,534.8 L199.81,476.12 L287.32,476.12 C327.419133,476.118216 362.426859,503.278318 372.39,542.12 L382.55,581.870001 L275.48,581.870001 C246.880757,581.875221 221.911856,562.503436 214.81,534.8 L214.81,534.8 Z"/><rect width="170.38" height="17.72" x="833.91" y="390.77" fill="#F5EBDD" fill-rule="nonzero"/><polygon fill="#EAA58B" fill-rule="nonzero" points="659.24 358.13 624.73 358.13 590.22 358.13 590.22 388.91 624.73 388.91 659.24 388.91 693.75 388.91 693.75 358.13"/><polygon fill="#EAA58B" fill-rule="nonzero" points="659.24 388.91 624.73 388.91 590.22 388.91 590.22 419.68 624.73 419.68 659.24 419.68 693.75 419.68 693.75 388.91"/><polygon fill="#EAA58B" fill-rule="nonzero" points="659.24 327.35 624.73 327.35 590.22 327.35 590.22 358.13 624.73 358.13 659.24 358.13 693.75 358.13 693.75 327.35"/><polygon fill="#EAA58B" fill-rule="nonzero" points="659.24 265.8 624.73 265.8 590.22 265.8 590.22 296.58 624.73 296.58 659.24 296.58 693.75 296.58 693.75 265.8"/><polygon fill="#EAA58B" fill-rule="nonzero" points="659.24 204.25 624.73 204.25 590.22 204.25 590.22 235.02 624.73 235.02 659.24 235.02 693.75 235.02 693.75 204.25"/><rect width="34.51" height="30.78" x="624.73" y="296.58" fill="#EAA58B" fill-rule="nonzero"/><rect width="34.51" height="30.78" x="624.73" y="235.02" fill="#EAA58B" fill-rule="nonzero"/><polygon fill="#A15842" fill-rule="nonzero" points="661.24 358.13 661.24 388.91 657.24 388.91 657.24 358.13"/><polygon fill="#A15842" fill-rule="nonzero" points="626.73 358.13 626.73 388.91 622.73 388.91 622.73 358.13"/><polygon fill="#EAA58B" fill-rule="nonzero" points="659.24 172.13 624.73 172.13 590.22 172.13 590.22 202.91 624.73 202.91 659.24 202.91 693.75 202.91 693.75 172.13"/><polygon fill="#A15842" fill-rule="nonzero" points="661.24 172.13 661.24 202.91 657.24 202.91 657.24 172.13"/><polygon fill="#A15842" fill-rule="nonzero" points="626.73 172.13 626.73 202.91 622.73 202.91 622.73 172.13"/><polygon fill="#A15842" fill-rule="nonzero" points="693.75 386.91 693.75 390.91 590.22 390.91 590.22 386.91"/><polygon fill="#A15842" fill-rule="nonzero" points="693.75 356.13 693.75 360.13 590.22 360.13 590.22 356.13"/><polygon fill="#A15842" fill-rule="nonzero" points="693.75 202.25 693.75 206.25 590.22 206.25 590.22 202.25"/><polygon fill="#A15842" fill-rule="nonzero" points="659.24 323.49 659.24 327.49 624.73 327.49 624.73 323.49"/><polygon fill="#A15842" fill-rule="nonzero" points="659.24 296.44 659.24 300.44 624.73 300.44 624.73 296.44"/><polygon fill="#A15842" fill-rule="nonzero" points="659.24 261.94 659.24 265.94 624.73 265.94 624.73 261.94"/><polygon fill="#A15842" fill-rule="nonzero" points="659.24 234.89 659.24 238.89 624.73 238.89 624.73 234.89"/><path fill="#FF7235" fill-rule="nonzero" d="M786.88,739.58 L764.32,739.58 C763.82,751.92 761.1,760.58 754.65,766.81 C751.883011,769.396441 748.693597,771.490022 745.22,773 C742.93,774 740.8,775.11 738.8,776.2 C745.8,780.72 752.8,790.88 752.8,790.88 C758.236408,789.77919 763.382962,787.555034 767.91,784.35 C776.99,778.25 784.34,769.64 787.91,765 C790.01626,762.278922 793.269024,760.693199 796.71,760.71 L803.12,760.71 C803.612674,757.729853 803.946478,754.725609 804.12,751.71 C804.07,748 801.32,739.58 786.88,739.58 Z"/><path fill="#30242A" fill-rule="nonzero" d="M803.11,760.729868 L796.7,760.729868 C793.259024,760.713199 790.00626,762.298922 787.9,765.02 C784.31,769.66 776.96,778.27 767.9,784.37 C763.372962,787.575034 758.226408,789.79919 752.79,790.9 C752.79,790.9 745.79,780.74 738.79,776.22 C738.05,776.61 737.34,777.01 736.64,777.41 C721.49,786.15 715.06,796.04 713.14,805.82 L845.32,805.82 C847.458408,798.769228 849.217595,791.60897 850.59,784.37 C851.88,777.72 853.13,769.96 854.18,761.02 L803.11,760.729868 Z"/><path fill="#FF7235" fill-rule="nonzero" d="M712.67,816.78 L841.24,816.78 C842.863025,813.217461 844.22332,809.540987 845.31,805.78 L713.15,805.78 C712.46805,809.405222 712.306424,813.109155 712.67,816.78 L712.67,816.78 Z"/><path fill="#F5EBDD" fill-rule="nonzero" d="M758.625899 756.0906C759.207969 755.217495 760.357742 754.949706 761.259241 755.450428L761.3994 755.535899 788.3994 773.535899C789.318458 774.148604 789.566806 775.390343 788.954101 776.3094 788.372031 777.182505 787.222258 777.450294 786.320759 776.949572L786.1806 776.864101 759.1806 758.864101C758.261542 758.251396 758.013194 757.009657 758.625899 756.0906ZM748.841724 766.82069C749.563403 766.062927 750.737588 765.995332 751.539285 766.638028L751.66931 766.751724 772.66931 786.751724C773.469171 787.513496 773.500048 788.77945 772.738276 789.57931 772.016597 790.337073 770.842412 790.404668 770.040715 789.761972L769.91069 789.648276 748.91069 769.648276C748.110829 768.886504 748.079952 767.62055 748.841724 766.82069Z"/><path fill="#30242A" fill-rule="nonzero" d="M1034.9,473.13 C1027.82,432.3 1003.65,408.49 1003.65,408.49 L939.92,408.49 C939.92,408.49 841.73,435.39 794.1,464.49 C739.1,498.07 744.63,524.73 753.99,629.57 C757.33,666.96 761.52,695.09 763.4,716.3 L857.1,716.3 C857.1,716.18 857.1,716.06 857.1,715.94 L874.39,715.94 C874.39,715.94 883.27,674.86 873.45,638.25 C863.15,599.87 853.79,593.32 848.18,567.11 L955.66,567.11 C1005.48,567.07 1043.41,522.21 1034.9,473.13 Z"/><path fill="#A15842" fill-rule="nonzero" d="M764.32,739.58 L786.89,739.58 C801.28,739.58 804.08,747.97 804.08,751.7 C803.906478,754.715609 803.572674,757.719853 803.08,760.7 L854.14,760.96 C855.63,748.43 856.73,733.59 857.07,716.23 L763.37,716.23 C764.169912,723.98615 764.48719,731.784504 764.32,739.58 Z"/><path fill="#000" fill-rule="nonzero" d="M847.29,566.65 C848.394569,566.65 849.29,567.545431 849.29,568.65 C849.29,569.704362 848.474122,570.568165 847.439262,570.644514 L847.29,570.65 L824.67,570.65 C823.565431,570.65 822.67,569.754569 822.67,568.65 C822.67,567.595638 823.485878,566.731835 824.520738,566.655486 L824.67,566.65 L847.29,566.65 Z"/><path fill="#F5EBDD" fill-rule="nonzero" d="M590.224373 717.507534C591.11236 716.948431 592.271203 717.173759 592.889457 717.999097L592.982466 718.134373 609.982466 745.134373C610.570995 746.069096 610.290261 747.303936 609.355627 747.892466 608.46764 748.451569 607.308797 748.226241 606.690543 747.400903L606.597534 747.265627 589.597534 720.265627C589.009005 719.330904 589.289739 718.096064 590.224373 717.507534ZM578.535406 723.347815C579.509628 722.95091 580.614609 723.377731 581.077641 724.302929L581.142185 724.445406 592.142185 751.445406C592.558935 752.46834 592.067527 753.635434 591.044594 754.052185 590.070372 754.44909 588.965391 754.022269 588.502359 753.097071L588.437815 752.954594 577.437815 725.954594C577.021065 724.93166 577.512473 723.764566 578.535406 723.347815Z"/><path fill="#FFB7D5" fill-rule="nonzero" d="M1079.8,534.8 L1094.8,476.12 L1007.32,476.12 C967.219654,476.114672 932.210011,503.276262 922.25,542.12 L912.08,581.870002 L1019.12,581.870002 C1047.72175,581.876244 1072.69409,562.504988 1079.8,534.8 L1079.8,534.8 Z"/><rect width="646.31" height="24.25" x="322.83" y="419.68" fill="#A15842" fill-rule="nonzero" rx="12.12"/><path fill="#EAA58B" fill-rule="nonzero" d="M410.5,363.73 C401.85,359.8 379.72,356.27 358.27,356.27 C354.19,356.27 349.8,356.34 345.21,356.47 L345.21,416.93 C355.83,413.63 364.58,410.51 370.39,408.49 C370.39,408.49 413.09,441.11 420.7,426.19 C420.7,426.19 431.84,430.69 434.7,419.68 C434.7,419.68 447.76,419.68 443.1,410.36 C439.96,404 426.32,389.84 426.32,389.84 C426.32,389.84 442.52,399.61 450.57,393.57 C458.06,388 420.75,368.39 410.5,363.73 Z"/><path fill="#FF7235" fill-rule="nonzero" d="M264.07,361.86 L203.45,364.66 C197.86,394.5 213.45,425.28 239.82,429.94 C274.51,436.06 316.62,425.82 345.21,416.94 L345.21,356.47 C310.18,357.49 264.07,361.86 264.07,361.86 Z"/><path fill="#A15842" fill-rule="nonzero" d="M402.332447 369.101775C402.966594 368.19738 404.213829 367.9783 405.118225 368.612447L405.890745 369.157474 406.692391 369.72955 408.381009 370.952987 409.720117 371.938104 411.599166 373.338662 413.5814 374.835312 415.133326 376.01862 417.839034 378.101993 420.106238 379.864576 423.668507 382.65953 427.412239 385.624609 429.347831 387.167017C430.211043 387.856175 430.352142 389.11462 429.662983 389.977831 428.973825 390.841043 427.71538 390.982142 426.852169 390.292983L423.126091 387.329373 419.5661 384.521586 416.736184 382.309654 414.039027 380.221567 411.482548 378.264433 410.01948 377.155966 408.154892 375.757976 406.3925 374.454711 405.140212 373.541615 403.56642 372.412876 402.821775 371.887553C401.91738 371.253406 401.6983 370.006171 402.332447 369.101775ZM391.138555 380.167346C391.769625 379.260801 393.016108 379.037485 393.922654 379.668555 409.10153 390.234974 423.989363 404.057951 436.898609 418.02236 437.648413 418.83345 437.598731 420.098805 436.78764 420.848609 435.97655 421.598413 434.711195 421.548731 433.961391 420.73764 421.231325 406.967058 406.535892 393.322718 391.637346 382.951445 390.730801 382.320375 390.507485 381.073892 391.138555 380.167346ZM382.545026 393.31023C383.196595 392.418304 384.447845 392.223457 385.33977 392.875026 387.056943 394.129454 388.822461 395.479565 390.631474 396.917818L391.996313 398.012916C393.597963 399.309537 395.231986 400.672198 396.895134 402.095848L398.327745 403.330937C398.807609 403.747533 399.289775 404.168991 399.774167 404.595191L401.233944 405.887902C401.478328 406.105687 401.72325 406.324627 401.968699 406.544709L403.447658 407.878782C403.695182 408.103371 403.943215 408.329073 404.191748 408.555872L405.688864 409.929715 407.197518 411.329189C407.449896 411.564531 407.702736 411.800911 407.956029 412.038316L409.481136 413.474909 411.016643 414.935364 412.562097 416.418975 414.117041 417.925035 415.681023 419.452837 417.253586 421.001673 418.834277 422.570837 420.42264 424.159621C420.687982 424.426015 420.953624 424.693196 421.219557 424.961151 421.997643 425.74515 421.992849 427.011471 421.208849 427.789557 420.42485 428.567643 419.158529 428.562849 418.380443 427.778849L416.805269 426.197441C416.543343 425.935443 416.281724 425.674239 416.020424 425.413846L414.456525 423.861331 412.900757 422.328993C412.642168 422.075325 412.383937 421.822528 412.126077 421.570618L410.58343 420.069914 409.050147 418.591214C408.795407 418.346638 408.541078 418.10301 408.28717 417.860344L406.768854 416.416019C406.264487 415.938508 405.761886 415.46497 405.261132 414.995524L403.764497 413.599592 402.279441 412.228951 400.806457 410.884334 399.346036 409.566471C399.103707 409.349097 398.861922 409.132869 398.620691 408.917801L397.18004 407.641439 395.753183 406.393659C395.516551 406.188118 395.280514 405.983798 395.045082 405.780715L393.639842 404.577177C393.406873 404.379101 393.174531 404.182292 392.942826 403.986766L391.560309 402.829115 390.193558 401.702969C387.702599 399.667693 385.293604 397.79494 382.98023 396.104974 382.088304 395.453405 381.893457 394.202155 382.545026 393.31023ZM767.69 381.45C747.18 391.71 730.85 409.45 716.4 428.08 709.87 436.47 693.4 457.37 704.27 459.79 712.67 461.65 729.46 444.87 729.46 444.87 729.46 444.87 719.35 466.76 726.66 472.87 732.25 477.54 739.66 470.08 739.66 470.08 746.19 484.08 756.45 471.94 756.45 471.94 772.91 484.08 789.09 439.3 789.09 439.3 798.685601 435.884775 807.769605 431.174551 816.09 425.3 816.09 425.3 821.41 426.68 830.01 428.38L822.25 365.48C801.96 369.23 781.77 374.41 767.69 381.45Z"/><path fill="#30242A" fill-rule="nonzero" d="M740.244931 415.576725C741.224283 416.08755 741.6041 417.295578 741.093275 418.274931 740.908751 418.628699 740.722731 418.990185 740.53529 419.35913L739.968781 420.488081C739.873678 420.679882 739.778238 420.873483 739.682472 421.068851L739.104027 422.262011 738.518194 423.496029C738.419964 423.705017 738.321446 423.915643 738.222648 424.127874L737.626583 425.420261 737.024266 426.749614C736.923384 426.974167 736.82226 427.200195 736.720904 427.427667L735.80269 429.512991 735.18434 430.943901 734.561554 432.405548 733.934788 433.896375 733.304495 435.414826 732.353438 437.740891 731.716317 439.321588 731.077259 440.924458 730.43672 442.547945 729.474127 445.018425 728.831871 446.68664 728.189724 448.370022C727.79759 449.402642 726.642598 449.921859 725.609978 449.529724 724.577358 449.13759 724.058141 447.982598 724.450276 446.949978L725.099939 445.246887 726.074419 442.721731 727.047618 440.236441 728.018118 437.796069 728.662916 436.196604 729.305463 434.620843 729.945337 433.070285 730.582118 431.546425 731.215386 430.05076 731.844719 428.584787 732.469697 427.150003 733.089899 425.747903 733.704905 424.379986 734.314293 423.047747C734.415366 422.828764 734.516188 422.611329 734.61675 422.395475L735.216924 421.11956 735.810429 419.883065 736.396845 418.687488 736.97575 417.534323 737.546725 416.425069C738.05755 415.445717 739.265578 415.0659 740.244931 415.576725ZM754.685791 422.56819C755.15071 421.56623 756.33985 421.130872 757.34181 421.595791 758.34377 422.06071 758.779128 423.24985 758.314209 424.25181 751.787178 438.318398 746.218479 454.497459 741.736818 470.60607 741.440755 471.670223 740.338082 472.292882 739.27393 471.996818 738.209777 471.700755 737.587118 470.598082 737.883182 469.53393 742.418208 453.233507 748.052624 436.863514 754.685791 422.56819ZM772.387374 428.199075C772.829713 427.186943 774.008794 426.725035 775.020925 427.167374 776.033057 427.609713 776.494965 428.788794 776.052626 429.800925L775.430415 431.240873C775.222286 431.727896 775.013445 432.221896 774.803936 432.722674L774.173445 434.245145C774.068043 434.502214 773.962485 434.760927 773.856775 435.021261L773.220747 436.602514 772.581348 438.221473 771.938833 439.876954 771.293459 441.56777 770.645483 443.292738 769.995161 445.050671 769.342748 446.840384 768.688501 448.660693 768.032676 450.510412 767.37553 452.388356 766.717318 454.29334C766.607542 454.613025 766.497732 454.933787 766.387893 455.255601L765.728564 457.198922 765.06881 459.16632 764.408887 461.15661 763.419248 464.182373 762.43067 467.252976 761.772635 469.32298 761.115713 471.409949 760.460159 473.5127C760.13282 474.567651 759.012252 475.157498 757.9573 474.830159 756.902349 474.50282 756.312502 473.382252 756.639841 472.3273L757.314556 470.16331 757.990706 468.015933 759.007061 464.828714 759.685675 462.728261 760.364823 460.648732 761.383985 457.571365 762.063344 455.549534 762.742336 453.552937 763.420704 451.582806 764.098191 449.640372 764.774538 447.726866 765.449489 445.843521 766.122785 443.991566C766.234849 443.685592 766.346834 443.380976 766.458733 443.077746L767.129066 441.275187C767.240604 440.977599 767.352046 440.681447 767.463387 440.386757L768.130176 438.636365C768.241091 438.347625 768.351894 438.060399 768.46258 437.774711L769.125247 436.079257 769.784843 434.421966 770.441111 432.804071C771.09563 431.206285 771.74477 429.669439 772.387374 428.199075Z"/><path fill="#3EC1F3" fill-rule="nonzero" d="M947.69,419.68 C980.02,392.75 1015.89,332.57 1019.5,265.8 C1021.37,231.29 994.32,213.57 973.81,213.57 L966.32,213.57 L900.11,356.27 C900.11,356.27 860.86,358.34 822.33,365.46 L830.09,428.36 C857.9,433.87 919.96,442.79 947.69,419.68 Z"/><path fill="#4756DF" fill-rule="nonzero" d="M926.60581 294.618149C927.070751 293.616199 928.259901 293.180868 929.261851 293.64581 930.216089 294.088611 930.656387 295.188291 930.294522 296.15754L930.23419 296.301851 902.94419 355.111851C902.479249 356.113801 901.290099 356.549132 900.288149 356.08419 899.333911 355.641389 898.893613 354.541709 899.255478 353.57246L899.31581 353.428149 926.60581 294.618149ZM999.050171 342.845762C999.483294 341.829652 1000.65813 341.357048 1001.67424 341.790171 1002.69035 342.223294 1003.16295 343.398129 1002.72983 344.414238 1000.13844 350.493649 997.280768 356.499055 994.182225 362.406941 989.081002 372.16 983.301056 381.542723 976.885052 390.48585 976.241171 391.383341 974.991642 391.588933 974.09415 390.945052 973.196659 390.301171 972.991067 389.051642 973.634948 388.15415 979.941771 379.363208 985.62336 370.14015 990.638822 360.551061 993.689495 354.734444 996.501293 348.82545 999.050171 342.845762Z"/><path fill="#4756DF" fill-rule="nonzero" d="M923.289045,353.138211 C923.321619,354.19207 922.532817,355.080667 921.50081,355.188951 L921.258003,355.202016 L918.209921,355.311446 L917.127144,355.354553 C913.956029,355.483732 910.785346,355.637819 907.828927,355.816356 L906.386286,355.906654 L905.007609,355.999564 C904.783353,356.015265 904.561908,356.031073 904.343346,356.046988 L903.067151,356.143756 L901.587348,356.264006 L897.624889,356.559478 L889.045777,357.165542 L886.105731,357.384969 L883.259058,357.608719 C881.382022,357.760345 879.536104,357.917904 877.659043,358.087504 L875.050412,358.329131 L872.648493,358.562254 L870.226057,358.807753 L867.780677,359.066111 L865.309928,359.337816 C864.895888,359.384239 864.48069,359.431239 864.064283,359.478825 L861.550934,359.77146 L859.006153,360.078655 C858.152385,360.183535 857.292973,360.290922 856.427514,360.400898 L853.812593,360.738673 L851.158963,361.092467 L848.4642,361.462765 L845.725877,361.850054 L842.94157,362.254819 C842.005534,362.392707 841.06143,362.533589 840.108853,362.677546 C839.016685,362.842598 837.997507,362.091022 837.832454,360.998853 C837.667402,359.906685 838.418978,358.887507 839.511147,358.722454 L840.941943,358.507579 L843.766602,358.091478 L846.544037,357.69317 C847.003142,357.628241 847.46038,357.564033 847.915803,357.500536 L850.626949,357.128004 C851.075309,357.067311 851.521955,357.007308 851.966936,356.947985 L854.617251,356.600137 C855.055776,356.543496 855.492738,356.487516 855.928186,356.432186 L858.523128,356.107926 L861.084187,355.798784 C861.508341,355.748493 861.931185,355.698812 862.352768,355.64973 L864.867549,355.362353 C865.701038,355.268905 866.52989,355.177773 867.35451,355.088878 L869.816077,354.828818 L872.254676,354.581688 C872.65933,354.54155 873.063128,354.501931 873.46612,354.462819 L875.874814,354.234171 C876.829457,354.145578 877.772269,354.060406 878.711055,353.977888 L881.523142,353.737529 C881.992412,353.69854 882.462628,353.660024 882.934764,353.621884 L885.798438,353.396789 L893.038871,352.872468 L898.88211,352.459278 L900.820563,352.312232 L902.748952,352.156435 L904.048595,352.057863 L905.416111,351.962084 L907.587808,351.82363 C908.867327,351.74636 910.185448,351.673681 911.525592,351.605604 L914.230334,351.475589 L916.964335,351.357868 L921.228211,351.200955 C922.332254,351.16683 923.25492,352.034169 923.289045,353.138211 Z"/><circle cx="853.03" cy="409.89" r="7.93" fill="#30242A" fill-rule="nonzero"/><path fill="#30242A" fill-rule="nonzero" d="M816.036459 425.636187 816.795938 425.099963 818.158294 425.453017 819.645371 425.818862 820.827452 426.100366 822.611987 426.513309 824.027598 426.831815 825.497478 427.154639 827.02031 427.481085 828.594779 427.810457 830.219569 428.142058C830.494487 428.197472 830.771448 428.25295 831.050423 428.308478 832.133742 428.524102 832.837147 429.577104 832.621522 430.660423 832.405898 431.743742 831.352896 432.447147 830.269577 432.231522L829.428563 432.063067 827.783619 431.727346 825.411364 431.228046 823.895206 430.899049 821.722251 430.413101 820.343041 430.095182 818.334787 429.617043 817.586 429.432 817.433163 429.539945C809.517644 435.013687 800.939831 439.461442 791.905106 442.776715L791.738 442.836 791.338156 443.86329 791.001053 444.701351 790.635706 445.587562C790.572482 445.739112 790.508098 445.892546 790.442559 446.047802 790.012991 447.065419 788.839816 447.542127 787.822198 447.112559 786.804581 446.682991 786.327873 445.509816 786.757441 444.492198L787.123084 443.615839 787.4612 442.78569 787.771377 442.004751 788.307611 440.59427 788.627472 439.703228 789.519378 439.385785C798.606783 436.151435 807.226989 431.734471 815.158075 426.249964L816.036459 425.636187ZM718.6838 419.481432C719.38441 418.627489 720.644625 418.503189 721.498568 419.2038 722.352511 419.90441 722.476811 421.164625 721.7762 422.018568 719.807918 424.41762 717.876112 426.839833 715.960307 429.311176 712.14971 434.063264 708.592454 439.013065 705.303366 444.139943 704.70693 445.069641 703.469754 445.339803 702.540057 444.743366 701.610359 444.14693 701.340197 442.909754 701.936634 441.980057 705.301682 436.734774 708.941092 431.67066 712.819222 426.83479 714.737222 424.360167 716.692082 421.909047 718.6838 419.481432Z"/></g></svg>